<?xml version="1.0" standalone="no"?>
<!DOCTYPE svg PUBLIC "-//W3C//DTD SVG 1.1//EN" "http://www.w3.org/Graphics/SVG/1.1/DTD/svg11.dtd" >
<svg xmlns="http://www.w3.org/2000/svg" xmlns:xlink="http://www.w3.org/1999/xlink" version="1.1">
<metadata></metadata>
<defs>
<font id="lemon_tuesdayregular" horiz-adv-x="1069" >
<font-face units-per-em="2048" ascent="1638" descent="-410" />
<missing-glyph horiz-adv-x="552" />
<glyph horiz-adv-x="0" />
<glyph horiz-adv-x="0" />
<glyph horiz-adv-x="682" />
<glyph unicode="&#xd;" horiz-adv-x="0" />
<glyph unicode=" "  horiz-adv-x="552" />
<glyph unicode="&#x09;" horiz-adv-x="552" />
<glyph unicode="&#xa0;" horiz-adv-x="552" />
<glyph unicode="!" horiz-adv-x="630" d="M227 319q0 22 -3 71t-3 73q0 16 1 43.5t1 40.5q0 33 -2 99t-2 99q0 1 1 4.5t1 4.5q7 25 11.5 55.5t6 52t4 57.5t3.5 54q2 22 10 74.5t8 78.5q0 6 -2 21t-2 24q4 23 4 65t2 73t10.5 63t32.5 49t64 17q21 0 37 -20.5t16 -45.5q0 -35 -11.5 -98t-11.5 -94q0 -7 2.5 -22 t2.5 -23q0 -7 -5 -27q-20 -50 -20 -184q0 -8 4 -25t4 -25q0 -9 -1 -27.5t-1 -27.5q2 -29 2 -84q0 -26 -3 -76t-3 -73q0 -9 1 -26t1 -25q0 -12 -5 -33t-5 -31q0 -15 8 -44t8 -46q0 -35 -28 -41q-22 -5 -56.5 -26t-42.5 -21q-13 0 -39 26zM410 70q-4 -26 -9.5 -43.5t-21 -32 t-39.5 -14.5q-25 4 -53 15t-55 38.5t-27 64.5q0 14 8 25q37 37 53 45t56 8q45 0 60.5 -22.5t27.5 -83.5z" />
<glyph unicode="&#x22;" horiz-adv-x="745" d="M201 1092q0 3 -1 9t-1 9q0 32 13 81t13 66q0 6 -30.5 62t-30.5 88q0 11 7 19t19 8q89 0 147 -40.5t58 -115.5q0 -22 -17 -62.5t-34 -60.5q-1 -1 -21 -33t-46.5 -56t-55.5 -24q-12 0 -16 12t-4 38zM518 1174q0 23 13.5 81t13.5 84q0 14 -1 39.5t-1 32.5q1 15 13 26t26 11 q50 0 86.5 -42.5t36.5 -84.5q0 -33 -7 -70t-22.5 -78t-49 -67.5t-79.5 -26.5q-11 0 -17 6t-8.5 20.5t-3 24t-0.5 31.5v3v3v3.5v3.5z" />
<glyph unicode="#" horiz-adv-x="1165" d="M483 1233q13 10 35 10q49 0 49 -33q0 -26 -6 -59.5t-16.5 -75.5t-14.5 -61q-2 -12 -10 -38t-13 -51.5t-5 -52.5q0 -16 35 -22q9 0 27.5 1t27.5 1q10 0 42 -10.5t54 -10.5q71 0 84 121q1 16 12 53.5t11 57.5q0 4 -2 10.5t-2 9.5q0 26 18 89t31 63q83 0 90 -43 q0 -78 -12 -113q0 -21 -13.5 -56t-13.5 -54q0 -21 -15.5 -56t-15.5 -47q0 -21 31.5 -28.5t70 -7t70 -11t31.5 -39.5q0 -18 -23 -37.5t-47 -19.5q-49 0 -116 12q-2 -1 -20.5 -6.5t-28 -9t-19.5 -12.5t-10 -21t-7.5 -37t-7.5 -33q0 -22 20 -32.5t44 -10.5q11 0 34 5.5t36 5.5 q100 0 100 -49q0 -24 -26.5 -44t-61.5 -20q-5 0 -14.5 5t-14.5 5q-10 0 -31.5 -6t-33.5 -6q-4 0 -12 1t-11 1q-25 0 -54.5 -21t-29.5 -47q0 -38 -24.5 -121t-24.5 -132q0 -8 3 -28.5t3 -29.5q0 -29 -11 -45t-30 -16q-24 0 -34.5 8t-10.5 29q3 20 19 87t16 107q0 13 13.5 64 t13.5 98q0 45 -27 45q-21 0 -68.5 -12.5t-64.5 -12.5q-6 0 -20 3.5t-21 3.5q-30 0 -52 -15t-22 -51q0 -31 -11 -68t-11 -47v-28q0 -20 -14.5 -31.5t-63.5 -22.5q-1 1 -6.5 4t-7.5 4.5t-6.5 4.5t-6 5.5t-4 6t-3.5 7t-1 7.5q3 14 11 43.5t12 52t4 44.5v9v10.5t-0.5 10.5 t-2 10.5t-3.5 8t-6 6.5t-9 2q-6 0 -17 -2t-16 -2q-123 0 -123 98q0 23 11 38t32 15q15 0 31 -16t33 -16q44 0 69.5 6.5t41 28t21.5 47t13 77.5q0 7 -6 14t-12 7q-7 0 -21 -6t-20 -6q-58 0 -120 48.5t-62 110.5q0 16 8 34t20 18q3 0 13 -5q89 -61 217 -61q13 0 34 71.5 t46.5 179.5t31.5 130zM410 610q25 -53 61 -53q9 0 28.5 2t28.5 2q7 0 21.5 -1t21.5 -1q78 0 113 29t35 94q0 12 -5.5 37.5t-15.5 25.5q-4 0 -11.5 -7t-10.5 -7q-5 0 -15.5 8.5t-15.5 8.5q-9 0 -26.5 -4.5t-26.5 -4.5q-15 0 -21 2q-8 -5 -42 -8.5t-60.5 -12.5t-26.5 -28 q0 -84 -34 -84q6 -3 6 -6q0 -2 -2 -4q-6 0 -6 6q0 2 4 6z" />
<glyph unicode="$" horiz-adv-x="1044" d="M164 797q-12 7 -55 24q-7 40 -7 68q0 103 74 166q12 4 12 22q8 45 28.5 83t56 71.5t62 53.5t75.5 52q35 22 43 64q6 95 26 264q55 12 86 12q37 0 54.5 -17.5t17.5 -57.5q0 -20 -8 -79.5t-8 -88.5q0 -62 28 -104.5t99 -67.5q16 -4 35.5 -49.5t19.5 -63.5q0 -22 -17 -35.5 t-32 -13.5q-18 0 -51 26t-41 29q-28 -2 -43.5 -17t-18.5 -32.5t-7 -41.5t-11 -36t-12.5 -29t-8 -36t-4.5 -33.5t-3 -30.5t-1 -18q0 -41 21 -64t69 -37q361 -110 361 -331q0 -33 -7 -51.5t-34 -35.5q-25 -16 -25 -110q-38 -19 -131 -68q2 -8 2 -22q0 -39 -54 -87t-89 -48 q-23 0 -45 22q-52 -49 -52 -115q-2 -25 10.5 -87t12.5 -93q0 -19 -18.5 -31t-34.5 -12t-46 9.5t-44 9.5q-39 0 -43 59q-4 42 -13.5 126t-13.5 126q-15 2 -33.5 10t-23.5 8q-10 0 -29.5 -5t-28.5 -5q-34 0 -98 65.5t-64 106.5q0 43 39 43q23 0 59.5 -19t87.5 -52.5t66 -42.5 l11.5 11.5l12 12t10.5 11t10.5 12.5t8.5 12t8.5 13.5t5.5 13t4 15t1 15.5q0 26 -14 51q16 16 16 35q0 11 -7 34t-7 36q0 12 2 31.5t2 29.5q0 13 -1 37t-1 35q-14 2 -45.5 5t-52 7.5t-35.5 14.5q-37 25 -85 74t-48 75q0 9 6.5 33.5t7.5 32.5zM590 573q0 -8 -1 -25t-1 -24 q0 -12 3 -36.5t3 -38.5t-8 -39t-8 -37q0 -46 11.5 -85.5t31.5 -39.5q11 0 28 10q66 40 109 100.5t43 130.5q0 39 -35 69t-86 30q-24 0 -90 -15zM303 815q38 -29 74 -29q25 0 32 27t7 96v105q-31 -18 -52 -40t-33 -51t-17 -51t-11 -57zM692 86q1 4 2 11.5t2 11.5h-75 q0 -8 4.5 -12.5t13 -6.5t16.5 -2.5t20 -1t17 -0.5z" />
<glyph unicode="%" horiz-adv-x="997" d="M295 920q-72 0 -95 9q-44 17 -44 70q0 34 17 97q31 118 97 143q11 5 45.5 40.5t57.5 47.5l13 -3q14 -4 31.5 -9.5t39 -14t39 -18.5t29.5 -23.5t12 -27.5q0 -53 -80.5 -149t-161.5 -162zM358 1221q-8 -13 -27 -40t-27.5 -41t-20 -36t-17 -43t-6.5 -45q0 -8 16 -8 q33 8 103 74.5t70 111.5t-29 45q-8 0 -62 -18zM723 621q13 0 36 2t34 2q23 0 39 -7.5t23.5 -16.5t11.5 -27.5t4.5 -29t0.5 -32.5q0 -38 -21 -110t-56 -93q-15 -9 -31.5 -35.5t-34.5 -45.5t-41 -19q-43 0 -104.5 22.5t-61.5 57.5q0 36 22.5 80t50 76.5t54.5 66.5t33 49 q4 9 10 18t16 21.5t15 20.5zM772 522v-2q-2 8 -10 15q-28 0 -93 -82t-65 -117q0 -18 8 -35.5t25 -17.5q45 2 90 75t45 164zM518 811l-2 6q22 -8 28 -12t21 -21q-11 -8 -20 -12.5t-19 -7t-15 -3t-17.5 -1t-18.5 -0.5q-10 0 -19.5 10t-9.5 21q4 41 31 53q-10 -30 -10 -37 q0 -10 8 -10q6 0 9.5 3.5t6.5 11.5t3 9q0 7 -8.5 13t-10.5 10q14 60 57 112q22 27 51 80t52 78q-2 -2 10.5 28.5t36 75.5t47.5 76q13 17 32.5 58.5t35.5 70.5t26 29q28 0 60 -18t32 -43q-1 0 -20.5 -36t-41.5 -74.5t-30 -41.5q-20 -10 -38 -42.5t-33 -43.5 q-6 -4 -13.5 -16.5t-9.5 -14.5q0 -23 -20.5 -49t-45 -45t-45 -42.5t-20.5 -43.5q0 -4 4 -11t4 -11q0 -7 -5 -14t-13 -7q-20 4 -21 4q-7 0 -18 -16h4q-10 0 -10 -8q0 -6 10 -9l-4 2q-15 -43 -29 -53l-6 -4zM166 268l-6 -4q5 7 20 33.5t30.5 47t33.5 34.5l-2 -2h18l-2 2 q3 -9 18.5 -15t20.5 -12q-3 -7 -16 -39q-4 0 -33 -16.5t-29 -24.5t4 -8q9 0 13 6t4 13.5t4 16t14 11.5l21 4q12 -6 12 -8q-38 -83 -43 -96q-1 -2 -13.5 -13.5t-22 -32t-9.5 -50.5t-23 -68q-2 0 -4.5 1t-3.5 1q-8 0 -21 -8t-20 -8q-3 0 -10 2t-10 2q-8 0 -24.5 -6t-23.5 -6 q-22 0 -22 30t19 65.5t20 55.5q0 3 7.5 8.5t18.5 13.5t15 11l-2 -2q3 2 10 6t10 6q-3 1 -10 3t-10 3h2q0 8 1 13t5.5 9t7.5 5.5t13.5 6.5t17.5 9zM182 225q-1 -2 -4 -5t-4 -5q2 0 6 -1t6 -1q4 0 4 4q0 8 -8 8zM260 395l-16 -16q-21 0 -27 5.5t-6 21.5q1 14 9.5 22t17.5 10 t16.5 7t7.5 14q0 10 2 17.5t8.5 13.5t9 8.5t14.5 9t15 8.5q23 -12 23 -20t-11.5 -18.5t-11.5 -14.5q0 -7 14.5 -9t14.5 -5q0 -13 -12 -23t-25 -10q-3 0 -8.5 2t-7.5 2q-7 0 -12 -4t-10.5 -12.5t-6.5 -10.5zM473 639q-2 -1 -5.5 -4.5t-6.5 -5.5t-6 -2q-26 0 -51.5 -24.5 t-32.5 -24.5q-13 0 -13 10q1 1 6 11l6 12t6 10t8 11t8.5 8t11 8t12.5 5q9 3 22 30.5t21 27.5q9 0 35 -17l2 2q0 -4 1 -10.5t1 -9.5q0 -10 -9 -19l3 -2q-11 11 -19 11q-3 0 -9.5 -5.5t-6.5 -9.5q0 -2 16 -12zM571 874q15 -12 15 -14q0 -4 -2.5 -7t-6 -6t-4.5 -5 q-1 1 -4.5 5.5t-3.5 6.5q1 4 3 11.5t3 11.5v-3zM455 586l-4 -2l-7 2q5 6 7 6q4 0 4 -6zM387 520q6 -18 6 -20q0 -8 -6 -8t-6 8q1 3 3.5 10t2.5 10zM635 958q1 -1 3 -1t3 -1q0 -10 -4 -10t-4 6q0 1 1 3t1 3zM494 694l-2 6zM389 520h-2q8 3 27 8v-2q-4 -1 -12.5 -3t-12.5 -3z M414 526v6v-6zM121 209q-2 4 -2 16h2q0 -1 -1 -3t-1 -3q0 -2 1 -5t1 -5z" />
<glyph unicode="&#x26;" horiz-adv-x="1193" d="M332 1341q39 26 128.5 70.5t139.5 44.5q9 0 32.5 -8t33.5 -8q8 0 23 2t22 2q59 0 90 -33q17 -22 26 -22t14 20.5t15 20.5q27 0 42 -39.5t15 -69.5q0 -12 -2 -34t-2 -32q0 -11 2 -34.5t2 -36.5q0 -70 -39 -70q-15 0 -23.5 11t-14.5 26t-16.5 30.5t-38 26.5t-70.5 11 q-55 0 -118.5 -21t-120.5 -58t-94.5 -94.5t-37.5 -123.5q0 -23 11 -43.5t32 -20.5q6 0 24 8t43 20t39 17h-2q0 -2 19.5 -13t49 -28.5t59.5 -39t54.5 -48t30.5 -51.5q0 -25 -57.5 -55.5t-93.5 -30.5q-43 0 -79 -18t-62 -38.5t-39 -23.5q-44 -10 -94 -89t-50 -124 q0 -33 21 -84q34 -79 53.5 -104.5t81.5 -63.5q89 -59 154 -59q48 0 105 24.5t108 65.5t85.5 104.5t34.5 132.5q0 79 -12 98q-9 10 -20 11q-13 0 -15 -4q-34 -66 -90.5 -118t-114.5 -52q-37 0 -76 25t-42 61q0 6 6 10t12 4q3 0 10.5 -1t10.5 -1q47 0 96 53q42 44 78.5 96.5 t60 94.5t67.5 124.5t81 145.5q26 43 102.5 97.5t132.5 54.5q59 0 59 -33q0 -35 -26 -47q-67 -27 -125.5 -81.5t-81.5 -131.5q-3 -10 -16 -29t-13 -32q0 -17 -17 -46t-17 -47q0 -12 8 -20q49 -49 61 -84t12 -107q0 -20 -24 -70t-29 -71q-9 -33 -45 -86t-43 -65 q-27 -50 -133 -108t-190 -58q-60 0 -136 20t-123 57q-30 26 -61 31q-4 0 -17.5 20.5t-31.5 49t-29 41.5q-5 5 -22 37.5t-35.5 84.5t-18.5 91q0 10 11.5 27.5t11.5 29.5q0 9 -4 26t-4 25q0 11 11 24.5t11 18.5q0 3 -1 9t-1 8q0 13 35.5 75t48.5 62q22 3 42 41.5t20 58.5 q0 7 -4 19q-58 116 -58 215q0 22 1.5 41.5t6 37.5l7.5 30t11 29.5t11.5 24.5t13.5 26t13 24q12 25 35 43t38 33t15 38z" />
<glyph unicode="'" horiz-adv-x="393" d="M166 1174q0 23 13.5 81t13.5 84q0 14 -1.5 39.5t-1.5 32.5q1 15 13 26t26 11q50 0 86.5 -42.5t36.5 -84.5q0 -26 -3.5 -54t-14 -63t-27 -61.5t-46 -45t-66.5 -18.5q-11 0 -17 6t-8.5 20.5t-3 24t-0.5 31.5v3v3v3.5v3.5z" />
<glyph unicode="(" horiz-adv-x="827" d="M754 -526q-74 6 -123 24.5t-86 57.5q-16 17 -50 47t-59 56.5t-41 53.5q-73 121 -96 172q-6 12 -17.5 44.5t-24 51.5t-34.5 31q-10 10 -10 31q0 31 -21.5 93.5t-21.5 94.5q0 51 41 95q-47 26 -47 80q0 193 57 452q2 4 2 19q2 26 34 66.5t34 70.5q1 18 8 39t13 32 t22.5 38.5t19.5 33.5q71 126 223.5 287.5t213.5 161.5q57 0 200 -101q-1 -26 -10.5 -40.5t-20.5 -18.5t-30 -6q-100 -16 -180 -109q-19 -22 -102.5 -99.5t-108.5 -123.5q-4 -8 -54 -88.5t-65 -126.5q-11 -32 -39 -95t-43.5 -114.5t-15.5 -103.5q0 -37 -10.5 -112t-10.5 -112 q0 -35 2 -53q27 -204 91.5 -370t187.5 -298q22 -25 74 -67.5t98 -93.5z" />
<glyph unicode=")" horiz-adv-x="761" d="M70 1614q25 10 63 10q39 0 82 -16q248 -92 346 -318q2 -7 7.5 -20t9 -21t6 -19.5t2.5 -21.5q0 -12 -11.5 -35t-11.5 -38q0 -19 6 -31q29 -65 29 -137q0 -36 -12.5 -109t-12.5 -110q0 -44 -15 -89t-15 -67q0 -14 1 -45t1 -47q0 -101 -56 -146q-28 -23 -43.5 -111 t-27.5 -114q-8 -16 -20 -34.5t-21.5 -31t-26 -33t-24.5 -30.5q18 -21 18 -41q0 -12 -9 -23.5t-26 -15.5q-30 -9 -51.5 -46.5t-33 -80t-33 -94.5t-48.5 -82q-19 -21 -46.5 -68t-53 -70.5t-63.5 -23.5q-39 0 -70 27t-74 94q174 79 211 197q5 17 14.5 36.5t17 32.5t23 36.5 t21.5 33.5q-12 27 -12 53q0 79 96 148q-17 23 -17 47q0 26 30.5 68.5t35.5 60.5q7 24 21 46.5t36 51.5t31 43q-29 37 -39 47q8 25 29.5 77t33 91t11.5 72q0 17 -4 52t-4 54q0 29 2 90.5t2 92.5q0 166 -59.5 299.5t-180.5 214.5q-31 21 -46.5 41t-18.5 53zM467 537 q-21 6 -35 6q-8 0 -14.5 -7.5t-9.5 -9.5l8 -12q20 7 51 23z" />
<glyph unicode="*" horiz-adv-x="610" d="M252 1010q0 14 -2 30q-6 6 -12 9q-5 0 -7 -2l-19 -19q-18 -20 -39 -36.5t-34 -16.5q-3 0 -6.5 5.5t-3.5 10.5q5 34 67 121.5t62 116.5q0 14 -21 33.5t-46.5 37t-46.5 39.5t-21 39q0 2 5.5 5t8.5 3q22 -4 29 -8q1 0 13 -9.5t26.5 -20t31.5 -19t27 -8.5q14 0 19 41t12 82 t24 41q16 0 30 -9t23 -22t15.5 -26t10.5 -22l3 -9q16 0 32 21.5t28 21.5q20 0 44.5 -23t24.5 -43q0 -17 -30.5 -43.5t-61 -51t-30.5 -38.5q0 -6 4 -10q13 -9 43 -26.5t48 -29t37.5 -31t28.5 -40.5q0 -21 -18 -21q-23 0 -73.5 35t-69.5 35q-6 0 -13.5 -4.5t-9.5 -9.5 q0 -9 -11 -65t-35 -119.5t-50 -63.5q-23 0 -30 18t-7 54v47z" />
<glyph unicode="+" horiz-adv-x="985" d="M164 649q37 23 51 23q24 0 75 -15.5t77 -15.5q41 0 41 164q0 27 -7 67q0 15 27 15q62 0 91.5 -43t29.5 -135q0 -35 12 -44.5t51 -9.5q32 0 67 10.5t54 10.5q16 0 52 -21.5t36 -40.5q0 -11 -15.5 -18.5t-35.5 -7.5q-48 0 -73.5 -1t-57 -4t-46.5 -10t-32 -19t-24.5 -31 t-13 -45.5t-7.5 -63.5q-1 -17 -1.5 -39t-1 -32.5t-2 -24.5t-4.5 -20.5t-8 -14.5t-13.5 -12t-20.5 -8t-29 -7q-32 0 -47 13.5t-16 47.5q0 10 1 31t1 33q0 8 -3 24.5t-3 24.5t5 23t5 22q0 78 -45 78q-4 0 -12.5 -1t-12.5 -1q-50 0 -94 25.5t-51 72.5z" />
<glyph unicode="," horiz-adv-x="497" d="M176 -170q-11 11 -13.5 16.5t-2.5 18.5q0 27 3.5 74t4.5 63l-15 22.5t-13 20t-8.5 16.5t-6.5 18.5t-2 18.5q0 25 9.5 51.5t27.5 26.5q57 0 105 -42.5t48 -92.5q0 -97 -137 -211z" />
<glyph unicode="-" horiz-adv-x="864" d="M649 549q-34 12 -67 12q-12 0 -38 -4t-38 -4t-34 2t-34 2q-18 0 -48 -9t-38 -9q-3 0 -8.5 1t-7.5 1q-8 0 -24.5 -8.5t-24.5 -8.5q-34 0 -78.5 53.5t-44.5 102.5q0 29 20 29q11 0 29 -14.5t31 -14.5q29 -2 86 -2q41 0 127.5 2t132.5 2q36 0 73 -29t37 -61q0 -17 -14.5 -31 t-28.5 -14q-2 0 -4.5 1t-3.5 1z" />
<glyph unicode="." horiz-adv-x="485" d="M123 96q0 2 2 18t4.5 25t14 18t30.5 9q47 0 87 -26t40 -72q0 -34 -27.5 -66.5t-60.5 -32.5q-44 0 -67 39t-23 88z" />
<glyph unicode="/" horiz-adv-x="780" d="M780 1235q-8 -17 -21 -50t-21 -52t-23 -40t-33 -32q-3 -61 -49.5 -147t-69.5 -109q-29 -31 -61 -94.5t-49 -85.5q-6 -6 -20.5 -48t-33.5 -61q-9 -24 -33 -57.5t-43.5 -57.5t-19.5 -30q0 -3 2 -9.5t2 -9.5q0 -23 -17.5 -44.5t-39.5 -33.5l-6 -10q-5 -9 -14 -24.5 t-18 -32.5t-15.5 -34t-6.5 -26q-2 -11 -41.5 -52.5t-66.5 -49.5q-26 10 -54 31.5t-28 40.5q0 41 16.5 79.5t43.5 82.5t38 71q25 63 47 103q7 13 28.5 35.5t21.5 29.5q0 27 22.5 67.5t61 96.5t55.5 86q22 39 86.5 130.5t97.5 158.5q65 105 119 196q8 14 17.5 45.5t20 50.5 t25.5 19q72 0 80 -133zM365 492l-3 4q-6 0 -6 -9q2 -2 4 -2q5 0 5 7z" />
<glyph unicode="0" horiz-adv-x="1013" d="M305 477q0 -16 -3 -43t-3 -41q0 -20 23 -120.5t40 -100.5q6 0 14 9t9 9t4 -6q6 -28 43 -46.5t72 -18.5q46 0 87.5 31.5t70.5 78t54 107.5t39.5 111.5t24.5 99.5q3 2 8 4t8.5 3.5t6 5t2.5 7.5q-4 36 -21 56l2 -5q29 23 29 54q0 10 -4 30t-4 29q0 13 2 41t2 43 q0 47 -19.5 133t-19.5 137q0 2 4.5 4.5t7.5 2.5q19 -6 34 -58t34 -63q11 -5 18 -46.5t7 -70.5q0 -26 7 -74t7 -73q0 -18 -11 -56t-12 -43l2 2q-22 -28 -22 -61q0 -7 3 -23t3 -24t-4 -24t-4 -23q0 -20 6 -35q-4 -5 -12.5 -11.5t-12.5 -12t-4 -13.5q-1 -28 -15.5 -63 t-40 -81.5t-34.5 -66.5q-6 -16 -25.5 -33t-21.5 -24q-3 -18 -26.5 -35t-28.5 -27q-5 -8 -59 -30.5t-72 -22.5q-14 0 -30.5 2t-37 5.5t-31.5 4.5q-5 1 -11.5 8.5t-12.5 8.5q-3 0 -38.5 25.5t-71.5 61t-36 54.5q0 2 1 5.5t1 4.5q0 2 -22 66t-44 151t-22 144q0 36 11 61 q-1 16 -17 28t-16 19q2 6 2 19q0 5 -1 14t-1 14q0 6 10 21t10 24q0 7 -4 21.5t-4 21.5q0 4 2 14t2 15q0 6 -4 19.5t-4 19.5q0 14 8 39t8 37q0 25 4 46.5t13.5 54t11.5 40.5q3 12 12 49t14 55t16 48.5t21.5 47.5t26.5 32.5t35 21.5q13 2 31.5 20t40 35t43.5 17 q7 0 12.5 -14.5t7.5 -14.5t11.5 11.5t21.5 11.5q21 0 63.5 -7.5t61.5 -7.5q3 0 8 1t8 1q10 0 21 -10t18 -10q24 0 53 -20t29 -42q0 -16 23.5 -67.5t23.5 -75.5q0 -21 -4 -25q-5 0 -34.5 27.5t-39.5 44.5q-25 41 -71 75t-113 34q-42 0 -80 -29.5t-62 -73.5t-38 -91.5 t-14 -86.5q0 -4 1 -12.5t1 -12.5q0 -9 -14.5 -48.5t-16.5 -59.5q-2 -19 -14.5 -73t-12.5 -79q0 -20 8 -59.5t9 -52.5q-15 -25 -15 -88q0 -31 6.5 -43t30.5 -21zM236 418v6l-3 -4q2 -1 5.5 -3t5.5 -3q-4 0 -8 4zM219 512q2 18 2 47q0 4 -8 8q-4 -4 -4 -14q0 -31 10 -41z M854 868q-6 23 -12 23q-8 0 -8 -6q0 -17 16 -25zM201 897q-8 0 -8 -8q0 -5 6 -17q6 12 6 13q0 4 -4 12zM258 856v-4q0 -2 4 -2v4q0 2 -4 2zM221 774h-6q0 -6 2 -6q4 0 4 6zM868 608q23 -3 23 -10q0 -13 -17 -20q-3 4 -4 9t-1 11.5t-1 9.5zM774 1278q2 -2 6 -5.5t6 -5.5 t3.5 -5t1.5 -7q0 -8 -5 -8q-4 0 -5.5 5t-3 13t-3.5 13zM844 1034l2 6l2 -8zM799 1159l-2 6zM371 242l-2 -4zM784 623l2 -5v7q2 0 2 -4q0 2 -4 2zM778 1276l-4 2q3 -4 1 -6h1q-1 0 -2 1t-2 1q2 2 6 2zM236 418l8 -4q-4 0 -8 4z" />
<glyph unicode="1" horiz-adv-x="831" d="M614 864q-8 -16 -8 -28q0 -6 2.5 -16.5t3.5 -14.5q-6 -6 -16.5 -15t-14 -13t-7 -11.5t-3.5 -17.5q0 -11 2 -17l2 2q-40 0 -40 -14q0 -12 5.5 -18t18 -10t16.5 -7l-2 2q2 -4 2 -16q0 -20 -19 -35t-19 -25q0 -24 16 -24q3 0 10.5 1t9.5 1q13 0 13 -13q0 -41 -8 -57 q-8 17 -13 17q-8 0 -8 -9q0 -5 6 -8q3 0 8.5 1t8.5 1q-8 -11 -24.5 -27t-29 -28t-12.5 -14q0 -4 3.5 -8.5t6.5 -4.5q7 0 10.5 4.5t5.5 15.5t3 13q20 -3 20 -18q0 -4 -1 -13.5t-1 -13.5q0 -15 5.5 -44t6.5 -42q0 -54 -8 -74q0 -2 2 -6t2 -6q0 -17 -14 -31.5t-14 -27.5 q0 -24 16 -82.5t16 -67.5q0 -18 -15 -37t-56 -47q-10 0 -26.5 -11t-26.5 -11q-15 0 -32.5 34t-17.5 47q0 2 8.5 39.5t8.5 61.5q0 8 -7.5 25.5t-7.5 25.5q0 60 27 137q0 3 20.5 7t20.5 16q0 7 -4.5 18.5t-13 28.5t-9.5 20q5 9 14 25t14.5 26t10 23t4.5 25q0 4 -14 28t-14 39 q0 12 5.5 49t12.5 58q9 27 10.5 86t10.5 80q12 26 16 82.5t14 80.5q12 31 19 102.5t22 108.5q0 1 1 4.5t1 4.5q0 12 -8 23t-20 11q-30 0 -60.5 -41.5t-60.5 -93t-53 -65.5q-10 -4 -53 -62t-56 -94q-14 -32 -103 -143t-106 -111q-12 0 -20.5 8t-8.5 19q0 7 5 12 q153 234 278 373q7 9 21.5 30.5t26.5 39t20 20.5q25 23 71 86t78 86q24 17 37.5 44t19 47.5t27.5 38t64 21.5q28 0 42 -8t16.5 -17.5t2.5 -27.5q0 -20 -25 -82t-36 -137q0 -37 -19.5 -87.5t-19.5 -61.5q0 -3 2 -9.5t2 -9.5q0 -6 -11.5 -29.5t-11.5 -39.5l-4 2h2q1 1 6 4.5 t7 3.5q10 0 10 -17q0 -10 -9.5 -26t-9.5 -21q0 -4 4.5 -13.5t4.5 -14.5t-4 -10t-5 -7q-4 1 -10.5 2t-9.5 2l-6 -4q0 -8 4 -8q5 0 14 5t10 5zM483 410l2 2q0 -2 1 -6.5t1 -6.5l2 4q-1 1 -3 3.5t-3 3.5zM526 520l-6 12q-6 0 -10 -4t-4 -8q0 -3 3 -6.5t5 -3.5q9 0 12 10z M573 731q17 -7 17 -35q0 -1 -3 -2.5t-7.5 -3.5t-6.5 -4l2 -2q-8 16 -8 25q0 7 6 22z" />
<glyph unicode="2" horiz-adv-x="794" d="M496 780q-13 -10 -13 -22q0 -6 4.5 -16.5t4.5 -16.5q0 -11 -15 -27.5t-30 -37.5t-15 -44q0 -24 -13 -44.5t-26.5 -33t-13.5 -18.5q0 -12 4 -20t9.5 -11.5t17.5 -9.5q75 -8 125.5 -42.5t113.5 -104.5q10 -11 32.5 -21t37 -22.5t14.5 -34.5q0 -23 -22.5 -40t-51.5 -17 q-32 0 -67 28t-61 61t-58.5 61t-60.5 28q-10 0 -30.5 -8.5t-25.5 -10.5q5 -7 10.5 -13.5t8 -9.5t2.5 -7q0 -5 -14.5 -13t-14.5 -12q0 -6 6 -17.5t6 -17.5q0 -18 -8 -27t-17.5 -9.5t-17.5 -4t-8 -12.5q0 -11 13 -41q-10 -19 -41.5 -54t-36.5 -50q-2 -13 -26 -34t-30 -36 q-4 -33 -54.5 -60.5t-94.5 -27.5q-5 0 -22 11t-39.5 26.5t-34.5 21.5q0 26 -4 72q0 63 20 104q7 10 13.5 36.5t13.5 35.5q0 3 6.5 19t25 45.5t45 58.5t72.5 58.5t101 45.5q23 6 35 12t31.5 24.5t35 57t29.5 99.5q4 21 21.5 65.5t17.5 69.5q0 52 38.5 232.5t38.5 275.5 q0 5 -4 10.5t-8 5.5q-39 0 -90 -104q-4 -6 -6 -49t-15 -79t-45 -36q-42 0 -73 25.5t-31 79.5q0 55 33 102q19 23 20 31q9 32 49 60t49 44q25 43 121 43q83 0 116.5 -44.5t33.5 -149.5q0 -21 -4 -29q-12 -32 -22 -85t-22 -94t-34 -63q2 -25 2 -69q0 -8 -0.5 -14.5t-2.5 -13 t-3.5 -10.5t-5.5 -10.5t-6 -9.5t-8 -9.5t-8.5 -9l-11 -11zM268 266q-6 36 -6 39q0 15 10 35q-1 1 -3 4t-3.5 4.5t-3.5 1.5q-16 0 -22 -4q-183 -115 -183 -299q0 -6 8.5 -12t14.5 -6q32 3 83 73t64 121q1 8 7 14.5t17.5 15t16.5 13.5zM461 715q4 8 4 12q-2 2 -4 2l-8 -6z M289 178q-4 0 -4 -4q0 -1 1 -3t1 -3q4 4 4 6zM555 1012q-1 1 -2 3t-2 3q-4 -4 -6 -4q0 -8 4 -8q6 0 6 6zM494 778l2 2z" />
<glyph unicode="3" horiz-adv-x="825" d="M350 147q6 10 22.5 32.5t24.5 35.5q10 17 49 63.5t52 79.5q7 20 34 61.5t27 53.5q5 26 29 98.5t24 116.5q0 26 -0.5 37.5t-4.5 33.5t-15 32t-29 10q-11 0 -78 -10q-3 -3 -26 -24.5t-38.5 -32t-31.5 -13.5q-28 -6 -75 -92t-68 -164q-23 -18 -56 -41q-40 16 -59.5 52.5 t-19.5 78.5q0 20 8 33q20 43 58 86t74.5 84t53.5 80q4 9 25.5 44t39 70.5t17.5 57.5q0 34 25.5 98.5t31.5 91.5q4 22 19.5 66.5t19.5 72.5q0 6 -5 10.5t-11 4.5q-15 0 -51 -24t-45 -27q-10 -15 -44.5 -43t-43.5 -52l-30 -41q-30 -41 -62.5 -82t-40.5 -41q-14 0 -41 34.5 t-27 56.5q0 27 57 92.5t92 83.5q15 7 41 32t49.5 47.5t65 41t90.5 18.5q55 0 91 -32.5t36 -82.5q0 -33 -13 -70t-36.5 -85t-32.5 -72q-6 -24 -42.5 -71t-39.5 -81q-2 -8 -14 -28t-12 -25q0 -7 11 -12.5t21 -5.5q10 2 33 2q7 0 20 -1t19 -1q9 0 29.5 2t30.5 2q59 0 98 -32.5 t43 -84.5q0 -16 12 -34t12 -29q0 -23 -15.5 -57t-37.5 -48q-4 -2 -4 -8q0 -1 3 -5.5t9 -9.5t11 -8q-2 -12 -22 -31.5t-23 -33.5v6q10 -10 10 -41q0 -9 -1 -17t-3.5 -16t-4.5 -13t-6.5 -12.5t-7 -11t-8 -11t-6.5 -9.5q-9 -13 -14.5 -49t-26.5 -45q-4 -2 -8 -15 q-23 -49 -32 -62.5t-42 -47.5q-8 -8 -8 -14q-84 -136 -107 -136t-48.5 -28.5t-39.5 -28.5q1 0 -3 1t-14.5 4.5t-22.5 8.5t-29.5 14.5t-34.5 20.5q-15 11 -38.5 45t-23.5 47q0 14 12.5 38t30.5 24q10 0 43 -28t39 -28q10 0 37 19.5t45 23.5q2 -2 6 -2q2 0 6.5 1t6.5 1 q4 0 12 -4q-1 1 -3 2q-3 1 -3 2q0 5 4 5l4 -2q0 -3 -2 -5q-23 0 -33 2z" />
<glyph unicode="4" horiz-adv-x="890" d="M631 35q-3 3 -8 9t-7.5 8.5t-5.5 2.5q-8 0 -12 -13t-5.5 -28t-11 -28t-28.5 -13q-10 0 -21.5 1.5t-24.5 3t-20 2.5q-6 9 -6.5 26t-1.5 21l-8.5 25.5t-7.5 31.5q0 8 2 25t2 26q0 8 -3 23.5t-3 23.5t6 23t6 24q0 5 -1 15.5t-1 15.5q0 56 25 102q0 9 -1 27t-1 27q0 28 13 80 t13 77q0 46 -16 99q-27 -2 -51.5 -9.5t-60 -24.5t-44.5 -20q-19 -9 -68.5 -51t-89.5 -57q-34 5 -71 27.5t-37 46.5q0 8 8 24t8 27q0 3 -1 10t-1 10q0 27 29 88.5t29 79.5q0 2 -1 5.5t-1 5.5q3 7 13 26.5t15.5 33.5t5.5 24q0 5 -5 15t-5 15q0 13 13.5 42t13.5 46q0 4 -1 11.5 t-1 11.5q0 14 6 26q12 40 27 120.5t28 119.5q6 18 6 37q0 5 -1 16.5t-1 16.5q0 8 6 13t12 7t16 3.5t13 2.5q66 0 66 -73q0 -32 -30 -105t-30 -90q0 -25 -18 -88t-18 -80q0 -5 5 -18t5 -21q0 -27 -13.5 -93t-13.5 -71q0 -14 1 -21.5t6.5 -15.5t17.5 -8q66 22 225 51 q32 5 49.5 71t22.5 141.5t20.5 137.5t44.5 62q115 0 115 -63q0 -38 -14 -152q0 -16 -12.5 -41t-12.5 -39q0 -6 1 -17t1 -16q0 -145 -35 -223q-20 -45 -20 -82q0 -23 -21.5 -57t-21.5 -51q0 -6 6 -21t6 -20q0 -3 -6 -19.5t-6 -25.5q0 -11 7 -34t7 -36q0 -11 -5 -33t-5 -34 q0 -25 12.5 -50.5t12.5 -42.5q0 -5 -3 -8q-12 -13 -17 -28.5t-7 -38t-4 -33.5zM610 498q-1 -1 -4.5 -2.5t-5 -2.5t-3 -3.5t-1.5 -6.5q0 -10 12 -10q8 0 8 12q0 1 -6 13z" />
<glyph unicode="5" horiz-adv-x="821" d="M174 61q-2 3 -8 9.5t-9.5 10.5t-6.5 9.5t-3 9.5q0 10 24.5 34t35.5 24q8 -7 21.5 -18t47.5 -29.5t58 -18.5q22 0 42.5 8.5t35 21t27 28.5t19.5 28t13 24l6 13q67 85 80 205q0 15 -3 47.5t-3 50.5q0 11 -9 50.5t-24.5 87t-40.5 84t-51 36.5q-49 0 -86.5 -35.5t-44.5 -68.5 q-3 -14 -19 -47t-16 -47q0 -5 6 -15t6 -14q0 -21 -43 -27q-11 0 -19 26.5t-22 26.5q-7 0 -17 -2t-22.5 -5.5t-19.5 -4.5q-12 7 -27.5 27t-19.5 24q2 6 2 17q0 62 33 106q31 45 54 152t35.5 202.5t45 170.5t84.5 75q7 0 21 -1t20 -1q44 0 110 25q9 3 80.5 42.5t100.5 39.5 q5 0 30.5 -11t53.5 -34t28 -47q0 -28 -26 -31q-34 -5 -117 -35.5t-121 -30.5q-4 0 -11 2t-11 2q-45 0 -71.5 -15t-36.5 -42.5t-14 -57t-12 -67.5t-24 -65q2 -6 2 -15q0 -11 -8 -31t-8 -32q0 -29 53 -29q4 0 12.5 1t13.5 1q85 0 164.5 -55.5t79.5 -128.5q0 -5 -2 -15t-2 -14 q0 -15 15.5 -72t15.5 -110q0 -23 -15.5 -61t-15.5 -58q0 -7 5 -23t5 -24q-5 -49 -49.5 -140.5t-99.5 -158.5q-12 -1 -34.5 -20.5t-53 -38.5t-64.5 -19q-11 2 -33.5 4t-39 6.5t-29.5 16.5q-3 3 -28 13t-25 26q0 4 3 17.5t3 23.5q-23 -4 -27 -13zM606 344q-1 0 -4.5 -1 t-5 -1.5t-3 -2.5t-1.5 -5t3.5 -6.5t6.5 -3.5q6 0 11 4t5 8q0 2 -6 5zM172 61q0 1 -4 5q1 -1 3 -2.5t3 -2.5h-2z" />
<glyph unicode="6" horiz-adv-x="909" d="M307 829q0 -40 -25.5 -114t-25.5 -115q0 -13 -14.5 -52.5t-14.5 -62.5q0 -8 4.5 -17t12.5 -9q12 0 26 14.5t21 30.5q18 39 125 39q6 0 18.5 -4t18.5 -4q3 0 10 2t10 2q36 0 97.5 -23t95.5 -63q7 -7 20 -21.5t29 -37t16 -32.5q-1 -21 -2 -64t-2 -65q-15 -22 -38 -70 t-45.5 -83.5t-47.5 -48.5q-10 -5 -50.5 -29.5t-69 -38.5t-42.5 -14q-6 0 -10 2q-31 7 -66.5 12.5t-46 7t-26 10.5t-24 23t-23.5 43q-1 3 -43.5 51t-42.5 66q0 6 10 26q-39 68 -39 97q0 7 1 15t2.5 17.5t2.5 14.5q0 10 -3 27t-3 22q0 6 5 18t5 17q0 10 -15.5 15.5t-15.5 15.5 q0 9 19.5 18t19.5 16q0 4 -2 7t-8.5 9.5t-9.5 10.5q0 27 6 44t12.5 22.5t12.5 11.5t6 14q0 4 -11 10.5t-21.5 18.5t-10.5 31q2 4 13.5 13t12.5 21q1 25 28.5 53.5t27.5 34.5q0 3 -4.5 18.5t-4.5 24.5q0 82 64 140q14 13 50 83t67 101q61 108 209 201q10 7 30.5 22t33.5 24 t32.5 17t38.5 8q31 0 91.5 -52.5t84.5 -98.5q0 -12 -13 -18.5t-26 -6.5q-17 0 -37.5 13.5t-34.5 13.5q-13 0 -34.5 -8.5t-32.5 -8.5q-14 -6 -42.5 -19t-64 -34.5t-35.5 -32.5q-2 -22 -51 -67t-88 -55q6 -12 6 -15l-6 15h8q23 1 33 24q8 -12 8 -18q0 1 -8.5 -11.5t-21 -29 t-21.5 -23.5q-32 -25 -48 -57t-17.5 -54t-14.5 -37.5t-43 -15.5q-6 6 -10 14t-7.5 21.5t-4.5 16.5q2 -2 6 -7.5t6 -7.5l4 4l-6 -2q6 9 6 21q0 8 -4 24q3 7 6 7t7.5 -2.5t6.5 -2.5t2 5q-10 -11 -16 -11q-2 0 -6 4q0 -20 -17.5 -44t-17.5 -40q0 -12 12 -12zM549 319 q-9 9 -30.5 41t-42.5 54t-40 22q-50 0 -107 -67t-57 -121q0 -35 22 -74.5t79 -110.5q4 0 20 -0.5t22 0t17.5 2.5t20 6.5t16.5 12.5q17 17 46.5 59t29.5 64q0 4 -1 13t-1 13q0 15 3 43.5t3 42.5zM229 688q8 1 13.5 21.5t15.5 25.5q0 15 -8 15q-9 0 -17 -8.5t-8 -16.5 q0 -13 4 -37zM377 1018l-6 6q-1 0 -8 -4.5t-9 -7.5t-2 -8q0 -9 4 -9t21 23zM260 786l-4 5l-8 -5q0 -4 6 -4q2 0 6 4zM143 545l-2 6q-2 0 -4 -2q0 -4 2 -6q0 2 4 2z" />
<glyph unicode="7" horiz-adv-x="927" d="M584 522q-7 -14 -9 -22q-3 -6 -14.5 -13.5t-11.5 -23.5q0 -3 1 -10.5t1 -10.5q0 -16 -10.5 -39t-10.5 -32q0 -7 5 -13t12 -6q5 0 17 4.5t14 5.5q12 0 12 -20q0 -14 -24.5 -24t-24.5 -17q0 -20 18.5 -21t18.5 -8q0 -16 -10.5 -25t-22.5 -12t-22.5 -14t-10.5 -31 q0 -45 12 -45q6 0 11.5 4t7.5 8.5t5.5 12.5t4.5 10q8 0 8 -41v-36.5t-2.5 -28.5t-3 -21t-6 -14.5t-6.5 -9.5t-10.5 -5.5t-11 -3t-15 -2t-17.5 -2.5q-14 -24 -28 -24q-24 0 -46 12.5t-22 36.5q0 64 19 135q13 56 26 219q0 21 15.5 53.5t15.5 40.5q0 6 -1 17t-1 16 q0 19 14.5 53.5t14.5 49.5q0 9 -12.5 17.5t-20.5 8.5q-9 0 -34 -11t-38 -11q-59 0 -105 31t-59 85q0 9 8.5 18t20.5 9q8 0 34.5 -9t41.5 -9q22 0 47.5 4t62 13t47.5 11q9 0 34.5 56t25.5 80q0 3 -1 9t-1 9q1 29 12.5 79t13.5 60q7 42 23.5 121.5t19.5 95.5q1 2 1 4.5t1 3.5 q0 31 -30 31q-10 0 -30 -5t-30 -5q-2 0 -5 1t-5 1q-11 -6 -53 -19.5t-64 -13.5t-62 -9t-60 -9q-9 0 -26.5 1t-25.5 1q-166 30 -166 123q0 6 6 11t15 5q24 0 64 -21.5t67 -21.5q30 0 94.5 9t71.5 10q21 5 62 6t61 6q31 8 98 12q17 1 50 15t44 14q20 0 35 -12q12 -9 31 -23 t28 -21t19.5 -17.5t15 -21.5t4.5 -24q0 -30 -43 -111.5t-43 -107.5q0 -31 -24.5 -100.5t-24.5 -102.5q0 -3 1 -9t1 -9q0 -10 -10 -45q0 -25 37 -25q11 0 33 3t34 3q78 0 78 -31q0 -16 -14 -28t-37.5 -18.5t-46.5 -10.5t-50 -7.5t-38 -6.5q-15 -2 -44.5 -34t-29.5 -56 q0 -25 -14 -37t-28.5 -15.5t-14.5 -9.5q0 -9 51 -22q0 -7 -8.5 -14.5t-9.5 -8.5q-3 0 -7 2t-6 2t-2 -2q2 -4 4 -4q5 0 13 4zM487 283q9 0 15 -2q10 0 10 8q0 14 -8 14q-13 0 -15.5 -10t-11.5 -10l4 -2q1 0 3 1t3 1zM678 934q0 1 -1 3t-1 3q-10 -5 -10 -10q2 -2 2 -4q2 1 5 4 t5 4zM578 631q-4 4 -5 4t-3 -1t-3 -1q4 -4 6 -4q1 0 2.5 1t2.5 1zM596 436q-3 -1 -5.5 -6.5t-6.5 -5.5q0 4 2 6t5.5 3.5t4.5 2.5zM598 434l-6 12q0 7 6 7t6 -7q-6 -6 -8 -10z" />
<glyph unicode="8" horiz-adv-x="890" d="M514 889q0 -3 1 -8t1 -7q0 -35 -31 -83q-9 -9 -29 -42.5t-20 -52.5q0 -31 56.5 -63.5t139.5 -65t105 -45.5q22 -12 57 -62.5t35 -80.5q0 -10 -9.5 -39t-10.5 -43q-3 -68 -68 -133q-4 -3 -24 -27t-44.5 -48t-43.5 -34q-12 -6 -57.5 -31t-65.5 -33.5t-57.5 -19t-73.5 -10.5 q-94 0 -177.5 50.5t-134.5 138.5q-20 0 -53 -25t-45 -25t-39.5 11.5t-27.5 27.5q0 -3 30.5 19.5t67.5 62t51 74.5q3 9 20.5 24.5t20.5 28.5q25 25 71 86.5t74 87.5q-1 -1 16 24t35.5 55t18.5 38q-1 2 -29 69.5t-43 77.5q-22 86 -22 115q0 38 20 103t23 94q2 22 18.5 59 t18.5 57q15 16 34 57t39 58q13 11 25 39q13 26 59.5 55t57.5 29q30 0 77.5 -31.5t59.5 -34.5q28 -7 42.5 -37t14.5 -69q0 -22 -22 -33q-61 -172 -70 -231q-24 0 -34.5 -15.5t-10.5 -36t-5 -47.5t-17 -43q-1 0 -6.5 2t-7.5 3.5t-6 3.5t-5.5 5.5t-1.5 8.5q-2 -2 -2 -4z M219 348q-28 -16 -58 -50t-30 -67q0 -8 7 -22.5t9 -20.5q29 -137 228 -137q32 0 102.5 30.5t106.5 70.5q5 7 24.5 16.5t26.5 24.5q11 23 26.5 50t22.5 41t12.5 35.5t5.5 47.5q0 39 -59 77.5t-145 63.5q-21 5 -64.5 33t-62.5 28q-27 0 -47.5 -32t-38.5 -69t-37 -44 q-19 -6 -29 -76zM489 942q27 0 27 8q0 3 -1 11.5t-1 11.5l3 10q39 133 63 145q18 12 18 117q0 80 -49 80q-26 0 -87 -61.5t-61 -98.5q0 -26 -16 -47q-37 -70 -37 -207q0 -110 37 -147q16 0 25 30t20 37q17 11 28 53t31 58z" />
<glyph unicode="9" horiz-adv-x="1009" d="M582 178q16 -19 16 -39q0 -18 -9 -30.5t-20.5 -17t-20.5 -14.5t-9 -24q0 -50 -152 -67q-60 0 -135 104q2 3 7.5 10t8 10t7.5 8t9 7t9.5 4t11.5 2q13 0 34 -10t34 -10q22 0 41 20t36 44.5t31 29.5q49 8 70 180q2 7 16.5 25.5t14.5 33.5q0 17 12 39t12 29q0 2 -1 5t-1 5 q0 17 18.5 43t18.5 39q0 6 -4 17.5t-4 17.5q0 16 19.5 76t19.5 86q0 2 -1 6.5t-1 7.5q0 17 4 23q41 67 41 202q0 7 -6.5 14t-14.5 7q-7 -1 -37.5 -31t-44.5 -39q-32 -22 -93 -89.5t-77 -117.5q-9 -5 -31.5 -18t-35 -19.5t-31.5 -15t-34.5 -12.5t-30.5 -4q-28 4 -48 4 q-79 53 -114 122.5t-35 131.5q0 33 22 82.5t62 89.5q10 10 34.5 40.5t44 48t36.5 19.5q10 1 35 21.5t53.5 44.5t74 43.5t91.5 19.5q28 0 92.5 -34t64.5 -72q0 -6 -5 -12.5t-9 -6.5q-19 0 -53 6.5t-50 6.5q-40 0 -91 -17.5t-103 -51t-96 -76.5t-71.5 -99t-27.5 -113 q0 -86 60 -86q35 0 76.5 24.5t74 54.5t73 60t71.5 38q3 0 10.5 17t11.5 17q24 0 76 56.5t74 70.5q26 16 43.5 53.5t29.5 65t27 27.5q43 0 89 -22t46 -56q0 -37 -20 -104t-37 -80q-7 -46 -43 -130t-68 -116q0 -7 3 -17t3 -12q0 -5 -2.5 -9t-8.5 -8.5t-10 -7t-12.5 -7 t-11.5 -5.5q13 19 13 25q-1 1 -2 3t-2 3q-9 -22 -9 -31q-3 -6 -13 -22.5t-19 -30t-9 -12.5q0 -6 33 -25q-20 -25 -26 -31l2 -10q2 -9 2 -14q0 -13 -6 -19q-23 -23 -32 -33t-18.5 -28t-11.5 -37q7 -7 15 -9.5t8 -8.5q0 -4 -7.5 -12.5t-7.5 -12.5t6.5 -10t6.5 -10 q0 -17 -16.5 -21t-16.5 -10q0 -9 4 -34t4 -30q0 -11 -12.5 -28t-12.5 -19q0 -3 8.5 -16.5t8.5 -17.5q0 -8 -17 -25l2 -2q-9 6 -10 6q-2 0 -8 -6l2 2l-18 -18l2 2q0 -13 -2 -17zM569 254q6 0 9.5 6.5t3.5 13.5t-7 7q-6 0 -10 -5t-4 -10q0 -4 8 -12zM614 211q-2 -20 -32 -33 l2 -2v19l-2 -2l18 18l-2 -2q12 0 16 2z" />
<glyph unicode=":" horiz-adv-x="536" d="M123 96q0 2 2 18t4.5 25t14 18t30.5 9q47 0 87 -26t40 -72q0 -34 -27.5 -66.5t-60.5 -32.5q-44 0 -67 39t-23 88zM174 934q0 2 2 18t4.5 25t14 18t30.5 9q47 0 87 -26.5t40 -72.5q0 -33 -27.5 -65.5t-60.5 -32.5q-44 0 -67 39t-23 88z" />
<glyph unicode=";" horiz-adv-x="546" d="M184 934q1 3 1.5 14t2.5 19t7 17.5t15 14.5t26 5q47 0 86.5 -26.5t39.5 -72.5q0 -33 -27.5 -65.5t-60.5 -32.5q-44 0 -67 39t-23 88zM176 -170q-11 11 -13.5 16.5t-2.5 18.5q0 27 3.5 74t4.5 63l-15 22.5t-13 20t-8.5 16.5t-6.5 18.5t-2 18.5q0 25 9.5 51.5t27.5 26.5 q57 0 105 -42.5t48 -92.5q0 -97 -137 -211z" />
<glyph unicode="&#x3c;" horiz-adv-x="849" d="M633 250q-21 0 -95 41t-114 53q-68 19 -109 35t-79 39.5t-55 56t-17 76.5q0 36 29.5 59.5t81 43t63.5 26.5q13 8 67.5 49t103 70.5t75.5 29.5q14 0 43.5 -28t29.5 -51q0 -19 -20.5 -34.5t-46 -25.5t-52 -26t-36.5 -33q-6 -8 -43 -24.5t-51 -28.5l-9 -3q-9 -3 -20 -7 t-24 -10.5t-24 -13t-18.5 -16t-7.5 -18.5q0 -5 6.5 -10t19.5 -11t22.5 -9.5t26.5 -9.5t19 -7q84 -33 185.5 -89.5t101.5 -88.5q0 -11 -2.5 -17.5t-9 -9.5t-11.5 -4.5t-15 -2t-15 -1.5z" />
<glyph unicode="=" horiz-adv-x="1009" d="M772 385q-35 12 -67 12q-13 0 -59 -4t-58 -4t-34 2t-34 2q-18 0 -89 -9t-79 -9q-3 0 -8.5 1t-7.5 1q-8 0 -24.5 -8.5t-24.5 -8.5q-34 0 -78.5 53.5t-44.5 102.5q27 0 270.5 1t278.5 1q36 0 73 -29t37 -61q0 -17 -14.5 -31t-28.5 -14q-2 0 -4.5 1t-3.5 1zM795 709 q-35 12 -68 12q-13 0 -59 -4t-58 -4t-34 2t-33 2q-18 0 -89 -9.5t-79 -9.5q-3 0 -9 1t-8 1q-8 0 -24.5 -8t-24.5 -8q-36 0 -77.5 39t-41.5 74q0 43 76 43q13 0 48.5 -1t56.5 -1q64 0 193.5 2t170.5 2q36 0 73.5 -29.5t37.5 -60.5q0 -17 -14.5 -31t-28.5 -14q-2 0 -4.5 1 t-3.5 1z" />
<glyph unicode="&#x3e;" horiz-adv-x="823" d="M659 539q0 -33 -33.5 -70t-72.5 -51q-23 -7 -60 -42t-57 -44q-25 -12 -62.5 -47.5t-58.5 -44.5q-9 -4 -39 -30t-53 -26q-17 0 -38 13t-21 32q0 25 10.5 41.5t30.5 34.5t31 35q10 16 64.5 53t76.5 62q12 13 43 36.5t52.5 42t21.5 29.5q0 21 -32.5 36t-79 28.5t-93 32.5 t-79 57t-32.5 92q0 47 23 47q6 0 11.5 -6.5t6.5 -7.5q19 -35 64 -62t112 -55t97 -45q4 -2 29.5 -14t44.5 -23t42.5 -27.5t37 -36.5t13.5 -40z" />
<glyph unicode="?" horiz-adv-x="907" d="M143 1083q5 24 11.5 42.5t17.5 38t18 31t25.5 37t28.5 40.5q48 72 127 119t184 47q51 0 102 -22.5t89 -73t38 -117.5q0 -34 -22.5 -87t-22.5 -83q0 -5 1 -15.5t1 -15.5q0 -45 -22 -70q-16 -19 -26.5 -42.5t-21 -52t-16.5 -42.5q-7 -15 -25 -36.5t-24 -32.5 q-25 -59 -33 -68q-116 -152 -116 -246q0 -18 2 -28q0 -53 -32 -84t-65 -31q-26 0 -45 21.5t-27 54t-11 57t-3 43.5q0 24 9.5 50.5t25.5 59t23 50.5q7 19 21 43.5t25.5 42t31 44.5t26.5 38q51 76 72.5 111t56.5 101.5t49.5 125.5t14.5 122q0 47 -23.5 70t-60.5 23 q-17 0 -27.5 -5.5t-23.5 -16t-29 -17.5q-22 -10 -38 -29t-31.5 -48t-24.5 -40q-13 -17 -35.5 -57.5t-22.5 -61.5q0 -3 1 -9t1 -9q0 -12 -11 -27.5t-21 -15.5q-83 0 -142 71zM721 1083q-9 17 -12 17q-6 0 -9.5 -6t-3.5 -13q0 -12 11 -12t14 14zM385 29q-2 1 -10.5 1.5 t-14.5 2.5q-23 11 -36 39.5t-13 58.5q0 22 11.5 36t34 19.5t38.5 7t41 1.5q20 0 33.5 -16.5t13.5 -37.5q-5 -60 -25 -86t-73 -26z" />
<glyph unicode="@" horiz-adv-x="974" d="M276 236q38 -13 52 -58q7 -3 29.5 -14.5t32.5 -16t28 -11.5t33 -10t30 -3q53 0 133.5 56.5t124.5 123.5q22 22 35 30.5t31 8.5q15 0 31 -5.5t16 -17.5q0 -22 -48.5 -67.5t-70.5 -48.5q-9 -30 -51 -56q-24 -50 -89.5 -89.5t-133.5 -39.5q-46 0 -100 17t-70 49 q-8 16 -59.5 50t-65.5 65q-6 9 -15.5 41.5t-19.5 42.5q-16 16 -27.5 49t-11.5 49q2 8 2 22q0 11 -5 34t-5 34q0 19 12 55.5t12 53.5q0 4 -11 19t-11 30q0 4 2 6q3 8 11 31t11.5 34.5t7 31t3.5 36.5q12 20 20.5 65t46.5 111q43 101 144.5 159t197.5 58q64 0 189 -55 q21 -10 59.5 -62t38.5 -77q0 -5 -2 -14.5t-2 -14.5q0 -12 6 -34t6 -34q0 -11 -6 -26q4 -28 4 -43q0 -21 -4 -61t-4 -60q0 -7 1 -20.5t1 -20.5q0 -11 -4 -23q-10 -18 -15.5 -48.5t-8 -52t-16.5 -38t-42 -16.5q-16 0 -31 12q-35 18 -52.5 32t-24 31t-7.5 34t-7.5 50t-20.5 68 q-20 0 -49.5 -38t-51.5 -92t-22 -95q0 -2 1 -6t1 -6q0 -76 -43 -76q-74 0 -100.5 40.5t-26.5 116.5q0 82 16 150q2 8 11 33.5t25 62.5t37 64.5t40 27.5q6 0 18 -4q138 -55 222 -61q16 0 28 11.5t16.5 21t4.5 12.5q0 1 -17.5 63.5t-17.5 98.5q-26 26 -39 37.5t-35.5 23.5 t-44.5 12q-14 0 -20 -2l-10 -1q-10 -2 -22 -4.5t-28.5 -7t-33 -11.5t-32.5 -16.5t-29.5 -23.5t-21.5 -30q-6 -10 -36 -53.5t-39 -62t-24.5 -68t-24.5 -113.5q-11 -84 -31 -135q-6 -9 -6 -22q0 -129 28 -164q8 -11 12 -36.5t11 -37.5q5 -8 9.5 -18.5t9 -24t8.5 -21.5 q-23 -10 -23 -18q0 -4 7.5 -10t10.5 -6q1 0 4 6.5t3 9.5t-2.5 10.5t-2.5 10.5zM403 637q0 -16 9 -16q5 0 16 11t25 29.5t26 35.5t25 36t16 23q1 1 2 4t2 4q0 4 -3.5 8t-6.5 4q-34 0 -72.5 -51.5t-38.5 -87.5z" />
<glyph unicode="A" d="M180 543q2 22 3.5 56.5t3.5 49.5t9 37.5t21 42.5q10 15 25 92t34 111q3 6 9.5 18t10.5 23t5 22q1 13 15.5 31t15.5 31q6 58 14 73q19 30 40.5 84t40 101t41.5 92.5t56 72.5t74 27h35q123 0 123 -297q0 -47 -4 -65q11 -16 17.5 -43.5t8.5 -49.5t4.5 -58t3.5 -50 q3 -14 9.5 -39.5t10 -46.5t3.5 -41q0 -11 -1 -32t-1 -33q0 -103 78 -222q-7 -19 -25 -65q6 -22 14.5 -71t16.5 -84.5t16 -45.5q11 -15 22.5 -87t20.5 -97q17 -50 17 -129q-6 -5 -33 -21q-8 -6 -30 -27.5t-39 -33.5t-31 -12q-10 0 -23 17t-18 20q-34 19 -48 51t-22 80 q-2 10 -15.5 55.5t-13.5 75.5q0 4 1 12t1 12q0 63 -21.5 172t-56.5 109q-10 0 -26 -4t-37.5 -11.5t-30.5 -9.5q-11 -13 -38 -17t-37 -11q-11 -7 -17 -7q-2 0 -22 5q-1 0 -37 -16.5t-60 -16.5q-34 0 -61 -65.5t-47.5 -152t-32.5 -106.5q-59 -147 -117 -147q-19 0 -37 15 t-18 32q0 6 2 10q49 134 59 191q3 18 35.5 128.5t32.5 161.5q0 13 -9 40.5t-9 41.5q0 19 16 19q5 0 15.5 -1t15.5 -1q6 0 22 4zM420 887q0 -37 -4 -53q-1 -9 -19.5 -45.5t-35.5 -83.5t-17 -87v-5q1 -43 18 -44q42 0 128.5 16t95.5 17q20 9 25 23t5 37q0 48 -21.5 172 t-21.5 186q0 8 2 14v-2q-1 0 -7 26t-14 52.5t-13 26.5q-8 0 -36 -63t-28 -85q0 -65 -57 -102z" />
<glyph unicode="B" horiz-adv-x="1316" d="M408 809q2 -10 2 -31t-14.5 -55t-14.5 -51q0 -7 2 -21t2 -20q0 -13 -4 -40t-4 -40q0 -15 2 -21l-1 -2q-2 -3 -4.5 -7.5t-6 -11.5t-6.5 -15t-5.5 -17t-4 -18.5t-1.5 -18.5q0 -17 3 -50.5t3 -49.5q0 -8 -24 -113q0 -4 1 -11t1 -11q0 -25 -4 -54.5t-14 -63.5t-30.5 -56.5 t-49.5 -22.5q-48 0 -71.5 9t-28 19t-11.5 38q-23 102 -23 293q0 14 15.5 37.5t15.5 41.5q0 3 -1 10.5t-1 10.5q0 7 8 20t8 19q0 7 -15 34t-15 44q0 59 24.5 149.5t28.5 124.5q5 31 22 110.5t26 137t9 104.5q0 13 -14 33.5t-14 28.5q0 23 20 35t47 12t45 -18.5t27.5 -56 t13 -67t6.5 -77.5q-14 -43 -14 -135q0 -31 14 -31q21 0 21 37q0 31 14 49t29.5 31t17.5 32q0 6 -2 19t-2 20q0 14 22 53.5t42 57.5q10 9 13.5 28t10 33t25.5 17q5 3 10 12q25 65 86 102q7 4 38 35t56 31q9 0 11 2q17 29 84 29q15 0 53.5 -14t38.5 -29q0 -3 -1 -10t-1 -9 q0 -13 18 -16q4 -2 8 -9.5t7 -20t6 -24t5.5 -29.5t4 -28.5t3.5 -28t3 -22.5q-1 -16 -13 -44.5t-14 -41.5q-4 -24 -28.5 -55.5t-24.5 -42.5t-17.5 -29.5t-17.5 -36.5q0 -10 -7.5 -16.5t-16 -9t-16 -9t-7.5 -16.5q0 -8 10.5 -14t20.5 -6q6 0 20 4t21 4q63 0 98 -7.5t70 -35.5 q8 -7 29 -32.5t41.5 -42.5t39.5 -17q7 0 53 16t58 16q14 0 26.5 -16.5t12.5 -32.5q0 -23 -9.5 -37t-24.5 -21.5t-33.5 -15.5t-37 -24t-33.5 -41t-24.5 -73.5t-9.5 -115.5q0 -3 1 -10t1 -10q0 -17 -16.5 -47t-16.5 -45q0 -32 -18 -79t-21 -67q-16 -16 -25.5 -33t-19.5 -44.5 t-14 -36.5q-9 -19 -32.5 -52.5t-31.5 -50.5q-6 -12 -55.5 -71t-67.5 -62q-4 0 -20.5 -14.5t-42 -28.5t-53.5 -14q-18 0 -52.5 18t-42.5 21q-37 14 -55 62t-18 102q0 18 6 36q24 80 36.5 117.5t39.5 98.5t59 108q127 186 293 324q6 5 25 15.5t27.5 21t8.5 28.5q0 56 -39 81.5 t-100 25.5q-28 0 -55 -9q-21 -7 -35.5 -12.5t-30.5 -15t-24.5 -14.5t-27 -22.5t-27.5 -26t-37.5 -37.5t-45.5 -46q-3 -3 -16 -19t-21.5 -26t-23.5 -27t-26 -28t-23.5 -22.5t-22 -17t-16.5 -5.5q-28 0 -51 26.5t-25 55.5q0 31 2 45l18 18l21.5 21.5t21 20t24 22t23 19.5 t26 20.5t24.5 16t27 14.5q59 55 86 86q6 8 49.5 52t68.5 77t25 53q0 10 -5 30.5t-5 30.5q0 21 14 35q31 100 31 139q0 38 -6.5 56t-28.5 18q-23 0 -82 -24t-63 -25l2 -2q-1 -2 -4.5 -12.5t-8 -16t-12.5 -6.5q-16 -3 -33.5 -26t-34.5 -23q-14 0 -22 4q0 -7 -0.5 -25.5 t-1.5 -26.5t-3 -22t-6.5 -24.5t-11.5 -20.5q1 2 3.5 6.5t3.5 6.5q0 6 -5 6q-6 0 -6 -2q0 -11 6 -17q-32 -36 -32 -59q0 -3 1 -8.5t1 -8.5q0 -11 -30 -51.5t-50 -62.5q0 1 -1 2t-1 2q0 2 4 6q-1 -2 -2 -5t-2 -5q0 -35 2 -51q0 -3 -1 -9t-1 -8q0 -6 5 -19.5t5 -19.5 q0 -21 -20 -57q0 1 1 4t1 4q0 4 -4 8q-5 -2 -5 -4q1 -2 3.5 -5t3.5 -5zM1022 584q-12 -2 -31 -21q-19 -17 -30 -27t-49 -48.5t-64.5 -71t-64 -85.5t-61.5 -101.5t-43 -110t-22 -119.5q0 -47 27 -47q12 0 23 2t28.5 8t22.5 8q94 83 94 99q0 3 -1 9t-1 9q0 16 15 28.5 t29.5 26.5t14.5 35q0 15 20.5 37t20.5 33q0 5 -18 35q7 17 57.5 101.5t50.5 123.5q0 12 -7.5 35.5t-10.5 40.5zM664 1362q4 0 4 -2q-4 0 -4 2z" />
<glyph unicode="C" horiz-adv-x="843" d="M614 104q-14 -41 -60 -86t-89 -45l-4 2q-14 0 -32.5 -8.5t-25.5 -9.5q-30 23 -61 23q-4 0 -12.5 -1.5t-12.5 -1.5q-9 0 -15.5 0.5t-11 2.5t-7 3t-4.5 6t-2.5 6.5t-1.5 9t-1 9.5q-1 6 -27.5 28.5t-51.5 50t-25 46.5q0 22 -14.5 63.5t-14.5 61.5q0 8 6.5 26t6.5 27 q0 13 -12.5 30.5t-12.5 25.5q0 4 3 12.5t3 13.5t-6 16t-6 19q0 6 4 17t4 16q0 8 -4 31.5t-4 36.5q0 7 1 21.5t1 21.5t-1 22t-1 23q0 19 10.5 36t20.5 47.5t10 81.5q0 12 8 32t8 30q0 26 13.5 64t13.5 57q0 9 -4 29.5t-4 33.5t10 27.5t10 19.5q-2 4 -2 13q0 12 12 25t26 23 t26 32.5t12 52.5l2 5q36 116 104 161q2 1 19.5 47t48.5 87.5t70 41.5q8 -1 25.5 -2t27 -2t24 -3.5t26.5 -7.5t24 -12q18 -11 53.5 -16.5t55.5 -16t20 -39.5q0 -19 -4.5 -41t-9.5 -37t-15 -42.5l-14 -38.5q-2 -35 -19 -86t-41 -56q-39 0 -39 140q0 10 2 27t2 26q0 29 -14 29 q-18 0 -36.5 -12t-38 -37t-30.5 -42t-30 -49.5t-21 -36.5q2 -4 2 -10q0 -7 -9 -22t-22.5 -35.5t-19.5 -30.5q-5 -9 -20.5 -30t-28 -38t-12.5 -18q0 -3 3 -10t3 -10q-2 0 -13 -27.5t-22.5 -75.5t-11.5 -90q0 -53 -16.5 -136.5t-16.5 -117.5q0 -8 1 -23.5t1 -23.5q0 -7 -2 -21 t-2 -20q0 -40 12.5 -114t14.5 -101q4 -49 35 -94t85 -45q32 0 48 14q14 11 44.5 30t53 33t22.5 15q0 3 -2 11t-2 12q0 9 13 22q16 10 38.5 42.5t40.5 59.5t25 27q3 0 6 -1.5t6.5 -5t5.5 -6.5t6 -8t5 -6v2q-17 -30 -17 -43q0 -60 -36 -121.5t-91 -95.5q0 13 -6 13l-2 -4 q6 -3 10 -7zM305 786q0 5 -6 5q0 -5 6 -5zM641 147q0 7 -4 7q-2 0 -4 -2q2 -5 2 -7q1 0 3 1t3 1zM1049 774q0 -14 -8 -26t-21 -13q-15 -1 -21 -15.5t-6 -31t-13.5 -30t-41.5 -13.5q-20 0 -20 17q0 1 1 2t1 2q14 15 26.5 49t29.5 57.5t50 28.5q10 0 16.5 -8t6.5 -19zM756 360 q-6 18 -6 35q0 23 12 50.5t26 27.5q7 0 13 -35.5t6 -62.5q0 -10 -3.5 -23.5t-10.5 -13.5q-3 0 -5.5 8.5t-5.5 23t-8 23.5q-4 -8 -10.5 -17.5t-7.5 -15.5zM834 434q-19 22 -19 49q0 49 35 76q8 -13 8 -31q0 -13 -2.5 -21t-6 -10.5t-7 -3.5t-6 -3t-2.5 -7q1 -3 4.5 -17.5 t3.5 -21.5q0 -2 -8 -10zM920 543v2q0 -33 -21 -33q-4 0 -9 7t-5 13q6 58 26 58q7 0 8 -6q1 -8 1 -41z" />
<glyph unicode="D" horiz-adv-x="1320" d="M662 1278q0 24 12 42t33.5 39t31.5 34q30 44 97.5 86.5t109.5 42.5q52 0 89.5 -19t52 -41t25 -42t13.5 -21q13 -2 23 -11.5t16.5 -26t10 -31t8 -37t6.5 -31.5q6 -25 20.5 -38t14.5 -20q0 -6 -11 -39q0 -17 9.5 -30t9.5 -19q0 -2 -2 -6.5t-2 -5.5q0 -7 5 -19.5t5 -19.5 q0 -31 -10 -90.5t-10 -89.5q0 -10 -15.5 -46t-15.5 -55q0 -9 5 -18.5t8.5 -13l15.5 -15.5q-10 -19 -15 -27.5t-16 -21.5t-25 -20q-1 1 -2 6.5t-6 5.5q-4 0 -4 -4q0 -2 2.5 -3t6.5 -1.5t5 -1.5q-6 -60 -6 -62q-2 -9 -15.5 -14t-13.5 -12q0 -2 1 -12t1 -15q0 -8 -12 -12 q-11 0 -21.5 -9t-16.5 -19t-15.5 -28t-13.5 -24v-29q0 -50 -15 -57l2 -2q-2 3 -3.5 15.5t-4.5 19.5q-1 0 -4.5 -1t-5.5 -1q-1 0 -2 1t-2 1q-17 0 -45.5 -38.5t-28.5 -80.5q2 -4 2 -15q0 -7 -10 -25t-10 -30q0 -11 -10 -17.5t-22 -8.5t-22 -8.5t-10 -18.5q0 -4 2 -15t2 -16 q0 -18 -13 -26t-29 -8t-29 -5.5t-13 -19.5q0 -3 2 -11.5t2 -15.5t-10 -10q-18 -2 -42 -16.5t-52.5 -28.5t-61.5 -14q-6 0 -18 4q-10 -2 -29 -2q-14 0 -28 3t-30.5 10t-26.5 11.5t-31.5 16.5t-28.5 16q-7 -11 -21.5 -39t-26 -47t-25.5 -41t-26.5 -33.5t-23.5 -11.5 q-6 0 -15 4t-14 4q-10 0 -33.5 -6t-35.5 -6q-24 0 -40.5 35t-23 88t-8.5 87t-2 60q0 8 9.5 31.5t9.5 36.5q0 17 -12.5 48t-12.5 48q0 76 16 102q0 2 -1 6.5t-1 6.5q0 9 9.5 22.5t9.5 22.5q0 6 -5.5 18.5t-5.5 18.5q0 5 3.5 16t3.5 16q0 7 -2 18t-2 13q6 25 6 72q0 54 14 87 t14 44q0 7 -10 38.5t-10 33.5q0 3 20 86q-2 6 -2 16q0 19 13.5 54t13.5 50q0 9 -10.5 38t-10.5 46q0 12 2.5 44.5t2.5 48.5q0 20 -10.5 55t-10.5 51q0 49 70 49q50 0 88 -25t59 -66t31 -86t10 -93q0 -19 -18.5 -59t-18.5 -56q0 -5 4 -18t4 -19q0 -22 -28.5 -88.5 t-28.5 -122.5q0 -17 9.5 -59t11.5 -53q0 -7 -10.5 -17.5t-10.5 -17.5q0 -17 35 -17t35 9q0 2 -10.5 10.5t-10.5 11.5q0 4 13.5 11t13.5 12q-12 20 -12 78q0 19 20.5 41t20.5 32q0 3 -1.5 9.5t-1.5 9.5v-2q19 24 19 37q0 3 -1 8t-1 8q0 12 10 22q2 -3 6 -8.5t6.5 -8t7.5 -5 t11 -2.5q-2 -6 -2 -14q0 2 1 6t1 6q-6 12 -6 24q0 8 9 30.5t9 37.5q0 8 -4 26t-4 27q0 35 22 66l-2 -2q0 -23 -2 -35q0 -14 13.5 -26t13.5 -15q0 -5 -5 -21t-5 -22q0 -17 8 -50.5t8 -47.5q0 -24 -24 -39q-15 -8 -23 -20.5t-9 -21.5t-1 -26q0 -6 2 -18.5t2 -18.5q0 -8 -4 -26 t-4 -27q0 -23 6.5 -61t7.5 -52q0 -10 -16 -14q-5 0 -6.5 1t-3.5 5.5t-5 7.5l4 4l-2 -6q-4 2 -16 2q-3 7 -4 7q0 -5 6 -5q-4 -16 -4 -24q0 -11 8 -31t8 -33q0 -7 -6 -9.5t-16 -3t-13 -1.5q0 5 1.5 17t1.5 18t-5 6q-4 0 -4 -12q0 -9 6.5 -35t6.5 -39q0 -9 -7.5 -28.5 t-7.5 -28.5q0 -3 2 -11t2 -12q0 -10 -10 -27.5t-10 -27.5q1 -32 12 -43.5t29 -17t26 -17.5q28 -43 48.5 -57.5t60.5 -14.5q68 0 121 13q12 2 23.5 22t21.5 27t32 34.5t40.5 50.5t23.5 23q1 0 31 -10q4 8 13.5 20.5t14.5 23t5 22.5q0 15 13 32t13 29q0 15 20.5 43t20.5 51 q0 4 -1 12.5t-1 12.5q0 13 13.5 29t13.5 22q0 8 -6 24t-6 23q0 32 16.5 74t19.5 63q0 19 14 30t30 14.5t30 10t14 15.5q0 2 -9 8t-24 12.5t-28 8.5l2 -2q8 25 11.5 45t6.5 30t13 25q-17 17 -17 31q0 12 13.5 33.5t13.5 31.5q0 2 -14.5 27t-14.5 47q0 35 -8 68q-7 29 -18 62 t-29.5 75.5t-43.5 70t-52 27.5q-14 0 -74.5 -30.5t-60.5 -43.5q0 -6 2 -10q-23 -27 -29 -43q-5 0 -12 -1.5t-19 -10.5t-12 -23q0 -19 -13.5 -33t-26.5 -21.5t-13 -10.5q0 -5 8 -16t8 -15q0 -8 -24.5 -8.5t-24.5 -12.5q0 -8 6 -30.5t6 -30.5q0 -15 -10 -20q-22 -11 -29.5 -39 t-11 -49t-16.5 -21q-14 0 -37 29q4 -1 13 -3t13 -3l-2 -2q2 4 2 14q0 6 -1 18.5t-1 18.5q0 27 9 106l-2 -2q10 -2 28 -2q6 0 12 6q0 9 -13 18t-13 19q0 27 21.5 64t45.5 57q0 -1 2.5 -4t2.5 -4q0 -2 -5 -2q-6 0 -6 2q0 8 9 8zM1100 666q4 8 8 12q-8 0 -8 -4q0 -1 1 -4t1 -4 q-1 0 -4 1t-4 1q-7 0 -7 -9l5 -2q2 1 5 5zM274 336q23 14 23 26q0 11 -8 19q-8 -8 -8 -14q0 -3 1 -9.5t1 -9.5q0 -5 -6.5 -15t-6.5 -14t4 -4q9 0 9 4q-7 10 -9 17zM449 694q0 1 1 4t1 4t-5 11l-4 -4q1 -2 3.5 -6.5t3.5 -6.5q-1 -4 -4.5 -11l-4.5 -9q0 -3 4.5 -6.5t10.5 -3.5 q8 0 8 12t-14 16zM1040 567v-7v-5.5v-4.5t-0.5 -5t-1 -4.5t-2 -5t-3 -6t-4 -7.5t-5 -9t-6.5 -11q0 -2 2.5 -5t5.5 -3q12 0 27.5 32t15.5 49q0 6 -4 12.5t-8 6.5q-19 -5 -19 -14q0 -2 1 -6.5t1 -6.5zM379 428q8 32 8 35q0 16 -20 72q-9 -7 -9 -27q6 -15 9 -33.5t5.5 -30.5 t6.5 -16zM352 408l2.5 5t2.5 5.5t1 5.5q0 6 -6 6q-4 -6 -4 -10t4 -12zM326 543q-4 4 -4 6l-5 -10q0 -1 1 -3.5t1 -3.5q4 8 7 11zM1087 752q-1 1 -4.5 3.5t-5.5 2.5q-6 0 -6 -4q1 -2 3 -5.5t3 -5.5q8 8 10 9zM1141 1343q0 9 -2 9q-6 -4 -6 -6q2 -3 4 -5q2 2 4 2zM1196 1092 q-4 -4 -4 -7l6 -12q4 4 4 6q0 13 -6 13zM332 643q1 0 3 -2t3 -2q4 4 4 8t-4 8zM1106 596v-10l4 4q0 2 -4 6zM729 59l-2 7q-8 0 -8 -7q0 -4 6 -4zM434 530q0 9 -6 13l-4 -4q1 -2 3 -6.5t3 -6.5zM231 500q-6 0 -6 -2l4 -4q0 1 1 3t1 3zM446 799v-2v2zM530 1057l-2 -2z M1036 377q0 -12 -6 -12l-4 6q0 6 10 6zM1004 352q-4 -4 -7 -4q-4 0 -4 4t6 4q3 -2 5 -4zM580 1118q-4 -2 -9 -2q-6 0 -6 6q2 2 4 2q7 -7 9 -8zM571 961l2 2zM1067 838q0 -5 -4 -13q-4 8 -4 9q0 4 4 4t6 -2z" />
<glyph unicode="E" horiz-adv-x="956" d="M385 242q4 -3 10 -6.5t9.5 -6t7.5 -6t6 -8.5t2 -12t-9.5 -30.5t-9.5 -35.5q0 -16 56 -16q29 0 113 7t126 7q5 0 14.5 -1t14.5 -1q18 0 31 8q21 -1 32.5 -2t33.5 -4t34.5 -7t27 -10t21 -15t6.5 -21q0 -29 -6.5 -46.5t-21.5 -25.5t-29 -10t-39 -2q-29 0 -87 4t-87 4 q-54 0 -113.5 -2.5t-141.5 -7t-116 -6.5q-26 0 -46 11t-32.5 33t-20.5 46t-11.5 60t-4.5 64.5t-1 69.5l1 6q1 6 3 16.5t4.5 21.5t6 20.5t7.5 13.5q0 9 -7 27.5t-7 28.5q0 3 1 9t1 9q0 33 -2 98.5t-2 98.5q0 7 8 23.5t8 23.5q0 13 -16.5 45.5t-16.5 48.5q0 7 10.5 24t10.5 29 q-4 32 -4 51q0 9 3 26.5t3 25.5q0 6 -1 16.5t-1 15.5t4 15.5t4 15.5q0 12 -5 33t-5 31q0 17 4 65t4 70q0 7 -1 22.5t-1 22.5q0 27 2 62.5t7 79t16 72.5t26 29q1 0 3 -1t3 -1q33 -13 84.5 -20.5t81.5 -7.5q6 0 19.5 1t19.5 1q11 0 33 -5t35 -5q7 0 21.5 1t21.5 1 q39 0 115.5 -5.5t115.5 -5.5q6 0 19.5 2t19.5 2q139 0 139 -67q0 -5 -1 -14.5t-1 -14.5t4 -17.5t4 -17.5q0 -19 -55 -28q-291 0 -506 32q-11 0 -20.5 -8t-9.5 -18q0 -56 5 -165t5 -163q0 -11 -2 -35t-2 -37q0 -51 10 -65t49 -14q10 0 54.5 2t74.5 2q154 0 154 -58 q0 -44 -34 -64t-82.5 -22t-97 -3t-82.5 -16.5t-34 -53.5q0 -16 3 -43.5t3 -40.5q0 -6 -6 -18.5t-6 -18.5q0 -4 5 -14t5 -15q0 -4 -1 -11.5t-1 -10.5q0 -8 5 -25t5 -25q0 -15 -8 -42t-8 -31q0 -11 6 -45zM270 322q-6 -12 -6 -23q0 -17 10 -37q11 26 11 29q0 6 -4.5 17 t-10.5 11q6 12 6 25q0 7 -3.5 16t-10.5 9q-12 0 -12 -21q0 -20 20 -26zM340 461q8 24 8 35q0 18 -10 28q-12 -14 -12 -30q0 -13 14 -33zM264 813q1 10 2 30t2 29q0 1 -4 4t-6 3q-6 0 -6 -23q0 -19 12 -43zM324 903q8 8 8 19q0 14 -10 14q-7 0 -7 -12q0 -8 9 -21zM252 571 l-4 4q-2 0 -6 -4q0 -8 4 -8q3 0 3.5 1t0.5 3t2 4zM328 815q0 7 -6 10l-5 -4q3 -6 7 -10zM217 334q0 6 -4 6q-2 0 -2 -2q0 -4 6 -4z" />
<glyph unicode="F" horiz-adv-x="860" d="M182 561q-24 34 -24 49l9 33q9 33 9 39q0 16 -3 47.5t-3 46.5q0 8 5 23t5 22q0 15 -8 52.5t-8 60.5q0 14 1 43t1 45q0 18 -6 71t-6 85q0 20 1 59t1 57q0 15 -6.5 45t-6.5 47q0 28 38.5 42t99.5 14q13 0 32.5 -3t28.5 -3q52 0 159 17t156 17q44 0 80 -8h-2q0 2 15 2 q38 0 74 -10.5t36 -34.5q0 -15 -1.5 -24.5t-7.5 -20t-19.5 -15.5t-34.5 -5q-17 0 -50 6t-49 6l-33 -3q-33 -3 -80 -8.5t-93.5 -13.5t-79.5 -20.5t-33 -26.5q1 -9 6.5 -34.5t5.5 -40.5q0 -10 -4 -32t-4 -32q0 -4 1 -13.5t1 -13.5q0 -9 -3 -26.5t-3 -26.5q0 -7 2 -20t2 -19 q0 -9 -7 -39t-7 -47q0 -95 4.5 -112t34.5 -17q55 0 103.5 6.5t78.5 6.5q149 0 149 -101q0 -25 -23 -35t-52 -10q-11 0 -36.5 1t-56.5 1q-177 0 -186 -43q0 -33 -13.5 -93t-13.5 -77q0 -16 9 -16q5 0 13.5 2t12.5 2q5 0 11 -3.5t6 -6.5q0 -4 -1 -11t-1 -10q0 -30 6 -91t6 -91 q0 -13 -1 -38.5t-1 -39.5q0 -18 7 -47t7 -41q0 -20 -5 -40.5t-19 -45.5t-47 -41t-80 -16q-7 0 -18.5 8t-18.5 8q-4 0 -39 -10q-2 0 -6 4q0 8 6 17t6 18q-35 87 -35 129q0 7 1 21.5t1 21.5q0 11 -8 34t-8 37q0 23 2 71t2 73q0 16 -3 49t-3 51q0 46 22 86zM356 588 q0 6 -0.5 15.5t-1 14t-3 10.5t-7.5 11q-14 0 -14 -43q0 -23 12 -47q4 3 7 8.5t4 10t2 11.5t1 9zM293 594q0 7 -3 17t-7 10q-15 0 -15 -23t17 -23q3 0 4 2.5t2.5 9t1.5 7.5zM287 424q8 11 8 25q0 12 -6 24q-8 -20 -8 -29q0 -11 6 -20zM285 831q-4 -8 -6 -10q0 -2 4 -6 q8 0 8 8q0 1 -2.5 3.5t-3.5 4.5z" />
<glyph unicode="G" horiz-adv-x="1222" d="M639 -74q-18 -37 -31.5 -47t-28 -11t-26.5 -13q-15 -16 -39 -24.5t-40 -9.5t-44 -1q-18 0 -37.5 3t-45.5 11t-43 27t-17 47q0 58 43.5 136t99.5 144q95 110 176.5 170.5t202.5 114.5q18 34 31.5 82t13.5 74q0 8 -2 26t-2 27q0 12 6 38t6 38q0 20 -4.5 37t-15.5 39l-13 26 q-57 -65 -67 -65q-3 0 -10.5 5t-10.5 5q-8 0 -36 -25.5t-35 -46.5q-4 -8 -25 -17.5t-29 -19.5q-24 -34 -65 -75t-68 -41q-4 0 -45.5 -22.5t-70.5 -22.5q-7 0 -19 4q-9 -9 -16 -9q-5 0 -15 10.5t-16 10.5q-8 0 -25 -4t-26 -4q-17 0 -44.5 11.5t-39.5 29.5q0 -1 -13 5 t-31 18.5t-36.5 29.5t-31.5 42t-13 52q0 7 6 21t6 22q0 3 -1 8.5t-1 8.5q0 12 3 24t9.5 28t8.5 23q7 21 14.5 67.5t21 79.5t44.5 64q0 9 -4.5 21t-4.5 18q0 9 3.5 17.5t12 17.5t14 14t18 15.5t16.5 13.5q3 11 1.5 21t2.5 20t16 14q17 3 17 25q3 17 19.5 27t23.5 26 q4 10 59 45t60 53q3 11 14 18t31.5 13t25.5 8q9 4 21.5 23.5t33.5 19.5q27 0 44 12.5t24 12.5q5 0 17 -7t18 -7q19 -1 39.5 -7t33 -12t36.5 -19.5t32 -17.5q12 -6 46 -21t54.5 -25.5t39 -32t18.5 -48.5q0 -15 -18 -23.5t-35 -8.5q-18 0 -77 33.5t-93 33.5 q-51 0 -112.5 -40.5t-115.5 -98.5q-51 -53 -99.5 -126t-53.5 -128q-3 -9 -18 -31.5t-15 -52.5q0 -20 -17.5 -69t-17.5 -70q0 -15 11 -33.5t24 -18.5q65 15 143 58.5t189 120t157 104.5q10 6 56 51t65 45q2 0 8 -1t9 -1q9 0 29.5 6.5t29.5 6.5q123 0 123 -177q-1 0 -16 -75 t-33.5 -154t-26.5 -88q-6 -8 -9 -20t-5 -29t-4 -25q13 -8 30 -8q10 0 34 1t40 1q66 0 66 -33q0 -5 -7 -13.5t-22 -22.5t-16 -15q-17 -2 -56 -2.5t-65.5 -5t-50.5 -16.5q-17 -37 -51.5 -102t-58 -109t-21.5 -43q-19 -14 -33.5 -39t-23.5 -47.5t-28.5 -47t-46.5 -38.5 q-12 -6 -16 -21.5t-9 -27t-22 -11.5q-2 0 -7.5 1t-8.5 1zM596 -45q0 1 -1 2t-1 2l2 2q2 0 4 -2q-2 -2 -6 -2q9 15 21 27t19.5 17t27.5 19q27 99 100 160q0 7 -1 20t-1 19q0 47 26 70q3 -6 5 -6q0 4 -7 4q9 24 15 51q0 8 -6 14t-15 6q-28 0 -86 -53q-1 -1 -24 -20.5 t-31 -26.5t-32 -29.5t-36 -35.5t-34 -37.5t-34.5 -42.5t-28.5 -43t-25 -47t-16.5 -47.5t-8.5 -49.5q6 -8 35 -8q23 0 68 18.5t71 18.5zM827 346q0 1 -1 3t-1 3q-4 -4 -4 -6q2 -2 2 -4z" />
<glyph unicode="H" horiz-adv-x="1198" d="M1040 1051q-23 -27 -29.5 -52t-6.5 -65q0 -35 24 -35q20 0 33 8.5t20.5 17.5t12.5 9q10 0 16 -14.5t6 -24.5q0 -25 -27 -64.5t-57 -58.5q-15 -9 -27 -22.5t-19 -23t-14 -31t-8.5 -28t-7 -35.5t-6.5 -32q-14 25 -16 25q-22 0 -29.5 -13t-7.5 -39q0 -12 2 -40t2 -44 q0 -59 -22 -92q-5 -5 -5 -12q0 -2 1.5 -7t1.5 -7q0 -13 -10.5 -31.5t-10.5 -34.5q1 -1 7 -3t10 -6.5t4 -12.5q0 -7 -13.5 -28.5t-13.5 -33.5q0 -10 14.5 -48t14.5 -58q0 -24 -39 -101t-72 -77q-15 0 -28 15.5t-15 33.5q-3 45 -17 138.5t-14 147.5q0 9 11 31.5t14 34.5 q4 -6 9.5 -15.5t8.5 -13.5q3 2 12 7.5t14 10.5t5 11t-36 50.5t-36 64.5q0 18 9.5 47t9.5 43q0 8 -4 20q-5 10 -11.5 42.5t-14.5 55.5t-19 23q-25 0 -131.5 -43t-139.5 -43q-24 0 -47 -19t-37.5 -38t-19.5 -19q-2 0 -8 10.5t-9 10.5q-14 0 -14 -29q0 -2 1 -7t1 -7q0 -8 -4 -8 q-6 0 -9 10t-11 20t-27 10q-4 0 -4 -6l4 -10q6 2 17.5 6t17.5 6q-18 -27 -39 -57q4 -62 4 -92q2 -9 16.5 -18.5t14.5 -18.5q0 -6 -11.5 -22t-11.5 -25q0 -37 4.5 -60t10 -29.5t10 -16t4.5 -23.5v-12q-1 -12 1 -24.5t9 -12.5q9 0 14 5t10 15t9 15q2 -20 11 -72t9 -80 q0 -18 9.5 -48.5t9.5 -45.5q0 -39 -25 -89t-51 -50q-16 0 -45 25t-29 48q0 2 1 6.5t1 6.5q0 22 -14 63.5t-14 65.5q0 22 -10.5 58.5t-10.5 55.5q0 17 4 27q-1 21 -5.5 76.5t-4.5 85.5q0 6 1 19t1 20q0 9 -2 27.5t-2 27.5q0 13 3 40t3 42q0 26 -4 79t-4 76q0 35 22 60 q8 10 14 71t15 84q8 21 8 68q0 11 -1 34t-1 36q0 99 31 141q4 4 4 12q0 7 -14.5 22t-14.5 30q0 14 3.5 39t3.5 38q0 9 -2.5 27t-2.5 27q0 2 1 4.5t1 3.5q6 19 9 40.5t4.5 48.5t3.5 42q22 11 65.5 20t75.5 9q41 0 41 -87q0 -71 -10 -120q0 -14 19.5 -16t19.5 -11 q0 -17 -22.5 -67.5t-22.5 -77.5q0 -7 6 -19.5t6 -19.5q0 -6 -6 -18.5t-6 -18.5q0 -4 2 -12t2 -11q0 -9 -15.5 -32t-15.5 -37q0 -8 5 -24t5 -23q0 -5 -5 -17t-5 -18q0 -3 2 -10.5t2 -10.5q0 -21 -25.5 -44t-25.5 -44q0 -14 8 -14q9 0 16.5 11t16.5 11q5 0 14.5 -3t14.5 -3 q42 2 92.5 26.5t64.5 27.5q5 1 34 7.5t42.5 10t34.5 11t33 16.5q22 14 41.5 21t27.5 7.5t12.5 7t4.5 23.5q0 5 -1 19t-1 20q0 24 16 78t16 84q3 37 37.5 154.5t34.5 158.5q0 26 11.5 43t33 24.5t42 10t48.5 2.5q65 0 90 -18.5t25 -77.5q0 -10 -8 -40.5t-20.5 -85 t-20.5 -112.5q-3 -12 -21 -16t-18 -11q0 -4 3 -13.5t3 -12.5t-1 -8t-1 -7q0 -6 2.5 -12t7 -13.5t6.5 -10.5zM887 928v-6l2 4h-4q2 0 2 2zM840 432q-6 -24 -6 -31q0 -3 3 -6.5t5 -3.5q12 6 12 15q0 6 -7 14t-9 12q6 18 6 21q0 4 -8 12q-4 0 -7.5 -6t-3.5 -8q2 -3 7.5 -9.5 t7.5 -9.5zM262 707q14 0 14 41q0 40 -16 40q-27 -8 -27 -26q0 -30 31 -57q-7 -7 -8 -9q1 0 3 -1t3 -1q2 2 2 6q0 5 -2 7zM184 170q0 6 8.5 25.5t8.5 29.5q0 13 -11.5 36.5t-11.5 31.5q0 2 2 7.5t2 8.5q0 6 -6 6q-18 -11 -18 -55v-11.5v-12t0.5 -10.5t1 -10.5t2 -9t3.5 -10 t5 -9t7 -10t9 -9.5h-1q-1 0 -1 2zM834 223q-1 5 -2 12t-1.5 11.5t-2 9t-4 6.5t-5.5 2q-11 0 -17.5 -16.5t-6.5 -30.5q0 -33 20 -33q6 3 9.5 9t5 10.5t2.5 12.5zM195 113q-21 -6 -21 -15q0 -17 11 -52.5t16 -37.5q0 5 2 17t2 18q0 32 -10 70zM186 526q0 2 -1 8.5t-2 10 t-4 8.5t-9 8l-6 -4q0 -41 12 -41zM770 164q-11 0 -18 -6.5t-7 -14.5q0 -6 5.5 -14t13.5 -8q10 0 10 31q0 12 -4 12zM305 895q-4 -12 -4 -25q0 -10 4 -18q4 12 4 18q0 9 -4 25zM313 1057q15 4 15 16q0 14 -11 14q-16 -10 -16 -20t12 -10zM739 465q0 4 -4 12q-8 -8 -8 -10 t2 -6t2 -6q8 8 8 10zM846 569q0 6 -6 6q-5 0 -9 -4t-4 -8q0 -8 9 -8q5 0 10 14zM840 494l2 4l-4 2l-7 -4l3 -4q1 0 3 1t3 1zM985 1004q0 8 -6 8q0 -1 -1 -5t-1 -6q2 -2 4 -2q1 0 2 2t2 3zM305 958q0 5 -2 7q0 -1 -1 -3.5t-1 -3.5t1 -3t1 -3q2 2 2 6zM272 899q0 1 3.5 5.5 t3.5 6.5t-1.5 4t-3 5t-2.5 4q-6 -12 -6 -13zM225 35q-2 -2 -2 -6q2 0 4 -2q0 1 1 3t1 3zM827 326q-4 -8 -4 -13q0 -4 4 -4t4 4q0 5 -4 13zM236 412q0 4 -1.5 10.5t-1.5 9.5q0 6 15 6l4 -2q-1 -2 -2 -6.5t-1 -5t-1 -3t-2.5 -3.5t-3.5 -2.5t-6 -3.5zM1042 1049q-6 9 -6 18 q0 8 4.5 16.5t12.5 8.5q4 0 4 -5q0 -8 -17 -36zM246 233q-4 -8 -6 -8q-7 0 -7 8q1 2 3.5 6.5t3.5 6.5q6 -6 6 -13zM182 229q0 -1 -1 -2t-1 -2l-4 4q0 3 4 7q0 -1 1 -3.5t1 -3.5z" />
<glyph unicode="I" horiz-adv-x="1157" d="M1196 92q-18 6 -22 6q-1 0 -24.5 -15t-41.5 -15q-9 0 -29.5 8t-34.5 8q-18 0 -57 -12.5t-59 -12.5q-3 0 -8.5 1t-8.5 1q-13 -10 -53 -10q-8 0 -57 -14t-68 -14q-7 0 -15 9t-13 9q-2 0 -5.5 -1t-5.5 -1q-3 0 -10.5 1t-11.5 1q-13 0 -43 -16.5t-47 -16.5q-16 0 -43 -10 t-41 -10q-4 0 -12.5 2t-12.5 2q-10 0 -33 -15.5t-41 -15.5q-4 0 -13.5 1t-14.5 1q-14 0 -95 -21.5t-100 -33.5q-15 -9 -33 -14t-43 -9t-34 -6q-14 0 -43 6.5t-39 12.5q-86 87 -86 110q0 12 17 22t50 21.5t43 16.5q40 17 131 31t135 40q0 138 23 320q2 23 16.5 69.5 t14.5 55.5q0 4 -5.5 25.5t-5.5 35.5q0 15 15.5 36t15.5 28q0 6 -6 20t-6 21q0 20 37 67q-19 38 -19 68q0 13 4 39.5t4 40.5q0 7 -3 20.5t-3 20.5q0 11 12.5 29.5t12.5 31.5q0 72 -13.5 90t-62.5 21q-23 1 -53 2.5t-44.5 2t-35 2.5t-30.5 4t-24 5.5t-21.5 9t-18 13.5 t-18.5 18.5t-17 24.5q-1 1 -8.5 21.5t-15 45t-7.5 33.5q0 35 25 35q11 0 151 -11q20 5 27 5q20 0 55.5 -8.5t51.5 -8.5q7 0 20.5 4t19.5 4q7 0 23 -4t23 -4q14 0 44 4t44 4q24 0 70.5 -5t68.5 -5q11 0 33 5t34 5t36 -9t36 -9q10 0 30.5 2t29.5 2q27 0 74.5 -8t70.5 -8 q3 0 9.5 1t10.5 1q39 0 61 -11t34 -38q0 -37 -22 -67t-58 -30q-12 0 -43.5 3t-38.5 3q-3 0 -6.5 -7.5t-14 -15t-30.5 -7.5q-38 0 -74 8q-10 2 -21 16.5t-14 14.5l-43 -23q-43 -24 -78 -24q-18 0 -26 2q-13 0 -13 -25q0 -32 4.5 -100t4.5 -111q0 -84 -21 -117q-1 -1 -5.5 -17 t-8.5 -36.5t-4 -30.5q0 -9 6 -18l-6 -12l-65 -68q-3 -3 -3 -2q0 -6 9 -17t9 -12q0 -3 -10 -18t-10 -25q0 -11 25 -67q-35 -57 -39 -90q-2 -13 -16.5 -39.5t-14.5 -28.5q0 -34 -6 -55v4q20 -10 20 -33q0 -3 -1 -10t-1 -10q0 -15 29 -15q3 0 10 1t10 1q11 0 29 -9t31 -9 q14 2 40.5 4t43 4t39 5.5t41.5 8.5q32 8 72.5 13.5t67 7.5t78.5 4.5t70 3.5q18 0 52.5 5t50.5 5q13 0 37 -14.5t28 -34.5q0 -5 26 -14t26 -19q0 -17 -29 -32.5t-29 -18.5q0 -9 20.5 -21t20.5 -22q0 -16 -24 -16q-17 0 -25 14h4zM899 1204q-3 1 -13.5 7t-15.5 6q-6 0 -6 -11 q4 -4 6 -4q5 0 15 1t14 1q0 2 -2 4q0 -4 2 -4zM489 629q-5 16 -10 16q-12 0 -12 -10q0 -6 22 -6z" />
<glyph unicode="J" horiz-adv-x="1009" d="M758 594q18 -6 18 -12q0 -26 -13.5 -65t-33.5 -62q0 30 -12 30l-2 -4q0 -3 7 -10t7 -14q0 -3 -2 -10.5t-2 -10.5q0 -12 11.5 -18.5t17.5 -18.5q-2 -14 -4 -50t-7 -62.5t-18 -42.5q-2 -2 -2 -8q0 -24 -7.5 -47.5t-22 -53.5t-19.5 -43q-2 -2 -2 -6q2 -5 6 -14.5t6 -14.5 q-2 -11 -15 -30.5t-14 -32.5q0 -7 -11.5 -20t-32.5 -31.5t-27 -24.5q-5 0 -16 1t-17 1q-12 -12 -29 -33.5t-29 -30.5t-32 -12q-18 -3 -73 -18.5t-79 -15.5q-9 0 -25.5 18t-29.5 36l-14 17q-12 0 -32 11l-20 12q-2 0 -12 -12.5t-16 -12.5q-5 0 -11.5 14.5t-21.5 29t-43 14.5 l-6 5q-7 4 -16.5 11t-19 15.5t-16 20.5t-6.5 23q0 12 16 38t34 26q9 0 27 -9t28 -10q18 0 46 -28t59 -56t55 -28q2 0 12 -5.5t26 -11.5t31 -8q6 3 34.5 12t47.5 20t19 25q0 19 24 56.5t29 52.5q16 6 23.5 29t11.5 28q17 17 28 101.5t37 97.5q13 6 16.5 24.5t3 34.5t3.5 17 q0 -2 -2 -2q-3 5 -6 10.5t-5.5 8.5t-4 7t-1.5 7q0 7 11.5 23t11.5 24q0 5 -4 16t-4 16q0 2 1 5t1 4q8 17 11 33.5t3 44.5v34q-4 12 -4 15q0 12 11.5 28t11.5 27q-9 30 -9 61q0 22 5.5 69t5.5 69q0 15 -7 36q1 10 3.5 29.5t3.5 24.5q-1 2 -11 11.5t-10 18.5q4 54 4 82 q0 5 -1 15.5t-1 15.5q0 10 1 29.5t1 31.5q0 45 -16 45q-6 0 -15 -6t-14 -6q-31 -5 -56.5 -20t-41.5 -17q-1 0 -24.5 -18t-58.5 -36.5t-63 -18.5q-26 0 -120.5 -34t-139.5 -34q-19 0 -38.5 3.5t-39.5 19t-20 40.5q0 29 16 29q8 0 22 -14.5t23 -14.5q32 0 99.5 31t107.5 62 q24 2 58 25t76 51t81 38q35 8 93.5 44.5t68.5 41.5t27.5 18.5t32.5 22.5t26 9q7 0 21 -7q15 -9 49 -26t53 -28t36 -31.5t17 -43.5q0 -21 -18.5 -69t-18.5 -78q0 -22 -8.5 -58t-9.5 -55q0 -13 6 -35t6 -34q0 -27 -14 -77.5t-14 -76.5v-14t-2 -11t-7.5 -12t-15.5 -6 q-10 -4 -18 -22t-13 -45.5t-8.5 -52.5t-6.5 -55.5t-5 -41.5q-7 -3 -14 -11t-7 -14q0 2 2 4v-2q3 3 5.5 6.5t6 8.5t5.5 8zM541 70q-2 -4 -2 -9q4 0 4 5q0 2 -2 4zM242 -78l6 2q-6 0 -6 -4q0 18 -11 25q-2 0 -7 -1t-7 -1l4.5 -10.5t4 -5.5t3.5 -2.5t5.5 -1t7.5 -1.5zM811 965 l4 28q0 8 -4 8q-6 0 -6 -8q0 -4 6 -28zM678 461q-10 -10 -10 -17q0 -4 4 -4q10 3 10 11q0 2 -2 5t-2 5zM82 27q-4 4 -6 4q-4 -4 -4 -6t2.5 -5.5t3.5 -3.5q4 8 4 11zM735 639l4 -6l2 6h-6z" />
<glyph unicode="K" horiz-adv-x="1040" d="M823 1233q11 4 21.5 14t21 28t15.5 27.5t15 33.5l11 24q7 17 14.5 24.5t27.5 17.5t34 19q9 -5 27.5 -14t25 -12.5t18 -12t15.5 -16.5t8 -21t4 -30q0 -19 -31 -57.5t-38 -57.5q-5 -12 -26 -26t-21 -19q-2 -7 -6 -19t-17.5 -44t-28.5 -57.5t-39 -49.5t-49 -31 q-24 -6 -53.5 -49t-54.5 -53q2 0 -25 -29.5t-55.5 -62.5t-30.5 -39q-7 -23 -44.5 -58t-37.5 -59q0 -6 4 -14q103 -238 211 -326q18 -18 75.5 -53t92.5 -35q24 0 31.5 -8.5t7.5 -30.5q0 -57 -102 -57q-70 0 -164 54.5t-158 123.5q-19 20 -53.5 66.5t-61 79t-36.5 32.5 q-6 0 -14.5 -31.5t-8.5 -46.5q0 -14 6 -52t6 -62q0 -7 -3 -21.5t-3 -21.5q0 -3 1 -10.5t1 -10.5h2q-10 -7 -10 -14q0 -9 10 -19h-2q13 -35 13 -75q0 -51 -15 -64q-12 -12 -14 -40.5t-18 -39.5q-5 -3 -7.5 -21t-15.5 -28q-6 2 -41 12q-28 9 -56 57t-28 79q0 105 -10 315 t-10 315q0 56 3 169t3 171q0 13 -8.5 41t-8.5 49q0 24 13.5 69t13.5 65q0 48 17.5 142.5t17.5 141.5q0 52 26 97q115 -7 165 -51.5t50 -135.5q0 -24 -14 -67.5t-14 -59.5q0 -15 -13.5 -68t-13.5 -112q0 -16 -14.5 -63t-14.5 -58q0 -4 1.5 -13t1.5 -13q0 -23 -5.5 -66 t-5.5 -55q0 -66 58 -66q29 0 60 32.5t60 71.5t46 48q8 4 33.5 37.5t62.5 80t67 74.5q40 38 82 115zM248 1130q1 0 3 1.5t3 1.5q2 0 8 -3l8 -4q4 0 4 11q0 8 -4 8q-7 0 -22 -15zM330 821q-17 0 -17 -8q0 -5 5.5 -9.5t7.5 -4.5q6 3 6 6q0 6 -4 18q12 9 12 25q0 8 -4 12 q-6 -8 -6 -39zM244 283h-2q0 2 1 6t1 6q0 8 -11 12q-5 0 -8.5 -5t-3.5 -9q0 -12 10 -12q2 0 6.5 1t6.5 1zM252 457q-1 4 -2.5 31t-3.5 48t-6 21q-10 0 -16.5 -7.5t-6.5 -17.5q0 -6 6 -20t6 -20q0 -12 -6 -36t-6 -36q0 -10 9.5 -32.5t19.5 -22.5q6 6 6 47v45zM344 471 q0 1 -1 8t-2 12.5t-3 14t-4.5 15.5t-5.5 13t-7.5 9.5t-9.5 3.5q-8 -8 -8 -21v4l3 -17q3 -17 10.5 -36.5t17.5 -23.5q4 0 5.5 3t2.5 8t2 7zM270 737q6 6 6 17q0 8 -0.5 12.5t-1 5.5t-2 3t-2.5 5q-6 -6 -6 -24q0 -10 6 -19zM229 848l-4 4q-16 0 -16 -4q0 -6 8 -6zM246 739 l-4 4q-6 0 -6 -4q0 -8 4 -8q6 0 6 8zM240 231l2 -6l2 4zM317 219l-2 -4q0 -6 4 -6q3 0 5 4q0 6 -7 6zM291 150q0 4 -6 4q0 -1 1 -3.5t1 -3.5q1 0 4 3zM332 416l2 -6l2 4zM242 905l-2 -6h4z" />
<glyph unicode="L" horiz-adv-x="1007" d="M999 276q9 -21 9 -38q0 -20 -7.5 -35.5t-23 -25.5t-31 -16.5t-39.5 -10t-41 -5.5t-43.5 -3.5t-38.5 -2.5q-3 -1 -11.5 -6.5t-14.5 -5.5q-4 0 -14 3t-15 3q-9 0 -57.5 -21.5t-77.5 -21.5q-49 0 -149 -36t-146 -40q-42 0 -99 27.5t-57 56.5q0 11 15.5 25t15.5 27 q0 24 -7 76t-7 79q0 10 3 31t3 31q0 22 -3 67.5t-3 69.5q0 14 1 41t1 41q0 19 -9.5 56.5t-9.5 53.5q0 28 5.5 83t5.5 83q0 24 -5.5 71t-5.5 71q0 79 23 258q0 9 -4 26.5t-4 26.5q0 21 5 64t5 65q0 31 56 52.5t106 21.5q24 0 41.5 -18.5t17.5 -49.5q-2 -12 -2 -33 q0 -34 8 -96.5t8 -91.5q0 -56 -7 -170t-7 -166q0 -9 2 -24t2 -23q0 -12 -5 -34t-5 -34q0 -8 4 -24t4 -25q0 -10 -3 -31.5t-3 -33.5q0 -11 -13.5 -31t-13.5 -33q0 -5 8 -20.5t16.5 -44t8.5 -64.5q0 -21 -1 -54t-1 -50q0 -144 33 -144q47 8 100.5 20.5t118.5 28.5t102 25 q15 3 46 11.5t56 13t48 4.5t36.5 -6t32.5 -20.5t37 -23.5zM332 500q6 9 6 18q-4 17 -6 17q-3 0 -8.5 -4.5t-6.5 -8.5q0 -22 15 -22zM340 692q4 22 6 27q-1 3 -2 10t-2.5 10.5t-5.5 3.5q-19 0 -19 -26q0 -31 19 -31q4 0 4 6z" />
<glyph unicode="M" horiz-adv-x="1425" d="M1278 -8q4 -102 4 -144q0 -7 -6 -10q-12 -6 -21.5 -22.5t-14.5 -32.5t-16 -28.5t-26 -12.5t-35 19t-26 38q0 2 2 2v-2q0 17 -15 62q2 8 2 24q0 22 -13 62.5t-13 60.5q0 6 9 23t9 26q0 5 -2 15.5t-2 15.5q0 27 14.5 61.5t14.5 47.5q0 2 -13.5 45t-13.5 88q0 4 11.5 33 t11.5 49l-9 8q-10 7 -20 24t-10 41q0 29 -10.5 80.5t-10.5 77.5q0 7 2 21.5t2 21.5q0 60 -18 209q-7 47 -11 133.5t-7 118.5q-2 14 -6 38t-12 62.5t-20 65t-24 26.5q-14 0 -24 -26q-6 -12 -27 -21t-23 -10q-4 -11 -10 -41.5t-16 -44.5q-1 -8 -1.5 -25.5t-1.5 -28.5 t-6.5 -22.5t-15.5 -15.5q-21 -10 -39 -82t-18 -92q0 -8 2 -12q-7 -22 -17.5 -58.5t-16.5 -56.5t-16.5 -48.5t-19.5 -44.5t-23 -34.5t-29.5 -28t-37 -16t-47.5 -6.5q-33 0 -55 14q-30 11 -79.5 73t-49.5 95q0 3 1 9t1 9q0 18 -19 41q-43 -43 -43 -180q0 -8 1 -25.5t1 -25.5 q0 -11 -1 -35t-1 -35q0 -24 -7.5 -38t-17 -17.5t-17 -12.5t-7.5 -24q0 -14 26.5 -37t26.5 -53q0 -5 -5 -16.5t-5 -16.5q0 -8 5 -20t5 -17q0 -15 -16 -39l2 -2l-4 4q2 -4 9 -10.5t7 -13.5q0 -4 -6 -12.5t-6 -12.5t4.5 -13.5t5.5 -14.5q-6 -9 -6 -19q0 -6 8.5 -16.5t8.5 -11.5 q0 -11 -8.5 -19.5t-8.5 -13.5q0 -4 3 -13.5t3 -13.5q0 -11 -8.5 -30t-9.5 -27q-14 -5 -35 -36.5t-39 -31.5q-23 0 -36 22t-21 48.5t-17 32.5q-12 12 -12 51q0 50 -16.5 145.5t-16.5 132.5q0 15 11 37q0 2 -1 6.5t-1 6.5q0 9 3 28.5t3 28.5q0 8 -2 24t-2 23q0 8 3 24.5 t3 24.5q0 16 -5 45t-5 43q0 54 28 94q-12 20 -12 33t11 30.5t21 29.5l11 12q0 3 -9.5 16t-9.5 21q0 55 17.5 178t17.5 209q0 9 -6 22t-6 19l2 4q47 124 123 129q36 0 50.5 -11t14.5 -42q2 -41 31.5 -119.5t36.5 -114.5q3 -17 15.5 -43t15.5 -43q3 -18 30 -68.5t27 -76.5 q0 -30 11 -48t28 -18q7 0 10 6q27 44 111 197.5t141 232.5q9 18 36.5 42.5t35.5 43.5q11 23 44.5 47.5t39.5 30.5q24 -8 39 -8q4 0 12 2t12 2q40 0 49 -22q0 -3 -6 -21h2q0 2 -2 2q20 5 23 6q24 0 42.5 -30.5t18.5 -55.5q0 -4 -1 -12.5t-1 -11.5q0 -13 17.5 -30.5 t17.5 -25.5q0 -5 -4 -13.5t-12 -21t-9 -14.5q7 -8 18.5 -18.5t16 -15t8 -15.5t3.5 -26q0 -12 -3.5 -33t-3.5 -31q0 -12 3.5 -39t3.5 -41q0 -19 -13.5 -61t-13.5 -72q0 -18 8 -46.5t8 -43.5q0 -7 -5 -24t-5 -29q0 -14 2 -41t2 -43q0 -9 -6 -28t-10 -19q-3 0 -8 1t-7 1 q-6 0 -6 -60q0 -24 1 -62.5t1 -58.5q0 -19 9.5 -44.5t9.5 -30.5q0 -13 -2 -39t-2 -39q0 -10 3 -30t3 -30q0 -16 -2 -48.5t-2 -51.5q25 0 55 49v-53q0 -3 -28.5 -34t-28.5 -44q0 -4 3 -12t3 -12q0 -6 -2 -18.5t-2 -18.5q0 -17 6 -17q2 0 7 5.5t7 5.5t7.5 -4.5t7.5 -4.5 q3 0 5.5 3t6 8t6.5 8zM1219 1233q0 1 1 3t1 3t-9 10q4 -15 7 -16zM1212 799q-4 -24 -4 -31q0 -12 9 -27q0 9 1 21t1 16q0 2 -1 4.5t-2.5 7t-3.5 9.5zM182 680q4 -8 11 -8q1 0 4.5 3t3.5 5q0 10 -8 10q-3 0 -7 -3.5t-4 -6.5zM203 477q4 0 10 6l-2 6q-14 0 -14 -10l4 -4z M209 528q5 0 8.5 6t3.5 13q0 6 -8 14q-4 0 -11 -8.5t-7 -13.5q0 -3 5.5 -7t8.5 -4zM244 799q4 16 4 20l-4 4q0 -1 -2 -3t-2 -3q0 -3 2 -9.5t2 -8.5zM258 604h2h-2zM270 608q4 0 4 2t-2 4q0 -2 -4 -6h2zM276 721q0 1 1.5 3.5t1.5 4.5q0 3 -2 13t-3 16q-2 -12 -2 -25 q0 -4 4 -12zM336 821q-4 -4 -4 -6q0 -1 1 -3t1 -3l4 4q0 1 -1 3.5t-1 4.5zM309 502q2 0 2 4q-2 2 -2 4v-8zM303 592q13 16 25 47t12 51q0 1 -1 2.5t-2.5 3.5t-2.5 4l2 2q0 18 -11.5 30t-11.5 32v22q0 28 -10 31q-4 -18 -4 -55q0 -18 1 -51t1 -49q0 -32 -2 -48q0 -3 2 -10.5 t2 -11.5zM1124 705q0 10 -4 10v-6q0 -4 4 -4zM1182 1071q-4 -4 -4 -6q0 -4 4 -12q4 0 4 8t-4 10zM1171 750l-4 -5q1 -3 2 -5.5t3.5 -6t3.5 -6.5q0 -1 -1 -10t-1 -15q0 -3 6 -6q6 9 6 13q0 41 -15 41zM1165 580l-4 -11q13 -13 13 -22q0 -4 -3.5 -11t-3.5 -10q0 -6 9 -6 q4 0 6.5 7t5.5 18t4 14q-5 25 -16 25q-7 0 -11 -4zM1169 465q-4 -4 -4 -10q0 -9 17 -15q4 8 4 13q0 14 -8 14q-9 0 -9 -2zM1202 211q0 2 -2 2q4 32 4 51q0 9 -7 17t-17 8q-11 0 -11 -53q0 -15 8.5 -47.5t14.5 -36.5q10 5 10 59z" />
<glyph unicode="N" horiz-adv-x="1218" d="M678 952q0 -3 -1 -8.5t-1 -7.5q0 -10 12 -12q15 -5 20.5 -25.5t6.5 -38.5t6 -18q2 0 6.5 2t5.5 2q26 0 39 -86q3 -26 32.5 -59t29.5 -50q0 -10 21.5 -39.5t29.5 -29.5q9 0 16.5 21t7.5 30q0 3 -5 11.5t-5 17.5q12 36 12 86q0 3 -9 12t-9 18q0 18 6 56t6 57q0 11 15.5 22 t15.5 13t-2.5 4.5t-8.5 8t-12 13.5q4 76 31 264.5t27 299.5q0 12 7.5 20t23 10.5t24.5 3t27 0.5q30 0 46.5 -19t16.5 -52q0 -62 -22.5 -186.5t-22.5 -186.5q0 -40 -26.5 -81t-26.5 -62q0 -14 -19 -50.5t-22 -50.5q30 17 31 17q6 0 6 -9q-10 -30 -10 -57q0 -13 7 -35t7 -35 q0 -8 -9 -20q-4 -6 -10 -6q-14 0 -14 41q-10 -4 -10 -15q0 -2 1 -5t1 -5q0 -15 -13.5 -29.5t-13.5 -19.5q4 -2 11.5 -5t12.5 -4.5t9 -5t4 -7.5q0 -5 -2 -7q-6 -6 -9 -15t-3.5 -15.5t-1 -18t-0.5 -16.5q0 -9 6 -15q31 -31 31 -155q0 -31 13 -84t13 -80q0 -26 -7 -68t-7 -63 q0 -7 1 -22.5t1 -22.5q0 -30 -21.5 -45.5t-66.5 -30.5q-36 46 -57 125q-6 19 -31.5 78t-28.5 86q0 5 -13 31t-13 47q0 8 -21.5 36.5t-34.5 32.5q2 -1 -11 25.5t-32.5 61.5t-32.5 53q-1 2 -9 12t-13 17.5t-12.5 22t-12.5 28t-8.5 34t-3.5 41.5q0 2 1 7.5t1 7.5q0 5 -5 12.5 t-13 7.5q-4 0 -12 -5t-11 -5q-18 0 -30.5 56t-25 112.5t-30.5 56.5q-4 0 -7 -3t-6.5 -7.5t-4.5 -5.5q-2 3 -13.5 27t-22.5 40.5t-20 16.5q-18 0 -35.5 -55t-17.5 -95q0 -14 12.5 -55.5t12.5 -65.5q0 -26 -12.5 -55t-12.5 -35q0 -1 6 -11t12.5 -27.5t6.5 -37.5 q0 -26 -10.5 -62t-10.5 -52q0 -15 12.5 -52t12.5 -55q0 -5 -10.5 -24.5t-10.5 -30.5q0 -5 1 -16.5t1 -16.5q0 -15 -16 -28.5t-16 -24.5q0 -7 8 -23.5t16 -48t8 -76.5q-1 -6 -3.5 -15.5t-11.5 -34t-18.5 -43.5t-24.5 -34.5t-30 -15.5q-32 0 -56 36t-33 73t-9 61q0 19 9 54 t9 49q0 13 -10 38t-10 41q0 13 6 35t6 31q0 65 -20 139q0 1 -9.5 22.5t-9.5 32.5q0 12 16.5 29t16.5 31q0 45 -6 92q0 7 -8 22t-8 23t12 23.5t12 27.5q0 4 -1 12t-1 13q0 7 5 20t5 19q0 13 -7 43.5t-7 46.5q0 15 6 44t6 44q0 9 -4 26.5t-4 26.5q0 3 1 8.5t1 8.5 q5 34 11.5 99.5t14 119.5t17.5 100q0 17 46.5 37t74.5 20q20 0 30.5 -11.5t20 -32.5t19.5 -31q78 -81 104 -168q8 -26 28 -72.5t36 -81.5t16 -39q2 0 14 4q7 0 13 -6t6 -14q0 -3 -2 -11.5t-2 -11.5q0 -2 4 -6q17 -7 24 -39.5t25 -38.5zM287 688q1 -4 2.5 -14t3 -19t4 -18.5 t6.5 -15t10 -5.5q9 0 15 8.5t6 18.5q-6 74 -12 88q-23 -23 -35 -43zM313 328q-2 24 -8 37q-18 -9 -18 -50q0 -12 14 -18q6 6 8.5 18t3.5 13zM285 866v-32q0 -29 4 -29q6 6 6 24q0 19 -10 37zM240 940q22 6 22 27q0 16 -14 16q-12 0 -12 -14q0 -9 4 -29zM246 893 q5 -2 9.5 2.5t4.5 11.5q0 1 -4 3.5t-6 2.5q-8 0 -8 -10q0 -6 4 -10zM256 784q-9 9 -10 9t-4.5 -3t-5.5 -4q0 -22 6 -22q4 0 9 7.5t5 12.5zM338 403q0 9 -4 9q-6 0 -6 -9q0 -8 6 -8q4 0 4 8zM217 528q0 4 -6 13q-4 -8 -4 -13q0 -1 1 -4t1 -4q8 0 8 8zM1030 1157q-6 0 -6 -6 q0 -4 4 -4q2 0 4 4q0 1 -1 3t-1 3zM244 682l-2 6l-2 -4zM242 625l4 2q0 6 -2 6q-6 -2 -6 -4zM987 809q-1 1 -3 4t-3 4q-4 0 -4 -4q0 -2 1 -6t1 -6zM336 465q-4 -4 -4 -6q0 -1 1 -3t1 -3l4 4q0 1 -1 4t-1 4zM1030 1094l-2 6l-4 -6h6zM680 950q3 6 8 11q0 -11 -2 -11 q-1 0 -4 1t-4 1z" />
<glyph unicode="O" horiz-adv-x="1259" d="M1026 1239q0 -8 31.5 -60t38.5 -85q5 -26 45 -148q-19 -37 -19 -67q0 -6 13.5 -55.5t13.5 -78.5q0 -6 -1 -18t-1 -18q0 -15 4 -39q-4 0 -6 -2l4 4q8 -8 8 -19q0 -10 -4 -14q-5 -8 -11 -37t-12.5 -52.5t-15.5 -23.5q2 -2 2 -6q-2 2 -4 2l4 2q-3 -54 -30.5 -147.5 t-86.5 -169.5q-40 -101 -159.5 -171.5t-229.5 -70.5q-91 0 -176 43q-24 12 -67.5 55t-67.5 58q-19 3 -43 46t-49.5 95t-44.5 68l-4 11q-5 11 -12 29.5t-14 39t-12 40.5t-5 31q0 7 2 21t2 20q0 12 -7.5 44t-7.5 50q0 5 1 14.5t1 14.5q0 13 -2 37t-2 37q0 307 123 520 q8 14 27.5 50.5t29.5 54t31 45.5t39.5 41.5t46 24.5t58.5 11q8 0 25.5 -3t25.5 -3q22 0 85 16.5t97 16.5q95 0 178 -41q6 -3 30.5 -33.5t39.5 -32.5q45 -40 58.5 -61t16 -43t13.5 -43zM502 197q-1 1 -2 3t-2 3l-4 -2q0 -4 4 -4q2 0 4 2q0 -7 4 -11q2 2 2 5q0 1 -6 4z M549 178q19 0 78 -20.5t78 -20.5q23 0 49 13q85 41 156 135t110 207.5t39 218.5q0 158 -23 221q-5 15 -7.5 51.5t-12.5 54.5q-2 2 -2 6t2 11t2 10q0 39 -64 124.5t-73 106.5q-3 6 -32.5 27t-37.5 31q-14 18 -48.5 27t-45.5 20q-7 5 -37 13.5t-51 8.5q-16 0 -85 -85.5 t-83 -127.5q-9 -25 -52 -118t-49 -138q-3 -23 -23 -86.5t-20 -97.5q0 -6 4.5 -17t4.5 -16t-1 -14.5t-1 -13.5q0 -21 8 -60.5t8 -58.5q0 -8 -3 -19t-3 -16q0 -11 16.5 -37t16.5 -43q0 -4 -2.5 -12t-2.5 -12q0 -3 8.5 -17t20 -32.5t15.5 -26.5q20 -43 75 -107.5t70 -87.5 l-4 -4q0 1 -1 2t-1 2q1 0 2 -1t2 -1zM1094 1034q-2 1 -6.5 2t-6.5 2q0 -8 4 -8q5 0 9 4zM369 330l4 2q0 4 -2 4q-4 0 -4 -2q0 -1 1 -2t1 -2zM1026 1237l-2 2l2 4v-6z" />
<glyph unicode="P" horiz-adv-x="1175" d="M424 508l12 6q20 -7 56 -30.5t57 -32.5q-8 -8 -14 -10.5t-16.5 -3t-20.5 -3.5v2q-32 -41 -49 -41q-6 0 -12.5 10.5t-17 20.5t-26.5 10q-28 0 -38.5 -13t-10.5 -42q0 -19 6 -27q4 -10 8 -52.5t17 -65.5q20 -37 20 -134q0 -54 -7 -86.5t-16.5 -44t-19.5 -17.5t-17 -16 t-7 -30q0 -23 -19 -23q-4 0 -10 5t-13 14t-10 12q-45 -20 -55 -20q-15 0 -32 20t-17 39q0 13 4 38t4 38q0 10 -5 30.5t-5 32.5q0 11 3 39.5t3 42.5q0 38 -18 78q-15 34 -15 211q0 19 6.5 57t6.5 58q0 33 -2 100t-2 100q0 29 20.5 83.5t20.5 80.5q-1 11 -3 26.5t-2 20.5 q0 20 17 78q0 5 -1 13.5t-1 13.5q6 35 15 104.5t15 102.5q1 8 3 30.5t4.5 31t10 21.5t24 18t42.5 5q47 0 59.5 -20.5t12.5 -81.5q0 -25 -3 -74t-3 -74q0 -13 -10.5 -41.5t-10.5 -44.5q0 -40 13.5 -116.5t13.5 -94.5q-1 -5 -9 -37t-9 -47q-2 -17 -15.5 -52.5t-13.5 -43.5 q0 -24 0.5 -35.5t5 -24.5t14.5 -22q2 0 17 -15t31 -37.5t16 -37.5q-2 0 -4 2h4q-2 0 -2 -4zM190 645q-1 -3 -2.5 -8.5t-2.5 -9.5t-1 -6q0 -5 4 -5q6 3 7 7q-1 3 -4.5 10t-4.5 10h7q0 -2 -3 -2v4zM250 694q16 3 33.5 71t17.5 99q0 39 -8 39q-17 0 -17 -20q0 -5 4.5 -15 t4.5 -14q0 -12 -18.5 -58t-18.5 -69q0 -7 1 -22.5t1 -22.5v12zM188 412q-4 0 -4 -4q0 -1 1 -3.5t1 -3.5q4 4 4 5t-1 3t-1 3zM856 606q-4 -11 -14 -23t-19 -12q-2 0 -7 1t-7 1q-26 0 -55.5 -21t-49 -42t-20.5 -21q-5 0 -33 17q4 14 23 27t48.5 28t41.5 23q16 10 58 47t42 45 q0 10 -12 10q-3 0 -8.5 -2t-7.5 -2q-6 0 -12.5 13t-6.5 24q3 0 12 1l9 1q0 2 -2 2q-17 0 -20.5 -16.5t-12.5 -16.5q-8 0 -8 10q0 13 8 33q44 77 71 192.5t27 217.5q0 13 -3.5 39.5t-11 64.5t-25.5 65t-42 27q-14 0 -33.5 -12.5t-33.5 -13.5q-5 -2 -13 -5t-26.5 -14 t-34 -24.5t-32 -36.5t-25.5 -49q-6 -13 -54 -56t-73 -43q-16 0 -17.5 -15t-5.5 -19q-8 0 -8 41q0 23 34 67.5t66 63.5q3 0 11 18t22 41.5t29 34.5q9 5 18 22q8 15 35.5 27.5t38.5 24.5h-4q2 2 27 22.5t43 30.5t34 10q4 0 11.5 -2t11.5 -2q5 0 15.5 4t14.5 4t12 -4t11 -4 q6 0 17 8t16 8q20 0 28 -18t25 -18q3 0 10.5 1t11.5 1q6 -9 29.5 -39t36 -51t12.5 -35q0 -3 -2 -10t-2 -13q0 -7 9.5 -17.5t9.5 -17.5q0 -21 -6.5 -63t-6.5 -60q0 -3 1 -10.5t1 -11.5q0 -24 -16 -75.5t-16 -72.5q0 -6 3 -17t3 -17q-5 -41 -44.5 -109.5t-43.5 -77.5l4 2 q0 -24 -7.5 -46.5t-25.5 -22.5q-7 9 -10.5 30.5t-6.5 36.5t-10 15q-20 0 -20 -45q0 -8 3 -24t3 -24q0 -9 -5.5 -17.5t-10.5 -13.5t-15 -12.5t-12 -9.5q0 21 -10 21q-14 0 -29 -11l4 -2l-4 4q12 -10 39 -10zM623 432q9 0 21.5 10t14.5 11q11 0 11 -13q0 -12 -23 -12 q-4 0 -12.5 2t-11.5 2zM565 395q0 -18 -16 -18q-19 0 -21 10q0 7 6 14t13 7q6 0 9 -1.5t5 -5.5t4 -6zM602 385q0 6 8 18v-2zM610 401q1 3 2.5 11t4.5 13t8 7q-6 -17 -15 -31zM598 385q0 2 2 4l-4 -2q2 -2 6 -2h-4zM717 1391l2 2l-4 -2h2z" />
<glyph unicode="Q" horiz-adv-x="1181" d="M954 1296q21 0 21 -204q24 12 35 12q16 0 28.5 -14t19.5 -44t11.5 -59t6.5 -77t2.5 -79t0.5 -83q0 -7 -5 -32t-5 -40q0 -9 3 -29.5t3 -30.5q-6 -54 -20.5 -108t-37 -120.5t-32.5 -100.5q-1 -5 -40.5 -68t-39.5 -102q0 -35 25 -66t56 -64t40 -65q-9 -15 -13.5 -21.5 t-15 -15t-22.5 -8.5q-25 0 -61.5 36.5t-67.5 73t-43 36.5q-14 0 -40.5 -25t-49.5 -25q-16 0 -47 -24q-20 0 -59 -7.5t-58 -7.5q-38 0 -117 27q-10 2 -29 15.5t-30 17.5q-85 25 -133 96q-3 4 -8.5 14t-9.5 15.5t-11 12t-16 9.5q-54 73 -73 142q-16 54 -16 114q0 10 1.5 32 t1.5 32q0 19 -3.5 58t-3.5 59q0 18 6.5 50t6.5 48q0 12 -5.5 33.5t-5.5 31.5q0 32 19.5 101t19.5 106q0 40 33 139t72 164q3 5 20.5 41.5t33.5 65t39 54.5t42 26q17 0 62 -14.5t69 -14.5q20 0 54 -5t50 -5q4 0 11.5 3t11.5 3q8 0 22.5 -6.5t20.5 -7.5q5 4 16 14t17 14 q10 0 10 -8q-4 -16 -4 -20q0 -13 8.5 -30.5t16.5 -17.5q7 0 17 12t22.5 32.5t13.5 21.5l2 -6q2 0 2 4h-6q18 12 24 12q23 0 45 -45q-20 0 -20 -8q0 -10 10 -20.5t21 -10.5q6 0 6 4q-8 4 -13 4q-2 0 -14 -4q1 6 3 18.5t3 18.5q21 0 33 -9t15.5 -20.5t14 -26.5t27.5 -24 q-20 -20 -20 -53q0 -39 14 -39q8 0 8 21q0 8 -3 25.5t-3 25.5t4 20zM938 1055q1 9 6.5 32.5t5.5 32.5q0 6 -2 8q-21 21 -32 46.5t-13 41.5t-14 28.5t-37 15.5l-4 -5l6 5q-6 -12 -6 -27q0 -9 3.5 -32.5t4.5 -37.5q-9 18 -31.5 44t-25.5 44q0 1 -10 12.5t-24.5 23t-23.5 11.5 q-13 0 -26 6.5t-23.5 15t-35.5 15t-60 6.5q-78 0 -180 -241q-3 -6 -14.5 -31.5t-19.5 -44t-15 -40t-7 -32.5q0 -2 1 -6.5t1 -7.5q0 -9 -5 -27.5t-5 -27.5q-1 -18 -1.5 -74.5t-2.5 -87.5q-1 -23 -11.5 -62t-10.5 -57q0 -6 1 -18t1 -19q0 -9 -2 -26t-2 -25q0 -79 16.5 -155 t54.5 -109h-2q0 -4 7.5 -18t24 -33.5t38 -37t53.5 -30t66 -12.5q24 0 69 24t45 52q0 8 -2 10q-7 18 -17 33t-15 27t-5 32l17 8.5t22 10t17 3.5q13 0 37 -15t32 -15q26 0 60.5 65.5t59 157t24.5 158.5q0 30 22.5 92.5t22.5 103.5q0 29 -21.5 84t-21.5 82q0 13 10 23z M1032 993q0 -2 -1 -7t-1 -7q0 -14 6 -14q8 0 8 8q0 33 -8 33q-6 0 -6 -7q0 -1 1 -3t1 -3zM201 555q-2 4 -2.5 12t-3.5 11q-4 0 -7.5 -6t-3.5 -11q1 -3 3 -10t3 -10q2 3 6 7.5t5 6.5zM188 651q0 -4 -4 -20q0 -1 6 -13q1 2 4.5 5.5t4.5 5.5q0 22 -11 22zM193 719q4 8 4 16 q0 2 -4 10q-5 -10 -5 -12q0 -4 5 -14zM887 1307q-2 1 -6.5 3t-6.5 3l-4 -4q1 -2 4.5 -5.5t4.5 -5.5q8 0 8 9zM231 653q0 9 -4 9t-4 -7q2 -4 4 -4t4 2z" />
<glyph unicode="R" horiz-adv-x="1093" d="M338 729q15 -11 20 -17.5t11 -25.5q27 22 38.5 52t17.5 61t19 49t25.5 98t28.5 96q11 11 16.5 48t20.5 53q8 9 16.5 48t26.5 54q21 16 43.5 57.5t42.5 57.5q8 6 35.5 37.5t56.5 46t75 14.5q33 0 71.5 -26.5t70.5 -65.5q1 -23 6.5 -76.5t5.5 -77.5q0 -20 -5 -66.5 t-5 -70.5q0 -13 -15.5 -41.5t-15.5 -48.5q0 -15 -2.5 -23t-6.5 -11t-8.5 -4t-8 -4.5t-5.5 -10.5q0 -9 -27.5 -65t-33.5 -83q-6 -26 -41 -68.5t-39 -58.5q-5 -20 -25.5 -37t-42.5 -26.5t-39.5 -25t-17.5 -33.5q0 -4 3.5 -10t9.5 -14t11 -14t12 -14t9 -10q11 -15 55 -104 t84 -121q11 -8 19.5 -33.5t15.5 -32.5q20 -21 47.5 -74t51.5 -73q5 -5 8 -23.5t8 -25.5q8 -14 26 -40t32 -45t14 -20q0 -11 -9.5 -26t-9.5 -19q0 -5 4 -17.5t4 -17.5q0 -19 -13.5 -31t-33.5 -12q-13 0 -37 4q-19 5 -73 54t-66 75q-4 19 -28.5 47.5t-30.5 41.5 q-13 23 -123 192q-3 4 -15.5 23t-21.5 32t-23.5 34t-25.5 35.5t-23 28.5t-21 21.5t-15 7.5q-4 0 -11 -19t-12.5 -47t-5.5 -48q0 -11 2 -17q0 -4 -1 -9t-2.5 -11.5t-2.5 -9.5q-52 -259 -97 -259q-2 0 -9.5 0.5t-12.5 0.5t-11.5 -2t-9.5 -5q-10 1 -26.5 1t-30 1t-26.5 4 q-91 19 -91 240q0 14 6.5 44t6.5 44q0 11 -5.5 33t-5.5 35q0 24 7.5 64t7.5 55q0 7 -9.5 29.5t-9.5 37.5q2 33 9.5 120.5t7.5 131.5q0 12 -3 35t-3 33q0 6 2 17.5t2 16.5q0 13 -6.5 42t-6.5 44q0 181 25 306q4 34 4 63t0.5 50.5t15.5 33.5t48 12q42 0 82 -35.5t40 -76.5 q0 -55 8.5 -155t8.5 -150q0 -29 -7.5 -68.5t-7.5 -54.5q0 -9 2.5 -32.5t2.5 -37.5q0 -46 -29 -82q3 24 6 51q0 6 -4 6t-6 -2q1 -8 2 -27t2 -28zM825 1227q0 3 -0.5 17t-1.5 23.5t-4.5 21.5t-10.5 18t-17 6q-16 0 -36 -22.5t-45.5 -62t-29.5 -44.5q-20 -27 -35.5 -109.5 t-40.5 -120.5q-6 -9 -6 -20q-6 -36 -43 -156q-5 -11 -12.5 -20.5t-11 -16t-3.5 -16.5q0 -15 6 -32t15 -17q10 0 26 7t34.5 18t25.5 14q3 10 13 14.5t19.5 5t17 5.5t7.5 16q0 3 -1 9t-1 9q0 20 18.5 55t18.5 50q2 21 29 65.5t32 73.5q0 15 7 29q8 19 13.5 43t7.5 42t4.5 48 t4.5 47zM741 733q2 3 6.5 8.5t4.5 8.5q-5 0 -8 -0.5t-4.5 -2t-2 -3t-1 -4.5t-1.5 -5q4 -2 6 -2z" />
<glyph unicode="S" horiz-adv-x="1058" d="M793 250v2v-2zM817 303q0 2 -2 2q2 0 2 -2zM739 168l-2 -2zM1300 664q5 0 5 -13q0 -10 -22 -28.5t-34 -18.5q-7 0 -21.5 3t-21.5 3q-58 0 -103 -19.5t-124 -74.5q-1 -3 -11 -31.5t-21 -49.5t-21 -21q-3 0 -11.5 2t-11.5 2q-10 0 -51 -39.5t-41 -63.5q0 -8 4 -10 q-29 -80 -78 -139h2q-2 -2 -9 -10.5t-11 -13.5t-4 -9q0 -12 10 -12q3 1 15 4.5t18 3.5q5 0 8 -6q0 -6 -9 -16.5t-23 -21.5t-31 -23t-34 -22.5t-30.5 -19t-22.5 -13.5l-8 -5q-8 0 -21 8t-18 8q-13 -3 -39.5 -20.5t-53.5 -34.5t-73 -31t-96 -14t-83.5 37.5t-33.5 97.5 q0 33 51.5 84t57.5 66q18 41 70 94t104 86q11 8 40.5 25t49.5 31t35 30q12 13 56.5 28.5t54.5 34.5q4 2 19 10t19 11l14 10.5t13 14t6.5 17t3.5 23.5q0 25 -12 47.5t-37 22.5q-10 0 -30.5 -2t-30.5 -2q-15 0 -23 2q-17 -9 -57.5 -13.5t-58.5 -17.5q-209 -120 -318 -120 q-8 0 -20.5 1t-45 6.5t-57 15t-45 29.5t-20.5 46q0 3 1 10t1 10q0 11 -5.5 32.5t-5.5 35.5q0 24 23 49.5t25 44.5q0 79 79 141q17 11 27 35q7 17 38.5 41t31.5 37q0 2 -4 14q11 23 16 25q45 26 123 97t117 91q14 7 39 27.5t45 36.5t28 16q16 1 28 7t28.5 20.5t21.5 17.5 q7 7 72 41q47 -16 101 -60t54 -73q0 -11 -6.5 -16t-12 -5.5t-17.5 -0.5q-7 0 -20 3t-19 3q-103 0 -242 -103q-7 -6 -21.5 -17t-22.5 -17t-21 -13.5t-25 -11.5q0 -1 -22.5 -18t-51 -41t-39.5 -39q-15 -20 -66 -60.5t-65 -74.5l2 -3q-1 0 -4 1.5t-4 1.5q-5 -7 -27 -35 q0 -2 3.5 -11t3.5 -14q0 -10 -21.5 -27.5t-21.5 -37.5q0 -10 -14.5 -28.5t-14.5 -27.5q0 -16 10 -37.5t21 -21.5q57 11 152.5 43t183.5 55t163 23q22 0 72 -4q14 0 40.5 -13t39.5 -16q12 -2 23.5 -18.5t21.5 -16.5q28 -2 52 -34.5t54 -32.5q32 0 101.5 11t99.5 11 q25 0 102 -22zM633 109h2l-2 2l-2 -2h-2h2l-2 -3l2 -2q2 0 2 5zM692 279q33 30 33 77q0 29 -16 29t-54 -26.5t-49 -30.5q-42 -44 -67 -58q-14 -6 -58.5 -43t-91.5 -93.5t-47 -96.5q0 -16 6 -31q6 2 17.5 7.5t21.5 8.5t19 3q3 0 9.5 -2.5t8.5 -2.5h-4q-1 3 28 15t60.5 29 t34.5 30q6 21 45 59.5t39 43.5q0 30 65 82zM737 215q4 0 4 4q-4 4 -6 4q-4 0 -6 -2q1 -1 1 -3.5t1 -3.5t4 -1zM905 459l2 -2q2 0 2 4h2h-4h-2v-2z" />
<glyph unicode="T" horiz-adv-x="1120" d="M629 285q-1 -2 -2 -7.5t-2 -7.5h2q-4 0 -4 -6t6 -19t6 -20q0 -5 -3 -13.5t-3 -12.5q0 -7 6 -22t6 -25q0 -4 13.5 -34.5t13.5 -47.5q0 -10 -3 -18t-6 -14t-11 -11t-12.5 -8t-16.5 -7t-16.5 -5t-19.5 -4.5t-18 -4.5q-3 3 -16.5 15.5t-19.5 19t-12.5 18.5t-6.5 23q0 6 4 18 q-1 7 -13 52.5t-12 64.5q0 7 7 14l-4 -4l-3 2q0 1 1.5 2t1.5 2l4 -6q-16 18 -25 47.5t-11 54t-3 64.5t-2 57q0 14 4 41.5t4 42.5q0 8 -3 30t-3 34q0 45 4.5 67.5t19.5 53.5q0 8 -13 30t-13 35q0 24 6 76t6 78q0 6 -1 18.5t-1 18.5q0 11 11 33t11 34q0 10 -7 31.5t-7 30.5 q0 8 5 22.5t5 22.5q0 25 -5.5 41.5t-11.5 21t-11 4.5q-32 0 -132.5 -32.5t-150.5 -32.5q-58 0 -119 28l-7 4q-7 4 -14.5 9t-18 12.5t-19.5 17t-17 20t-13 24t-5 26.5q0 14 13 26.5t30 12.5q10 0 33 -6t33 -6q32 0 77 10q27 5 67 13.5t106 24t110.5 30.5t44.5 24q0 4 -2 12 t-2 13q0 12 25 20t47 8q17 0 50 -12t50 -12q14 0 37.5 5.5t32.5 6.5q44 4 165 27.5t191 23.5q156 0 156 -65q0 -25 -20.5 -43t-55.5 -26.5t-69 -13.5t-74.5 -8.5t-57.5 -7.5q-10 0 -21 -9t-16 -9q-6 0 -16 4.5t-14 5.5q-43 -33 -154 -55q-31 -7 -45 -108.5t-14 -192.5 q0 -7 2 -20t2 -19q0 -28 -4 -87t-4 -89q0 -18 2 -56t2 -57q-5 -31 -6 -90t-5 -86q-2 -18 -16 -69t-14 -74q0 -5 4 -15t4 -14q0 -6 -6 -18zM625 270q2 -6 2 -18q0 12 -2 18zM629 285l-2 -2z" />
<glyph unicode="U" horiz-adv-x="1433" d="M786 659q-2 0 -4.5 1.5t-3.5 1.5q-22 0 -22 -107q0 -17 -23.5 -64.5t-23.5 -78.5q0 -33 -30 -90.5t-30 -90.5q0 -18 -6 -18q-3 0 -7 6t-7 6q-4 0 -16 -41t-32.5 -86t-45.5 -53l-9 -11q-9 -12 -23 -27.5t-31.5 -31t-41 -26t-45.5 -10.5q-4 0 -12 2t-11 2q-5 0 -23.5 -5.5 t-29.5 -5.5q-53 0 -103 74.5t-50 136.5q0 24 -14.5 63.5t-14.5 55.5q0 9 1 28t1 29q0 19 -2 59t-2 60q0 188 10 260q9 69 13 201.5t8 179.5q0 14 7 39.5t7 36.5q0 4 -2 12.5t-2 12.5q0 11 2 35t2 38q-1 9 -4 27t-4 27q19 24 76 24q31 0 51.5 -10t29.5 -28t12 -33.5t3 -36.5 q0 -5 -1 -16.5t-1 -16.5q0 -9 1 -27t1 -26q0 -24 -6 -45q0 -9 2 -28t2 -28q0 -13 -1 -38t-1 -37q0 -19 2 -29q0 -18 -5 -50.5t-5 -58.5q0 -55 16 -88q0 -23 -12.5 -62t-12.5 -50q0 -9 8.5 -23t8.5 -20q0 -10 -22.5 -36t-22.5 -30q0 -25 4.5 -39t9.5 -17.5t9.5 -7.5t4.5 -10 q-3 -30 -32 -133q0 -9 6 -12q16 -10 21 -38t5.5 -50.5t5.5 -22.5q10 -2 15.5 -10.5t6.5 -17.5t6 -16t15 -7q17 0 39.5 27.5t47.5 75.5t46 93t45.5 99.5t34.5 75.5t23.5 55.5t26.5 59t32 47.5q8 9 12.5 37t16.5 40q8 8 15 31t16 31q18 14 35 57q4 8 19 42.5t22 48.5t22 39.5 t31.5 43t36.5 31.5q8 4 8 27q0 22 48.5 97t53.5 103q3 16 13 31t25 31t22 26v-2q5 0 38 25t35 25q9 0 27 -17.5t31 -17.5q8 0 24 9t29 9q22 0 48 -69t26 -127v-95q0 -30 -12.5 -67t-12.5 -47q0 -3 1 -10.5t1 -10.5q0 -16 -5 -46.5t-5 -47.5q0 -7 -12.5 -36.5t-12.5 -49.5 q0 -19 -7 -47t-7 -41q0 -7 2 -22t2 -23q0 -10 -5 -30t-5 -30q0 -14 4 -22q-8 -94 -8 -150q0 -16 1 -49t1 -51q0 -78 -4 -111q0 -29 2 -45q0 -21 -4 -67q-3 -13 -13 -23t-10 -18t5 -24.5t5 -24.5q0 -13 -11 -45t-11 -52v-5q0 -76 -27 -85q-16 -5 -50 -57.5t-54 -52.5 q-30 0 -49 65t-19 117q0 32 5 102t5 105q0 16 -3 51t-3 53q0 4 1 12.5t1 12.5q0 7 -4 20.5t-4 20.5q0 -2 6.5 28.5t12.5 62t6 32.5q0 10 -2 29.5t-2 29.5q0 7 4 22.5t4 22.5t-4 19t-4 18q0 18 7 50t7 46q0 4 -2 12t-2 11q0 6 3 17t3 16q0 6 -2 10q1 15 7.5 57t6.5 62 q0 12 -5 43t-5 51q0 9 4 25.5t4 25.5q0 30 -8.5 84.5t-17.5 54.5q-12 0 -15.5 -19t-9 -38t-22.5 -19q-3 0 -11 3.5t-12 3.5q-20 -44 -43 -56q-41 -59 -41 -63q0 -1 13.5 -9t13.5 -14q0 -17 -34 -28t-34 -25q0 -15 -10 -41t-10 -39q0 -4 2 -13t2 -13q0 -8 -6.5 -21t-6.5 -18 q0 -7 8.5 -20t8.5 -15q0 -6 -17 -17zM1192 723v-4q2 0 2 2q-4 0 -8 -4q1 0 2 -2t2 -2q4 0 4 4t-2 6zM1126 270q39 0 39 29q0 45 -12 45t-16 -14.5t-6 -34.5t-7 -27q0 -2 4 -2zM616 498q0 -4 -1 -14.5t-1 -14.5q0 -23 9 -23q14 0 14 41q0 35 -10 35q-4 0 -8.5 -5.5t-4.5 -8.5 q0 -2 1 -5.5t1 -4.5zM965 1106q15 25 16 27q0 14 -8 14q-10 0 -10 -8q0 -5 1 -16t1 -17zM297 719q0 8 -6 22q-6 -6 -6 -16q0 -3 2.5 -9t3.5 -9zM1188 1073q0 3 -6 12q-6 -6 -6 -10q0 -8 4 -8q2 0 8 6zM1171 33l3 4q-4 4 -7 4v-6q0 -2 4 -2zM274 399q4 0 6.5 2t4 6.5t2.5 6.5 q0 6 -11 6q-6 0 -6 -8q0 -5 4 -13zM625 412q0 -2 -1 -6.5t-1 -6.5t4 -6q1 1 3 2q3 1 3 2q0 15 -8 15zM1186 872v5q0 4 -4 4t-4 -4q0 -3 4 -7q2 2 4 2zM1169 813q-9 6 -12 6q-10 0 -10 -10t6 -10q9 0 16 14zM1169 743q1 1 2.5 5.5t2.5 5.5q-3 0 -5 2q-4 -8 -4 -11q2 -2 4 -2z M1135 764l2 -6l2 6h-4zM289 647q0 -1 -1 -3t-1 -3q2 0 4 -2q2 2 2 6q-2 2 -4 2zM844 983q-4 0 -4 -4q0 -2 1 -6t1 -6q1 1 2.5 2t2.5 2t1 2q-4 4 -4 10zM1225 -47q-1 0 -3 -1t-3 -1q-7 0 -7 4q3 4 7 4q6 0 6 -6z" />
<glyph unicode="V" horiz-adv-x="1093" d="M813 733q-27 -34 -27 -35q0 -3 14.5 -7.5t14.5 -12.5q0 -41 -16.5 -80t-16.5 -51q0 -16 6 -31q0 -6 -8 -6q-7 0 -11.5 28.5t-10.5 28.5q-8 0 -8 -35q0 -21 5.5 -31.5t12.5 -12t12.5 -7t5.5 -16.5q0 -19 -18 -62.5t-18 -70.5q0 -35 -12.5 -69.5t-12.5 -43.5q2 -6 2 -18 q0 -16 -10 -44.5t-10 -41.5q-2 -17 -22.5 -38t-20.5 -40q-6 -49 -17.5 -66t-50.5 -24q-13 -2 -30 -15.5t-25 -13.5q-5 0 -13.5 3t-13.5 3q-4 0 -11 -3t-11 -3q-5 0 -13.5 1t-29.5 8t-37 18t-29.5 33t-13.5 51q0 40 -33 103.5t-33 103.5q0 17 -14 70.5t-17 76.5 q-2 11 -4.5 30.5t-4 25.5t-5.5 19.5t-9.5 25.5t-15.5 30q-11 19 -17.5 43.5t-8 39t-2.5 47t-2 42.5q-8 120 -17 129q-22 24 -22 68q0 25 6 58.5t6 43.5q0 9 -13 23.5t-13 23.5q0 37 -11 51q-37 201 -37 392q0 17 28.5 25.5t55.5 8.5q32 -3 53.5 -21t32.5 -47t17 -58t13 -67 t15 -61q9 -27 12 -94.5t19 -101.5q4 -8 4 -17q0 -6 -6 -19t-6 -19q0 -7 4 -11q25 -45 25 -164q0 -15 7 -39.5t7 -37.5q0 -7 -2 -22.5t-2 -22.5q0 -14 10 -37t10 -35q0 -10 -3 -30t-3 -30v-18t2.5 -12.5t9 -14t17.5 -14.5q0 -19 2 -54t2 -52q0 -10 11 -24.5t22.5 -39 t11.5 -59.5q0 -47 18 -47q13 0 29 22t32.5 62.5t29 74.5t28 81t19.5 59q6 19 23.5 32.5t31.5 24t14 25.5v63q32 0 48 20.5t18 47t6 57.5t14 45q8 10 13.5 39t13.5 41q79 115 152 276q4 11 37.5 39.5t52.5 28.5q12 0 27.5 -6t15.5 -15t-16.5 -52t-20.5 -44q-14 -9 -23 -24 t-12 -27.5t-10 -24t-19 -14.5q-5 -2 -8 -7t-4 -12.5t-2 -14t-1.5 -16t-0.5 -13.5q-1 -14 -12 -21t-22.5 -9t-21.5 -15t-10 -37q0 -26 -9 -40.5t-24.5 -38.5t-25.5 -65q-3 -8 -19.5 -20t-19.5 -29zM932 1071q-1 -1 -1 2q1 8 -3 8q-4 -4 -4 -6q2 -2 6 -10q0 1 1 3t1 3z M762 664q-4 -3 -4 -5q0 -14 4 -14q6 0 6 4q0 3 -6 15zM852 881l-5 9q-4 5 -9 5q-4 -4 -4 -10q0 -11 8 -11q3 0 10 7z" />
<glyph unicode="W" horiz-adv-x="1667" d="M1446 266q-41 -41 -41 -76q0 -2 1 -5t1 -5q0 -43 -14.5 -100t-36.5 -98q-7 -20 -30.5 -50.5t-29.5 -40.5q-55 -90 -120 -108q-7 -2 -44.5 -25.5t-62.5 -23.5q-28 0 -46.5 4t-26.5 8t-24.5 16t-27.5 19q-26 15 -46 56t-36 50q-10 3 -27.5 62t-33.5 76q-26 26 -39 247 q0 11 -17.5 38.5t-17.5 41.5q0 4 1 12.5t1 12.5q0 24 -18 76q-2 8 -15 44t-24 66.5t-10 30.5q-36 0 -88 -127l-15 -43q-11 -17 -21.5 -56.5t-15.5 -50.5q-7 -16 -13.5 -34t-13 -40t-10.5 -34q-4 -19 -39.5 -61t-62.5 -42q-6 0 -16.5 5.5t-16.5 5.5q-4 0 -15 -6.5t-16 -6.5 q-45 0 -85.5 52.5t-40.5 119.5q-5 47 -23 62q-3 12 -10 43t-11 48.5t-9 44.5t-7 50t-2 45q0 15 1 46t1 47q0 29 -5 86.5t-5 87.5q0 38 20.5 156.5t20.5 197.5q0 9 6 26.5t6 26.5q0 3 -1 10.5t-1 10.5q0 6 4 22q2 10 4 40t5.5 58t9.5 57t17.5 46.5t27.5 17.5q58 0 75 -24 t17 -76q0 -53 -24 -185.5t-29 -189.5q0 -7 1 -21.5t1 -21.5q0 -8 -3.5 -23t-3.5 -22q0 -6 2.5 -18.5t2.5 -18.5q0 -3 -5 -18q3 -15 3 -29q0 -22 -10.5 -64.5t-10.5 -62.5q0 -7 1.5 -22t7 -37t14.5 -29q0 -3 -1 -10.5t-1 -11.5q0 -9 3 -28t3 -28q0 -13 1.5 -45.5t7.5 -79.5 t15 -61q7 -6 14.5 -57.5t28.5 -51.5q25 0 49 68q32 103 125 254q7 12 27.5 48.5t34.5 60t39.5 57t49 54t56 35.5t66.5 15q29 0 48 -34.5t28 -95.5t13.5 -119t7.5 -130.5t7 -105.5q1 -11 4.5 -31t5.5 -36t2 -31q0 -3 -1 -10.5t-1 -10.5l8 -18q17 -44 23 -54 q15 -24 26.5 -78.5t28.5 -78.5l5 -14q5 -14 13.5 -32.5t19.5 -37.5t26.5 -32t30.5 -13q18 0 38 23.5t43 63.5t29 48q11 4 24 44.5t31 85t39 56.5q33 17 33 80q0 40 16.5 112t16.5 107q0 1 -0.5 8t0 9t2.5 6.5t6.5 6t11.5 1.5q1 0 3.5 -1t3.5 -1q6 0 11 3.5t5 6.5 q0 4 -3 12.5t-3 12.5q0 6 3 19.5t3 19.5q0 4 -1 11t-1 11q0 15 4.5 40t5.5 36q0 11 10.5 32.5t10.5 34.5q0 5 -1 17t-1 18q0 7 1 22.5t1 22.5q0 31 -13 52q1 3 4 14t3 16q0 6 -4.5 18t-4.5 17q0 13 7.5 56t7.5 65q0 19 -3 60.5t-3 62.5q0 28 28 55t60 27q26 0 26 -64 q0 -38 -15.5 -70t-15.5 -51q0 -7 2.5 -22t2.5 -23q0 -5 -2.5 -14t-2.5 -14q0 -21 12.5 -61.5t12.5 -51.5q0 -16 -6 -62t-6 -61t5 -41t5 -39q0 -41 -23.5 -105.5t-23.5 -94.5q0 -11 4 -31q0 -12 -6 -12q-4 0 -12 4q-10 0 -21.5 -15t-11.5 -26q0 -10 6 -33t6 -33 q0 -39 -8 -125zM1399 459v12q-4 0 -4 -2q0 -10 4 -10zM1419 823q-3 -25 -6 -28q-8 8 -8 16q0 13 10 23q4 -4 4 -11v-2v2zM1462 455q0 -11 -4 -11q-2 0 -3.5 2t-2.5 4v1q0 2 2.5 5t3.5 3q4 0 4 -4z" />
<glyph unicode="X" horiz-adv-x="1140" d="M424 31q2 -2 5.5 -6t6 -6.5t2.5 -4.5q0 -72 -16 -95t-72 -46q-6 0 -15.5 5t-15.5 5q-5 0 -34.5 -8t-44.5 -8q-16 0 -34 8t-18 23q8 49 52 184q7 21 23.5 48t21.5 46q11 45 46.5 112.5t63 131t27.5 117.5q0 22 -8 38q-21 35 -50 117.5t-55 120.5q-10 14 -62.5 142 t-84.5 186q-12 16 -12 26q-4 24 -22 60t-47.5 86.5t-39.5 68.5q13 40 65.5 90t92.5 50q25 0 61.5 -43t54.5 -82q68 -160 78 -164q25 -4 40.5 -31.5t28.5 -73.5t21 -63q10 -22 26 -76.5t33.5 -86t45.5 -40.5q14 23 31.5 67t29.5 64q6 11 30.5 47.5t38 62.5t17.5 50 q0 13 70 161t96 148q33 0 60.5 -22t27.5 -47q-40 -126 -92 -238q-6 -13 -27 -44t-36 -61.5t-15 -58.5q0 -18 -7.5 -28t-24.5 -21.5t-25 -19.5q2 -2 6 -6.5t5.5 -6.5t3 -6.5t1.5 -9.5q0 -13 -32 -87.5t-54 -109.5q-10 -15 -10 -67q11 -174 29 -174q11 0 24 26q10 -11 18 -36 t13 -35q6 -2 11.5 -5t10.5 -7.5t8 -8t7 -10.5t6 -11t5.5 -13t4.5 -13t5 -15.5t5 -15.5q0 -7 -7 -19.5t-7 -19.5q0 -26 22.5 -67t22.5 -51q0 -2 -1 -7.5t-1 -7.5q0 -5 8.5 -8.5t22 -6.5t18.5 -5q8 8 17 8q6 0 16 -4.5t14 -5.5h-2q8 -7 20.5 -23.5t21.5 -28.5t12 -12 q50 0 88.5 -45t46.5 -84q0 -32 -25 -54t-59 -22q-16 0 -68 9q-4 0 -16 11t-21 11q-1 0 -4 -1t-4 -1q-14 0 -42 35t-52 35q-22 14 -37.5 28t-35 37t-25.5 29q-34 34 -86.5 107t-90 124.5t-49.5 51.5t-28.5 -23.5t-16.5 -38.5q0 -6 5.5 -17t5.5 -16q0 -8 -11 -26q2 2 2 10 q0 7 -8 12q-4 0 -7 -6t-3 -10q3 -8 10 -8l8 4q0 -48 -30 -66q-37 -21 -37 -92q0 -3 10 -18q-8 4 -10 4q-10 0 -10 -13q0 -8 6 -8q2 0 12 19zM401 1090h5q0 4 -3 4q-1 0 -2 -1t-2 -1h4l-2 2v-4zM729 983q-18 -9 -18 -25q0 -12 14 -45q-22 11 -33 11q-5 0 -10.5 -3t-11 -10 t-8.5 -11.5t-9.5 -14t-7.5 -11.5q8 -21 8 -30q0 1 -5.5 -10t-12 -27.5t-8.5 -26.5l4 -2l-2 4q12 -4 16 -4q13 0 40 67.5t40 67.5q-2 4 -2 11q0 8 5 23.5t5 23.5q0 6 -4 14q1 2 7.5 9.5t6.5 13.5q-1 -2 -6.5 -10t-7.5 -15zM393 170q-4 2 -12 2q-30 0 -41 -29q0 -2 2.5 -6 t3.5 -4q35 0 45 39zM504 840q-4 -16 -4 -23q0 -14 6 -14q4 0 7 3t3 5q-2 2 -14 27q-7 98 -23 98q-6 0 -6 -8q0 -68 31 -88zM446 305h-2q3 7 13 22.5t15 28t5 25.5q0 20 -4 20q-7 -1 -18 -3.5t-29 -15t-18 -28.5q0 -14 8 -30q-16 -16 -25.5 -31t-12 -23t-6 -26.5t-5.5 -26.5 q0 -3 6 -7.5t10 -4.5q30 0 63 100zM793 342q-6 41 -17 41q-10 0 -10 -8q0 -12 7.5 -29.5t14.5 -21.5q5 15 5 18zM700 231q25 -57 35 -57q10 2 10 6q0 38 -38 58zM911 80q-3 18 -20 18q-14 0 -14 -10q0 -6 8.5 -14t15.5 -8q3 0 4 1.5t3 6t3 6.5zM336 20q1 2 6 10t8.5 14.5 t3.5 10.5q0 8 -6 8t-11 -10t-5 -18q0 -11 4 -15zM496 743q0 1 -1 3.5t-1 3.5q-7 -7 -7 -11q0 -1 5 -6q0 6 4 10zM397 1176l2 -7l2 5zM612 469l6 2l-6 2v-4zM958 160q-19 0 -29.5 24.5t-10.5 42.5q0 9 4 9q7 0 12 -3.5t8.5 -11t6.5 -14.5t7 -20t7 -21q-3 -4 -5 -6zM954 117 l4 -4q-4 4 -6 4h2zM401 1090h5l-3 2q-2 0 -2 -2z" />
<glyph unicode="Y" horiz-adv-x="1198" d="M995 733q15 -15 15 -26q0 -3 -2 -9.5t-2 -9.5q0 -16 18 -16q16 0 48.5 7t45.5 7q5 0 15 -2t14 -2q11 0 42 13.5t54 13.5q4 0 11.5 -1t11.5 -1q7 0 22.5 1t22.5 1q51 -6 51 -23q-3 -26 -35 -55q-15 6 -27 6q-38 0 -89 -12t-81 -29q-13 -7 -61 -23t-75 -36.5t-27 -53.5 q2 -12 2.5 -20t0.5 -10t1.5 -6.5t5.5 -12.5q11 11 16 25q0 -10 3 -27t3 -26q0 -26 -18 -41q-10 -8 -13 -31.5t-12 -30.5q-23 -20 -33.5 -43.5t-10.5 -38t-7.5 -25.5t-27.5 -12q-6 -41 -7 -45q-1 -6 -20 -52t-19 -62q0 -6 3.5 -19.5t3.5 -19.5q0 -22 -25 -78q4 12 4 16 q0 27 -10 27q-8 0 -8 -21q0 -20 16 -20q-14 -23 -43.5 -56.5t-44.5 -33.5q-5 0 -15 3t-14 3q-29 0 -63 -32t-47 -32q-7 7 -21 7q-7 0 -20.5 -3.5t-20.5 -3.5q-34 0 -59 16t-54.5 43t-60.5 42q-16 5 -26 11t-14 16t-5.5 16t-2 21.5t-1.5 21.5q-2 11 -10 34t-8 29t10 25t10 35 q0 4 -1 12t-1 12q0 16 4 45t4 43q0 13 17 38t44.5 59.5t39.5 52.5q16 26 111 104t136 94q59 11 114.5 52t55.5 78q0 6 -2 14t-2 10q0 13 17.5 26.5t17.5 22.5q0 21 -8 59t-8 50q0 28 14 82.5t14 68.5q0 6 -3 18t-3 17q0 41 12 123t13 123q0 16 -12 16q-15 0 -39.5 -25.5 t-24.5 -47.5q0 -23 -29.5 -43t-29.5 -37q0 1 -13.5 -14.5t-27.5 -31.5t-15 -16q-5 0 -14 15q-8 -9 -9 -31t-3 -27q-3 -10 -17 -75.5t-38 -122.5t-64 -97q-4 -5 -24.5 -56t-47 -94.5t-49.5 -43.5q-4 0 -13.5 3t-12.5 3h2q-6 -3 -19.5 -10t-22.5 -11.5t-19.5 -8t-16.5 -3.5 q-5 0 -15.5 4t-15.5 4t-14.5 -1t-14.5 -1q-14 0 -22 8l-17 16q-17 16 -36.5 40t-24.5 41q-3 10 -22 63.5t-25 75.5t-13.5 74.5t-7.5 111.5q0 24 5 41q0 16 -3.5 46t-3.5 44q0 29 5.5 89t5.5 90q0 7 -0.5 24.5t0 26t1.5 23t4.5 22t9.5 16t16 12t24 3.5q38 -11 63 -27t39 -32 t20.5 -46t7.5 -52.5t1 -68.5q0 -15 -4 -46t-4 -46q0 -73 16 -205.5t39 -132.5q10 0 37.5 38t69 103.5t51.5 79.5q0 1 19 36.5t48 78t62 74.5q3 3 8 7q18 17 22 29q2 6 5 19q65 53 86 96q8 18 38 39.5t35 34.5q19 50 72.5 79.5t108.5 29.5q90 0 90 -219q0 -34 -18.5 -87 t-18.5 -69q0 -5 3 -25t3 -35q-11 -19 -44 -115q-1 -4 -1 -3q0 -5 4 -15.5t4 -15.5q0 -10 -9 -26t-9 -21q0 -3 4 -11t4 -10q0 -5 -11.5 -19.5t-11.5 -25.5t11 -22l10 -10q0 -4 -8 -10.5t-17 -6.5l2 -4v4zM723 61q2 5 18 34.5t22 42.5t13.5 36t7.5 39q0 7 -13 23t-13 26 q0 7 3.5 19t8.5 12q10 0 10 -8q-4 -12 -4 -17q0 -12 12 -12q7 0 17 18t10 29q0 17 -37 35q21 56 25 88q0 9 -7 17t-16 8q-16 -2 -32.5 -9.5t-26.5 -14.5t-27 -20t-24 -18q-224 -160 -224 -340q0 -3 3.5 -10.5t3.5 -11.5q0 -5 -1 -14.5t-1 -14.5q0 -33 18.5 -67t50.5 -37 q48 0 81.5 24.5t45.5 26.5q19 4 34 29.5t28 25.5q10 0 22 -8q17 27 17 33q0 5 -9.5 13.5t-15.5 22.5zM934 793q-12 0 -12 -17q0 -16 6 -16q12 6 12 18t-6 15zM942 373q2 -4 2 -13q4 4 4 9q0 2 -4 10q0 -4 -2 -6zM588 -193q1 0 2 -1t2 -1q2 0 2 5q0 2 -2 2q-4 0 -4 -5z M944 322q-2 0 -6 1t-6 1q-1 0 -1.5 -1.5l-1 -3t-1.5 -2.5q2 -1 5 -3t5 -3zM793 1219q2 2 2 4l-4 2q-3 -3 -3 -6h5zM930 471q-4 -8 -4 -12t4 -4l4 2q0 6 -4 14zM637 -221q2 2 5 7t5.5 9t3.5 4q8 0 8 -8q0 -6 -3 -8.5t-10.5 -3t-8.5 -0.5zM639 -219l-2 -2q6 -3 6 -4q-4 0 -4 6 z" />
<glyph unicode="Z" horiz-adv-x="1384" d="M631 213q-4 -20 -4 -29q0 -38 11.5 -53.5t39.5 -15.5t83 12t85 12q6 0 18.5 -1t18.5 -1q9 0 29 2t30 2q22 0 45 -10q30 -14 91.5 -21t117 -21.5t90.5 -49.5q-2 -6 -9 -15.5t-7 -13.5q0 -3 3 -9t3 -9q0 -10 -12 -22.5t-23 -12.5q-6 0 -14 4q-13 -20 -56 -20q-42 0 -81 16 q-127 51 -256 51q-46 0 -210 -46t-233 -46q-14 0 -38.5 6t-50.5 24.5t-26 45.5q0 21 17.5 64.5t17.5 66.5q0 7 -3 22.5t-3 22.5q0 6 8 22q1 1 12.5 20.5t22 38.5t10.5 21q0 26 29 52t29 49q0 6 -11.5 10t-11.5 10q0 5 30 23t30 37q0 11 -25 32q-31 18 -57 29.5t-33 16 t-14 14.5t-17 39q2 4 7 14.5t7 15t6.5 11.5t9 9.5t9.5 2.5q2 0 5 -1t5 -1q96 -29 136 -29q32 0 93.5 47t71.5 94q0 10 30 47t73 86t59 70q16 10 39 38.5t23 41.5q0 7 -4.5 11.5t-8.5 4.5q-15 0 -40 -7t-37 -7q-7 0 -20 2t-17 2q-22 0 -54 -22.5t-43 -22.5q-3 0 -9 1t-9 1 q-26 0 -51 -18q-50 -34 -129 -45q-11 -2 -81.5 -15.5t-98.5 -13.5q-68 0 -134.5 51t-105.5 122t-39 132q0 68 47 115q22 0 78 -49q14 -14 20.5 -46t19.5 -52.5t48 -20.5q36 0 76 3t88.5 8t75.5 7q26 2 79 16t78 17q71 7 235 56t253 49q6 0 20 -2t21 -2q3 0 10.5 2t11.5 2 q30 0 68 -40.5t71.5 -91t36.5 -53.5q0 -2 -3 -13.5t-3 -18.5q0 -5 6 -15.5t6 -15.5q0 -11 -5 -24t-16 -30.5t-20.5 -30.5t-27.5 -37.5t-27 -37.5q-8 -12 -36 -36.5t-31 -35.5q-3 -15 -22 -23.5t-19 -10.5q0 -1 1 -5.5t1 -5.5q0 -7 -11.5 -22t-13.5 -29q-3 -20 -46 -46.5 t-50 -47.5q0 -11 32 -16t63.5 -13.5t31.5 -27.5q0 -42 -34.5 -66.5t-82.5 -24.5q-14 0 -40 2.5t-40 2.5q-33 0 -60.5 -18.5t-27.5 -49.5v2q-9 15 -28.5 34t-30.5 19q-9 0 -31 -15.5t-22 -27.5q0 -14 12 -14q6 0 22 4q2 -8 7.5 -24.5t7.5 -24.5q-6 -7 -29 -37.5t-39.5 -45 t-34.5 -15.5l2 -2q0 30 -16 30q-12 0 -42 -16.5t-30 -24.5q0 -5 5.5 -10.5t9.5 -5.5q7 0 43 12h-2l2 -8t1.5 -6.5t0.5 -5.5q0 -14 -39 -31q-11 0 -31 4q-6 0 -13 -3.5t-7 -6.5t3.5 -8.5t8.5 -5.5q7 1 14 4.5t14 8.5t11 7zM819 670q-2 -2 -4 -2q2 0 4 -2v4zM713 393 q-9 -18 -15 -26q-1 0 -4 1t-4 1q-4 0 -11 -5t-7 -10q0 -1 1 -4t1 -4q6 0 24 23q0 5 -1 9l-1 5q0 8 19 8q0 -2 -2 -2v4zM1016 705q-23 -18 -23 -27q0 -6 11 -6q5 0 8.5 4.5t3.5 7.5q0 2 -4 18zM555 133q0 1 -1 3t-1 3q0 4 4 4q-1 -1 -2 -4.5t-2 -5.5q12 -4 18 -4q18 0 21 23 q-6 6 -10 6q-2 0 -27 -25zM590 328q-31 -31 -31 -45q0 -11 1.5 -14t10.5 -7q17 17 17 68q3 -6 6 -6q10 0 10 8q0 6 -6 6q-1 0 -2.5 -2t-3 -4.5t-2.5 -3.5zM780 625l6 2l-6 2v-4zM862 426q-2 2 -8 2q-4 0 -10.5 -3.5t-9.5 -4.5q-9 0 -9 6t9 6q8 -2 28 -6zM696 281 q-2 -17 -30 -17h2q3 6 7 9t11.5 5t9.5 3z" />
<glyph unicode="[" horiz-adv-x="647" d="M485 -274q4 0 23 3t27 3q63 0 63 -33q0 -34 -28.5 -52t-69.5 -18q-357 17 -357 138q0 11 7.5 33.5t7.5 33.5q0 4 -1 11.5t-1 11.5q0 9 4 26t4 25t-8.5 27t-8.5 30q0 6 5.5 19t5.5 20q0 6 -5.5 18t-5.5 17q0 14 10.5 43t10.5 47q0 7 -2 21.5t-2 21.5q0 16 4 45t4 43 q0 3 -1 10t-1 11q0 7 7 21t7 22q0 49 5 101.5t13 116t11 101.5q0 17 21.5 43t21.5 37q0 16 -14.5 29.5t-14.5 19.5t14.5 25t14.5 32q0 10 -7 31t-7 31t2 14q33 216 41 404q0 13 6 22q11 11 84 40.5t98 29.5q32 0 82.5 -19.5t50.5 -44.5q0 -4 -3.5 -8.5t-10.5 -8.5 t-14.5 -7.5t-20 -7t-22 -6t-25 -6t-24.5 -5.5t-25 -5.5t-23 -4.5q-28 -9 -43.5 -37.5t-18.5 -57t-6.5 -79.5t-7.5 -78q-23 -84 -28 -141q-2 -27 -14.5 -93.5t-12.5 -97.5q0 -33 -14 -74.5t-14 -64.5q0 -22 -7.5 -66.5t-7.5 -64.5q0 -5 1 -16t1 -15q0 -13 -6 -33.5t-6 -29.5 q0 -11 2 -15q0 -11 -9 -36t-9 -41q0 -20 -1 -61t-1 -60q0 -157 26 -334q10 -43 223 -57z" />
<glyph unicode="\" horiz-adv-x="780" d="M416 492q0 -7 4 -7q2 0 4 2q0 9 -6 9q-2 0 -2 -4zM0 1235q8 133 80 133q15 0 25.5 -19t20 -50.5t17.5 -45.5q54 -91 119 -196q33 -67 97.5 -158.5t86.5 -130.5q17 -30 55.5 -86t61.5 -96.5t23 -67.5q0 -4 18.5 -33t42.5 -69.5t35 -65.5q11 -26 38 -69.5t43.5 -81.5 t16.5 -78q0 -21 -27 -43t-55 -33q-27 8 -66.5 49.5t-41.5 52.5q-1 26 -60 127q-22 12 -39.5 33.5t-17.5 44.5q0 3 2 9.5t2 9.5q0 6 -19.5 30t-43.5 57.5t-33 57.5q-19 19 -33 61t-20 48q-17 22 -49.5 85.5t-61.5 94.5q-23 23 -69.5 109t-49.5 147q-18 11 -33 32t-23 40 t-21 52t-21 50z" />
<glyph unicode="]" horiz-adv-x="710" d="M356 338q3 5 9 14l10 15t4 10q-4 20 -4 26q0 10 2 30.5t2 29.5q0 7 -1 21.5t-1 21.5q0 23 4 69q0 7 -1 20.5t-1 20.5q0 12 8 33t8 31q0 11 -7 38.5t-7 41.5q0 8 2 24t2 23q0 11 -4 32.5t-4 34.5q0 5 1 14t1 13q0 21 -6 62t-6 61q0 16 1 49t1 49q0 69 -7 162q0 16 -33 21 t-80 6t-94.5 6t-80.5 29t-33 67q0 23 16 23q1 0 4 -1t5 -1q105 -50 280 -50q10 0 31 3.5t31 3.5q46 -6 118 -45q26 -17 33.5 -43.5t7.5 -67.5q0 -19 -10 -55t-10 -56q0 -15 -1 -34t-1 -27q0 -27 2 -39q0 -10 -8.5 -29t-8.5 -26q17 -58 17 -140q0 -23 -13.5 -102.5 t-13.5 -142.5q15 -132 15 -168q0 -39 -9.5 -96.5t-9.5 -73.5q0 -10 9.5 -50t9.5 -61q0 -153 16 -231q0 -10 -2 -27t-2 -24q0 -16 10 -41t10 -33q0 -18 -14 -36.5t-29 -18.5q-32 2 -96.5 15t-99.5 13q-26 0 -86.5 -5t-89.5 -5t-65 21t-36 49q0 16 23 27.5t60.5 16.5t69 7 t62.5 2q16 0 63.5 18t47.5 35q0 10 1 29.5t1 29.5q0 11 -3 34t-3 34q0 35 10 79.5t10 59.5q0 14 -8 42.5t-8 43.5q0 3 1 8.5t1 8.5q0 5 -23 51z" />
<glyph unicode="^" horiz-adv-x="894" d="M469 1294q-36 -42 -85 -121.5t-85.5 -145t-75 -116.5t-61.5 -51q-13 0 -35 18.5t-45 53.5q28 52 76.5 118.5t88 117.5t80 123t62.5 143q83 0 137.5 -36t98.5 -108q18 -28 71 -107.5t91.5 -143t66.5 -124.5q-22 -22 -41 -22q-13 0 -38.5 10t-29.5 19q-30 45 -102.5 124 t-126.5 177q-24 36 -47 71z" />
<glyph unicode="_" horiz-adv-x="655" d="M758 -319q-1 -2 -3.5 -10.5t-4 -13t-5 -10.5t-9 -10t-13.5 -6q-14 0 -62.5 12.5t-78.5 12.5q-151 0 -283 -14q-6 -1 -40 -7t-52 -6q-5 0 -15.5 2t-15.5 2q-1 0 -3 -1t-3 -1q-64 -18 -170 -18h-11q-34 0 -53 0.5t-50 6.5t-47.5 17t-30 33.5t-13.5 55.5q0 6 6.5 13t12.5 7 q10 0 31.5 -7t33.5 -7q53 2 226.5 14t271.5 12q25 0 76 5.5t77 5.5q9 0 28.5 -4.5t29.5 -4.5q8 0 24.5 4.5t24.5 4.5q100 0 121 -88z" />
<glyph unicode="`" horiz-adv-x="436" d="M395 1208q-3 -10 -5 -24.5t-3.5 -19.5t-7.5 -9t-17 -4q-22 0 -43 13t-37 31t-34 47.5t-29.5 52t-27 55.5t-23.5 47q-4 8 -4 14q0 12 8 23q126 -58 223 -226z" />
<glyph unicode="a" horiz-adv-x="1134" d="M41 264v62q28 7 31 30q0 70 51 199q5 14 17 47.5t20.5 55.5t28 58t44.5 72q11 16 30.5 49.5t33 52t36 40.5t53.5 32.5t71 10.5q65 0 106 -26t82 -79q23 12 70.5 57.5t81.5 59.5q6 2 41 25.5t65 23.5q43 0 76 -27t33 -92q0 -64 -30 -213t-30 -229q0 -14 -16 -54t-16 -63 q0 -47 -10.5 -146.5t-10.5 -146.5q0 -17 1 -48t1 -46q0 -7 -1 -22t-1 -21q0 -25 16 -41q-4 -16 -4 -26q0 -7 12.5 -43.5t16.5 -36.5q21 0 49.5 79.5t28.5 118.5q53 183 69 228q1 10 13.5 22.5t15.5 26.5q5 21 10.5 53t9.5 49t16 39t32 41q9 7 14 27q11 41 48.5 81t68.5 40 q13 0 29 -9t16 -22q0 -6 -4 -10q-3 -4 -25 -34t-42.5 -59.5t-38 -65.5t-17.5 -58q-4 -34 -26.5 -93t-28.5 -83q-2 -10 -12 -56.5t-19 -76t-21 -52.5q-6 -9 -8.5 -37t-13.5 -43q-17 -33 -17 -143q-4 -25 -25 -58.5t-24 -41.5q-16 -37 -96 -37q-12 0 -24 3t-19.5 6t-18.5 11.5 t-15.5 12.5t-17 16t-16.5 16q-11 10 -14.5 28.5t-7.5 20.5q-9 8 -14.5 16.5t-8.5 21t-4 18.5t-1.5 23t-0.5 20q0 10 1 30.5t1 30.5q0 18 -15 39t-15 35q0 72 4.5 159t12.5 208.5t11 168.5q1 22 17 56.5t16 44.5q-2 10 -2 33q0 52 2.5 80t5 36t11 19t12.5 20q0 14 -6 36 t-7 32q-40 -9 -49 -10q-11 -2 -16 -11.5t-6.5 -19.5t-10.5 -18.5t-26 -8.5q-18 -43 -30 -54q-7 -6 -17 -11q-4 0 -41.5 -36t-40.5 -48q-3 -11 -5.5 -28t-4.5 -25.5t-7 -19t-14 -16.5t-24 -10q-11 -3 -127 -247q-72 -132 -91 -155q-25 -30 -63 -33q-13 -1 -41 -1 q-56 0 -99.5 35t-43.5 96q-1 3 -1.5 14t-6 17t-23.5 8zM598 827q-30 13 -51 13q-20 0 -43 -13q-92 -61 -161.5 -187.5t-94.5 -252.5q0 -14 12 -14q6 0 63 76.5t80 113.5q28 45 54 66q21 17 55 61t57 62q31 41 31 61q0 2 -1 6.5t-1 7.5z" />
<glyph unicode="b" horiz-adv-x="1026" d="M350 -225q-10 -21 -32 -31t-37 -10q-40 0 -54 14q-70 20 -97.5 69t-27.5 128q0 53 10.5 159t10.5 158q0 12 -1 37t-1 37q0 61 12 90q4 8 4 16q0 5 -2 14t-2 13q0 52 19.5 150t19.5 139q-2 6 -2 18q0 17 10 60.5t10 68.5q0 18 11.5 56.5t11.5 58.5q3 52 15 119t22 109.5 t33 129.5t30 113q3 12 37.5 114.5t34.5 147.5v8.5v9t0.5 9t1 10t2 8.5t4 7.5l5.5 5.5t7.5 4.5t10.5 1.5q66 0 95.5 -19.5t29.5 -71.5q0 -2 -1 -7.5t-1 -8.5q-19 -100 -70 -268q-3 -21 -29 -89.5t-26 -92.5q0 -5 2 -15.5t2 -15.5q0 -21 -23.5 -77t-23.5 -83q0 -9 4 -28.5 t4 -28.5t-9.5 -27t-9.5 -27q0 -8 2 -12q0 -6 -14 -54.5t-14 -92.5q0 -28 16 -31q22 0 52.5 31t43.5 37q4 1 22.5 26.5t33.5 34.5q15 10 50 34.5t53.5 34.5t57.5 20.5t87 10.5q24 0 51.5 -10t56 -30.5t47.5 -58.5t19 -87q0 -23 -6.5 -72t-6.5 -63q4 -20 4 -29q0 -41 -8 -85.5 t-22 -55.5q-15 -18 -22 -79.5t-25 -78.5q-15 -14 -26.5 -52.5t-27.5 -62.5q-39 -90 -132.5 -155.5t-186.5 -65.5q-20 0 -56.5 4t-54.5 4q-20 0 -20 -57q0 -25 4 -65q0 -14 10 -38t10 -36q0 -25 -8 -49zM373 565q-2 -11 -3.5 -30t-3.5 -29t-9 -22.5t-21 -22.5 q-6 -3 -8.5 -15.5t-3 -36t-0.5 -28.5q10 -20 10 -49q0 -12 -5 -38t-5 -38q0 -8 4 -16q6 -14 9 -33t4.5 -30.5t7.5 -23t23 -17t46 -5.5q60 0 126 26.5t121.5 80.5t71.5 122q0 12 10.5 34t10.5 34q0 9 -2 31.5t-2 32.5q0 22 17 52t17 40q0 8 -5 26t-5 27q0 10 2 30.5t2 32.5 q0 36 -5.5 76t-21 75.5t-38.5 35.5q-7 0 -21.5 -6.5t-21.5 -6.5q-23 0 -38.5 -12t-28.5 -26t-27 -17q-8 -3 -22 -28t-35 -56.5t-44 -46.5q0 -3 -17 -26.5t-43 -53t-46 -43.5z" />
<glyph unicode="c" horiz-adv-x="712" d="M61 322q0 42 15.5 119t15.5 116q0 31 26.5 99t59.5 128q8 15 34.5 47.5t33.5 53.5q4 13 22 28.5t21 30.5t30.5 20t32.5 17q10 27 49.5 51.5t59.5 24.5q9 -1 23.5 -3.5t52.5 -12.5t67 -22t52.5 -32t23.5 -43q0 -58 -23.5 -134.5t-62.5 -76.5q-22 0 -37.5 23.5t-15.5 48.5 l6 69q0 15 -15 15q-56 0 -123 -75t-118 -167q-3 -13 -31.5 -107.5t-28.5 -148.5q0 -76 19.5 -157.5t54.5 -81.5q19 0 124 74t140 112q71 77 166.5 151t147.5 74q35 0 35 -22q0 -17 -24.5 -39t-55 -47t-39.5 -45q-4 -1 -46.5 -43.5t-97.5 -99t-61 -62.5q-31 -33 -74.5 -73.5 t-115.5 -89t-115 -48.5q-40 0 -71 11t-49 26.5t-33.5 41t-23.5 46.5t-19 51t-19 47q-6 13 -8.5 29t-3.5 44.5t-1 31.5z" />
<glyph unicode="d" horiz-adv-x="1099" d="M784 1110q4 -12 4 -16q0 -8 -20 -32t-20 -42q0 -8 2 -24.5t2 -24.5q0 -39 -15 -39q-1 0 -3.5 6.5t-2.5 9.5l-12 -6v2q0 -28 -8 -80.5t-25 -52.5q-2 0 -6 21.5t-12 21.5q-16 -5 -17 -50.5t-14 -45.5q-9 0 -25.5 -18t-19.5 -19q-1 -9 -3 -38t-4.5 -45t-11.5 -33.5 t-24 -20.5v-2q0 -8 -23 -67.5t-24 -61.5q-18 -58 -63 -145.5t-60 -127.5q-7 -18 -48 -58t-50 -40q-10 0 -30.5 -4t-29.5 -4q-12 0 -28 4q-45 16 -69 30.5t-28.5 24t-9.5 23.5t-12 22q-33 39 -33 152q0 10 3 31.5t3 33.5q0 15 16.5 40.5t16.5 43.5q2 16 7.5 29.5t15 30.5 t14.5 30q44 105 86 150q26 28 51.5 72t34.5 81q1 7 21.5 18t42.5 28t28 40q0 3 34.5 12t47.5 9q15 0 51 -10.5t51 -10.5q21 0 37.5 16t26 35t22.5 37.5t27 22.5q8 3 27.5 39.5t19.5 40.5q2 7 6.5 23t7 28.5t2.5 24.5q0 25 15 45t30 35t15 28q0 38 43.5 100t48.5 91 q-1 23 16.5 55t20.5 51q5 45 48.5 82t98.5 37q29 0 56.5 -21.5t27.5 -46.5q0 -54 -32 -146t-35 -134q-22 -61 -33 -78q-41 -63 -41 -193q0 -23 -16 -37.5t-32 -22.5t-16 -15q0 -8 14.5 -12t14.5 -17q0 -4 -5 -12.5t-5 -12.5q0 -6 5 -20.5t5 -19.5q0 -10 -4.5 -13.5t-15 -8 t-19.5 -13.5q0 -21 -1 -53t-11 -92t-27 -74q-8 -6 -7.5 -37t-5 -57.5t-26.5 -26.5q-6 0 -10 3.5t-6.5 10t-3.5 13.5t-1.5 17.5t-0.5 17v17.5v15q-3 0 -22 -19.5t-19 -25.5q0 -5 4 -9.5t10 -8t8 -5.5v-61q-5 -15 -16 -25t-20.5 -14.5t-17 -17t-7.5 -31.5q-8 0 -8 10 q0 19 13 54t13 48q0 7 -5 20t-5 19q0 13 10.5 47t10.5 50q0 6 -3.5 19.5t-3.5 19.5q0 18 11 34q8 8 28.5 46.5t20.5 58.5q0 24 -8 24q-2 0 -8 -2t-7 -2q-6 0 -6 9q0 31 15.5 90.5t15.5 89.5q0 28 -9.5 35.5t-33.5 7.5q-10 0 -21.5 -6t-11.5 -15q0 -3 3.5 -6.5t6.5 -3.5z M547 868q-83 -23 -160 -96.5t-117 -177.5q-7 -23 -18 -43q-26 -43 -45 -112t-19 -105q0 -86 27 -86q10 0 39 51t70.5 135.5t52.5 104.5q16 30 59.5 101t63.5 112q16 10 36.5 45.5t20.5 50.5q0 7 -10 20zM688 907q0 3 1 7.5t1 7.5q0 8 -4 12q0 -4 1 -14t1 -13zM870 801 q-4 -16 -4 -21l6 -12q1 2 3 5l3 4.5t2 4.5t1 6q0 6 -1 7t-10 6zM901 795q1 1 3 2q3 1 3 2q0 18 -6 18q-6 -3 -6 -12q0 -10 6 -10zM780 -82q5 -4 15.5 -9.5t17 -10.5t6.5 -11q-18 -37 -18 -96q0 -5 -3.5 -21t-11.5 -39t-24.5 -40t-38.5 -17q-23 0 -44.5 44.5t-21.5 72.5 q0 10 7.5 26t7.5 21q0 7 -13 29q15 102 15 127q0 14 -7.5 29t-7.5 22q0 9 10.5 33t10.5 37q0 4 -1 11t-1 11q0 15 16.5 30t16.5 30q0 3 -1 9t-1 9q0 18 16 29q1 -1 1 -4.5t1 -6t4 -2.5q4 0 4 5q0 6 -12 6q21 20 34 56t13 60q0 7 -4 7q-10 0 -26 -43t-23 -43q-5 0 -10 4t-5 8 q7 38 21 71q3 4 24.5 38t41.5 65t22 31t6 -1t6 -1q18 0 25 26.5t12 26.5q13 0 23 -25t10 -39q0 -11 -21.5 -39t-21.5 -63q0 -9 4 -26.5t4 -26.5q0 -12 -2 -37t-2 -37q0 -18 -11.5 -37t-11.5 -24t7.5 -16t7.5 -17t-9.5 -18t-9.5 -15q0 -5 8.5 -12.5t8.5 -12.5q0 -12 -13 -16 q-7 -7 -12.5 -17.5t-8 -19t-4 -23t-1.5 -20.5v-22v-17q0 -14 2 -18q0 -13 -13.5 -24t-13.5 -25v18zM819 426q-16 -8 -16 -33q0 -20 8 -39q2 17 6.5 37.5t8.5 33.5l3 13q0 8 -6 8q-4 -3 -4 -20zM705 -51q1 2 4.5 5.5t3.5 4.5q0 2 -3.5 6.5t-4.5 5.5q-1 -1 -5 -5.5t-4 -6.5 q0 -1 4 -4.5t5 -5.5zM811 297l-4 -6h4v6zM735 172q4 4 4 10q0 3 -8 8q0 -1 -2 -4.5t-2 -5.5q0 -1 3.5 -3.5t4.5 -4.5zM784 1108q2 1 6.5 3t6.5 3q0 -6 -4 -6q-7 0 -9 2v-2z" />
<glyph unicode="e" horiz-adv-x="790" d="M137 723q41 51 51 84q6 19 21.5 36.5t31.5 28.5t30.5 26t19.5 30q6 6 27.5 30.5t38 38t36.5 21.5q9 3 32 22t42 19q55 0 119.5 -23.5t113 -68.5t48.5 -97q0 -3 -1.5 -10t-1.5 -10q0 -7 1.5 -20t1.5 -19q0 -39 -29 -59q-11 -6 -25.5 -31t-19.5 -31q-31 -31 -39 -47 q-23 -43 -100 -96t-154 -53q-15 0 -43 4t-43 4q-41 0 -41 -90q0 -265 80 -265q35 0 90 43q238 193 326 271q2 2 27 26t45 42t49 34.5t51 16.5q11 0 21.5 -6t10.5 -17q0 -12 -15 -24.5t-39 -25t-28 -15.5q-110 -93 -110 -113q0 -15 -9 -32t-24 -17q-30 -16 -68.5 -72 t-54.5 -61q-14 -5 -99 -92t-104 -87q-9 0 -20 7q-10 -6 -39 -25q-7 1 -25.5 2.5t-24.5 2.5t-21.5 3t-22 4t-18.5 5.5t-19 8t-16 11t-16.5 15t-14.5 18.5q-7 18 -19 24q-22 12 -40.5 49t-18.5 47q0 4 2 14t2 15q0 9 -11 26t-11 25q0 3 3 11t3 12q0 6 -4 19t-4 20q0 5 5 16.5 t5 16.5q0 7 -7.5 23t-7.5 24q0 137 25 168q14 17 24.5 69t26.5 74q-8 -12 -8 -23q0 -6 4 -10q1 1 2 1q4 3 4 7q0 9 -4 25zM332 621q26 4 55 12.5t65 25t64 37.5t47 53.5t19 69.5q0 35 -11.5 63.5t-38.5 28.5q-47 0 -94.5 -34.5t-78.5 -81t-50.5 -90.5t-19.5 -66 q0 -10 7 -12.5t36 -5.5z" />
<glyph unicode="f" horiz-adv-x="600" d="M170 643q11 36 16 66q2 20 16.5 58t14.5 60q0 2 -1 7t-1 8q17 30 33 86.5t16 79.5q0 1 61 170q6 18 5 16q16 23 28 81t23 68q41 38 41 97q0 17 14.5 40t14.5 29q1 24 19.5 59.5t29.5 49.5q6 10 9 20t4.5 25t2.5 20q29 29 46 62t23 49.5t30 28.5t73 12q66 0 101.5 -41.5 t35.5 -103.5q0 -17 -2 -49.5t-10.5 -81t-21.5 -68.5q0 -26 -18.5 -77.5t-18.5 -80.5q0 -3 -14 -31.5t-34.5 -63.5t-33.5 -48q-1 -4 -2.5 -23.5t-3.5 -31.5q-2 -5 -14.5 -16t-12.5 -21q0 -26 -17.5 -39t-17.5 -47q0 -31 -17 -56.5t-35 -46t-20 -37.5q-4 -32 -26 -61t-45 -64 t-29 -81q-3 -20 -46.5 -64.5t-43.5 -69.5q0 -16 -29.5 -47t-29.5 -47q0 -14 10 -14q50 16 122.5 55.5t130 74.5t122 63t108.5 28q12 0 24.5 -9t12.5 -18q0 -20 -29 -28q-46 -20 -88 -39.5t-90 -46.5t-74 -41.5t-82.5 -50.5t-70.5 -45t-82 -54.5t-76 -50.5t-14.5 -15.5 t-11.5 -26t-8 -26.5t-6.5 -30.5t-4.5 -24.5q63 -134 83 -287t20 -360q0 -8 -6.5 -23t-6.5 -20q0 -7 6.5 -28t6.5 -33q0 -14 -14.5 -71t-14.5 -69q0 -7 3 -22t3 -23q0 -45 -17.5 -134t-17.5 -130q0 -7 1 -21.5t1 -21.5q0 -16 -10 -42.5t-10 -31.5t3 -16t3 -16q0 -22 -11 -37 t-28 -15q-10 1 -90 11q-27 0 -48.5 80t-21.5 137q0 5 2 15t2 15q0 4 -1 12.5t-1 12.5q0 16 8 27q0 41 -2 61q0 4 -9 9.5t-9 9.5q0 2 3 7t3 7q0 4 -2 11t-2 11q0 14 6 46t6 47q0 10 -6 30.5t-6 30.5q0 15 13.5 39.5t13.5 42.5q0 23 -21 41q6 3 6 8q0 3 -4 10.5t-4 10.5 t12.5 11.5t12.5 18.5q-4 32 -4 47q0 19 7 54.5t7 52.5q0 9 -5 26.5t-5 26.5q0 17 4 23q8 19 8.5 54.5t3.5 49.5q0 3 -6 21l2 -2q12 22 14 62.5t4 49.5q0 14 -5.5 20t-20.5 13q6 75 6 78q0 5 -6 35q-2 16 -21 29t-40 21t-38.5 22t-17.5 30q0 25 26.5 39.5t53.5 19.5 q68 19 107.5 101.5t39.5 169.5q0 4 -1 13t-1 13q0 15 13.5 37t13.5 37zM543 1018q4 -12 4 -19l2 5q-4 8 -8 12q10 35 10 43q0 4 -1 12t-1 12q1 19 16.5 50t18.5 49q3 21 33 76t30 63q-2 6 -2 16q0 18 17.5 66t17.5 74q0 15 10 41.5t10 37.5q-4 12 -4 17q0 7 4.5 21.5 t4.5 21.5q0 8 -4.5 16.5t-12.5 18.5t-10 14q-47 -7 -92 -129q-35 -85 -99 -247.5t-100 -250.5q-7 -15 -13 -45.5t-9 -34.5q-23 -27 -44.5 -135t-41.5 -149q-2 -4 6 -19q36 7 41 31q2 10 18 25.5t16 31.5q0 14 1.5 23t2.5 14.5t8 9.5t8 5t14 4t16 4q-4 12 -4 16q0 23 28 68 q5 7 22 45.5t34 71t26 32.5q4 0 9 -3t10.5 -8t7.5 -7zM135 -950q23 39 31 113.5t12 91.5q17 44 17 151q0 27 5 77t5 73q0 12 -2 32.5t-2 30.5q0 266 -45 266q-19 0 -19 -24q0 -8 1 -25.5t1 -25.5q0 -23 -8 -74t-8 -70q0 -8 1 -25.5t1 -25.5q0 -16 -6 -50t-6 -52q0 -10 5 -32 t5 -32q0 -13 -6 -45.5t-6 -48.5q0 -30 4 -90t4 -92q0 -6 -2 -19.5t-2 -19.5q0 -15 6 -27q-4 -12 -4 -18q0 -17 18 -39zM92 -180q-2 1 -3 3.5t-3 2.5q-4 0 -4 -4t6 -10zM8 -559q1 -3 3 -9.5t3 -9.5q0 -8 -6 -8q-2 0 -2 2q0 1 1 10t1 15zM41 -145l2 -2v4q2 0 2 -2h-4zM172 643 q-6 6 -10 8q2 2 6 2t4 -4q0 -1 -1 -3t-1 -3h2zM541 1016l2 2q4 -12 4 -19q2 2 2 5q-6 8 -8 12z" />
<glyph unicode="g" horiz-adv-x="1056" d="M811 104q20 -8 20 -24t-19.5 -44t-37.5 -34q21 -15 21 -22q0 -5 -12.5 -19.5t-12.5 -23.5q0 -5 11.5 -12.5t11.5 -12.5q0 -7 -14.5 -22t-14.5 -27q0 -5 4 -15t4 -14q0 -10 -5.5 -27.5t-6.5 -23.5l-16 -19q-17 -19 -17 -36q0 -15 5 -33.5t5 -26.5q0 -30 -24.5 -122 t-24.5 -103q0 -6 2 -8q0 -21 -24.5 -68.5t-24.5 -52.5q0 -4 4 -12.5t4 -12.5q0 -7 -8 -18.5t-8 -18.5q-1 -26 -24 -74.5t-23 -64.5q0 -3 2 -9.5t2 -8.5q0 -8 -10.5 -23.5t-10.5 -23.5q0 -67 -47 -110.5t-112 -43.5q-45 0 -68 14q-30 20 -39.5 26.5t-32.5 24t-31 27.5 t-23.5 29.5t-20.5 37.5t-12.5 44.5t-10 58t-2.5 70.5q0 24 7 70t7 69q0 27 27 116.5t49 106.5q18 14 23.5 57t27.5 58q6 6 11 21q4 21 13 37t22.5 35t21.5 34q17 64 76 102q2 1 8 13q8 29 31.5 54t47.5 47t31 42q4 13 42.5 63t50.5 50q6 0 18 -4q5 13 23.5 53t31.5 75.5 t13 59.5q0 11 -6.5 29.5t-6.5 25.5q0 9 8.5 36.5t8.5 43.5q0 8 -2 26t-2 27q0 20 7 62.5t7 64.5q0 58 -14 58q-10 0 -13 -8q-11 -31 -28 -45.5t-47 -14.5q-5 0 -9 4q-6 0 -20 -33t-25 -38v4l2 -2q-2 -3 -5 -9t-6 -10t-7 -6q-24 -6 -53 -40.5t-45 -39.5q-18 -6 -36 -32.5 t-20 -28.5q-8 -8 -19.5 -17.5t-20 -18t-17.5 -22.5q-9 -39 -53 -104t-90 -74q-93 0 -146 52t-53 143q0 32 14.5 70t14.5 40q5 25 39 109q6 15 33.5 38t33.5 44t40.5 53.5t41.5 52.5q17 49 105.5 111.5t160.5 62.5q47 0 115 -14q22 -5 58 -31t53 -26q14 0 26 18q12 12 20 24 t10.5 17.5t8 8.5t16.5 3q26 0 54.5 -5.5t58.5 -18t49 -37.5t19 -59q0 -37 -39 -155t-39 -181q0 -13 -14.5 -39t-14.5 -39q0 -19 5.5 -24t19.5 -5q20 0 35 15q14 12 72 36.5t91 24.5q23 0 58 -19.5t35 -48.5q0 -19 -14.5 -25t-33.5 -7t-24 -6q-14 -15 -47 -23.5t-43 -13.5 q-35 -21 -63 -47t-42 -35q-10 -10 -19.5 -11t-27.5 -16t-53 -61q-6 -7 -11 -27.5t-12 -28.5q-3 -3 -11.5 -20t-8.5 -21v2zM582 -690q-9 30 -9 41q0 8 12.5 29.5t12.5 33.5q0 38 22.5 118.5t22.5 125.5q0 20 12.5 44t12.5 34q0 6 -9.5 14.5t-9.5 11.5q0 4 6 13 q8 14 22.5 87.5t14.5 121.5q0 6 -9.5 13t-14.5 7q-6 0 -30.5 -22.5t-31.5 -36.5q-27 -47 -85 -139.5t-90 -150.5t-71 -141t-57 -166t-18 -171q0 -133 73 -164q15 3 41.5 10.5t36.5 9.5q4 5 20 27t25 31q10 9 13.5 31t9.5 30q15 18 30.5 75t47.5 83zM698 852q-3 3 -8 10.5 t-10.5 11t-13.5 3.5q-26 0 -151.5 -88t-125.5 -103q0 -29 -63 -104q-76 -97 -76 -115q1 -3 2 -9t2.5 -7.5t7.5 -1.5l4 2q41 25 110 94t107 88q10 5 43 46t49 54q3 2 11.5 8.5t11.5 9t10 8.5t10.5 10.5t8.5 10.5t8 13q6 11 21 15t27 12.5t15 31.5zM745 -129q-8 0 -8 -6l6 -6 q5 0 5 8q0 1 -3 4zM530 639q-1 1 -2 3t-2 3l-4 -4q0 -8 4 -8t4 6zM612 625l-2 -2v4z" />
<glyph unicode="h" horiz-adv-x="960" d="M1202 635q-38 -42 -57.5 -65.5t-46 -60t-45.5 -73.5q-7 -13 -23.5 -36.5t-29.5 -41.5t-13 -22q0 -52 -43 -119q-14 -19 -25 -59t-20 -56q-5 -10 -9.5 -41.5t-17.5 -44.5q-4 -4 -15 -40t-27 -67.5t-35 -31.5q-154 0 -177 221q-3 14 -13.5 37.5t-10.5 36.5q0 8 6 27.5 t6 31.5q0 21 1 66.5t1 69.5q0 19 -11 55t-11 53q0 10 5 30.5t5 29.5q0 34 -4.5 74t-13.5 40q-30 0 -100 -60t-72 -77l-45 -56q-66 -90 -80 -139q-12 -41 -51 -137t-46 -96q-28 0 -85.5 31.5t-57.5 58.5q0 42 29.5 121t29.5 123q0 9 7.5 26t7.5 27q0 4 -1 11.5t-1 11.5 q0 14 11 37t11 36q0 4 -3 14.5t-3 14.5q0 14 15.5 54t15.5 63q0 22 15 57.5t15 54.5q0 4 -1 14.5t-1 14.5q0 15 4.5 33t13 41t11.5 35q3 14 18 31.5t15 21.5q0 5 -6 16t-6 15q0 7 7 22t7 23q0 3 -1 9.5t-1 10.5q0 16 5.5 36.5t11 35.5t16 40t14.5 36q2 11 4.5 32.5t4.5 32 t8 27.5t16 32l-2 -2q-2 9 26 126.5t37 117.5q7 0 19 -6q14 -6 37 -13t34.5 -11t21 -15.5t9.5 -30.5q0 -27 -21.5 -95.5t-50.5 -106.5l-7 -24q-42 -128 -42 -173q0 -18 -13 -43t-13 -33q0 -3 1 -9t1 -9q0 -11 -5.5 -34t-5.5 -34q-2 0 -13.5 -25.5t-23.5 -63t-12 -62.5 q0 -53 -38 -142t-38 -141q0 -27 17 -27q14 0 41 29t57 66.5t41 46.5q2 2 18 6t28.5 11t12.5 20q15 49 80 63q14 3 38.5 19t37.5 16q7 0 23 -4q43 -16 66.5 -29.5t35 -35.5t14 -43.5t2.5 -65.5q0 -79 -12.5 -234.5t-13.5 -175.5q-1 -18 -11 -61t-10 -60l4 -10q3 -10 8.5 -25 t11 -30.5t11 -26t8.5 -10.5q11 0 54 56.5t43 66.5q0 16 15.5 29t18.5 26q14 89 91 201q15 21 23 45.5t15 56t13 49.5q21 18 51.5 62t57.5 72t53 28q14 0 23 -8t9 -23q0 -4 -4 -20z" />
<glyph unicode="i" horiz-adv-x="540" d="M82 477q0 34 17 150t47.5 232t58.5 116q13 0 29 -3.5t38.5 -10.5t30.5 -9q38 -11 65 -93.5t27 -147.5q0 -27 -10 -150q-7 -19 -8 -56t-8 -56q-2 -2 -2 -11q0 -28 1.5 -60t6 -84.5t17 -86t30.5 -33.5q8 0 12 4q42 50 64.5 78.5t52.5 72.5t48 86.5t28 90.5q6 30 25 47.5 t44 17.5q49 0 49 -36q0 -16 -32 -59t-37 -64q-1 -2 -7 -18t-11.5 -28.5t-14 -27.5t-16.5 -21q-10 -7 -15 -28.5t-8 -26.5q-7 -15 -30 -45t-25 -45q0 -12 -23 -39.5t-28 -42.5q-16 -29 -64 -49.5t-86 -20.5q-49 0 -105.5 45.5t-80.5 100.5q-5 10 -25.5 46.5t-33.5 69 t-13 58.5q0 24 -4 69.5t-4 67.5zM236 1268q0 61 38 61q8 -2 28 -5t29.5 -5.5t22 -8.5t18 -15.5t5.5 -24.5q0 -40 -20.5 -71.5t-57.5 -31.5q-33 0 -48 32.5t-15 68.5z" />
<glyph unicode="j" horiz-adv-x="573" d="M260 1247q36 0 66 -32.5t30 -61.5q0 -31 -31 -72t-55 -41q-29 0 -49 37.5t-20 69.5q0 37 13.5 68.5t45.5 31.5zM-258 -926zM717 414q20 -12 20 -31q0 -29 -28 -29q-13 -2 -62 -7.5t-69.5 -9t-57.5 -14t-69 -24.5q-15 -8 -23 -42.5t-15 -88.5t-14 -80q0 -13 1 -20.5 t1 -10.5q0 -17 -7 -47t-7 -45q0 -12 7 -32.5t7 -30.5q0 -73 -51 -121q0 -16 1 -43t1 -41q0 -22 -14 -29q0 -6 2 -17t2 -18q0 -12 -17.5 -28.5t-17.5 -30.5q0 -10 2 -14q0 -17 -17.5 -25t-17.5 -12v-15q0 -20 -17 -39t-17 -30q-17 -33 -24 -81t-22.5 -82t-60.5 -62 q0 -18 -11.5 -33t-21.5 -15q-3 0 -10.5 1.5t-11.5 1.5q-17 0 -41 -21q5 -10 9.5 -37t14.5 -37q0 -8 -45.5 -28.5t-62.5 -20.5q-9 0 -15 4t-14.5 16t-11.5 15q-14 0 -44.5 -5t-47.5 -5q-12 0 -21.5 1.5t-15.5 3t-13.5 7t-10 7.5t-11.5 11.5t-12 12.5q-17 0 -62 63t-45 84 q-39 70 -39 217q0 75 17 151.5t51 125.5q28 87 154 237q3 3 26.5 31t47 53.5t54 50.5t52.5 31q5 0 50.5 28.5t93.5 72.5t48 75v17q0 19 1 48.5t1 45.5q0 38 -13 109t-15 88q0 1 -14.5 35.5t-14.5 52.5q0 53 24.5 95t41.5 42q18 0 55 -10.5t49 -12.5q30 -31 58.5 -81.5 t41.5 -102.5q0 -127 15 -204q9 -40 20 -40q89 35 197 35q14 0 44 -8t42 -8zM8 -877v13q2 -2 2 -4q-1 0 -1.5 -0.5t-1.5 -2.5t1 -6zM86 -485h6l-6 8v-8zM100 -440q0 -2 9 -2q2 0 10 8q-2 3 -4 7t-3 5.5t-3 1.5q-11 -6 -11 -14zM78 -426q90 332 90 532q2 8 -5.5 17.5 t-17.5 9.5q-6 0 -13 -5.5t-7 -10.5q-12 -23 -58.5 -48t-58.5 -46q-11 -18 -32 -38.5t-40 -35t-36.5 -36.5t-22.5 -46q-2 -3 -8.5 -15.5t-13.5 -17.5q-79 -79 -122.5 -190.5t-43.5 -212.5q0 -29 13 -82.5t15 -71.5q19 -48 50.5 -76t52.5 -31l22 -4q11 0 35 17q7 7 38.5 28.5 t55 43t23.5 36.5q0 1 -1 5.5t-1 5.5q0 13 11 21.5t24.5 14.5t24.5 24.5t11 47.5q0 6 -5 20t-5 17q0 5 3 14t3 13q0 10 -6 16q0 9 3 21t5.5 20t8.5 23zM170 -735q20 11 20 33q0 37 -12 57q-12 0 -18 -21t-6 -36q0 -39 12 -39q2 4 4 6zM240 -492q1 0 3.5 2.5t2.5 4.5 q0 13 -13 26q-8 -8 -8 -14q0 -19 15 -19zM274 -387q5 15 5 18q0 5 -1.5 13t-1.5 10q0 1 3 10l-5 4q-6 0 -6 -4q0 -33 6 -51zM303 -170q3 0 6.5 -4t7.5 -4q7 0 7 12l-15 4q-6 0 -6 -8zM317 -299q7 0 7 14q-21 0 -21 -18q14 0 14 4zM362 -2v-2v2zM344 -35l6 -8q5 0 7.5 1.5 t3.5 4.5t1.5 5t0 6.5t-0.5 5.5q0 10 -6 12q-14 -4 -14 -17q0 -8 2 -10zM369 -143q6 6 6 18q-13 13 -13 25q-3 0 -6 -2t-4 -4l-2 -3q0 -35 6 -41z" />
<glyph unicode="k" horiz-adv-x="792" d="M219 -96q-14 5 -25.5 29t-21.5 30q-3 1 -8.5 58t-5.5 85q0 14 -9.5 40.5t-9.5 37.5q0 6 9.5 23t9.5 31q0 2 -6 67q0 16 -14.5 42t-14.5 44q0 47 8 137q0 13 13.5 32.5t13.5 27.5q0 9 -11.5 25t-11.5 26q0 4 2 13.5t2 13.5q0 10 -4 31.5t-4 31.5q0 20 13.5 59.5t13.5 51.5 q0 10 -10.5 29.5t-10.5 31.5q0 31 12.5 94t12.5 92q0 8 -4 25t-4 25q0 6 7 16t7 16t-4 17t-4 16t10 23.5t10 34.5q0 10 -8 30t-8 27q0 3 18.5 35t18.5 63q0 10 -5.5 29.5t-5.5 28.5q0 26 9.5 79t9.5 78q0 6 -3 19.5t-3 19.5q0 12 32 20.5t60 8.5q51 0 67.5 -25t16.5 -94 q0 -48 -17.5 -157t-17.5 -165q0 -9 -12.5 -51.5t-12.5 -72.5q13 -8 13 -23q0 -9 -8 -25q-25 -60 -25 -180q0 -15 -11.5 -31.5t-11.5 -23.5q0 -12 9 -21q-2 -7 -5.5 -22.5t-5.5 -22.5q0 -8 9 -8q6 0 39.5 39.5t75 87.5t97.5 87.5t101 39.5q25 0 44 -23t19 -46q0 -15 -4 -32.5 t-13.5 -41t-15 -36.5t-19.5 -42.5t-17 -34.5q-27 -55 -71 -115.5t-91 -99.5q-10 -10 -16 -22q3 -13 10 -29t14 -28.5t20.5 -31t21 -29t25 -31t24 -27.5t26 -29t22.5 -25q16 -18 61.5 -51.5t65.5 -58.5q23 -24 60.5 -36t72.5 -28.5t60 -56.5q-39 -72 -113 -72 q-22 0 -116 25.5t-109 52.5q-4 12 -12.5 19.5t-21 13t-17.5 10.5q-15 15 -49 45t-59 56t-42 53q-16 25 -42.5 38t-39.5 13q0 -1 -16 -21.5t-16 -27.5q0 -12 8 -15q9 -1 28 -58.5t19 -72.5q0 -5 -10.5 -18t-10.5 -15t13 -8q2 -1 14.5 -30t24.5 -65.5t12 -53.5 q0 -19 -5.5 -44.5t-24.5 -52t-48 -26.5q-21 0 -36 18t-15 41q0 11 6 23l-4 4q4 -4 6 -4zM242 782q-2 2 -11 2l-4 -4q2 -2 6 -2q5 0 9 4zM580 961q-3 6 -9 6q-37 0 -99.5 -61t-94.5 -120q-6 -12 -27 -45t-35 -59.5t-14 -42.5q0 -10 11.5 -16.5t29.5 -6.5q8 0 12 2 q39 21 64.5 46t56 68.5t39.5 55.5l7 10q7 11 13 21t15 27.5t15.5 34.5t11 38.5t4.5 41.5zM221 381v18q0 15 -4 15q-33 -56 -33 -58q0 -4 5 -10t8 -6q7 1 12 4.5t7.5 7t3.5 8.5t1 8v8v5zM217 170q6 12 6 25q0 28 -10 38q-1 0 -3.5 -2.5t-2.5 -3.5q0 -3 1 -17t2.5 -23t6.5 -17 zM242 72q0 -1 -1 -3t-1 -3q0 -3 6 -15q8 8 8 17q0 16 -8 16q-1 0 -1.5 -2.5t-1 -5.5t-1.5 -4zM223 283q-4 8 -6 10q-12 -4 -12 -10q0 -11 8 -11q6 0 10 11zM219 647l3 6q3 6 3 11q0 4 -6 10q-6 -2 -6 -15q0 -6 6 -12zM188 442q5 5 5 7q0 3 -5 18q-6 0 -6 -14q0 -5 6 -11z M248 375l-4 -6h6z" />
<glyph unicode="l" horiz-adv-x="604" d="M303 532q16 -16 16 -63q0 -27 -14 -51t-14 -39q0 -25 8 -25q1 0 5 3t7 3q8 0 8 -81q0 -36 -16 -75t-16 -67q0 -12 -1 -32.5t-1 -34.5q0 -78 57 -78q4 0 6 2q0 -7 0.5 -19.5t1 -20.5t1.5 -17t3.5 -13.5t5.5 -5.5q13 0 39 74.5t58.5 175t52.5 139.5q6 -2 14 -2 q11 0 13 23.5t8 23.5q5 0 9 -39t11 -39q15 15 15 107q0 8 -2.5 25.5t-2.5 25.5q0 47 16 92t50 64q7 4 12 18.5t9.5 42t5.5 31.5q3 19 20.5 49.5t22.5 46.5q3 15 43 45.5t63 30.5q11 0 22 -4.5t11 -11.5q0 -47 -82 -129q-20 -15 -41 -58t-36 -77.5t-23 -34.5q-4 0 -10 7 t-11 7q-8 0 -11.5 -46.5t-5 -118.5t-3.5 -97q-5 -4 -27 -17q-2 -21 -2.5 -103t-9.5 -126q-4 0 -14 1t-15 1q-4 -8 -4 -12q0 -5 3 -16t3 -17q0 -5 -1 -15.5t-1 -15.5q0 -3 1 -10.5t1 -11.5q-1 -32 -9.5 -63.5t-23 -68t-20.5 -57.5q-7 -23 -24 -37t-32.5 -24t-19.5 -21 q-3 -8 -14 -20.5t-21.5 -21.5t-11.5 -9q-5 0 -15 7.5t-16 7.5q-7 0 -22.5 -5.5t-22.5 -5.5q-31 3 -53 33t-31.5 65t-23 72.5t-27.5 50.5q-8 8 -8 39q0 45 -16.5 86t-16.5 105q0 19 1 53.5t1 46.5q0 18 -6 49t-6 47q0 24 6 71t6 71q0 39 -2 59q0 13 5.5 18.5t12 5t12 2.5 t5.5 11q0 6 -1 18.5t-1 18.5q4 82 4 123q0 25 -11.5 69t-11.5 66q0 33 4 64t13.5 79.5t11.5 61.5q4 8 4 18q0 9 -3 28.5t-3 29.5q0 9 6 26.5t6 26.5q0 7 -2 22t-2 23q0 23 7.5 74t7.5 71q0 8 -1 24t-1 23q0 17 1 48.5t1 46.5t-6.5 37.5t-6.5 33.5q0 47 95 47q49 0 61 -13 t12 -56q0 -55 -12 -176.5t-12 -163.5q0 -5 4 -16t4 -17l-2 -4q-6 -12 -8 -25.5t-2.5 -31t-1.5 -27.5q0 -6 4 -16.5t4 -16.5q0 -4 -3 -11.5t-3 -10.5q0 -5 3 -14.5t3 -14.5q0 -8 -4 -28.5t-4 -28.5t4 -25t4 -25q0 -19 -8.5 -54t-8.5 -50q0 -6 4.5 -18.5t4.5 -18.5 q0 -8 -9.5 -24.5t-9.5 -24.5t9.5 -22t9.5 -25q-3 -29 -10 -61t-9 -46v4zM158 301q1 0 13 4.5t17 9.5t5 13t-9.5 15t-17.5 7q-14 0 -14 -26q0 -11 6 -23zM485 176l-6 2q-2 -20 -2 -61l4 -4q4 0 4 32v31zM606 371l-2 -14l-1.5 -10.5t-0.5 -6.5q0 -6 4 -10q0 1 1 3t1 3 q0 2 -1 13t-1 22zM330 -90q-8 0 -8 -16q0 -9 6 -15q1 4 4 10.5t4 10.5q0 4 -6 10zM567 203q8 8 8 10q0 6 -6 6q-7 0 -10 -10q0 -6 8 -6zM270 207q0 6 -4 10q-4 -8 -4 -12t2 -6q1 1 3 4t3 4zM686 641q0 8 -4 8t-4 -4q0 -1 1 -3t1 -3q4 0 6 2zM264 414l2 -6l2 4z" />
<glyph unicode="m" horiz-adv-x="1396" d="M907 616q1 -4 3.5 -10t2.5 -8q0 -11 -11 -30.5t-27.5 -42.5t-18.5 -27q-10 -14 -19.5 -35t-14.5 -37t-13.5 -45t-11.5 -39q-4 -15 -17.5 -36t-13.5 -38q0 -24 -25.5 -62t-60.5 -38q-8 -1 -18.5 1.5t-18.5 5t-22 8t-21 7.5q-33 11 -52.5 61.5t-24.5 104.5t-12 98t-17 44 q-13 0 -32.5 -31.5t-43 -77t-35.5 -61.5q-4 -6 -11.5 -28t-13.5 -28q-15 -16 -33.5 -45.5t-31 -47t-40 -32t-67.5 -14.5q-17 0 -34 17q-11 8 -39.5 64t-28.5 95q0 20 -1 65t-1 68q0 35 4 105q2 18 21.5 62t19.5 81q0 7 -4 23t-4 22q30 129 39 203q1 14 14.5 20.5t28.5 6.5 q29 -7 56 -16.5t53 -30.5t26 -46q0 -10 -2 -16q-19 -51 -32.5 -134t-25.5 -118q-5 -13 -8 -48t-14 -52q0 -16 9 -48.5t9 -37.5q0 -7 -7 -21.5t-7 -21.5q0 -3 3.5 -11t8.5 -8q18 0 43 37q91 143 224 264q63 5 75 5q24 0 40 -19.5t16 -46.5q0 -29 -5 -86t-6 -80q0 -6 9 -6 q13 0 36 36.5t31 59.5q4 15 52.5 73.5t76.5 113.5q55 110 90 126q2 1 4 1q21 5 34 38t28 43q13 9 35.5 39.5t44 58.5t61.5 51t88 23q39 0 64.5 -32.5t25.5 -96.5q0 -10 -4 -18q-11 -24 -15.5 -58t-5.5 -84.5t-3 -70.5q0 -9 -12.5 -28t-12.5 -35q0 -10 9.5 -20t9.5 -17 t-10.5 -27t-10.5 -31q0 -8 4 -20q-9 -49 -18 -96q-2 -5 -10.5 -15.5t-8.5 -15.5q0 -14 -0.5 -21t-5 -16.5t-5.5 -11t-13 -17.5q0 -45 -9.5 -124t-9.5 -119q0 -20 8 -35.5t33 -36.5q32 37 72 103.5t59 121.5q4 8 21.5 27t17.5 29q0 44 22.5 72t86.5 28q11 0 23 -10.5 t12 -22.5q0 -1 -1 -3t-1 -3q-11 -15 -44.5 -57.5t-51 -74t-23.5 -69.5q-3 -16 -34.5 -55t-31.5 -55q0 -2 1 -6.5t1 -6.5q0 -31 -15.5 -82t-17.5 -73q-3 -29 -30 -66.5t-33 -54.5q-7 -21 -46.5 -33t-72.5 -12q-13 0 -24 2.5t-20.5 10t-15.5 13t-14 19t-11.5 19t-12 23.5 t-10.5 23q2 4 2 13q0 25 -21.5 59.5t-21.5 50.5q0 9 2.5 18t7.5 21.5t6 16.5q6 31 6 145q0 25 15.5 69t15.5 60q0 7 -5 20t-5 19q0 7 3.5 12.5t13 13t13.5 11.5q-14 42 -14 49q0 52 29.5 139t29.5 101q0 16 1.5 52.5t1.5 55.5q0 14 -3.5 43t-3.5 43q0 4 1 12.5t1 12.5 q0 10 -10 10q-7 0 -18.5 -8t-18.5 -8q-6 0 -10 2q-1 -6 -3 -17t-3 -15.5t-3.5 -11.5t-7.5 -11t-12 -7q-28 -11 -46.5 -52t-38.5 -87.5t-48 -65.5v2q2 0 2 -2q0 2 -4 2zM1264 352q-1 -2 -3 -4q-5 -8 -16 -8q0 4 0.5 7t2.5 4.5t3 2.5t4.5 2t4.5 2q2 -4 4 -6z" />
<glyph unicode="n" horiz-adv-x="956" d="M811 -190q-28 4 -31 4q-11 0 -35 -15q-39 0 -68.5 24.5t-46 65t-24.5 83t-10 87.5q0 10 1 30.5t1 29.5q0 15 -4 41t-4 39q0 20 18.5 58.5t18.5 39.5q0 4 -1 11t-1 11q0 3 2 10.5t2 10.5q0 6 -10.5 17t-10.5 20q0 13 7.5 39t9.5 35q0 6 -6.5 14.5t-6.5 13.5q0 4 9 13 q26 17 26 81q0 17 -4 50t-4 49q0 9 4 29.5t4 29.5q0 17 -6 17q-17 0 -77 -63.5t-64 -98.5q-4 -39 -94 -172q-60 -93 -88 -121q-61 -64 -144 -64q-28 0 -47 18t-27 51t-11 63t-3 71q0 30 2 76t2 70q0 8 -4 24.5t-4 24.5q0 6 5 18t5 19q0 5 -1 15.5t-1 16.5q0 35 14.5 109 t14.5 110q0 20 34.5 37t65.5 17q22 0 35.5 -8t19.5 -24.5t7.5 -30.5t1.5 -36q0 -67 -9 -270q-2 -16 -20 -59t-18 -66q0 -4 8 -16q22 0 53.5 40.5t72.5 96t74 78.5q12 13 34 45.5t34 46.5q18 22 67.5 52t53.5 36q27 39 100 39q61 0 73.5 -43.5t12.5 -184.5v-44 q0 -21 -21.5 -47.5t-21.5 -43.5q0 -3 2 -10.5t2 -11.5t-3 -14.5t-3 -14.5q0 -8 11.5 -22.5t11.5 -18.5q0 -5 -5.5 -9.5t-15 -9t-12.5 -7.5q0 -7 4 -19.5t4 -13.5v-2q-18 -33 -18 -156v-28.5v-34v-33.5t1 -33t3 -25.5t5 -19t7 -6.5q12 0 36 45t58.5 123t40.5 90q3 9 18 16.5 t15 14.5q3 39 27 67q12 13 31 51.5t41.5 62.5t58.5 24q24 0 24 -23q0 -26 -36 -83.5t-58 -70.5q-5 -8 -5.5 -31.5t-10.5 -31.5q-18 -18 -29.5 -53t-22.5 -47q-1 -1 -8 -28.5t-13.5 -54.5t-6.5 -26q0 -6 2 -19.5t2 -19.5q0 -22 -20.5 -51t-20.5 -41q0 -20 -3.5 -30t-17.5 -17 q-2 -1 -11 -20t-22.5 -42.5t-27.5 -35.5zM662 428q0 1 -5 6l-4 -4q0 -8 4 -12zM735 115l-2 -6h4z" />
<glyph unicode="o" horiz-adv-x="917" d="M1102 807q0 4 4 4q9 0 23 -12.5t14 -24.5q0 -33 -86 -41q-71 -6 -195 -67q-59 -30 -76.5 -48.5t-23.5 -62.5q0 -11 -18 -95t-23 -89q-19 -11 -22.5 -34t-5 -50t-13.5 -43q-6 -8 -24.5 -40t-56 -80t-101.5 -112q0 2 -2 2q-15 0 -115 -59q-6 2 -31.5 8.5t-37 10t-31 12 t-33.5 18.5q-6 4 -16 13t-35 39t-44 64t-35 89.5t-16 114.5q0 21 8.5 59t8.5 57q0 11 21.5 80.5t21.5 95.5q0 20 -29 88t-29 99q0 52 6.5 91t20.5 64t31 40.5t44 23t52.5 10t63.5 2.5h98q32 0 84.5 -27.5t64.5 -31.5q44 -15 91.5 -69.5t64.5 -110.5q1 -3 3 -12.5t3 -13.5 t3.5 -12.5t4.5 -12t6 -9.5t8 -9t9.5 -5t11.5 -2q7 0 19 4q13 4 72.5 25.5t83.5 29t69.5 17.5t83.5 12zM649 504q-1 6 -1.5 19t-1.5 18.5t-6.5 10.5t-16.5 5q-5 -2 -24.5 -9t-25.5 -9t-23.5 -8.5t-26 -8.5t-24.5 -7t-26.5 -6.5t-24.5 -4t-27 -3.5t-26 -1q-55 -13 -55 -135 q0 -5 1 -15.5t1 -15.5q0 -14 -7 -43t-7 -41q0 -39 22 -82t58 -43q34 0 70.5 39t61.5 86.5t49.5 92.5t35.5 52q10 6 14.5 23.5t6 46.5t3.5 39zM352 965q-18 -5 -33 -7q-44 -6 -72 -54t-28 -97q0 -62 27 -62q4 0 4 3l15 15t11 11.5t7.5 7.5t8 5t7.5 1q12 0 31 -8q1 0 11.5 -3 t21 -6.5t26 -9.5t28.5 -12.5t24.5 -14.5t18.5 -17t7 -19q0 -9 -14.5 -36.5t-14.5 -36.5q0 -19 27 -19q59 7 115.5 26t56.5 50q0 25 -6 37q-113 246 -279 246z" />
<glyph unicode="p" horiz-adv-x="1011" d="M133 766q20 3 25.5 18.5t5.5 42.5q0 15 -4 42t-4 42q0 10 3 19t6 14.5t10.5 16.5t12.5 18q-8 54 -8 76q0 19 2.5 38t9 39.5t19.5 33t31 12.5q45 0 84 -32t39 -87q0 -33 -30 -107.5t-30 -126.5q0 -15 -13 -59.5t-13 -69.5q0 -4 4 -12.5t4 -11.5q0 -8 -13.5 -29t-13.5 -37 q0 -2 2 -2q6 0 6 8q-1 3 -2 10.5t-2 10.5q20 -10 37 -10q16 0 33 19t39.5 55.5t27.5 43.5q31 42 81 89.5t126.5 90t143.5 42.5q29 0 73 -19q5 0 20 -16t29 -17l46 -59q10 -35 10 -45q0 -103 -27 -150q-9 -9 -13.5 -37.5t-12.5 -39.5q-64 -86 -76 -125q-11 -30 -61.5 -81 t-53.5 -77q-4 -14 -17 -23.5t-25.5 -14t-23 -11t-10.5 -15.5q0 -32 -103.5 -69t-150.5 -37q-11 0 -33 6t-28 6q-21 0 -37 -60.5t-16 -121.5q0 -8 4 -23.5t4 -23.5q0 -7 -2 -22.5t-2 -22.5q0 -52 14 -68q27 -36 27 -133q0 -13 11 -40t11 -42v-11v-13t-1 -12t-3.5 -13 t-6 -10.5t-9.5 -10.5l-14 -7t-20 -5.5t-26 -1.5q-25 0 -46 23t-21 47q0 20 -11.5 58t-11.5 57q0 4 1 13t1 13q0 3 -1 9.5t-1 9.5q0 8 7.5 24t7.5 23q0 8 -13.5 27t-13.5 34q0 14 -8 33.5t-8 28.5q0 7 10 47q-4 8 -4 28q0 7 1 23t1 24q0 19 -8.5 55.5t-8.5 55.5q0 27 13.5 79 t13.5 77q0 8 -7 20t-7 19q0 6 8 18t8 21q0 8 -5 24.5t-5 24.5q0 27 10.5 46t20.5 29.5t10 16.5q0 4 -9.5 19t-9.5 22q0 10 10.5 43.5t10.5 52.5zM489 694q0 -54 -32 -71q-9 -3 -13 -19q-9 -21 -33 -57t-43 -66t-35 -86.5t-16 -124.5q0 -30 29 -30q14 0 28 2t30 7t27.5 8.5 t30 13t27 13.5t28.5 16.5t25 15.5t26.5 17t23.5 15q52 52 104.5 140.5t61.5 185.5q2 17 12 62.5t10 70.5q0 22 -4.5 32t-10.5 11.5t-20 1.5q-31 0 -67 -21t-64 -47.5t-63 -53.5t-62 -36zM254 549q-1 1 -2 3t-2 3q-11 0 -18 -12.5t-9 -24.5q0 -6 4 -6q7 0 16 12.5t11 24.5z M195 467q-1 2 -3.5 6t-3.5 6l-6 -12l6 -12q1 2 3.5 6t3.5 6zM193 -37q-1 1 -3.5 4t-3.5 4q0 -2 -4 -10q0 -2 4 -6q1 1 3.5 4t3.5 4z" />
<glyph unicode="q" horiz-adv-x="1136" d="M1364 422q18 0 18 -8q0 -15 -25.5 -40t-60.5 -36q-100 -30 -155 -80q-29 -26 -94.5 -62.5t-92.5 -58.5q-50 -24 -131.5 -91t-124.5 -89q-34 -16 -34 -123q0 -17 2 -45.5t2 -42.5t-8.5 -39t-8.5 -39q0 -5 3 -15t3 -15q0 -7 -6 -13q-7 -6 -11 -14.5t-5 -14t-1.5 -18 t-0.5 -16.5q0 -13 -12.5 -28t-12.5 -23q0 -25 3 -73t3 -73q0 -97 -30 -149q-9 -15 -9 -35q0 -8 2.5 -23.5t2.5 -23.5q0 -10 -11 -84q-10 -5 -28 -17t-31.5 -18t-26.5 -6q-36 0 -58 29.5t-22 64.5q0 19 -15 52t-15 57q0 12 2 20q15 15 21 33.5t8.5 55t5.5 52.5q7 -11 9 -26 t2 -25.5t3 -18.5t12 -8q19 4 23 19q0 8 -11.5 17.5t-11.5 17.5q0 5 8.5 13t8.5 13t-3.5 15.5t-3.5 15.5q0 7 19.5 34t38.5 50l20 23q0 7 -14 17t-14 15q0 14 11 25t23.5 17t23.5 17t11 25q0 1 -1 9t-1 14q0 2 1 6.5t1 7.5q0 53 -33 53q-5 0 -13 -5t-18.5 -13t-13.5 -10 q-10 0 -10 10l4 5q4 5 11 13t15.5 16t20 13.5t21.5 5.5q6 0 10 -2q8 0 8 6t-3 17.5t-3 17.5q0 14 6 29q-2 8 -7.5 23.5t-6.5 17.5h-31q-3 9 -11 24t-12.5 26t-4.5 19q2 16 15.5 35t31.5 25q42 14 179 96t193 94q8 2 20 13.5t17 13.5q27 13 81.5 50.5t86.5 51.5 q15 6 110 55.5t136 55.5zM547 -504l4 4zM397 -805q-4 0 -6 -2q0 -8 4 -8l4 4q0 1 -1 3t-1 3zM414 930q15 19 21 26.5t22.5 19t31.5 11.5q13 0 25 -6q24 4 35 4q18 0 37.5 -4t45.5 -12t38 -11q19 -5 54 -32t50 -27q17 0 29.5 17.5t19.5 39t24.5 39t43.5 17.5q2 0 7 -1t7 -1 q6 0 18 5t19 5q27 0 62.5 -31t37.5 -47q-1 -2 -5.5 -7.5t-6 -8l-4.5 -7.5t-4.5 -8.5t-2.5 -8.5t-1 -11q0 -7 -0.5 -12.5t-1.5 -9.5t-3 -7.5t-3.5 -6t-4.5 -4.5l-4.5 -3t-5.5 -2t-5.5 -1.5t-6.5 -1.5t-6 -1q-2 -6 -3.5 -15t-2.5 -14t-4 -10.5t-9 -7.5q-9 -5 -14.5 -22.5 t-9.5 -46.5t-6 -38q-3 -11 -40.5 -61.5t-37.5 -65.5q0 -6 8 -12.5t8 -11.5q0 -4 -5 -13.5t-5 -13.5t4 -11.5t4 -11.5q0 -9 -10 -17.5t-18 -8.5q-3 0 -5 0.5t-3.5 2.5t-3 3.5t-3.5 5.5t-3.5 6.5t-4 8.5t-4.5 10q-6 -86 -12 -86q-9 0 -9.5 19.5t-9.5 19.5q-7 0 -20.5 -5 t-18.5 -6q-11 0 -13 28t-9 28q-2 0 -3.5 -24t-5.5 -50t-12 -29q-6 0 -12 4.5t-6 8.5q1 13 7.5 40.5t6.5 34.5q0 6 -7 18.5t-7 18.5t5 20t5 21q0 13 -5.5 27t-16.5 14q-8 0 -13 -10.5t-7 -23.5t-9 -23.5t-19 -10.5q-5 0 -11.5 7.5t-10.5 7.5q-7 0 -12.5 -18.5t-5.5 -30.5 q0 -1 1 -5t1 -6q0 -3 -9.5 -25.5t-26.5 -46.5t-32 -24q-2 0 -6 1t-6 1q-8 -37 -35.5 -70.5t-52.5 -62t-29 -55.5q-8 -50 -56.5 -75.5t-105.5 -25.5t-100 46q-25 25 -52.5 67.5t-27.5 63.5q0 7 3 20.5t3 20.5q0 4 -1 12t-1 12q0 21 6 39q0 2 -1 6t-1 6q30 46 33 88 q2 29 29.5 81t52.5 88.5t84 119.5q5 8 31 35t46.5 52t20.5 36q7 24 14.5 28.5t38.5 4.5h15zM188 315q1 -9 1.5 -24.5t1 -22t3.5 -14.5t9 -11t16 -3q1 0 2 1t2 1q30 14 69.5 55t82.5 87t80 67q7 5 8.5 18t3.5 16q13 22 51.5 57t52.5 62q17 32 65 83t64 77q5 9 29.5 27.5 t24.5 27.5q0 15 -40 36.5t-65 21.5q-11 0 -24.5 -4t-24.5 -9t-27.5 -14.5t-25 -15t-26 -17t-21.5 -14.5q-25 -16 -73 -70.5t-81 -75.5q-12 -1 -20.5 -12.5t-12.5 -24.5t-11 -23.5t-15 -10.5q-3 0 -13 6t-16 6q-16 0 -29.5 -33.5t-13.5 -54.5q0 -20 -20.5 -38.5t-20.5 -31.5 q0 -12 10.5 -40.5t10.5 -43.5q0 -20 -7 -41zM778 508q0 6 -12 6q-21 0 -21 -20q0 -2 3.5 -5.5t5.5 -3.5q21 16 24 23zM897 711q0 18 -4 20q-10 -6 -10 -14q0 -23 4 -27q10 10 10 21zM752 553q4 4 4 6q-3 6 -4 6q-4 0 -4 -8q0 -4 4 -4zM522 440q0 11 -6 11q-2 0 -9 -7t-7 -12 q0 -4 6 -4q10 0 16 12zM717 702l4 -2zM727 301q-11 -35 -37 -35q-3 0 -14.5 10t-23 26t-11.5 28q0 8 14 12t34 9.5t30 15.5q8 0 8 -11q0 -15 -21.5 -26.5t-21.5 -28.5q4 -4 6 -4q27 0 37 4zM487 -225q8 0 17.5 10.5t17.5 11.5q8 0 8 -8q-8 -16 -22 -16q-4 0 -11 1t-10 1z M696 170q-12 24 -12 27t3 8.5t7 5.5t4 -4q0 -6 -1 -18.5t-1 -18.5zM446 -530q0 -23 -10 -23q-3 0 -6.5 5t-3.5 9q5 8 16 15q1 -1 2 -3t2 -3zM662 100q0 -8 -6.5 -17t-12.5 -9q-2 0 -5 2.5t-3 5.5q0 13 22 22q3 -4 5 -4zM530 -389q0 -19 -12 -19q-8 0 -8 17q0 10 10 10 q3 0 4.5 -1t3 -3.5t2.5 -3.5zM659 215l-18 -6q-2 0 -6 4q0 12 14 12q10 0 10 -10zM520 -334q0 -2 -2 -4t-4 -2l-4 4q2 1 5 4t5 4v-6zM485 -225q7 -17 7 -29q0 -9 -5 -29q-2 10 -2 31q0 17 2 25zM694 170h2q-2 2 -2 4h4zM764 369q6 -3 6 -4l-2 -3zM768 371l-2 -2h-2zM625 279 h4h-4zM727 299q2 2 2 6l2 -2q0 -4 -4 -4zM596 51l2 -6z" />
<glyph unicode="r" horiz-adv-x="890" d="M100 455l-16 12q14 2 31 45.5t22 48.5q-2 10 -2 29t11.5 52.5t11.5 43.5q2 34 15 70t41 89.5t34 67.5q11 26 40 76.5t40 50.5q2 0 7 -1t7 -1q12 0 33 4.5t33 4.5q18 0 31 -7t21.5 -23.5t12.5 -26t9.5 -34t6.5 -28.5q0 -7 -2.5 -20t-3.5 -21q13 18 38.5 45.5t41.5 47.5 t19 32q7 29 63.5 72.5t104.5 43.5q52 0 85.5 -32t44.5 -70.5t11 -81.5q0 -58 -15.5 -88t-60.5 -63q-15 -11 -23 -33.5t-14.5 -38.5t-19.5 -16q-29 0 -46 38.5t-21 85t-9.5 85t-15.5 38.5q-1 0 -2 -1t-2 -1q-58 -34 -126 -130t-100 -175q-35 -83 -45 -98q-17 -25 -33.5 -95 t-46.5 -143q-12 -30 -27.5 -102.5t-35.5 -108.5l-14 -53q-41 -121 -99 -121q-35 0 -52 39.5t-17 97.5q0 9 2 27.5t2 28.5q0 14 -4.5 44t-4.5 48q0 98 35 141q0 1 1 3.5t1 4.5q0 6 -5 18t-5 17q0 14 12 62zM362 627l-2 6l-4 -6h6z" />
<glyph unicode="s" horiz-adv-x="1060" d="M766 246q18 -15 18 -39q0 -39 -24 -62.5t-66 -23.5q-35 0 -41 86q-27 0 -49 -13t-35 -29.5t-33 -36.5t-42 -30q-35 -16 -81.5 -59.5t-62.5 -52.5q-21 -7 -40 -31t-41.5 -66.5t-30.5 -54.5q-7 -12 -10 -26t-4.5 -34.5t-2.5 -27.5q0 -13 14.5 -20t28.5 -7q8 0 24 3.5 t23 3.5q4 0 11.5 -1t11.5 -1q14 -1 23.5 9t14.5 23t16 26.5t28 18.5q16 4 28.5 12.5t22.5 25.5t15 27.5t14 36t12 34.5q4 6 27 38.5t36 58t13 42.5v-2q3 0 24.5 32.5t24.5 32.5q18 0 23 -25.5t10 -25.5q2 0 9.5 1t14.5 1q15 0 15 -12q0 -43 -89 -94q-6 0 -22 4l4 -4l-2 6 q6 -2 22 -6v-9q0 -27 -1 -40.5t-9 -29t-24 -20.5q-12 -2 -19.5 -28t-21.5 -31q-13 -5 -19 -18.5t-7 -25.5t-9.5 -22t-26.5 -10q-15 0 -29 -21.5t-22 -23.5q-19 -5 -39 -22q-34 -27 -59.5 -34t-67.5 -7q-25 0 -43 -18.5t-28 -18.5q-35 0 -74 55.5t-39 87.5q0 2 6.5 15.5 t15.5 32.5t13 32q1 11 9 37.5t23.5 67.5t44.5 80.5t64 60.5q14 8 37 38.5t49 37.5t49 29t37.5 40.5t22.5 18.5q20 3 41.5 26t42.5 23q23 0 53.5 39t56.5 45q24 6 39 18t23.5 36t12 40.5t8 56t7.5 58.5q0 22 -13.5 39.5t-35.5 17.5q-5 0 -15 -2t-14 -2q-6 0 -19 5t-20 5 q-13 0 -56 -23t-75 -32q-11 -3 -20 -7t-15 -6.5t-15 -7.5t-13 -8t-16 -11.5t-19 -12.5q-5 2 -12.5 6t-12 6t-8.5 2q-7 -6 -20.5 -15.5t-52.5 -25.5t-76 -16q-6 0 -14 16t-15 20q-115 44 -115 119q0 3 2.5 9.5t2.5 9.5q0 7 -3.5 20.5t-3.5 20.5q0 10 8.5 30.5t8.5 32.5 q2 53 57 104q16 16 52 55t36 40q5 18 18.5 29.5t28 15.5t29 15.5t20.5 29.5q4 12 40.5 34.5t48.5 41.5q14 22 30 38.5t38 35t34 30.5q6 -1 32.5 -4.5t44.5 -7.5t41 -12t36.5 -23t15.5 -35q0 -23 -14 -27q-76 -11 -138 -102q-12 -14 -43 -33.5t-55.5 -46t-36.5 -69.5 q-3 -13 -36.5 -41.5t-41.5 -55.5q-2 -5 -19 -31.5t-17 -35.5q0 -15 18 -15q8 0 12 2q13 3 62.5 17.5t78.5 21.5t76.5 17.5t92.5 15t90 4.5q55 0 86.5 -14t66.5 -49q3 -8 5.5 -37.5t15.5 -42.5q21 16 26 16q7 0 11 -12t6.5 -34t3.5 -25q11 -2 17 -10t7.5 -16.5t11.5 -15 t29 -6.5q21 0 39 9q20 10 58 12t55 8q7 -2 27 -5.5t33.5 -6.5t25.5 -11.5t12 -21.5q0 -21 -22.5 -39t-42.5 -18q-6 0 -17 2t-16 2q-46 0 -117.5 -24t-87.5 -64q-6 -13 -22 -13q-3 0 -10.5 1.5t-10.5 1.5q-17 0 -48.5 -30t-31.5 -54q0 -3 1 -9.5t1 -9.5q0 -10 -12 -10 q-4 0 -12 1t-11 1q-14 0 -23 -10.5t-9 -28.5q0 -27 10 -45q-4 1 -11 4.5t-10 3.5q-4 0 -6 -1.5t-3 -2.5t-2.5 -5t-2.5 -5q6 0 11 0.5t8.5 2.5t6 3t4.5 5t3 5.5t2 7.5t1.5 8t1.5 10t1 11q0 5 -1 14.5t-1 14.5z" />
<glyph unicode="t" horiz-adv-x="1101" d="M471 580q-6 24 -12 26q-1 0 -8 -1t-11 -1q-12 0 -21 38t-9 63l4 2q0 -3 -2 -5q0 3 2 5l-6.5 -6.5l-6 -6t-5 -5.5t-5 -5.5t-3.5 -5t-3 -5.5t-1.5 -5t-0.5 -6q0 -8 14.5 -30.5t14.5 -31.5l-16 -24q-15 -24 -15 -46q0 -7 1 -21.5t1 -21.5q0 -34 -18 -43v-2q0 17 -17.5 23 t-17.5 12q0 5 14 14.5t14 18.5q0 6 -10 18t-10 15q0 2 1 7.5t1 8.5q0 10 -3 31t-3 31q0 7 3 23t3 24q0 5 -1 18t-1 19q0 63 27 116q4 8 4 17q0 6 -6.5 17t-6.5 17q0 4 1 12.5t1 12.5q0 9 -7 16t-17 7q-6 0 -10 -2t-6.5 -6t-4.5 -5q-24 0 -47 -14.5t-54.5 -29.5t-76.5 -15 q-17 0 -45.5 6.5t-59 26t-30.5 47.5q0 7 6 11.5t16 6.5t20 3.5t22.5 2.5t17.5 2q22 4 61 24.5t50 20.5q1 0 20.5 15t54.5 32.5t70 22.5q59 13 59 223q0 20 -4 56q22 42 41 59.5t55 17.5q49 0 66.5 -32.5t17.5 -102.5q0 -54 -16 -65q2 2 6 2q0 -2 -2 -4q0 1 -1 3t-1 3 q8 -6 16 -24.5t19 -22.5q6 2 31.5 12.5t45 18t47 14t48.5 6.5q15 0 47.5 25.5t44.5 25.5q6 0 17.5 -13.5t17.5 -13.5q8 0 17.5 18.5t25.5 18.5q29 0 43.5 -12.5t16.5 -27.5t4.5 -27.5t9.5 -12.5q4 0 8 7q6 -12 6 -21q0 -10 -20 -30.5t-27 -20.5q-1 0 -16 6t-21 6 q-4 0 -16 -7t-19 -7q-3 0 -10 1t-10 1q-14 0 -23 -6q-23 -15 -48.5 -24.5t-38.5 -13t-47.5 -10t-45.5 -8.5l-14 -7q-13 -7 -34 -18.5t-42.5 -24.5t-38.5 -27t-21 -23q3 -6 3 -14q0 -7 -5.5 -21.5t-5.5 -21.5q0 -6 2 -8q-3 -25 -8 -75.5t-8 -76.5q0 -16 -13.5 -42t-13.5 -42 q0 -42 -12 -106zM422 758q0 1 1 3t1 3q0 2 -4 2q-2 0 -2 -6q2 0 4 -2zM432 848q-2 -2 -2 -4q0 -6 4 -6l4 4q0 6 -6 6zM430 475q4 -4 10 -4q5 0 14.5 2t14.5 2q-2 -7 -12.5 -30.5t-10.5 -38.5q0 -5 2.5 -16.5t2.5 -16.5q0 -49 -9.5 -138t-9.5 -133q0 -10 11.5 -26.5 t11.5 -26.5q0 -6 -12.5 -18t-12.5 -25q0 -24 10 -29q14 -8 17.5 -28.5t1.5 -39t6 -33.5t29 -15q35 0 133 176q16 30 38 64t37.5 57t44 62.5t41.5 58.5q2 -6 4 -13t3.5 -12t1.5 -8t-0.5 -5.5t-2 -5.5l-2.5 -5t-4.5 -6t-5 -6t-6.5 -8t-8 -9q-6 -38 -6 -74q0 -23 6 -69t6 -66 q0 -29 -12 -46t-25.5 -28t-15.5 -24q-1 -5 -1 -20t-1.5 -24.5t-5.5 -9.5q-2 0 -8 3t-7 3q-25 0 -31 -4t-10 -26q0 -12 -13.5 -21t-16.5 -20q-1 -6 -32 -35t-34 -29q-2 0 -6 1t-6 1q-5 0 -12 -2.5t-7 -5.5q-6 -20 -33 -29.5t-46 -9.5q-37 0 -70 26.5t-33 47.5q0 8 2 14 q0 22 -23.5 66t-23.5 61q0 3 1 10.5t1 10.5q0 2 -12 38.5t-12 51.5l23 44q22 45 22 68q0 4 -1 12.5t-1 12.5q0 15 13 39t13 35l-3 5q-3 6 -5 7.5t-6 1.5q-8 0 -21.5 -31.5t-21.5 -31.5q-3 0 -8.5 4.5t-5.5 7.5q5 10 10 35.5t10 43t14 17.5q3 0 12 -7t17 -7q7 0 17 10.5 t10 22.5q0 9 -21 18h-2q14 21 14 45q0 4 -1 11.5t-1 11.5q0 18 11 22q8 0 8 -49q0 -8 -1 -26t-1 -29q0 -103 26 -103q4 0 8.5 10t4.5 17q0 2 -1 7t-1 7q0 10 7 28.5t7 27.5q0 11 -10 29t-10 24q0 2 12 25.5t12 39.5q0 4 -2 12.5t-2 12.5q0 9 3 27.5t3 27.5zM383 100 q-1 -6 -3 -18.5t-3 -18.5q0 -6 4 -6q17 0 25 17.5t8 34.5q0 10 -4 25.5t-9 15.5q-10 -5 -14 -11.5t-4 -22v-16.5zM684 -117q11 0 12.5 1.5t1.5 13.5q0 16 -18 16q-9 0 -16 -14q0 -7 3 -10t9 -4.5t8 -2.5zM702 -33q-2 1 -8.5 8t-9.5 7q-10 0 -10 -15q0 -4 12 -12q9 0 16 12z M750 86q0 14 -5 14q-6 0 -6 -6q0 -10 6 -10q1 0 2.5 1t2.5 1zM641 -160q0 2 -4 6q-2 0 -6 -4q0 -12 4 -12q6 0 6 10zM692 47l4 -4q1 2 3 5t3 5q0 1 -2 3t-2 3zM469 582q10 -20 10 -33q0 -19 -24.5 -40t-24.5 -34l2 2q-19 -14 -22 -14q-4 0 -8.5 3.5t-4.5 6.5q0 54 9 72 q4 -7 18 -17q1 7 2.5 13t3.5 10.5t3.5 8t4.5 6t4.5 4t6 3.5t6.5 2.5l8 2t8 2.5zM881 446q13 8 32.5 44t42.5 36q9 0 9 -6q0 -28 -15 -60t-35 -32q-5 0 -11 3t-13.5 8.5t-9.5 6.5zM1335 856q-18 0 -18 16q0 22 18.5 36t42.5 16q2 0 6.5 -3t4.5 -6q0 -29 -8 -38t-37 -18 q-2 -1 -3 -1t-3 -1t-3 -1zM1055 614q-8 8 -8 21q0 8 6.5 17.5t15.5 9.5q6 0 10 -5t4 -10q0 -6 -11 -19.5t-17 -13.5zM309 379q2 -4 5.5 -9.5t5.5 -9.5t2 -8q0 -6 -7 -10q-6 0 -6 25v12zM1004 559q-2 -1 -6.5 -3t-6.5 -3q-4 8 -4 12q3 6 8 6q11 0 11 -6q0 -4 -2 -6zM836 330 q16 0 16 -8q0 -11 -14 -11q-17 0 -17 8q0 3 4.5 7t10.5 4zM1198 784q-1 1 -2 3t-2 3.5t-1.5 2.5t-0.5 2q0 10 10 10q8 0 8 -10q0 -3 -2.5 -8t-5.5 -5q-1 0 -2 1t-2 1zM1149 750q10 10 14 10q10 0 15 -8q0 -3 -3 -6t-6 -3t-10 3.5t-10 3.5zM1147 754q-7 -27 -12 -27 q-7 0 -7 4q0 9 21 19zM823 248l-4 -4q0 1 -1 3t-1 3t2 2t2 2q2 -2 2 -6zM348 422q0 -14 -12 -14q-1 0 -4.5 3.5t-5.5 4.5q4 4 12.5 5t9.5 1zM365 444q-1 -5 -15 -24l-2 2q3 4 8.5 11t8.5 11zM348 299l-2 -2q2 0 4 2h-4h2z" />
<glyph unicode="u" horiz-adv-x="1146" d="M788 778q-48 0 -118.5 -95t-75.5 -126q-2 -12 -18 -28t-17 -29q-7 -4 -11.5 -9.5t-8.5 -13t-6 -13t-5 -16t-4 -14.5q-37 -116 -63 -157q-52 -82 -152 -82q-65 0 -121.5 48.5t-56.5 131.5q0 29 -14.5 79.5t-14.5 77.5q0 14 11 132q1 8 4.5 59.5t7.5 93t10 90.5t13.5 77 t15.5 28q19 0 32.5 -0.5t35 -3t36.5 -8t30 -14.5t22.5 -24.5t7.5 -35.5q0 -68 -8.5 -175t-8.5 -192q0 -125 27 -125q14 7 25.5 19.5t28.5 40t18 28.5q171 237 338 355q7 5 28.5 23.5t38.5 27t37 8.5q97 0 126.5 -28.5t29.5 -131.5q0 -54 -16.5 -118t-16.5 -99q0 -13 1 -36 t1 -36q0 -22 -15.5 -66.5t-15.5 -70.5q0 -4 1 -13t1 -13q-4 -93 -22 -136q-13 -29 -13 -55q0 -28 6 -55t19 -27q8 0 21.5 16.5t30.5 47t30 55.5t30.5 60t20.5 42q62 124 113 191q36 73 58 95q25 26 54 26q35 0 35 -21q-8 -23 -26 -50t-45.5 -63t-38.5 -51q-3 -5 -30.5 -63 t-47.5 -86q-9 -13 -13.5 -43.5t-13.5 -42.5q-16 -20 -36.5 -69.5t-37 -90t-49.5 -73.5t-75 -33q-32 0 -67 21.5t-38 43.5q-1 15 -12.5 37.5t-22 56.5t-10.5 80q6 42 6 45q0 7 -3 22t-3 23q0 14 1 42.5t1 41.5q0 15 -3 46t-3 46q0 38 10 115.5t10 114.5q0 4 -1 13t-1 13 q0 15 4.5 46t4.5 47q0 14 -3 26z" />
<glyph unicode="v" horiz-adv-x="976" d="M242 -45q-17 10 -60 39q-27 49 -40.5 115.5t-16 114.5t-2.5 126q0 6 1 18.5t1 18.5q7 57 12 122.5t9.5 144.5t7.5 124q1 16 7.5 54t6.5 53q0 9 -6 28.5t-6 28.5q0 49 24 49q49 0 98.5 -14.5t49.5 -44.5q0 -116 -20.5 -328t-20.5 -317q0 -31 10 -31q8 0 27.5 30.5t42 69.5 t30.5 50q8 10 20.5 37.5t18.5 33.5q31 31 31 78q0 6 -2 19.5t-2 19.5q0 8 2 25.5t2 25.5q0 16 15 28.5t43.5 21.5t56 15t67 13.5t62.5 13.5q250 62 411 62q24 0 52 -18.5t28 -37.5q0 -14 -11 -28t-26 -15q-88 -6 -256.5 -59.5t-224.5 -65.5q-42 -9 -64.5 -33.5t-41.5 -67 t-37 -64.5q-28 -34 -52 -85.5t-57 -138.5t-43 -110q-34 -79 -61.5 -100t-85.5 -21z" />
<glyph unicode="w" horiz-adv-x="1484" d="M1110 279q-5 -8 -8 -16.5t-5 -18t-3 -17t-2 -19.5t-2 -18q-10 -10 -27 -25t-22 -21t-10 -20.5t-5 -35.5q0 -5 1 -15.5t1 -15.5q0 -49 -13.5 -81.5t-37.5 -68.5t-37 -69q-12 -23 -55 -49q-27 16 -31 16q-5 0 -17 -14t-18 -14q-21 0 -65 30t-47 56q0 6 -19.5 18.5 t-19.5 28.5q0 3 1 9t1 9q0 8 -9.5 18.5t-9.5 14.5t4 14t4 15q0 7 -14 17t-14 22q0 27 3 77.5t3 75.5q-2 10 -2 33q0 49 22 86q2 2 2 10q0 6 -2 17t-2 16q0 16 14.5 52.5t14.5 56.5q0 27 12.5 59.5t12.5 44.5q0 8 -7.5 23.5t-7.5 23.5q0 20 9.5 63t11.5 54q0 32 -31 37 q-39 -13 -39 -29q0 -8 -2 -15.5t-8 -15t-9.5 -12t-13 -12t-13 -10t-14.5 -10t-12 -7.5q-9 -4 -24.5 -32t-30.5 -37q-9 -5 -31.5 -43.5t-47.5 -79.5t-65.5 -75t-82.5 -34q-9 0 -18.5 2t-20.5 7.5t-18.5 9t-21.5 11.5t-19 11q-20 11 -31 47t-19 91t-14 77q-6 12 -6 27 q0 29 17.5 89t17.5 70q0 25 15 68t15 66l3 11q50 243 102 243q30 0 62 -31t32 -51q0 -25 -25 -79t-26 -83q-2 -37 -20.5 -142t-18.5 -165q0 -14 14 -56q18 0 60 39t95.5 94.5t78.5 75.5q9 7 40.5 33t50 40.5t44.5 34t43 29t25 9.5q40 -3 65 -7.5t51 -17t38.5 -37.5t12.5 -63 q0 -242 -53 -369q-7 -17 -11 -38.5t-7 -48t-6 -40.5q2 -10 2 -33q0 -42 -16.5 -111.5t-16.5 -86.5q0 -19 10 -50.5t23 -31.5q22 0 57 63.5t35 89.5q0 17 23.5 40t23.5 30q-6 30 -6 31q0 7 4.5 14.5t11.5 7.5q3 0 11 -5l8 -5q-1 0 3.5 6.5t10.5 14.5t10 12q10 10 17.5 40 t13.5 59t22.5 52t42.5 23l-2 2q-5 -21 -8.5 -55.5t-7.5 -49.5q-12 0 -12 -2l4 -8q6 6 6 12q0 -10 -13.5 -31.5t-13.5 -31.5q0 -14 29 -20zM1008 100q4 16 4 21q0 7 -2 20.5t-2 20.5q-4 -24 -4 -37q0 -9 4 -25zM1053 248l2 6h-4zM1272 698l-6 -4q8 -8 8 -18q0 -18 -30 -69.5 t-30 -53.5q0 -4 1.5 -12t1.5 -11q0 -24 -15.5 -36t-42 -18.5t-33.5 -10.5l2 -2q-13 43 -16 57q27 39 39.5 61.5t25.5 75t13 121.5q0 18 -15.5 50t-15.5 46q0 20 26.5 39t53.5 19q58 0 175 7t177 7q27 0 42 -1t36 -6t31 -17.5t10 -32.5q0 -17 -10 -26t-19.5 -10t-25.5 -1 q-7 0 -20.5 1t-20.5 1q-40 0 -88 -10q-18 -4 -96 -10.5t-103 -22.5q-9 -17 -18 -43t-18 -43.5t-25 -30.5q2 0 6 4zM1194 524q0 5 -4 11q0 -1 -1 -3.5t-1 -3.5q0 -4 2 -6q2 2 4 2zM1110 276l-2 7q0 -1 1 -3.5t1 -3.5z" />
<glyph unicode="x" horiz-adv-x="1044" d="M694 586q-9 -18 -18 -33t-28.5 -18.5t-20.5 -10.5q-8 -23 -41 -58t-37 -40q14 -23 14 -33q0 -4 -2 -13t-2 -13l7 -15q7 -16 18.5 -36.5t23.5 -30.5q53 -48 113 -78t147 -62q21 -8 54 -12t45 -12t12 -33q0 -28 -3 -48t-11.5 -32.5t-16 -20t-24 -11.5t-27 -5t-34.5 -2 t-38 -2q-16 0 -34.5 13.5t-30.5 13.5q-1 0 -2 -1t-2 -1q-7 0 -19 8t-20 8q-3 0 -10.5 -2t-10.5 -2q-29 0 -70 25.5t-88 61t-75 48.5q-8 3 -19.5 22t-25.5 19q-12 0 -30 -19.5t-28 -19.5q-26 -2 -42 -25.5t-32 -57t-34 -48.5q3 -13 5 -27t4 -30t3 -25q-37 -18 -58.5 -69 t-25.5 -85t-4 -63q0 -12 13.5 -33.5t13.5 -31.5q0 -20 -18.5 -30.5t-39.5 -10.5q-30 0 -49.5 38t-19.5 78q0 113 63 232q9 16 19.5 57.5t23.5 70.5t33 34q17 5 30 22t17.5 30t11.5 38q0 4 -7 15.5t-7 19.5q0 16 19.5 52t19.5 56q0 41 -36 121.5t-36 116.5q0 11 -29 84.5 t-36 103.5q-6 24 -24.5 68.5t-24.5 66.5q-7 26 -26 43t-38 23.5t-34 15t-15 19.5q0 10 4 14q30 43 75.5 54.5t123.5 11.5q34 0 64 -21.5t54 -60.5t40 -71.5t33 -76t22 -53.5q12 -23 13 -70t13 -71q8 -20 35 -56.5t47 -40.5q31 0 31 27q0 7 -4 16t-4 11q8 13 27.5 24t25.5 27 q7 18 37 41.5t35 32.5l12.5 25t10.5 20t10 13t15.5 12t22.5 9q12 4 58 63.5t82 80.5q12 4 27 22.5t22 18.5q13 0 62.5 -33.5t49.5 -56.5q0 -47 -139 -131q-17 -10 -44 -39.5t-44 -34.5q-2 0 -7 -8t-12 -18t-12 -13q-26 -15 -49 -48t-45 -46q0 20 -8 20q-3 0 -6.5 -3.5 t-3.5 -6.5q0 -4 4 -7t6 -3t5.5 1t4.5 1zM219 168l4 -4q-4 -4 -12 -8q-2 4 -4 4q4 4 12 8z" />
<glyph unicode="y" horiz-adv-x="1126" d="M649 -475q-26 -26 -38.5 -94t-32.5 -97q0 -76 -73 -156.5t-159 -80.5q-33 0 -57 8t-35.5 18.5t-27 25t-29.5 22.5q-34 20 -44 56.5t-10 96.5q0 45 1.5 72t17 84.5t45.5 109.5q8 11 23 62t22 67q38 88 100 187q4 6 16.5 20t18.5 23q9 13 25.5 47t31.5 56.5t31 27.5 q19 11 40 41.5t36 42.5q67 55 96 211q3 18 23 48t20 46q0 12 -4 12q-2 0 -13 -7t-16 -7q-8 0 -8 8q0 50 20.5 89.5t20.5 60.5q0 137 -37 137q-20 0 -34.5 -23.5t-20.5 -23.5q-60 -45 -68 -82q0 1 -3 -3t-9 -10.5t-13 -15t-15.5 -18.5t-17 -18.5t-17 -15.5t-15.5 -11 q-7 -5 -29 -44t-26 -65q-3 -16 -14.5 -30.5t-39 -38t-32.5 -27.5q-63 6 -107.5 34.5t-67.5 73.5t-32.5 93t-9.5 104q0 24 4 64q0 12 5 61.5t16.5 122t35.5 127.5t56 55q55 0 90 -41t35 -80q0 -49 -18.5 -148.5t-18.5 -144.5q0 -26 14 -26q18 0 65 39.5t72 68.5q39 47 105 76 q17 7 22 27t17 24q15 5 24 30t23 36q4 3 23 21t35 31.5t40.5 25.5t46.5 12q40 0 87.5 -27.5t47.5 -56.5q0 -2 -6 -107q-6 -23 -18.5 -124.5t-32.5 -137.5q-18 -35 -18 -112q0 -21 18 -21q10 0 29.5 10t46 26.5t41.5 23.5q40 35 55.5 45t52.5 22l13.5 4.5t14 5t11 5.5 t12.5 8.5t9 11.5q4 6 65 30.5t80 24.5q16 0 39.5 -5t47.5 -20.5t24 -37.5q0 -14 -9 -27t-22 -14q-23 0 -40 -4t-25.5 -8t-27.5 -16t-32 -19q-153 -80 -242 -144q-35 -20 -78.5 -54.5t-56.5 -43.5q-49 -33 -78.5 -76.5t-66.5 -140.5q-2 -6 -17.5 -15t-15.5 -20q0 -19 8 -22 q11 0 19 8q8 -27 8 -60q0 -17 -4 -49q-1 -14 -13.5 -22t-26 -11t-25 -13t-11.5 -27q0 -4 2 -12.5t2 -12.5q6 4 9 13t4 16.5t8 13.5t20 6q10 0 16.5 -7.5t6.5 -16.5q0 -11 -5 -30t-6 -26q0 -1 -14 -13.5t-14 -27.5q0 -3 1 -8.5t1 -9.5q0 -2 -1 -6.5t-1 -7.5q0 -8 6 -26t6 -26 l-4 -27q-5 -27 -14 -54t-19 -27q-2 0 -5 1t-5 1q-7 0 -13 -6l-2 -4q3 4 33 10zM639 -377q-20 -1 -25.5 -6.5t-5.5 -24.5q0 -2 4 -6q14 0 22 19t9 20q0 4 -2 4q-4 0 -4 -2q0 -1 1 -2t1 -2zM283 -678q0 -67 49 -67q16 0 38.5 18t32.5 22q25 10 46 35.5t42.5 61.5t36.5 53 q-2 4 -9 12.5t-7 14.5q0 21 17.5 44t17.5 42q0 4 -1 11.5t-1 10.5q0 16 17.5 57t17.5 70q0 5 -2.5 15.5t-2.5 15.5q0 23 16.5 105t16.5 124q0 29 -18 29q-10 0 -56.5 -65.5t-66.5 -102.5q-3 -9 -12 -18q-42 -49 -77 -111t-36 -105q0 -8 -8 -20q-8 -9 -14.5 -30t-12.5 -53 t-9.5 -56.5t-8 -63t-6.5 -49.5zM637 -285q-2 -2 -7 -5.5t-8.5 -6.5t-3.5 -6q0 -1 5.5 -4.5t7.5 -3.5q20 7 20 18q-8 4 -14 8zM645 -80q-2 1 -5 3t-5 3q-8 0 -8 -8q0 -4 6 -4q3 0 6 2.5t6 3.5zM569 -510q-8 0 -8 -6q0 -4 4 -4t4 10zM496 -664q-1 1 -2 3.5t-2 3.5q-5 -5 -5 -7 q0 -6 5 -6q4 0 4 6zM694 45q0 10 -4 10q-4 -2 -4 -4q0 -6 8 -6zM563 -444l2 -7q1 1 3 2.5t3 2.5l-4 4zM616 -481v-4l2 4h-2z" />
<glyph unicode="z" horiz-adv-x="1150" d="M2 205l47 22q18 0 27 15l35 43q35 43 70.5 91t35.5 60q0 9 -8 13q-53 18 -53 77q0 33 16 33q33 -16 72 -16q35 0 54.5 1.5t45 11.5t37.5 30q12 21 28.5 33.5t40.5 24.5t39 24l61 53q60 53 60 57t-6 4q-35 0 -101.5 -4t-96.5 -4q-67 0 -139 36.5t-122.5 103t-50.5 139.5 q0 10 5 21t14 11q24 0 55 -49q44 -71 190 -80q80 0 247.5 33t254.5 33q74 0 137 -14q20 -4 71.5 -61t51.5 -97q0 -47 -33 -75t-73 -36t-82 -16.5t-53 -20.5q-19 -20 -70.5 -31.5t-71.5 -35.5q-3 -3 -31.5 -13.5t-53.5 -24.5t-25 -28t20 -14q14 0 55.5 1t65.5 1 q141 0 141 -49q0 -27 -73 -27q-10 0 -31 1t-29 1q-103 -2 -174.5 -12.5t-144.5 -42.5q-20 -9 -45.5 -44.5t-40.5 -39.5t-23 -12t-15 -21t-14 -20q0 19 -1 22t-9 6q-6 0 -6 -8q0 -2 3.5 -5t8.5 -7t7 -6q-30 -19 -42 -35t-12 -43q0 -4 4 -8t9 -4q18 3 107 23t128 20 q4 0 11.5 -1t11.5 -1q20 0 60.5 6t62.5 6q5 0 16 -1t16 -1q7 0 22.5 3t22.5 3q47 0 88 -6l17 -2q16 -2 43 -6t59 -10.5t64.5 -18t59.5 -25.5t43.5 -35t16.5 -46q0 -18 -22.5 -26.5t-42.5 -8.5q-15 0 -56.5 11t-62.5 11q-40 0 -102 -13.5t-68 -14.5q-9 0 -29.5 3t-29.5 3 q-4 0 -34.5 -10t-72.5 -22t-71 -15q-7 -1 -51.5 -22.5t-107 -41.5t-118.5 -20q-96 0 -147 32q-44 26 -79.5 86.5t-35.5 108.5q0 23 2 33z" />
<glyph unicode="{" horiz-adv-x="718" d="M207 1135q10 10 26.5 47.5t33 71t52 61.5t82.5 28q18 0 58 -8q2 -1 26 -12t40.5 -20.5t38 -24t33 -31.5t11.5 -35q0 -14 -22 -14q-14 0 -44 16.5t-42 16.5q-7 0 -20.5 -3t-20.5 -3q-6 0 -17 2t-16 2q-16 0 -24.5 -9.5t-15 -24t-15.5 -21.5q-27 -23 -41.5 -66t-14.5 -80 q0 -28 17 -67q43 -114 43 -205q0 -25 -3 -55t-5.5 -50t-8.5 -55.5t-8 -48.5q-3 -20 -21 -46.5t-18 -39.5q0 -9 6 -15q42 -34 62 -65t20 -74q0 -28 -2 -82t-2 -80q0 -16 -13 -51.5t-15 -48.5q0 -15 -11.5 -75t-11.5 -85q0 -29 10 -59q2 -6 9 -31.5t13.5 -44t18 -40.5t28 -34 t36.5 -12q31 0 52.5 32t31.5 70.5t29 70.5t46 32q39 0 39 -23q-5 -36 -35.5 -88.5t-33.5 -76.5q-3 -33 -48.5 -71t-97.5 -38q-42 0 -86 36t-51 81q-4 16 -10 20q-8 8 -33.5 74t-25.5 96q0 9 4 26t4 25t-4 23t-4 22q0 50 11 149.5t11 151.5q0 32 -4 46q-2 13 -20 27.5 t-38 26.5t-36.5 33.5t-16.5 45.5q0 43 39 69q38 27 63 115t25 152q0 57 -29.5 146t-29.5 122q0 5 1 15.5t1 15.5q0 8 -3 23t-3 22z" />
<glyph unicode="|" horiz-adv-x="710" d="M369 467q22 -39 22 -66q0 -43 -47 -84q4 -12 27.5 -37.5t23.5 -41.5q0 -6 -13 -22t-13 -26q0 -12 6 -18q24 -40 24 -100q0 -25 -3 -72.5t-3 -69.5q0 -10 -11.5 -30t-14.5 -29q6 -6 57 -72q-34 -8 -92 -22t-78 -19q-23 33 -36 91t-13 114q0 34 2 99.5t2 103.5q0 25 12 78 t12 80q0 16 -4 48t-4 48q0 63 51 94q-40 40 -40 76q0 15 16 52.5t16 74.5q0 12 -5 37t-5 39q0 10 13.5 31t13.5 30q0 18 -13.5 58t-13.5 61q0 15 15.5 37.5t15.5 27.5q-23 42 -23 84q0 33 16.5 99t16.5 100q0 7 -1 22.5t-1 22.5q0 38 4.5 81t13 96t11.5 81q62 27 94 27 q86 0 86 -131q-4 -105 -8.5 -166.5t-20.5 -150t-45 -159.5q-6 -9 -6 -20q0 -15 8 -44.5t8 -43.5q0 -53 -19.5 -158t-19.5 -157q0 -9 6.5 -29.5t6.5 -30.5q0 -11 -8.5 -27t-21 -36t-17.5 -31zM305 227q3 0 7.5 -1t6.5 -1q8 20 13 35l-25 8q0 -7 -1 -20.5t-1 -20.5z" />
<glyph unicode="}" horiz-adv-x="663" d="M88 1280q3 2 26.5 17t29 18.5t26.5 15.5t30 16t28 12t32 10.5t31 5.5t35 3q32 0 63.5 -8t62 -24.5t49.5 -47.5t19 -73q0 -31 -21.5 -100.5t-23.5 -80.5q-12 -58 -47.5 -151t-61.5 -181t-26 -167q0 -120 45 -158q34 -29 44.5 -49t10.5 -62q0 -11 -20.5 -119t-20.5 -188 q0 -29 -11 -84t-11 -80q0 -81 -43.5 -130.5t-118.5 -49.5q-31 0 -92.5 24t-61.5 58q0 16 9.5 27.5t23.5 11.5q10 0 32.5 -3t31.5 -3q40 0 80.5 36.5t40.5 65.5q0 7 -1.5 21.5t-1.5 21.5q0 11 1.5 35t1.5 37q0 47 -4.5 141.5t-4.5 141.5q0 16 1 48t1 48q0 23 -19.5 84 t-19.5 115q0 8 5.5 23t5.5 22q0 4 -4 16q0 63 32 211q3 14 17 30.5t14 28.5q0 4 -1 12.5t-1 12.5q0 22 17 62.5t37.5 81.5t37.5 99.5t17 112.5q0 62 -91 62q-35 0 -72 -21.5t-65.5 -43t-44.5 -21.5q-11 0 -31 14t-20 33q0 2 1 5t1 5z" />
<glyph unicode="~" horiz-adv-x="892" d="M606 604q-10 -3 -36 -7.5t-42.5 -9t-36 -15.5t-30.5 -27q-77 -53 -148 -53q-58 0 -103.5 55.5t-45.5 107.5q0 13 4.5 34.5t9.5 21.5q7 0 21.5 -26.5t35 -52.5t41.5 -26q31 0 52 15q63 33 93.5 48t82.5 30.5t100 15.5q47 0 86 -45t39 -86q0 -27 -11.5 -56.5t-31.5 -29.5 q-22 0 -36.5 17.5t-26.5 49t-17 39.5z" />
<glyph unicode="&#xa1;" horiz-adv-x="507" d="M322 668q0 -22 3 -71t3 -73q0 -16 -1 -43.5t-1 -40.5q0 -33 2 -99t2 -99q0 -1 -1 -4.5t-1 -4.5q-7 -25 -11.5 -55.5t-6 -52t-4 -57.5t-3.5 -54q-2 -22 -10 -74.5t-8 -78.5q0 -7 2 -21t2 -24q-4 -23 -4 -65t-2 -73t-10.5 -63t-32.5 -49t-64 -17q-21 0 -37 20.5t-16 45.5 q0 35 11 98t11 94q0 7 -2 22.5t-2 23.5q0 10 4 26q21 52 21 184q0 8 -4 25t-4 25q0 9 1 27.5t1 27.5q-2 29 -2 84q0 26 3 76t3 73q0 9 -1 26.5t-1 25.5q0 12 5 32.5t5 30.5q0 15 -8 44t-8 46q0 35 28 41q22 5 56.5 26t42.5 21q13 0 39 -26zM139 918q4 26 9.5 43.5t21 32 t39.5 14.5q44 -7 89.5 -37t45.5 -82q0 -14 -8 -25q-38 -38 -53 -45.5t-56 -7.5q-45 0 -60.5 23t-27.5 84z" />
<glyph unicode="&#xa2;" horiz-adv-x="937" d="M801 823q-20 6 -54 18.5t-57 19.5t-39 7q-13 0 -21.5 -4.5t-13 -15.5t-6 -17t-3 -23t-1.5 -20q-15 -110 -24 -227t-18 -286t-13 -228q24 -12 47 -12q38 0 97 67t59 131q0 17 21 25t38 8q16 0 46 -3t38 -3q-40 -135 -123.5 -218t-210.5 -83q-8 -98 -8 -145q0 -48 4 -138 q-41 7 -62 16t-31.5 30.5t-13 43t-10.5 71t-22 97.5q-10 19 -41 31q-152 49 -245 182t-93 295q0 154 197 430q51 72 100 111t119 39q25 0 39 -2q11 144 12 154q8 -1 27.5 -2.5t28.5 -3t21.5 -6.5t17.5 -15.5t5 -26.5q0 -10 -1 -30.5t-1 -30.5q0 -36 18.5 -62t42 -39t58 -33 t55.5 -40q4 -4 6.5 -12t7 -23.5t7.5 -26.5zM467 739q-52 -33 -86 -85t-47.5 -99t-33.5 -106t-42 -95q-10 -15 -10 -32q0 -26 7 -52t23 -53t27.5 -43.5t35 -46t30.5 -39.5q4 -6 12 -12t14 -8.5t20 -8.5t19 -8q3 79 21 258.5t18 276.5q0 85 -8 153z" />
<glyph unicode="&#xa3;" horiz-adv-x="1204" d="M336 274q-3 4 -9.5 12.5t-9.5 12.5t-7.5 11.5t-7 12.5t-4 11.5t-1.5 13.5q0 6 8 23t8 26q0 8 -6.5 30.5t-7.5 31.5q-13 145 -16 198q-21 1 -56 2.5t-56.5 2.5t-49.5 3.5t-45 7.5t-33 13t-23.5 21t-7.5 30q0 11 4 47q53 7 149.5 18.5t133.5 16.5q18 199 45 320.5t98 238.5 q20 32 68.5 48t95.5 16q62 0 126.5 -27.5t111.5 -82t47 -120.5q0 -90 -47 -90q-19 0 -62 19q6 36 6 43q0 55 -34.5 104t-79.5 49q-22 0 -54 -33.5t-32 -72.5q0 -61 -34.5 -172t-37.5 -178q0 -18 21 -32.5t41 -14.5q35 0 106.5 4t106.5 4q29 0 55.5 -3t56.5 -11t48 -26 t18 -44q0 -27 -13.5 -37t-42.5 -12q-6 0 -65.5 -6.5t-91.5 -6.5q-16 0 -47 4.5t-45 4.5q-187 0 -187 -127q0 -39 -2 -116t-2 -116q0 -64 49 -76q32 -8 100.5 -28t111.5 -32t101.5 -22t104.5 -10q73 0 139.5 25t100.5 80q27 48 59 51q33 0 60.5 -30t27.5 -62t-18.5 -60.5 t-51 -52t-61 -39t-63.5 -32.5q-3 -1 -4 -1.5l-3 -1.5l-4 -2q-6 -6 -14 -6q-19 8 -39 8q-23 0 -66 -14t-65 -14q-33 0 -115 28.5t-112 34.5q-27 5 -87 19.5t-106 22t-90 7.5q-95 0 -171 -37.5t-175 -113.5q-40 31 -61 53t-21 43q0 27 92 93.5t164 80.5q12 1 38.5 7t41.5 9z " />
<glyph unicode="&#xa4;" horiz-adv-x="1034" d="M504 674q-16 -19 -33 -27t-26 -8t-15 -7.5t-6 -27.5q0 -53 -4 -119q29 -10 115 -13.5t154.5 -6.5t68.5 -14q0 -29 -21.5 -51.5t-46.5 -22.5q-15 0 -89 5t-112 5q-71 0 -71 -14q0 -67 6 -177t6 -173q0 -46 -78 -46q-20 2 -39.5 19t-19.5 35q0 20 -10.5 58.5t-10.5 60.5v94 q0 139 -49 139q-19 0 -53 -5t-53 -5q-31 0 -53.5 21.5t-22.5 56.5q0 26 16 26q87 0 176 15q15 46 15 65q0 6 -2 23t-2 24q0 13 4 41q0 17 -9 28t-24 11q-17 0 -48 -4t-48 -4q-27 0 -46.5 20.5t-19.5 46.5q0 31 74 31h45q24 0 37 1.5t24 8t11 19.5q0 19 -3 58.5t-3 60.5 q0 24 6 72.5t6 74.5q0 12 -6 38t-6 40q0 9 1 29t1 30q0 18 -1 57t-1 64q0 28 2.5 49t10 41.5t23 31.5t39.5 11q21 0 103 -45q13 3 42 11t51 12t42 4q90 0 160.5 -18.5t126 -58t85 -108t29.5 -161.5q0 -74 -21.5 -142t-44.5 -105t-57 -79q-13 -16 -65.5 -42t-85.5 -26 q-18 -2 -59.5 -19t-65.5 -17q-33 0 -49 8zM430 807q20 -8 31 -8l76 28q93 31 172 47q10 0 36 22t39 28q39 20 59.5 75.5t20.5 116.5q0 112 -51 169.5t-145 57.5q-7 0 -22.5 -1t-22.5 -1q-1 0 -25 -1t-42 -2t-45.5 -6t-45.5 -12t-31.5 -20.5t-13.5 -31.5q0 -14 -3 -42t-3 -40 t4 -34t4 -32q0 -18 -4 -26q6 -15 6 -33q0 -11 -4 -35t-4 -37q0 -10 3 -31.5t3 -31.5q0 -11 -2 -36t-2 -38q0 -24 12 -45z" />
<glyph unicode="&#xa5;" horiz-adv-x="1034" d="M926 1425q67 -36 67 -65q0 -8 -2 -17t-7.5 -21.5t-9 -21t-12.5 -24.5t-12.5 -22t-14.5 -24.5t-13 -21.5q-57 -98 -193 -358q-2 -5 -38 -58.5t-63.5 -110.5t-27.5 -99q0 -21 4 -32.5t16 -16.5t23 -6t37 -1h4h4q113 0 113 -53q0 -57 -37 -57q-20 0 -63.5 5t-65.5 5 q-31 0 -31 -72q0 -70 9.5 -84t62.5 -14q106 0 106 -51q0 -16 -9.5 -29.5t-22.5 -13.5q-11 0 -34 1t-36 1q-29 0 -40 -10.5t-11 -34.5q0 -12 6 -35t6 -33q0 -11 -16 -22t-19 -17q-3 -12 -9.5 -19t-17.5 -9.5t-17 -3t-19 -0.5q-27 0 -53.5 6t-26.5 18q-11 36 -19 71.5 t-10 47.5t-10.5 23.5t-19.5 12.5t-39 1q-133 0 -138 86q0 3 4 6.5t7 3.5q25 -6 50 -8.5t67 -3t51 -0.5q13 0 26.5 23.5t13.5 43.5q0 15 -2 21q-5 15 -9.5 32t-6.5 24.5t-5 16t-6 11t-8.5 4.5t-13.5 2q-17 0 -49 -3t-49 -3q-56 0 -76 20.5t-20 59.5q0 2 3.5 5t4.5 3 q10 0 30 -4t29 -4q55 0 107.5 10t52.5 33q0 21 -20 50t-40 64.5t-20 73.5q0 40 -42 127.5t-48 122.5q-3 17 -9 36.5t-11 31.5t-15.5 35.5t-13.5 31.5q-7 17 -49 145q-1 19 -19 58t-18 57q0 21 49 21q44 0 100 -40t56 -79q0 -3 -1 -7.5t-1 -6.5q0 -3 10 -8.5t20.5 -21.5 t10.5 -46q0 -24 14 -61.5t14 -57.5q0 -19 -2 -27q0 -3 10 -8q4 3 9 18t12 15t13 -15.5t9.5 -40.5t6 -47t4.5 -45t2 -24q0 -6 -1 -19.5t-1 -19.5q0 -64 41 -64q10 0 20.5 25.5t16.5 28.5q24 9 53 59t53.5 106t32.5 66q4 10 21 34t20 40q5 28 125 242q13 25 28 30.5t58 5.5z M403 897q7 19 7 27q0 12 -7 12q-4 -4 -4 -6q1 -5 2 -16t2 -17z" />
<glyph unicode="&#xa6;" horiz-adv-x="565" d="M348 1315q-1 -28 -4.5 -79t-5.5 -92.5t-2 -78.5v-7v-9.5v-9.5t-1 -10.5t-2 -10t-3 -9.5t-5 -7.5t-7 -5t-9 -1.5q-60 0 -82 29t-22 84q0 37 9 110t9 111q0 14 -3 43.5t-3 44.5q0 23 33 23q22 0 38.5 -3t26.5 -10.5t16 -14.5t9 -20.5t4 -22.5t2 -27t2 -27zM350 268 q6 -81 6 -84q0 -12 -3 -34t-3 -33q0 -13 5 -40t5 -40q0 -29 -41 -29q-92 0 -92 39q0 3 1 11t1 12q0 8 -1 24.5t-1 24.5q0 36 7.5 107.5t7.5 107.5q0 67 -2 102q0 11 7 18t19 7q28 0 46 -12t25.5 -35t10 -44.5t2.5 -54.5v-47z" />
<glyph unicode="&#xa7;" horiz-adv-x="1067" d="M821 1231q-202 -19 -309 -77.5t-127 -162.5q29 -15 100 -47.5t119.5 -56t113 -63t104.5 -75t69 -84.5t29 -100q0 -14 -4 -38t-13 -27q-25 -8 -86 -50t-104 -44q-18 -1 -38.5 -4t-51.5 -9t-52 -10q18 -14 70.5 -54t76 -59t67 -57t65 -64.5t47.5 -63t36.5 -72t10.5 -72.5 q0 -49 -19 -87t-56.5 -63t-85 -42t-113 -26t-130 -12.5t-147.5 -3.5q-217 0 -287 103q-13 18 -22.5 40t-21.5 56.5t-21 56.5q68 -9 172 -52.5t172 -43.5q34 0 113.5 11t128.5 11q63 0 131.5 37t68.5 72q0 18 -30 61q-67 92 -162.5 149t-222.5 97q-17 5 -62 16.5t-69 20.5 q-77 30 -124.5 101.5t-47.5 150.5q0 34 10.5 68t32.5 67.5t38.5 55.5t48.5 58t42 48q-3 6 -18.5 34.5t-21 40t-15.5 34t-13.5 39t-3.5 32.5q0 93 79.5 180t182.5 135q3 1 35.5 18.5t61 28.5t50.5 11q54 0 113.5 -52.5t89.5 -115.5q2 -4 2 -12q0 -4 -1 -15t-1 -18zM692 655 q-43 56 -87 83.5t-99 27.5q-72 0 -120 -42.5t-89 -115.5q50 -20 100 -20q55 0 153.5 30.5t141.5 36.5z" />
<glyph unicode="&#xa8;" horiz-adv-x="532" d="M264 1348l-12 -60l-6 -16q-5 -15 -13 -34t-17.5 -38.5t-19 -33t-16.5 -13.5q-21 0 -34.5 21t-18 43.5t-4.5 42.5q14 178 53 178q29 0 60.5 -14.5t31.5 -37.5q0 -14 -6 -38h2zM344 1280q1 9 3 31.5t4.5 40.5t6 37t10 30t15.5 11q1 0 3.5 -1.5t4.5 -1.5q20 0 60.5 -15 t40.5 -36q0 -25 -29 -73t-58 -84.5t-34 -36.5t-8.5 4t-6.5 11.5t-5 15.5t-3 19t-1.5 18.5t-1.5 17t-1 12.5z" />
<glyph unicode="&#xa9;" horiz-adv-x="1155" d="M973 598l-10 -20t-15 -25q-2 -2 -21.5 -28.5t-42.5 -53.5t-53 -57t-63.5 -49t-62.5 -19q-17 0 -52.5 -9t-54.5 -9q-130 0 -240 64.5t-172.5 172t-62.5 232.5q0 10 3 30t3 29q0 7 -2 20.5t-2 20.5q0 28 14 53q8 90 56 178.5t131 200.5q2 2 11 15t14.5 21t16 21t19 20 t19.5 13t20 6q7 0 21.5 -4t21.5 -4q26 0 83 9.5t85 9.5q50 0 84 -8.5t61 -36.5q11 -11 35 -15q74 -20 115 -96q6 -12 27 -48t35 -63.5t20 -50.5q2 -4 16 -19t14 -24q0 -4 -1 -12t-1 -12q0 -30 17 -64q5 -10 8 -25.5t3.5 -26t1.5 -32.5t1 -29q0 -1 -20.5 -37t-20.5 -59 q0 -1 6 -61q0 -12 -11.5 -24.5t-28 -36t-25.5 -58.5zM1008 999q-3 6 -44 71t-51 110q-2 11 -17 22t-19 17q-19 32 -45.5 55t-60.5 45.5t-52 38.5q-9 8 -62 23.5t-73 15.5q-22 0 -51 -16.5t-45 -29.5t-44 -38q-25 -22 -61 -63t-81 -102.5t-76 -136t-31 -139.5q0 -7 2 -20.5 t2 -20.5q0 -8 -1 -24.5t-1 -24.5q0 -75 38.5 -147t99.5 -123.5t139 -83t155 -31.5q86 0 151 41q28 18 61.5 60t49.5 53t28.5 48t30.5 46q-2 0 -2 2t14.5 30t29 74.5t14.5 92.5q0 21 -3.5 61t-3.5 58q0 19 11 36q-4 2 -4 11q2 0 2 -11zM973 596v2v-4v2zM1008 999h2 q-4 2 -4 11q2 0 2 -11zM492 565q-2 3 -7.5 15.5t-11.5 17t-16 4.5q-13 2 -31.5 27t-34.5 77t-16 113q0 51 11 121.5t38 120.5q2 3 12.5 26.5t20.5 44t28 49t36.5 48.5t43.5 34.5t51 14.5q25 0 69 -16t82 -43.5t38 -53.5q0 -11 -7 -20.5t-18 -9.5q-19 0 -52 24.5t-60 24.5 q-23 0 -41.5 -18t-36 -45.5t-29.5 -37.5q-44 -48 -58 -113.5t-14 -148.5q0 -38 10 -78t35 -72t58 -32q34 0 68 22t55.5 48.5t45.5 48.5t42 22q21 0 33 -7.5t12 -18.5t-12 -23q-6 -6 -27.5 -29t-29 -30.5l-27 -27t-29.5 -27.5t-27.5 -23t-29.5 -21l-28 -14t-30.5 -11 t-29.5 -3q-14 0 -27 3t-30.5 8.5t-28.5 8.5z" />
<glyph unicode="&#xaa;" horiz-adv-x="630" d="M424 1071q4 19 10 57t12.5 60.5t16.5 32.5q-6 15 -6 30q0 18 9 53.5t9 55.5q-16 14 -72 14q-27 0 -52 -10.5t-41 -21t-38 -38t-30.5 -40t-30.5 -49.5t-27 -44q-8 5 -19.5 12t-17.5 11t-12.5 9t-9 9t-2.5 9q0 31 19.5 65t47 60.5t56.5 49.5t48.5 35t22.5 13q58 10 70 10 q75 0 139 -52t64 -112q0 -18 -12.5 -63.5t-12.5 -71.5q0 -5 3 -16t3 -15q0 -17 -22.5 -64.5t-22.5 -60.5q2 -1 5 -2l4.5 -1.5t3.5 -1.5t3 -3t1 -4q-3 -7 -14 -24t-15 -27q6 -9 6 -16t-5 -20.5t-5 -20.5q0 -15 2 -45t2 -46q0 -19 -8.5 -33t-24.5 -14q-39 0 -69 101 q-5 -6 -12.5 -19.5t-15 -20.5t-17.5 -7q-6 0 -23 10q-5 -5 -15.5 -15t-19 -18.5t-16.5 -17.5q-11 4 -30.5 11t-28 10t-22 9.5t-19.5 12t-14 15t-13 21t-8 27.5q-1 2 -9 15t-8 20q1 31 2.5 48.5t6.5 47t16.5 47t28.5 21.5q6 0 6 18q44 31 96 31q58 0 127 -37zM412 907 q0 6 -1 18.5t-1 18.5q0 34 28 47q-7 2 -25.5 10t-32 11.5t-28.5 3.5q-60 0 -93.5 -49.5t-33.5 -96.5q0 -19 10.5 -32t28.5 -13q16 0 39 12t59.5 37t49.5 33z" />
<glyph unicode="&#xab;" horiz-adv-x="1280" d="M561 614q-23 -64 -104 -118q-24 -16 -46.5 -42t-47.5 -61.5t-41 -54.5q26 -38 70.5 -74.5t84 -61t82 -65t66.5 -88.5q-13 1 -30.5 1.5t-27.5 1.5t-16 5q-28 17 -92.5 53.5t-106.5 62.5t-90.5 63t-73 76.5t-24.5 80.5q0 34 14 68.5t44.5 72t53 61.5t66.5 65.5t59 56.5 q16 16 86.5 93.5t114.5 115t72 37.5q47 0 91 -54.5t52 -111.5q0 -22 -10 -27q-18 -14 -54.5 -45.5t-59 -49t-59.5 -36.5t-73 -25zM641 551q25 1 45 11t30.5 20.5t27.5 32t26 30.5q36 38 80.5 79.5t100.5 92t89 80.5q1 -1 23.5 -21t37.5 -41t15 -40q0 -25 -44.5 -76.5 t-130.5 -133.5t-97 -93q-6 -5 -12.5 -12.5t-16 -19.5t-16.5 -20q196 -154 299 -307q-10 -16 -13 -22q-7 3 -34 13t-39 19q-23 17 -106 94.5t-124 90.5q-72 25 -102.5 79t-38.5 144z" />
<glyph unicode="&#xac;" horiz-adv-x="829" d="M631 408l-10 6t-9 6t-8 8t-6.5 7.5t-7 8.5t-6 8.5t-6 9.5t-5.5 9q-9 13 -12.5 42t-4 54.5t-11 45.5t-33.5 20q-40 0 -86 -12q-87 -21 -199 -21q-22 0 -42.5 23.5t-20.5 46.5t97 38.5t183 20.5q17 1 53.5 14t53.5 13q38 0 64 -28.5t35.5 -71t12.5 -67.5t3 -42 q0 -90 -35 -139z" />
<glyph unicode="&#xad;" horiz-adv-x="864" d="M649 549q-34 12 -67 12q-12 0 -38 -4t-38 -4t-34 2t-34 2q-18 0 -48 -9t-38 -9q-3 0 -8.5 1t-7.5 1q-8 0 -24.5 -8.5t-24.5 -8.5q-34 0 -78.5 53.5t-44.5 102.5q0 29 20 29q11 0 29 -14.5t31 -14.5q29 -2 86 -2q41 0 127.5 2t132.5 2q36 0 73 -29t37 -61q0 -17 -14.5 -31 t-28.5 -14q-2 0 -4.5 1t-3.5 1z" />
<glyph unicode="&#xae;" horiz-adv-x="1228" d="M166 981q-2 2 -2 4q0 4 7 33.5t20.5 63t27.5 36.5q60 146 213 234l6 4q5 3 14 8t21 11.5t27 13.5t31.5 14t35 13t37 11t38.5 8t38 3q36 0 91 -15t113.5 -41.5t108.5 -70.5t68 -94q6 -19 16 -35q70 -110 70 -285q0 -12 -25 -85l-26 -73q0 -3 1 -9t1 -9q0 -17 -25.5 -49 t-42.5 -35q-4 0 -14 -37t-15 -37q-2 0 -7 3t-7 3q-1 0 -3.5 -4.5t-2.5 -7.5q-15 -43 -34.5 -66.5t-52 -46.5t-50.5 -41q-14 -14 -46 -26.5t-46 -24.5q-16 -13 -46 -20t-49 -7.5t-57 -0.5q-86 0 -156.5 35.5t-118 96t-82 146t-52.5 178.5t-25 201zM254 1055l8 7 q8 7 13.5 12.5t5.5 8.5q0 7 -9 7q-4 0 -7 -6.5t-6.5 -17.5t-4.5 -13v2zM346 1178q4 -2 19.5 -9t21.5 -10.5t15.5 -10t13.5 -13.5t4 -15q0 -16 -10 -26q-53 -53 -83 -133t-30 -154q0 -71 22 -142t61.5 -131t102.5 -97.5t138 -37.5q38 0 93.5 13t76.5 32q13 12 53.5 32t69 40 t28.5 41q0 9 -6 12t-46.5 29t-79 49.5t-83.5 43.5t-70 20q-32 0 -47 -24.5t-17.5 -53.5t-20.5 -53.5t-54 -24.5q-20 0 -29.5 29.5t-9.5 62.5q0 5 3 16.5t3 16.5q0 8 -2 26t-2 27q0 14 7.5 41t7.5 39q0 11 -5.5 34t-5.5 34q0 7 7.5 21t7.5 20q-13 23 -13 55q0 9 1 27.5 t1 27.5q0 21 -15 47.5t-15 28.5t16.5 23.5t16.5 39.5q0 36 12.5 50t40.5 14q15 0 41.5 -12.5t38.5 -12.5q4 0 16 4q26 -4 42.5 -7.5t43.5 -14.5t43 -25.5t28.5 -40.5t12.5 -61q0 -22 -39 -124t-39 -116q0 -9 41.5 -31.5t105 -58t101.5 -69.5q2 -3 20 -9q25 33 25 50 q1 9 22 68t21 99v48q0 95 -22 129q0 1 1 4.5t1 5.5q0 16 -15 50.5t-46 80t-71.5 86t-99.5 68.5t-123 28q-11 0 -22.5 -1.5t-21 -2.5t-23 -5t-22 -6t-24 -8t-22 -8.5t-23.5 -10t-21.5 -9.5t-23.5 -10.5t-22 -9.5q-17 -7 -40 -33.5t-34 -30.5q-14 -4 -23.5 -14.5t-13 -18 t-12.5 -28.5zM707 1059v3q0 58 -31 58q-30 0 -57 -19.5t-27 -53.5q0 -11 1 -35t1 -37q0 -10 -4 -31t-4 -31q0 -11 9 -22.5t19 -11.5q9 0 15 6q75 75 78 174z" />
<glyph unicode="&#xaf;" horiz-adv-x="737" d="M135 1516q63 -42 137 -55.5t162 -16t135 -12.5q59 -12 73 -22q23 -17 54 -83q-216 -27 -475 -27q-53 0 -75.5 21t-22.5 70q0 39 12 125z" />
<glyph unicode="&#xb0;" horiz-adv-x="618" d="M578 1200q-3 -8 -11.5 -34t-14.5 -40.5t-16.5 -39t-22.5 -38.5t-28.5 -29.5t-37.5 -22.5t-46 -7q-95 0 -166 66.5t-71 169.5q0 49 21 105.5t62 99.5t89 43q93 0 167.5 -82.5t74.5 -190.5zM299 1092q30 -5 37 -5q60 0 103.5 39.5t43.5 104.5q0 55 -47 108 q-143 -50 -143 -192q0 -28 6 -55z" />
<glyph unicode="&#xb1;" horiz-adv-x="968" d="M475 1055q47 -19 62.5 -47.5t15.5 -69.5q0 -13 -1 -39.5t-1 -38.5q0 -20 7.5 -30.5t31.5 -10.5q8 0 37.5 0.5t39.5 0t35 -1.5t36 -4t31 -8t30 -13t23.5 -19.5t21.5 -27t14 -35.5q-50 -17 -102 -17q-19 0 -55.5 2t-53.5 2q-61 0 -106 -18q-13 -35 -23.5 -128.5 t-36.5 -143.5q-45 35 -57 82.5t-11 105.5t-10 90q-8 0 -52.5 -3t-67.5 -3q-81 0 -116.5 20.5t-35.5 69.5q0 24 14 78q148 -13 281 -21q25 112 49 228zM1010 326q-849 -16 -947 -17q-22 32 -22 60q0 18 10 48t12 44q100 -25 213 -25q59 0 173.5 11.5t171.5 11.5q74 0 290 -27 q40 -5 60.5 -31t38.5 -75z" />
<glyph unicode="&#xb2;" horiz-adv-x="645" d="M326 993q-2 -6 -4.5 -16t-4 -15t-4 -12t-6 -10.5t-8.5 -5.5q-12 -7 -17.5 -18t-8.5 -25t-5 -19q34 -13 76 -26q32 35 84 35q9 0 30 -5.5t31 -5.5q6 0 17 5.5t16 5.5q13 0 40 -8.5t42 -8.5q-1 -9 -4 -26.5t-4 -26.5q-18 6 -31 6q-29 0 -76 -30.5t-69 -30.5q-11 0 -23 6 q-21 -14 -61 -14h-29q-15 0 -40.5 -6.5t-37.5 -6.5q-38 0 -67 33q1 3 2.5 8t2.5 8.5t1 6.5q-8 4 -23.5 12.5t-21.5 11.5q2 9 8 31t6 31q0 5 -2 14t-2 14q0 52 100 109q2 0 4.5 -1t6.5 -2.5t6 -2.5q0 57 61 69q12 28 40.5 52.5t55.5 39.5t54 43.5t37 65.5q-4 0 -13.5 2 t-13.5 2q-57 0 -99 -13t-87 -48q-31 -25 -52 -25q-17 0 -38 29.5t-21 64.5q0 29 104 59.5t154 30.5q18 0 37.5 -3t41.5 -10.5t37 -23t17 -36.5q0 -5 16.5 -23t16.5 -31q0 -24 -6 -46t-16.5 -40.5t-24.5 -36t-29.5 -31t-33 -26t-33 -21.5t-30.5 -17t-25.5 -12t-18.5 -7l-8 -4 q-9 -6 -27.5 -12t-19.5 -7zM344 1096l4 -15q11 2 35.5 5.5t36.5 5.5q-2 4 -2 12q-13 -1 -37 -4t-37 -4z" />
<glyph unicode="&#xb3;" horiz-adv-x="649" d="M334 836h53q-4 14 -14 34q101 51 139 138q-26 22 -43 22q-48 0 -100 -23.5t-89 -47t-47 -23.5q-21 0 -35 15.5t-14 41.5q0 22 12.5 42t27.5 32t40 30.5t37 28.5q1 1 6 11.5t12.5 22.5t16.5 18q10 6 18 12t19 18.5t20 23.5t31 38.5t43 52.5q-71 0 -116 -29t-93 -86 q-35 7 -48.5 26.5t-19.5 72.5q8 2 22.5 17t27.5 15q8 0 12 -2q4 0 8 4q9 33 58 45.5t98 12.5q20 0 42.5 -4.5t48 -14t42 -30.5t16.5 -50q0 -28 -66 -86t-77 -81q72 -8 129 -45.5t57 -92.5q0 -7 -6 -23t-6 -24q0 -3 1 -10t1 -10q-12 -46 -66 -96t-98.5 -77.5t-54.5 -29.5 q-24 -2 -74 -21.5t-72 -19.5q-10 0 -15 6t-6.5 13.5t-8.5 16t-19 11.5q-35 12 -59 17q-29 45 -43 77q11 11 24 11q16 0 43.5 -9t63 -23.5t51.5 -19.5q1 0 4 1.5t9 3.5l12 4q-7 4 -18.5 8.5t-16.5 7.5q11 5 14.5 12t5 11t7.5 4q4 0 14 -4t14 -5l-14 -14q17 -10 22 -10 q9 0 17 33zM377 770q-21 18 -25 18q-6 0 -18 -12q7 -2 43 -6z" />
<glyph unicode="&#xb4;" horiz-adv-x="395" d="M123 1208q97 168 223 226q8 -11 8 -23q0 -6 -4 -14q-8 -14 -23.5 -47t-27 -55.5t-29.5 -52t-34 -47.5t-37 -31t-43 -13q-11 0 -17 4t-7.5 9t-3.5 19.5t-5 24.5z" />
<glyph unicode="&#xb5;" horiz-adv-x="1103" d="M834 924q64 -3 127 -9q20 -140 20 -204q0 -73 -14 -133q-35 -158 -35 -345q0 -13 1 -37t1 -36q0 -18 -9.5 -54t-9.5 -55q0 -7 2.5 -23.5t2.5 -23.5q0 -45 -43 -45q-38 0 -62.5 14t-35 40t-14 49t-3.5 55v196q-24 -2 -57.5 -41t-75 -100.5t-60.5 -83.5q-29 -33 -74 -51.5 t-92 -18.5q-37 0 -61 9.5t-60.5 33.5t-66.5 39q4 -85 5.5 -247.5t8.5 -289.5t25 -241q-78 1 -104 23t-35 90q-33 225 -33 567q0 158 24 365q0 6 3.5 36t3.5 46q0 15 -3.5 43t-3.5 43q0 43 14.5 123.5t16.5 113.5q1 14 2.5 40.5t2.5 38t4.5 30.5t10 27.5t17 18.5t27 13.5 t39.5 3.5q44 0 60.5 -21t16.5 -87q0 -5 -1 -14t-1 -13q-36 -247 -36 -414q0 -85 11.5 -133.5t32 -76t68.5 -70.5q16 -13 37 -13q22 0 47.5 17t52 49.5t43.5 56t41 60.5q7 10 34 52t35.5 56.5t32 53t32.5 57.5t26.5 54.5t25 60.5t17 58t13 64.5t3.5 63.5q0 12 -2 37t-2 39 q0 11 7 43z" />
<glyph unicode="&#xb6;" horiz-adv-x="1202" d="M913 -55q-68 33 -97 78.5t-32 107.5q-3 55 -11.5 172t-13.5 211t-5 176q0 106 9 319.5t9 329.5q-107 15 -127 15q-80 0 -145 -41q2 -52 6.5 -181.5t7 -223t2.5 -181.5q0 -170 -4 -254q-1 -23 -6.5 -76t-5.5 -82q0 -15 4 -45t4 -47q0 -18 -10.5 -52.5t-12.5 -45.5 q-63 0 -100.5 13.5t-57.5 47.5t-26 77t-6 116q0 138 37 229q12 29 17.5 63t6 55t0.5 69q0 116 -37 151q-71 66 -113 156.5t-42 183.5q0 82 52 158t124 76q20 0 57 -11q115 -43 219 -43q25 0 77 10.5t79 10.5q26 0 49 -10q63 -35 135 -35q24 0 75.5 10t72.5 10q78 0 98 -112 q-18 -3 -50.5 -9t-60 -10t-51.5 -6q-27 -2 -45.5 -16t-27.5 -38.5t-13 -47.5t-6 -56q-37 -629 -37 -1013q0 -32 1 -101t1 -108z" />
<glyph unicode="&#xb7;" horiz-adv-x="546" d="M184 748q0 1 2 17.5t5 25t14.5 17.5t30.5 9q47 0 86.5 -26t39.5 -72q0 -33 -27.5 -65.5t-60.5 -32.5q-44 0 -67 39t-23 88z" />
<glyph unicode="&#xb8;" horiz-adv-x="548" d="M106 -168q26 34 74.5 115t81.5 116q2 -3 11 -3.5t16.5 -1t7.5 -3.5t-13 -36.5t-30.5 -78.5t-24.5 -67h19q74 0 126 -63t52 -140v-2q0 -110 -70.5 -164t-175.5 -57q-14 0 -29 1t-44 5t-47.5 15t-18.5 28q0 39 14.5 87t40.5 48q13 0 23 -15.5t10 -31.5q0 -15 -4 -43 q0 -8 8 -8q79 0 124.5 42t45.5 110q0 49 -20 78.5t-45 29.5q-24 0 -43 -11t-31.5 -22.5t-18.5 -11.5t-10 1t-7 4.5t-4.5 7t-4 11t-3.5 14.5t-4 20.5t-6 25.5z" />
<glyph unicode="&#xb9;" horiz-adv-x="661" d="M520 860q-26 -26 -26 -53q0 -5 3 -17.5t3 -17.5q0 -16 -17 -38t-20 -29q-57 26 -57 67q0 7 3 24t3 25t-2 25.5t-2 25.5q0 14 7 40t7 38q0 6 -4 19t-4 20q0 28 18.5 110.5t18.5 127.5q-4 4 -11 4q-41 -41 -78.5 -87t-84 -108.5t-68.5 -89.5q-15 11 -44 34t-42 32 q27 53 53 86q8 9 22.5 34.5t29.5 41t38 20.5q9 0 23 21.5t29 43t28 21.5q11 0 23 -6q6 23 15 33.5t24 18.5t24 17q8 8 17.5 22t16.5 22t23 15t41 7q50 0 70.5 -21t20.5 -63q0 -38 -47.5 -121t-55.5 -123q-26 -127 -26 -155q0 -23 3 -29.5t25 -36.5z" />
<glyph unicode="&#xba;" horiz-adv-x="679" d="M207 1305q-2 6 -2 16q0 30 18.5 47.5t42 23t57 14t52.5 21.5q12 7 39 7q93 -8 174 -76q51 -45 51 -189q0 -91 -42 -192t-108 -186q-39 -39 -114 -39q-65 0 -115.5 32.5t-79 84t-43 105.5t-14.5 105q0 36 3.5 71t12 71.5t26 59.5t42.5 24zM268 997q23 -6 23 -32 q0 -5 -2 -16t-2 -17q0 -34 36.5 -78.5t73.5 -44.5q51 0 95.5 75.5t66 156t21.5 122.5q0 73 -34 129t-93 86q-12 6 -21 6q-13 0 -43 -47t-41 -84q-6 -22 -27.5 -63.5t-27.5 -61.5q-4 -13 -5 -42t-9 -42q-4 -5 -5.5 -12.5t-3 -18t-2.5 -16.5z" />
<glyph unicode="&#xbb;" horiz-adv-x="1259" d="M698 377q24 64 105 119q24 16 46 41.5t47.5 61.5t41.5 54q-26 38 -70.5 74.5t-84 61t-82 65t-66.5 88.5q13 -1 30.5 -1.5t27.5 -1.5t16 -5q28 -17 92.5 -53.5t106.5 -62.5t90.5 -63t73 -76.5t24.5 -80.5q0 -34 -14 -68.5t-44.5 -71.5t-53.5 -61.5t-67 -66t-59 -56.5 q-16 -16 -86 -93t-114 -114.5t-72 -37.5q-47 0 -91.5 54.5t-52.5 111.5q0 21 11 26q18 14 54.5 45.5t59 49t59 36.5t72.5 25zM639 522q-25 -1 -45 -11t-30.5 -20.5t-27.5 -32t-26 -30.5q-36 -38 -80.5 -79.5t-100.5 -92t-89 -80.5l-23 21q-23 21 -38 42t-15 40 q0 25 44.5 76.5t130.5 133.5t97 93q3 2 45 51q-196 154 -299 307q10 14 13 23q5 -3 33 -13.5t40 -19.5q23 -17 106 -94.5t124 -90.5q72 -25 102.5 -79t38.5 -144z" />
<glyph unicode="&#xbc;" horiz-adv-x="1366" d="M725 676q-41 0 -41 -21q0 -5 6 -17.5t6 -16.5q0 -11 -7 -18t-18 -12.5t-16 -10.5q11 -22 11 -33q0 -4 -1.5 -7.5t-5 -6.5t-6.5 -5.5t-9 -4.5t-8.5 -3t-9 -3t-8.5 -3q0 -6 9.5 -9.5t9.5 -8.5q-3 -6 -6 -14.5t-4.5 -12.5t-5 -8.5t-9.5 -6t-16 -1.5q-25 0 -25 -17 q0 -8 8.5 -23t8.5 -24q0 -16 -8 -27q-12 -12 -27.5 -57.5t-30.5 -60.5q-4 -4 -4 -8q0 -2 1 -5.5t1 -5.5q0 -4 -6 -11t-6 -11q0 -5 4 -13q0 -10 -25.5 -70.5t-37.5 -60.5q-5 0 -18 -1t-21 -1q-41 0 -41 25q0 22 4 42.5t11.5 46.5t10.5 44q0 22 22.5 45t22.5 29q0 37 28 90.5 t32 73.5q3 15 23 37.5t20 41.5q0 30 41.5 100.5t50.5 94.5t39 67t35 72q3 19 22 33t19 29q0 1 -1 4t-1 4t1 3t1 3q27 41 68.5 126t64.5 122q4 12 35.5 65.5t59.5 99.5t26 46q31 0 65.5 -36.5t34.5 -64.5q0 -15 -21 -46t-51 -68.5t-41 -55.5q6 -2 31 -12l2 2q-29 -20 -72 -63 q4 8 4 10q0 6 -4 6l-4 -2l6 -12q-5 -11 -18.5 -15.5t-24 -11t-10.5 -22.5q0 -21 -23.5 -36.5t-23.5 -33.5q0 -10 -7 -15t-15.5 -5.5t-15.5 -2.5t-7 -8q0 -8 10 -14.5t10 -13.5q0 -5 -10 -21t-10 -29q0 -17 -10.5 -30t-23.5 -19t-23.5 -15t-10.5 -19q0 -3 6.5 -9.5t6.5 -9.5 q0 -4 -13.5 -22t-15.5 -31zM768 811q14 9 14 16q0 4 -6 4q-12 0 -12 -8q0 -4 4 -12zM721 676h6h-6zM1022 1118v6l2 -4zM500 860q-27 -27 -27 -53q0 -5 3 -17.5t3 -17.5q0 -16 -17 -38t-20 -29q-57 26 -57 67q0 7 3 24t3 25t-2 25.5t-2 25.5q0 14 7 40t7 38q0 6 -4 19t-4 20 q0 28 18.5 110.5t18.5 127.5q-4 4 -10 4q-41 -41 -78.5 -86.5t-85.5 -109t-68 -89.5q-15 11 -44 34t-42 32q26 50 54 86q8 9 22.5 34.5t29.5 41t38 20.5q9 0 23 21.5t29 43t28 21.5q10 0 22 -6q6 23 15.5 33.5t24.5 18.5t24 17q8 8 17.5 22t16.5 22t23 15t41 7q50 0 70 -21 t20 -63q0 -38 -47 -121.5t-55 -122.5q-27 -132 -27 -155q0 -21 2.5 -27.5t17.5 -26.5q1 -2 2 -3t2 -2.5t2.5 -3t2.5 -3.5zM1264 571q-1 -7 -5.5 -37t-7 -43.5t-9 -34t-15.5 -32.5q-9 -13 -17 -44.5t-22 -45.5q-4 -8 -13 -53t-14 -58q-3 -9 -15 -64t-29 -91.5t-42 -36.5 q-59 9 -59 57q0 9 4 25q31 159 39 219q0 4 -5 9t-10 5q-22 -3 -65 -16t-61 -13q-26 0 -54 26.5t-28 53.5q0 12 4.5 28.5t11.5 20.5q14 16 26.5 37.5t19 36t18.5 43.5t16 39q10 35 33.5 99.5t33.5 64.5q26 0 42 -22.5t16 -45.5q0 -29 -11.5 -68t-31.5 -89t-27 -72 q-2 -4 -2 -10q0 -13 16 -17.5t45 -5t39 -2.5q19 0 36.5 48t32 96.5t26.5 48.5q19 0 45 -16.5t39 -39.5z" />
<glyph unicode="&#xbd;" horiz-adv-x="1411" d="M725 676q-41 0 -41 -21q0 -5 6 -17.5t6 -16.5q0 -11 -7 -18t-18 -12.5t-16 -10.5q11 -22 11 -33q0 -4 -1.5 -7.5t-5 -6.5t-6.5 -5.5t-9 -4.5t-8.5 -3t-9 -3t-8.5 -3q0 -6 9.5 -9.5t9.5 -8.5q-3 -6 -6 -14.5t-4.5 -12.5t-5 -8.5t-9.5 -6t-16 -1.5q-25 0 -25 -17 q0 -8 8.5 -23t8.5 -24q0 -16 -8 -27q-12 -12 -27.5 -57.5t-30.5 -60.5q-4 -4 -4 -8q0 -2 1 -5.5t1 -5.5q0 -4 -6 -11t-6 -11q0 -5 4 -13q0 -10 -25.5 -70.5t-37.5 -60.5q-5 0 -18 -1t-21 -1q-41 0 -41 25q0 22 4 42.5t11.5 46.5t10.5 44q0 22 22.5 45t22.5 29q0 37 28 90.5 t32 73.5q3 15 23 37.5t20 41.5q0 30 41.5 100.5t50.5 94.5t39 67t35 72q3 19 22 33t19 29q0 1 -1 4t-1 4t1 3t1 3q27 41 68.5 126t64.5 122q4 12 35.5 65.5t59.5 99.5t26 46q31 0 65.5 -36.5t34.5 -64.5q0 -15 -21 -46t-51 -68.5t-41 -55.5q6 -2 31 -12l2 2q-29 -20 -72 -63 q4 8 4 10q0 6 -4 6l-4 -2l6 -12q-5 -11 -18.5 -15.5t-24 -11t-10.5 -22.5q0 -21 -23.5 -36.5t-23.5 -33.5q0 -10 -7 -15t-15.5 -5.5t-15.5 -2.5t-7 -8q0 -8 10 -14.5t10 -13.5q0 -5 -10 -21t-10 -29q0 -17 -10.5 -30t-23.5 -19t-23.5 -15t-10.5 -19q0 -3 6.5 -9.5t6.5 -9.5 q0 -4 -13.5 -22t-15.5 -31zM768 811q14 9 14 16q0 4 -6 4q-12 0 -12 -8q0 -4 4 -12zM721 676h6h-6zM1022 1118v6l2 -4zM500 860q-27 -27 -27 -53q0 -5 3 -17.5t3 -17.5q0 -16 -17 -38t-20 -29q-57 26 -57 67q0 7 3 24t3 25t-2 25.5t-2 25.5q0 14 7 40t7 38q0 6 -4 19t-4 20 q0 28 18.5 110.5t18.5 127.5q-4 4 -10 4q-41 -41 -78.5 -86.5t-85.5 -109t-68 -89.5q-15 11 -44 34t-42 32q26 50 54 86q8 9 22.5 34.5t29.5 41t38 20.5q9 0 23 21.5t29 43t28 21.5q10 0 22 -6q6 23 15.5 33.5t24.5 18.5t24 17q8 8 17.5 22t16.5 22t23 15t41 7q50 0 70 -21 t20 -63q0 -38 -47 -121.5t-55 -122.5q-27 -132 -27 -155q0 -21 2.5 -27.5t17.5 -26.5q1 -2 2 -3t2 -2.5t2.5 -3t2.5 -3.5zM1030 285q-2 -6 -5 -19t-5 -19.5t-6 -13t-10 -8.5q-12 -7 -17.5 -17.5t-8.5 -24.5t-5 -19q43 -17 76 -27q32 35 84 35q9 0 30 -5t31 -5q6 0 17 5t16 5 q13 0 40 -8t42 -8q-1 -9 -4.5 -27t-4.5 -27q-21 7 -30 7q-28 0 -76 -31t-70 -31q-10 0 -22 6q-21 -14 -62 -14h-28q-15 0 -40.5 -6t-37.5 -6q-40 0 -68 32q1 3 2.5 8t2.5 8.5t1 6.5q-8 4 -23.5 12.5t-21.5 11.5q2 10 8.5 31.5t6.5 30.5q0 5 -2 14.5t-2 14.5q0 51 100 108 q2 0 8 -2.5t8 -3.5q0 58 62 70q12 28 40 52t55 39.5t54 43.5t37 65q-4 0 -13 2t-13 2q-57 0 -99.5 -13t-87.5 -48q-31 -25 -51 -25q-17 0 -38 30t-21 65q0 29 104 59.5t154 30.5q44 0 86.5 -17t46.5 -57q0 -5 16.5 -22.5t16.5 -30.5q0 -24 -6 -46.5t-16.5 -40.5t-25 -35.5 t-30 -31.5t-32.5 -26.5t-32.5 -21.5t-31 -16.5t-26 -12t-18.5 -8.5l-8 -3q-9 -6 -27 -11.5t-20 -6.5zM1049 387l4 -14q11 2 35.5 5t35.5 5q-2 4 -2 12q-12 -1 -36.5 -4t-36.5 -4z" />
<glyph unicode="&#xbe;" horiz-adv-x="1181" d="M545 676q-41 0 -41 -21q0 -5 6 -17.5t6 -16.5q0 -11 -7 -18t-18 -12.5t-16 -10.5q10 -20 10 -33q0 -4 -1.5 -7.5t-5 -6.5t-6 -5t-8.5 -4.5t-8.5 -3.5t-9.5 -3.5t-8 -2.5q0 -6 9.5 -9.5t9.5 -8.5q-3 -6 -6 -14.5t-4.5 -12.5t-5 -8.5t-9.5 -6t-16 -1.5q-25 0 -25 -17 q0 -8 8.5 -23t8.5 -24q0 -15 -9 -27q-12 -12 -27 -57.5t-30 -60.5q-4 -4 -4 -8q0 -2 1 -5.5t1 -5.5q0 -4 -6 -11t-6 -11q0 -5 4 -13q0 -10 -26 -70.5t-38 -60.5q-4 0 -17.5 -1t-21.5 -1q-41 0 -41 25q0 22 4.5 42.5t11.5 46.5t11 44q0 22 22.5 45t22.5 29q0 37 27.5 90.5 t31.5 73.5q3 15 23 37.5t20 41.5q0 30 41.5 100t51.5 95q9 24 38.5 67t34.5 72q3 19 22 33t19 29q0 1 -1 4t-1 4t1 3t1 3q27 41 68.5 126t64.5 122q4 12 35.5 65.5t59.5 99.5t26 46q31 0 66 -36.5t35 -64.5q0 -15 -21 -46t-51 -68.5t-41 -55.5q6 -2 31 -12l2 2 q-29 -20 -72 -63q4 8 4 10q0 6 -4 6l-4 -2l6 -12q-5 -11 -18.5 -15.5t-24 -11t-10.5 -22.5q0 -21 -23.5 -36.5t-23.5 -33.5q0 -10 -7 -15t-15.5 -5.5t-15.5 -2.5t-7 -8q0 -8 10 -14.5t10 -13.5q0 -5 -10 -21t-10 -29q0 -17 -10.5 -30t-23.5 -19t-23.5 -15t-10.5 -19 q0 -3 6 -9.5t6 -9.5q0 -4 -13 -22t-15 -31zM588 811q14 9 14 16q0 4 -6 4q-12 0 -12 -8q0 -4 4 -12zM489 1100q5 -10 36.5 -39.5t31.5 -50.5q0 -37 -22 -72q-20 -19 -59.5 -66t-69 -79t-75 -59t-91.5 -27q-47 0 -92.5 46.5t-45.5 86.5q0 11 9 26t24 15q11 0 21 -10.5 t16.5 -23.5t19.5 -23.5t31 -10.5q62 0 135 49q3 0 24 21.5t42.5 49t21.5 40.5q0 8 -14 8q-21 0 -46 -28.5t-42 -28.5q-22 0 -47 29t-25 55q0 4 4 12l12 12q11 12 26 28t30.5 32t26 26.5t10.5 9.5q0 3 -3 10.5t-3 10.5q0 17 35.5 50.5t71.5 70.5t36 61q0 17 -12 17 q-27 -3 -90.5 -59t-91.5 -56q-21 0 -44.5 24t-23.5 48q0 6 4 10q6 3 29 16.5t31.5 18.5t30 16.5t33 16.5t31.5 13t34 11.5t31.5 6.5t33.5 3q43 0 85 -22t42 -62q0 -37 -27.5 -77.5t-68.5 -85.5t-56 -70zM1079 571q-1 -7 -5.5 -37t-7 -43.5t-9 -34t-15.5 -32.5 q-9 -13 -17 -45t-21 -45q-4 -8 -13 -53t-14 -58q-3 -9 -15 -64t-29 -91.5t-42 -36.5q-60 9 -60 57q0 5 5 25q28 142 38 219q0 4 -5 9t-9 5q-22 -3 -65.5 -16t-61.5 -13q-26 0 -54 26.5t-28 53.5q0 12 5 28.5t12 20.5q14 16 26.5 37.5t19 36t18.5 43.5t16 39q10 35 33.5 99.5 t33.5 64.5q26 0 41.5 -22.5t15.5 -45.5q0 -29 -11.5 -67.5t-31 -89.5t-26.5 -72q-2 -4 -2 -10q0 -13 16 -17.5t45 -5t39 -2.5q19 0 36.5 48t31.5 96.5t26 48.5q19 0 45 -16.5t39 -39.5zM541 676h6h-6zM842 1118v6l2 -4z" />
<glyph unicode="&#xbf;" horiz-adv-x="681" d="M600 -47q-5 -24 -11 -42.5t-17.5 -38.5t-18 -30t-25.5 -37.5t-28 -40.5q-48 -72 -127.5 -118.5t-184.5 -46.5q-51 0 -102 22.5t-89 73t-38 117.5q0 34 22.5 87t22.5 83q0 5 -1 15t-1 15q0 44 23 70q16 19 26.5 42.5t20 52t16.5 42.5q7 15 25 37t24 33q2 6 7 17t7.5 18 t7.5 16t11 16q117 153 117 246q0 19 -2 29q0 53 31.5 83.5t64.5 30.5q26 0 45 -21.5t27 -54t11 -57t3 -43.5q0 -24 -9 -50t-25 -58.5t-23 -50.5q-9 -25 -25.5 -52t-45.5 -68t-34 -48q-49 -73 -72 -110.5t-57 -103t-48.5 -125t-14.5 -122.5q0 -47 23.5 -69.5t60.5 -22.5 q17 0 27 5.5t23 16t29 17.5q22 10 38 29t32.5 47.5t24.5 39.5q12 16 34.5 57t22.5 62q0 3 -1 9.5t-1 9.5q0 12 11.5 27.5t21.5 15.5q81 0 141 -72zM23 -47q8 -16 12 -16q12 0 12 18q0 12 -10 12q-11 0 -14 -14zM358 1008q2 -1 10.5 -1.5t14.5 -2.5q23 -11 36 -40t13 -59 q0 -22 -11.5 -36t-34 -19.5t-38 -6.5t-41.5 -1q-20 0 -33.5 16t-13.5 37q5 60 25 86.5t73 26.5z" />
<glyph unicode="&#xc0;" d="M180 543q2 22 3.5 56.5t3.5 49.5t9 37.5t21 42.5q10 15 25 92t34 111q3 6 9.5 18t10.5 23t5 22q1 13 15.5 31t15.5 31q6 58 14 73q19 30 40.5 84t40 101t41.5 92.5t56 72.5t74 27h35q123 0 123 -297q0 -47 -4 -65q11 -16 17.5 -43.5t8.5 -49.5t4.5 -58t3.5 -50 q3 -14 9.5 -39.5t10 -46.5t3.5 -41q0 -11 -1 -32t-1 -33q0 -103 78 -222q-7 -19 -25 -65q6 -22 14.5 -71t16.5 -84.5t16 -45.5q11 -15 22.5 -87t20.5 -97q17 -50 17 -129q-6 -5 -33 -21q-8 -6 -30 -27.5t-39 -33.5t-31 -12q-10 0 -23 17t-18 20q-34 19 -48 51t-22 80 q-2 10 -15.5 55.5t-13.5 75.5q0 4 1 12t1 12q0 63 -21.5 172t-56.5 109q-10 0 -26 -4t-37.5 -11.5t-30.5 -9.5q-11 -13 -38 -17t-37 -11q-11 -7 -17 -7q-2 0 -22 5q-1 0 -37 -16.5t-60 -16.5q-34 0 -61 -65.5t-47.5 -152t-32.5 -106.5q-59 -147 -117 -147q-19 0 -37 15 t-18 32q0 6 2 10q49 134 59 191q3 18 35.5 128.5t32.5 161.5q0 13 -9 40.5t-9 41.5q0 19 16 19q5 0 15.5 -1t15.5 -1q6 0 22 4zM420 887q0 -37 -4 -53q-1 -9 -19.5 -45.5t-35.5 -83.5t-17 -87v-5q1 -43 18 -44q42 0 128.5 16t95.5 17q20 9 25 23t5 37q0 48 -21.5 172 t-21.5 186q0 8 2 14v-2q-1 0 -7 26t-14 52.5t-13 26.5q-8 0 -36 -63t-28 -85q0 -65 -57 -102zM649 1700q-3 -10 -5 -24.5t-3.5 -19.5t-7.5 -9.5t-17 -4.5q-22 0 -43 13t-37 31t-34 47.5t-29.5 52t-27 55.5t-23.5 47q-4 8 -4 15q0 11 8 22q127 -59 223 -225z" />
<glyph unicode="&#xc1;" d="M180 543q2 22 3.5 56.5t3.5 49.5t9 37.5t21 42.5q10 15 25 92t34 111q3 6 9.5 18t10.5 23t5 22q1 13 15.5 31t15.5 31q6 58 14 73q19 30 40.5 84t40 101t41.5 92.5t56 72.5t74 27h35q123 0 123 -297q0 -47 -4 -65q11 -16 17.5 -43.5t8.5 -49.5t4.5 -58t3.5 -50 q3 -14 9.5 -39.5t10 -46.5t3.5 -41q0 -11 -1 -32t-1 -33q0 -103 78 -222q-7 -19 -25 -65q6 -22 14.5 -71t16.5 -84.5t16 -45.5q11 -15 22.5 -87t20.5 -97q17 -50 17 -129q-6 -5 -33 -21q-8 -6 -30 -27.5t-39 -33.5t-31 -12q-10 0 -23 17t-18 20q-34 19 -48 51t-22 80 q-2 10 -15.5 55.5t-13.5 75.5q0 4 1 12t1 12q0 63 -21.5 172t-56.5 109q-10 0 -26 -4t-37.5 -11.5t-30.5 -9.5q-11 -13 -38 -17t-37 -11q-11 -7 -17 -7q-2 0 -22 5q-1 0 -37 -16.5t-60 -16.5q-34 0 -61 -65.5t-47.5 -152t-32.5 -106.5q-59 -147 -117 -147q-19 0 -37 15 t-18 32q0 6 2 10q49 134 59 191q3 18 35.5 128.5t32.5 161.5q0 13 -9 40.5t-9 41.5q0 19 16 19q5 0 15.5 -1t15.5 -1q6 0 22 4zM420 887q0 -37 -4 -53q-1 -9 -19.5 -45.5t-35.5 -83.5t-17 -87v-5q1 -43 18 -44q42 0 128.5 16t95.5 17q20 9 25 23t5 37q0 48 -21.5 172 t-21.5 186q0 8 2 14v-2q-1 0 -7 26t-14 52.5t-13 26.5q-8 0 -36 -63t-28 -85q0 -65 -57 -102zM582 1700q96 166 223 225q8 -11 8 -22q0 -7 -4 -15q-7 -14 -23.5 -47.5t-27.5 -55.5t-29.5 -51.5t-34.5 -47.5t-37 -31t-43 -13q-9 0 -14 2t-7.5 7.5t-3.5 11t-3 17t-4 20.5z" />
<glyph unicode="&#xc2;" d="M180 543q2 22 3.5 56.5t3.5 49.5t9 37.5t21 42.5q10 15 25 92t34 111q3 6 9.5 18t10.5 23t5 22q1 13 15.5 31t15.5 31q6 58 14 73q19 30 40.5 84t40 101t41.5 92.5t56 72.5t74 27h35q123 0 123 -297q0 -47 -4 -65q11 -16 17.5 -43.5t8.5 -49.5t4.5 -58t3.5 -50 q3 -14 9.5 -39.5t10 -46.5t3.5 -41q0 -11 -1 -32t-1 -33q0 -103 78 -222q-7 -19 -25 -65q6 -22 14.5 -71t16.5 -84.5t16 -45.5q11 -15 22.5 -87t20.5 -97q17 -50 17 -129q-6 -5 -33 -21q-8 -6 -30 -27.5t-39 -33.5t-31 -12q-10 0 -23 17t-18 20q-34 19 -48 51t-22 80 q-2 10 -15.5 55.5t-13.5 75.5q0 4 1 12t1 12q0 63 -21.5 172t-56.5 109q-10 0 -26 -4t-37.5 -11.5t-30.5 -9.5q-11 -13 -38 -17t-37 -11q-11 -7 -17 -7q-2 0 -22 5q-1 0 -37 -16.5t-60 -16.5q-34 0 -61 -65.5t-47.5 -152t-32.5 -106.5q-59 -147 -117 -147q-19 0 -37 15 t-18 32q0 6 2 10q49 134 59 191q3 18 35.5 128.5t32.5 161.5q0 13 -9 40.5t-9 41.5q0 19 16 19q5 0 15.5 -1t15.5 -1q6 0 22 4zM420 887q0 -37 -4 -53q-1 -9 -19.5 -45.5t-35.5 -83.5t-17 -87v-5q1 -43 18 -44q42 0 128.5 16t95.5 17q20 9 25 23t5 37q0 48 -21.5 172 t-21.5 186q0 8 2 14v-2q-1 0 -7 26t-14 52.5t-13 26.5q-8 0 -36 -63t-28 -85q0 -65 -57 -102zM805 1651q-17 -17 -33 -17q-25 0 -46.5 25t-35.5 55q-2 4 -12 24.5t-17.5 34t-17 31t-17 26.5t-12.5 9q-8 1 -24 -20t-33 -46.5t-25 -31.5q-10 -8 -23.5 -36.5t-29.5 -49.5 t-37 -21q-10 0 -32.5 11.5t-22.5 27.5q0 1 1 3t1 3q30 30 74.5 98t81 114t63.5 46q17 0 44 -9.5t38 -26.5q115 -171 115 -250z" />
<glyph unicode="&#xc3;" d="M180 543q2 22 3.5 56.5t3.5 49.5t9 37.5t21 42.5q10 15 25 92t34 111q3 6 9.5 18t10.5 23t5 22q1 13 15.5 31t15.5 31q6 58 14 73q19 30 40.5 84t40 101t41.5 92.5t56 72.5t74 27h35q123 0 123 -297q0 -47 -4 -65q11 -16 17.5 -43.5t8.5 -49.5t4.5 -58t3.5 -50 q3 -14 9.5 -39.5t10 -46.5t3.5 -41q0 -11 -1 -32t-1 -33q0 -103 78 -222q-7 -19 -25 -65q6 -22 14.5 -71t16.5 -84.5t16 -45.5q11 -15 22.5 -87t20.5 -97q17 -50 17 -129q-6 -5 -33 -21q-8 -6 -30 -27.5t-39 -33.5t-31 -12q-10 0 -23 17t-18 20q-34 19 -48 51t-22 80 q-2 10 -15.5 55.5t-13.5 75.5q0 4 1 12t1 12q0 63 -21.5 172t-56.5 109q-10 0 -26 -4t-37.5 -11.5t-30.5 -9.5q-11 -13 -38 -17t-37 -11q-11 -7 -17 -7q-2 0 -22 5q-1 0 -37 -16.5t-60 -16.5q-34 0 -61 -65.5t-47.5 -152t-32.5 -106.5q-59 -147 -117 -147q-19 0 -37 15 t-18 32q0 6 2 10q49 134 59 191q3 18 35.5 128.5t32.5 161.5q0 13 -9 40.5t-9 41.5q0 19 16 19q5 0 15.5 -1t15.5 -1q6 0 22 4zM420 887q0 -37 -4 -53q-1 -9 -19.5 -45.5t-35.5 -83.5t-17 -87v-5q1 -43 18 -44q42 0 128.5 16t95.5 17q20 9 25 23t5 37q0 48 -21.5 172 t-21.5 186q0 8 2 14v-2q-1 0 -7 26t-14 52.5t-13 26.5q-8 0 -36 -63t-28 -85q0 -65 -57 -102zM737 1735q-9 -3 -31.5 -7.5t-37 -8.5t-32 -14.5t-26.5 -25.5q-68 -45 -131 -45q-51 0 -91 49.5t-40 96.5q0 12 3.5 30.5t8.5 18.5q6 0 19 -23.5t31 -47t36 -23.5q28 0 46 12 q54 29 82.5 43t73.5 27.5t87 13.5q41 0 75 -39.5t34 -77.5q0 -23 -10 -48.5t-27 -25.5q-18 0 -30.5 16t-23.5 44t-16 35z" />
<glyph unicode="&#xc4;" d="M180 543q2 22 3.5 56.5t3.5 49.5t9 37.5t21 42.5q10 15 25 92t34 111q3 6 9.5 18t10.5 23t5 22q1 13 15.5 31t15.5 31q6 58 14 73q19 30 40.5 84t40 101t41.5 92.5t56 72.5t74 27h35q123 0 123 -297q0 -47 -4 -65q11 -16 17.5 -43.5t8.5 -49.5t4.5 -58t3.5 -50 q3 -14 9.5 -39.5t10 -46.5t3.5 -41q0 -11 -1 -32t-1 -33q0 -103 78 -222q-7 -19 -25 -65q6 -22 14.5 -71t16.5 -84.5t16 -45.5q11 -15 22.5 -87t20.5 -97q17 -50 17 -129q-6 -5 -33 -21q-8 -6 -30 -27.5t-39 -33.5t-31 -12q-10 0 -23 17t-18 20q-34 19 -48 51t-22 80 q-2 10 -15.5 55.5t-13.5 75.5q0 4 1 12t1 12q0 63 -21.5 172t-56.5 109q-10 0 -26 -4t-37.5 -11.5t-30.5 -9.5q-11 -13 -38 -17t-37 -11q-11 -7 -17 -7q-2 0 -22 5q-1 0 -37 -16.5t-60 -16.5q-34 0 -61 -65.5t-47.5 -152t-32.5 -106.5q-59 -147 -117 -147q-19 0 -37 15 t-18 32q0 6 2 10q49 134 59 191q3 18 35.5 128.5t32.5 161.5q0 13 -9 40.5t-9 41.5q0 19 16 19q5 0 15.5 -1t15.5 -1q6 0 22 4zM420 887q0 -37 -4 -53q-1 -9 -19.5 -45.5t-35.5 -83.5t-17 -87v-5q1 -43 18 -44q42 0 128.5 16t95.5 17q20 9 25 23t5 37q0 48 -21.5 172 t-21.5 186q0 8 2 14v-2q-1 0 -7 26t-14 52.5t-13 26.5q-8 0 -36 -63t-28 -85q0 -65 -57 -102zM614 1819q-1 -7 -3 -19.5t-4 -22.5t-5 -18l-6 -15q-5 -16 -13 -35t-17.5 -38.5t-19 -33t-16.5 -13.5q-21 0 -34.5 21t-18 43.5t-4.5 42.5q14 178 53 178q30 0 61 -14t31 -37 q0 -15 -6 -39h2zM694 1751q1 9 3 31.5t4.5 40.5t6 37t10 30t15.5 11q1 0 3.5 -1.5t4.5 -1.5q20 0 60.5 -15t40.5 -36q0 -25 -29 -73t-58 -84.5t-34 -36.5t-8.5 4t-6.5 11.5t-5 15.5t-3 19t-1.5 18.5t-1.5 17t-1 12.5z" />
<glyph unicode="&#xc5;" d="M180 543q2 22 3.5 56.5t3.5 49.5t9 37.5t21 42.5q10 15 25 92t34 111q3 6 9.5 18t10.5 23t5 22q1 13 15.5 31t15.5 31q6 58 14 73q19 30 40.5 84t40 101t41.5 92.5t56 72.5t74 27h35q123 0 123 -297q0 -47 -4 -65q11 -16 17.5 -43.5t8.5 -49.5t4.5 -58t3.5 -50 q3 -14 9.5 -39.5t10 -46.5t3.5 -41q0 -11 -1 -32t-1 -33q0 -103 78 -222q-7 -19 -25 -65q6 -22 14.5 -71t16.5 -84.5t16 -45.5q11 -15 22.5 -87t20.5 -97q17 -50 17 -129q-6 -5 -33 -21q-8 -6 -30 -27.5t-39 -33.5t-31 -12q-10 0 -23 17t-18 20q-34 19 -48 51t-22 80 q-2 10 -15.5 55.5t-13.5 75.5q0 4 1 12t1 12q0 63 -21.5 172t-56.5 109q-10 0 -26 -4t-37.5 -11.5t-30.5 -9.5q-11 -13 -38 -17t-37 -11q-11 -7 -17 -7q-2 0 -22 5q-1 0 -37 -16.5t-60 -16.5q-34 0 -61 -65.5t-47.5 -152t-32.5 -106.5q-59 -147 -117 -147q-19 0 -37 15 t-18 32q0 6 2 10q49 134 59 191q3 18 35.5 128.5t32.5 161.5q0 13 -9 40.5t-9 41.5q0 19 16 19q5 0 15.5 -1t15.5 -1q6 0 22 4zM420 887q0 -37 -4 -53q-1 -9 -19.5 -45.5t-35.5 -83.5t-17 -87v-5q1 -43 18 -44q42 0 128.5 16t95.5 17q20 9 25 23t5 37q0 48 -21.5 172 t-21.5 186q0 8 2 14v-2q-1 0 -7 26t-14 52.5t-13 26.5q-8 0 -36 -63t-28 -85q0 -65 -57 -102zM469 1747q0 113 18.5 173.5t87.5 107.5q98 -32 163 -82t65 -117q0 -71 -52 -132t-130 -61q-19 0 -35 4.5t-34.5 20.5t-25.5 22t-30.5 33t-26.5 31zM690 1808q0 23 -16.5 56.5 t-38.5 33.5q-27 0 -55.5 -26.5t-28.5 -52.5q0 -27 18.5 -54.5t48.5 -27.5q27 0 49 20t23 51z" />
<glyph unicode="&#xc6;" horiz-adv-x="1521" d="M887 874q25 -38 78 -38q55 0 166 13t167 13q39 0 66 -29t27 -69q0 -39 -45 -39q-62 0 -187 -4t-188 -4q-46 0 -104 -50t-58 -85q0 -7 4 -15q31 -60 31 -104q0 -37 -21 -74q21 -21 21 -49q0 -16 -8.5 -47t-8.5 -47q0 -10 8.5 -28.5t8.5 -27.5q0 -10 -7 -34.5t-8 -32.5 q105 -17 238 -17q30 0 88.5 1.5t85.5 1.5q63 0 84.5 -20t48.5 -99q-75 -17 -164 -17q-16 0 -49 1t-49 1q-48 0 -143.5 -2t-143.5 -2q-91 0 -100 41q-16 62 -16 121q0 43 16.5 120.5t22.5 137.5q-30 43 -203 43q-79 0 -93 -6q-23 -18 -24 -61q0 -58 -13 -118.5t-38.5 -117.5 t-72 -93t-105.5 -36q-55 0 -102 31t-76 79t-45.5 102.5t-16.5 104.5q0 48 5.5 98t23 96t43.5 46q76 0 109.5 -23.5t33.5 -58.5t-10 -116t-10 -117q0 -79 59 -150q65 105 98 279q5 30 8.5 92t8.5 92q32 197 106.5 385t190.5 408q23 44 67.5 75t91.5 31q116 0 337 -9.5 t263 -10.5q35 -2 66 -31.5t31 -63.5q0 -43 -256 -43q-46 0 -97.5 2t-86.5 3.5t-40 1.5q-53 0 -53 -54q0 -20 -9 -55.5t-9 -52.5q0 -8 5 -24.5t5 -24.5q0 -1 -1 -3.5t-1 -3.5q-27 -35 -32.5 -110.5t-18.5 -102.5zM756 1292q-88 -77 -188.5 -322.5t-100.5 -369.5q0 -17 4 -33 q12 -2 65 -11.5t87.5 -14t58.5 -4.5q59 0 104 45q-28 1 -38.5 10.5t-10.5 28.5q0 13 10.5 40t10.5 41q0 8 -4 24.5t-4 23.5q0 34 36 96q-2 2 -9.5 8t-10.5 9t-7.5 8.5t-6.5 11t-2 12.5q0 6 5 24.5t20 44t36 33.5q-26 2 -37.5 8.5t-11.5 24.5q0 4 1 14t1 17q0 34 -4 112.5 t-4 118.5z" />
<glyph unicode="&#xc7;" horiz-adv-x="843" d="M295 -168q16 21 30 43.5t31.5 53.5t24.5 42q-18 9 -39 9q-4 0 -12.5 -1.5t-12.5 -1.5q-9 0 -15.5 0.5t-11 2.5t-7 3t-4.5 6t-2.5 6.5t-1.5 9t-1 9.5q-1 6 -27.5 28.5t-51.5 50t-25 46.5q0 22 -14.5 63.5t-14.5 61.5q0 8 6.5 26t6.5 27q0 13 -12.5 30.5t-12.5 25.5 q0 4 3 12.5t3 13.5t-6 16t-6 19q0 6 4 17t4 16q0 8 -4 31.5t-4 36.5q0 7 1 21.5t1 21.5t-1 22t-1 23q0 19 10.5 36t20.5 47.5t10 81.5q0 12 8 32t8 30q0 26 13.5 64t13.5 57q0 9 -4 29.5t-4 33.5t10 27.5t10 19.5q-2 4 -2 13q0 12 12 25t26 23t26 32.5t12 52.5l2 5 q36 116 104 161q2 1 19.5 47t48.5 87.5t70 41.5q8 -1 25.5 -2t27 -2t24 -3.5t26.5 -7.5t24 -12q18 -11 53.5 -16.5t55.5 -16t20 -39.5q0 -19 -4.5 -41t-9.5 -37t-15 -42.5l-14 -38.5q-2 -35 -19 -86t-41 -56q-39 0 -39 140q0 10 2 27t2 26q0 29 -14 29q-18 0 -36.5 -12 t-38 -37t-30.5 -42t-30 -49.5t-21 -36.5q2 -4 2 -10q0 -7 -9 -22t-22.5 -35.5t-19.5 -30.5q-5 -9 -20.5 -30t-28 -38t-12.5 -18q0 -3 3 -10t3 -10q-2 0 -13 -27.5t-22.5 -75.5t-11.5 -90q0 -53 -16.5 -136.5t-16.5 -117.5q0 -8 1 -23.5t1 -23.5q0 -7 -2 -21t-2 -20 q0 -40 12.5 -114t14.5 -101q4 -49 35 -94t85 -45q32 0 48 14q14 11 44.5 30t53 33t22.5 15q0 3 -2 11t-2 12q0 9 13 22q16 10 38.5 42.5t40.5 59.5t25 27q5 0 9 -3.5t10.5 -13t7.5 -10.5q-15 -22 -15 -41q0 -60 -35.5 -121.5t-89.5 -95.5q-16 -42 -61 -85.5t-88 -43.5l-4 2 h-4q-5 -13 -14 -35t-15 -38.5t-10 -28.5h18q74 0 126 -63t52 -140v-2q0 -110 -70 -164t-175 -57q-14 0 -29 1t-44.5 5t-48 15t-18.5 28q0 39 15 87t41 48q13 0 22.5 -15.5t9.5 -31.5q0 -15 -4 -43q0 -8 9 -8q79 0 124.5 42t45.5 110q0 49 -20.5 78.5t-45.5 29.5 q-24 0 -43 -11t-31 -22.5t-18 -11.5t-10 1t-7 4.5t-4.5 7t-4 11t-3.5 14.5t-4 20.5t-6 25.5zM1049 774q0 -14 -8 -26t-21 -13q-15 -1 -21 -15.5t-6 -31t-13.5 -30t-41.5 -13.5q-20 0 -20 17q0 1 1 2t1 2q14 15 26.5 49t29.5 57.5t50 28.5q10 0 16.5 -8t6.5 -19zM756 360v2 l-2 -2q-4 12 -4 35t12 50.5t26 27.5q7 0 13 -35.5t6 -62.5q0 -10 -3.5 -23.5t-10.5 -13.5q-3 0 -5.5 8.5t-5.5 23t-8 23.5q-4 -8 -10.5 -17.5t-7.5 -15.5zM834 434q-19 22 -19 49q0 49 35 76q8 -13 8 -31q0 -13 -2.5 -21t-6 -10.5t-7 -3.5t-6 -3t-2.5 -7q1 -3 4.5 -17.5 t3.5 -21.5q0 -2 -8 -10zM920 543q0 -31 -21 -31q-4 0 -9 7t-5 13q6 58 26 58q7 0 8 -6q1 -8 1 -41zM641 147q0 7 -4 7q-2 0 -4 -2q2 -5 2 -7q1 0 3 1t3 1zM604 111q5 -5 8 -5q0 9 -6 9zM305 786q0 5 -6 5q0 -5 6 -5z" />
<glyph unicode="&#xc8;" horiz-adv-x="956" d="M385 242q4 -3 10 -6.5t9.5 -6t7.5 -6t6 -8.5t2 -12t-9.5 -30.5t-9.5 -35.5q0 -16 56 -16q29 0 113 7t126 7q5 0 14.5 -1t14.5 -1q18 0 31 8q21 -1 32.5 -2t33.5 -4t34.5 -7t27 -10t21 -15t6.5 -21q0 -29 -6.5 -46.5t-21.5 -25.5t-29 -10t-39 -2q-29 0 -87 4t-87 4 q-54 0 -113.5 -2.5t-141.5 -7t-116 -6.5q-26 0 -46 11t-32.5 33t-20.5 46t-11.5 60t-4.5 64.5t-1 69.5l1 6q1 6 3 16.5t4.5 21.5t6 20.5t7.5 13.5q0 9 -7 27.5t-7 28.5q0 3 1 9t1 9q0 33 -2 98.5t-2 98.5q0 7 8 23.5t8 23.5q0 13 -16.5 45.5t-16.5 48.5q0 7 10.5 24t10.5 29 q-4 32 -4 51q0 9 3 26.5t3 25.5q0 6 -1 16.5t-1 15.5t4 15.5t4 15.5q0 12 -5 33t-5 31q0 17 4 65t4 70q0 7 -1 22.5t-1 22.5q0 27 2 62.5t7 79t16 72.5t26 29q1 0 3 -1t3 -1q33 -13 84.5 -20.5t81.5 -7.5q6 0 19.5 1t19.5 1q11 0 33 -5t35 -5q7 0 21.5 1t21.5 1 q39 0 115.5 -5.5t115.5 -5.5q6 0 19.5 2t19.5 2q139 0 139 -67q0 -5 -1 -14.5t-1 -14.5t4 -17.5t4 -17.5q0 -19 -55 -28q-291 0 -506 32q-11 0 -20.5 -8t-9.5 -18q0 -56 5 -165t5 -163q0 -11 -2 -35t-2 -37q0 -51 10 -65t49 -14q10 0 54.5 2t74.5 2q154 0 154 -58 q0 -44 -34 -64t-82.5 -22t-97 -3t-82.5 -16.5t-34 -53.5q0 -16 3 -43.5t3 -40.5q0 -6 -6 -18.5t-6 -18.5q0 -4 5 -14t5 -15q0 -4 -1 -11.5t-1 -10.5q0 -8 5 -25t5 -25q0 -15 -8 -42t-8 -31q0 -11 6 -45zM270 322q-6 -12 -6 -23q0 -17 10 -37q11 26 11 29q0 6 -4.5 17 t-10.5 11q6 12 6 25q0 7 -3.5 16t-10.5 9q-12 0 -12 -21q0 -20 20 -26zM340 461q8 24 8 35q0 18 -10 28q-12 -14 -12 -30q0 -13 14 -33zM264 813q1 10 2 30t2 29q0 1 -4 4t-6 3q-6 0 -6 -23q0 -19 12 -43zM324 903q8 8 8 19q0 14 -10 14q-7 0 -7 -12q0 -8 9 -21zM252 571 l-4 4q-2 0 -6 -4q0 -8 4 -8q3 0 3.5 1t0.5 3t2 4zM328 815q0 7 -6 10l-5 -4q3 -6 7 -10zM217 334q0 6 -4 6q-2 0 -2 -2q0 -4 6 -4zM635 1700q-3 -10 -5 -24.5t-3.5 -19.5t-7.5 -9.5t-17 -4.5q-22 0 -43 13t-37 31t-34 47.5t-29.5 52t-27 55.5t-23.5 47q-5 10 -5 15 q0 10 9 22q127 -59 223 -225z" />
<glyph unicode="&#xc9;" horiz-adv-x="956" d="M385 242q4 -3 10 -6.5t9.5 -6t7.5 -6t6 -8.5t2 -12t-9.5 -30.5t-9.5 -35.5q0 -16 56 -16q29 0 113 7t126 7q5 0 14.5 -1t14.5 -1q18 0 31 8q21 -1 32.5 -2t33.5 -4t34.5 -7t27 -10t21 -15t6.5 -21q0 -29 -6.5 -46.5t-21.5 -25.5t-29 -10t-39 -2q-29 0 -87 4t-87 4 q-54 0 -113.5 -2.5t-141.5 -7t-116 -6.5q-26 0 -46 11t-32.5 33t-20.5 46t-11.5 60t-4.5 64.5t-1 69.5l1 6q1 6 3 16.5t4.5 21.5t6 20.5t7.5 13.5q0 9 -7 27.5t-7 28.5q0 3 1 9t1 9q0 33 -2 98.5t-2 98.5q0 7 8 23.5t8 23.5q0 13 -16.5 45.5t-16.5 48.5q0 7 10.5 24t10.5 29 q-4 32 -4 51q0 9 3 26.5t3 25.5q0 6 -1 16.5t-1 15.5t4 15.5t4 15.5q0 12 -5 33t-5 31q0 17 4 65t4 70q0 7 -1 22.5t-1 22.5q0 27 2 62.5t7 79t16 72.5t26 29q1 0 3 -1t3 -1q33 -13 84.5 -20.5t81.5 -7.5q6 0 19.5 1t19.5 1q11 0 33 -5t35 -5q7 0 21.5 1t21.5 1 q39 0 115.5 -5.5t115.5 -5.5q6 0 19.5 2t19.5 2q139 0 139 -67q0 -5 -1 -14.5t-1 -14.5t4 -17.5t4 -17.5q0 -19 -55 -28q-291 0 -506 32q-11 0 -20.5 -8t-9.5 -18q0 -56 5 -165t5 -163q0 -11 -2 -35t-2 -37q0 -51 10 -65t49 -14q10 0 54.5 2t74.5 2q154 0 154 -58 q0 -44 -34 -64t-82.5 -22t-97 -3t-82.5 -16.5t-34 -53.5q0 -16 3 -43.5t3 -40.5q0 -6 -6 -18.5t-6 -18.5q0 -4 5 -14t5 -15q0 -4 -1 -11.5t-1 -10.5q0 -8 5 -25t5 -25q0 -15 -8 -42t-8 -31q0 -11 6 -45zM270 322q-6 -12 -6 -23q0 -17 10 -37q11 26 11 29q0 6 -4.5 17 t-10.5 11q6 12 6 25q0 7 -3.5 16t-10.5 9q-12 0 -12 -21q0 -20 20 -26zM340 461q8 24 8 35q0 18 -10 28q-12 -14 -12 -30q0 -13 14 -33zM264 813q1 10 2 30t2 29q0 1 -4 4t-6 3q-6 0 -6 -23q0 -19 12 -43zM324 903q8 8 8 19q0 14 -10 14q-7 0 -7 -12q0 -8 9 -21zM252 571 l-4 4q-2 0 -6 -4q0 -8 4 -8q3 0 3.5 1t0.5 3t2 4zM328 815q0 7 -6 10l-5 -4q3 -6 7 -10zM217 334q0 6 -4 6q-2 0 -2 -2q0 -4 6 -4zM547 1679q97 168 223 226q8 -11 8 -23q0 -6 -4 -14q-8 -14 -23.5 -47t-27 -55.5t-29.5 -52t-34 -47.5t-37 -31t-43 -13q-11 0 -17 4t-7.5 9 t-3.5 19.5t-5 24.5z" />
<glyph unicode="&#xca;" horiz-adv-x="956" d="M385 242q4 -3 10 -6.5t9.5 -6t7.5 -6t6 -8.5t2 -12t-9.5 -30.5t-9.5 -35.5q0 -16 56 -16q29 0 113 7t126 7q5 0 14.5 -1t14.5 -1q18 0 31 8q21 -1 32.5 -2t33.5 -4t34.5 -7t27 -10t21 -15t6.5 -21q0 -29 -6.5 -46.5t-21.5 -25.5t-29 -10t-39 -2q-29 0 -87 4t-87 4 q-54 0 -113.5 -2.5t-141.5 -7t-116 -6.5q-26 0 -46 11t-32.5 33t-20.5 46t-11.5 60t-4.5 64.5t-1 69.5l1 6q1 6 3 16.5t4.5 21.5t6 20.5t7.5 13.5q0 9 -7 27.5t-7 28.5q0 3 1 9t1 9q0 33 -2 98.5t-2 98.5q0 7 8 23.5t8 23.5q0 13 -16.5 45.5t-16.5 48.5q0 7 10.5 24t10.5 29 q-4 32 -4 51q0 9 3 26.5t3 25.5q0 6 -1 16.5t-1 15.5t4 15.5t4 15.5q0 12 -5 33t-5 31q0 17 4 65t4 70q0 7 -1 22.5t-1 22.5q0 27 2 62.5t7 79t16 72.5t26 29q1 0 3 -1t3 -1q33 -13 84.5 -20.5t81.5 -7.5q6 0 19.5 1t19.5 1q11 0 33 -5t35 -5q7 0 21.5 1t21.5 1 q39 0 115.5 -5.5t115.5 -5.5q6 0 19.5 2t19.5 2q139 0 139 -67q0 -5 -1 -14.5t-1 -14.5t4 -17.5t4 -17.5q0 -19 -55 -28q-291 0 -506 32q-11 0 -20.5 -8t-9.5 -18q0 -56 5 -165t5 -163q0 -11 -2 -35t-2 -37q0 -51 10 -65t49 -14q10 0 54.5 2t74.5 2q154 0 154 -58 q0 -44 -34 -64t-82.5 -22t-97 -3t-82.5 -16.5t-34 -53.5q0 -16 3 -43.5t3 -40.5q0 -6 -6 -18.5t-6 -18.5q0 -4 5 -14t5 -15q0 -4 -1 -11.5t-1 -10.5q0 -8 5 -25t5 -25q0 -15 -8 -42t-8 -31q0 -11 6 -45zM270 322q-6 -12 -6 -23q0 -17 10 -37q11 26 11 29q0 6 -4.5 17 t-10.5 11q6 12 6 25q0 7 -3.5 16t-10.5 9q-12 0 -12 -21q0 -20 20 -26zM340 461q8 24 8 35q0 18 -10 28q-12 -14 -12 -30q0 -13 14 -33zM264 813q1 10 2 30t2 29q0 1 -4 4t-6 3q-6 0 -6 -23q0 -19 12 -43zM324 903q8 8 8 19q0 14 -10 14q-7 0 -7 -12q0 -8 9 -21zM252 571 l-4 4q-2 0 -6 -4q0 -8 4 -8q3 0 3.5 1t0.5 3t2 4zM328 815q0 7 -6 10l-5 -4q3 -6 7 -10zM217 334q0 6 -4 6q-2 0 -2 -2q0 -4 6 -4zM809 1630q-16 -16 -33 -16q-25 0 -46.5 25t-35.5 55q-2 4 -12 24.5t-17.5 34t-17 31t-17 26.5t-12.5 9q-8 1 -23.5 -20t-32.5 -47t-25 -32 q-10 -8 -24 -36t-30 -49t-37 -21q-10 0 -32.5 11.5t-22.5 27.5q0 1 1 3t1 3q30 30 74.5 98t81 114t63.5 46q16 0 43.5 -10t38.5 -27q115 -171 115 -250z" />
<glyph unicode="&#xcb;" horiz-adv-x="956" d="M385 242q4 -3 10 -6.5t9.5 -6t7.5 -6t6 -8.5t2 -12t-9.5 -30.5t-9.5 -35.5q0 -16 56 -16q29 0 113 7t126 7q5 0 14.5 -1t14.5 -1q18 0 31 8q21 -1 32.5 -2t33.5 -4t34.5 -7t27 -10t21 -15t6.5 -21q0 -29 -6.5 -46.5t-21.5 -25.5t-29 -10t-39 -2q-29 0 -87 4t-87 4 q-54 0 -113.5 -2.5t-141.5 -7t-116 -6.5q-26 0 -46 11t-32.5 33t-20.5 46t-11.5 60t-4.5 64.5t-1 69.5l1 6q1 6 3 16.5t4.5 21.5t6 20.5t7.5 13.5q0 9 -7 27.5t-7 28.5q0 3 1 9t1 9q0 33 -2 98.5t-2 98.5q0 7 8 23.5t8 23.5q0 13 -16.5 45.5t-16.5 48.5q0 7 10.5 24t10.5 29 q-4 32 -4 51q0 9 3 26.5t3 25.5q0 6 -1 16.5t-1 15.5t4 15.5t4 15.5q0 12 -5 33t-5 31q0 17 4 65t4 70q0 7 -1 22.5t-1 22.5q0 27 2 62.5t7 79t16 72.5t26 29q1 0 3 -1t3 -1q33 -13 84.5 -20.5t81.5 -7.5q6 0 19.5 1t19.5 1q11 0 33 -5t35 -5q7 0 21.5 1t21.5 1 q39 0 115.5 -5.5t115.5 -5.5q6 0 19.5 2t19.5 2q139 0 139 -67q0 -5 -1 -14.5t-1 -14.5t4 -17.5t4 -17.5q0 -19 -55 -28q-291 0 -506 32q-11 0 -20.5 -8t-9.5 -18q0 -56 5 -165t5 -163q0 -11 -2 -35t-2 -37q0 -51 10 -65t49 -14q10 0 54.5 2t74.5 2q154 0 154 -58 q0 -44 -34 -64t-82.5 -22t-97 -3t-82.5 -16.5t-34 -53.5q0 -16 3 -43.5t3 -40.5q0 -6 -6 -18.5t-6 -18.5q0 -4 5 -14t5 -15q0 -4 -1 -11.5t-1 -10.5q0 -8 5 -25t5 -25q0 -15 -8 -42t-8 -31q0 -11 6 -45zM270 322q-6 -12 -6 -23q0 -17 10 -37q11 26 11 29q0 6 -4.5 17 t-10.5 11q6 12 6 25q0 7 -3.5 16t-10.5 9q-12 0 -12 -21q0 -20 20 -26zM340 461q8 24 8 35q0 18 -10 28q-12 -14 -12 -30q0 -13 14 -33zM264 813q1 10 2 30t2 29q0 1 -4 4t-6 3q-6 0 -6 -23q0 -19 12 -43zM324 903q8 8 8 19q0 14 -10 14q-7 0 -7 -12q0 -8 9 -21zM252 571 l-4 4q-2 0 -6 -4q0 -8 4 -8q3 0 3.5 1t0.5 3t2 4zM328 815q0 7 -6 10l-5 -4q3 -6 7 -10zM217 334q0 6 -4 6q-2 0 -2 -2q0 -4 6 -4zM598 1819q-1 -7 -3 -19.5t-4 -22.5t-5 -18l-6 -15q-5 -16 -13 -35t-17.5 -38.5t-19 -33t-16.5 -13.5q-21 0 -34.5 21t-18 43.5t-4.5 42.5 q14 178 53 178q30 0 61 -14t31 -37q0 -15 -6 -39h2zM678 1751q1 9 3 31.5t4.5 40.5t6 37t10 30t15.5 11q1 0 3.5 -1.5t4.5 -1.5q20 0 60 -15t40 -36q0 -25 -28.5 -73t-57.5 -84.5t-34 -36.5t-8.5 4t-6.5 11.5t-5 15.5t-3 19t-1.5 18.5t-1.5 17t-1 12.5z" />
<glyph unicode="&#xcc;" horiz-adv-x="1157" d="M1196 92q-18 6 -22 6q-1 0 -24.5 -15t-41.5 -15q-9 0 -29.5 8t-34.5 8q-18 0 -57 -12.5t-59 -12.5q-3 0 -8.5 1t-8.5 1q-13 -10 -53 -10q-8 0 -57 -14t-68 -14q-7 0 -15 9t-13 9q-2 0 -5.5 -1t-5.5 -1q-3 0 -10.5 1t-11.5 1q-13 0 -43 -16.5t-47 -16.5q-16 0 -43 -10 t-41 -10q-4 0 -12.5 2t-12.5 2q-10 0 -33 -15.5t-41 -15.5q-4 0 -13.5 1t-14.5 1q-14 0 -95 -21.5t-100 -33.5q-15 -9 -33 -14t-43 -9t-34 -6q-14 0 -43 6.5t-39 12.5q-86 87 -86 110q0 12 17 22t50 21.5t43 16.5q40 17 131 31t135 40q0 138 23 320q2 23 16.5 69.5 t14.5 55.5q0 4 -5.5 25.5t-5.5 35.5q0 15 15.5 36t15.5 28q0 6 -6 20t-6 21q0 20 37 67q-19 38 -19 68q0 13 4 39.5t4 40.5q0 7 -3 20.5t-3 20.5q0 11 12.5 29.5t12.5 31.5q0 72 -13.5 90t-62.5 21q-23 1 -53 2.5t-44.5 2t-35 2.5t-30.5 4t-24 5.5t-21.5 9t-18 13.5 t-18.5 18.5t-17 24.5q-1 1 -8.5 21.5t-15 45t-7.5 33.5q0 35 25 35q11 0 151 -11q20 5 27 5q20 0 55.5 -8.5t51.5 -8.5q7 0 20.5 4t19.5 4q7 0 23 -4t23 -4q14 0 44 4t44 4q24 0 70.5 -5t68.5 -5q11 0 33 5t34 5t36 -9t36 -9q10 0 30.5 2t29.5 2q27 0 74.5 -8t70.5 -8 q3 0 9.5 1t10.5 1q39 0 61 -11t34 -38q0 -37 -22 -67t-58 -30q-12 0 -43.5 3t-38.5 3q-3 0 -6.5 -7.5t-14 -15t-30.5 -7.5q-38 0 -74 8q-10 2 -21 16.5t-14 14.5l-43 -23q-43 -24 -78 -24q-18 0 -26 2q-13 0 -13 -25q0 -32 4.5 -100t4.5 -111q0 -84 -21 -117q-1 -1 -5.5 -17 t-8.5 -36.5t-4 -30.5q0 -9 6 -18l-6 -12l-65 -68q-3 -3 -3 -2q0 -6 9 -17t9 -12q0 -3 -10 -18t-10 -25q0 -11 25 -67q-35 -57 -39 -90q-2 -13 -16.5 -39.5t-14.5 -28.5q0 -34 -6 -55v4q20 -10 20 -33q0 -3 -1 -10t-1 -10q0 -15 29 -15q3 0 10 1t10 1q11 0 29 -9t31 -9 q14 2 40.5 4t43 4t39 5.5t41.5 8.5q32 8 72.5 13.5t67 7.5t78.5 4.5t70 3.5q18 0 52.5 5t50.5 5q13 0 37 -14.5t28 -34.5q0 -5 26 -14t26 -19q0 -17 -29 -32.5t-29 -18.5q0 -9 20.5 -21t20.5 -22q0 -16 -24 -16q-17 0 -25 14h4zM899 1204q-3 1 -13.5 7t-15.5 6q-6 0 -6 -11 q4 -4 6 -4q5 0 15 1t14 1q0 2 -2 4q0 -4 2 -4zM489 629q-5 16 -10 16q-12 0 -12 -10q0 -6 22 -6zM551 1700q-3 -10 -5 -24.5t-3.5 -19.5t-7.5 -9.5t-17 -4.5q-22 0 -43 13t-37 31t-34 47.5t-29.5 52t-27 55.5t-23.5 47q-5 10 -5 15q0 10 9 22q127 -59 223 -225z" />
<glyph unicode="&#xcd;" horiz-adv-x="1157" d="M1196 92q-18 6 -22 6q-1 0 -24.5 -15t-41.5 -15q-9 0 -29.5 8t-34.5 8q-18 0 -57 -12.5t-59 -12.5q-3 0 -8.5 1t-8.5 1q-13 -10 -53 -10q-8 0 -57 -14t-68 -14q-7 0 -15 9t-13 9q-2 0 -5.5 -1t-5.5 -1q-3 0 -10.5 1t-11.5 1q-13 0 -43 -16.5t-47 -16.5q-16 0 -43 -10 t-41 -10q-4 0 -12.5 2t-12.5 2q-10 0 -33 -15.5t-41 -15.5q-4 0 -13.5 1t-14.5 1q-14 0 -95 -21.5t-100 -33.5q-15 -9 -33 -14t-43 -9t-34 -6q-14 0 -43 6.5t-39 12.5q-86 87 -86 110q0 12 17 22t50 21.5t43 16.5q40 17 131 31t135 40q0 138 23 320q2 23 16.5 69.5 t14.5 55.5q0 4 -5.5 25.5t-5.5 35.5q0 15 15.5 36t15.5 28q0 6 -6 20t-6 21q0 20 37 67q-19 38 -19 68q0 13 4 39.5t4 40.5q0 7 -3 20.5t-3 20.5q0 11 12.5 29.5t12.5 31.5q0 72 -13.5 90t-62.5 21q-23 1 -53 2.5t-44.5 2t-35 2.5t-30.5 4t-24 5.5t-21.5 9t-18 13.5 t-18.5 18.5t-17 24.5q-1 1 -8.5 21.5t-15 45t-7.5 33.5q0 35 25 35q11 0 151 -11q20 5 27 5q20 0 55.5 -8.5t51.5 -8.5q7 0 20.5 4t19.5 4q7 0 23 -4t23 -4q14 0 44 4t44 4q24 0 70.5 -5t68.5 -5q11 0 33 5t34 5t36 -9t36 -9q10 0 30.5 2t29.5 2q27 0 74.5 -8t70.5 -8 q3 0 9.5 1t10.5 1q39 0 61 -11t34 -38q0 -37 -22 -67t-58 -30q-12 0 -43.5 3t-38.5 3q-3 0 -6.5 -7.5t-14 -15t-30.5 -7.5q-38 0 -74 8q-10 2 -21 16.5t-14 14.5l-43 -23q-43 -24 -78 -24q-18 0 -26 2q-13 0 -13 -25q0 -32 4.5 -100t4.5 -111q0 -84 -21 -117q-1 -1 -5.5 -17 t-8.5 -36.5t-4 -30.5q0 -9 6 -18l-6 -12l-65 -68q-3 -3 -3 -2q0 -6 9 -17t9 -12q0 -3 -10 -18t-10 -25q0 -11 25 -67q-35 -57 -39 -90q-2 -13 -16.5 -39.5t-14.5 -28.5q0 -34 -6 -55v4q20 -10 20 -33q0 -3 -1 -10t-1 -10q0 -15 29 -15q3 0 10 1t10 1q11 0 29 -9t31 -9 q14 2 40.5 4t43 4t39 5.5t41.5 8.5q32 8 72.5 13.5t67 7.5t78.5 4.5t70 3.5q18 0 52.5 5t50.5 5q13 0 37 -14.5t28 -34.5q0 -5 26 -14t26 -19q0 -17 -29 -32.5t-29 -18.5q0 -9 20.5 -21t20.5 -22q0 -16 -24 -16q-17 0 -25 14h4zM899 1204q-3 1 -13.5 7t-15.5 6q-6 0 -6 -11 q4 -4 6 -4q5 0 15 1t14 1q0 2 -2 4q0 -4 2 -4zM489 629q-5 16 -10 16q-12 0 -12 -10q0 -6 22 -6zM483 1700q96 166 224 225q8 -11 8 -22q0 -7 -4 -15q-7 -14 -23.5 -47.5t-27.5 -55.5t-29.5 -51.5t-34.5 -47.5t-37 -31t-43 -13q-9 0 -14.5 2t-8 7.5t-3.5 11t-3 17t-4 20.5z " />
<glyph unicode="&#xce;" horiz-adv-x="1157" d="M1196 92q-18 6 -22 6q-1 0 -24.5 -15t-41.5 -15q-9 0 -29.5 8t-34.5 8q-18 0 -57 -12.5t-59 -12.5q-3 0 -8.5 1t-8.5 1q-13 -10 -53 -10q-8 0 -57 -14t-68 -14q-7 0 -15 9t-13 9q-2 0 -5.5 -1t-5.5 -1q-3 0 -10.5 1t-11.5 1q-13 0 -43 -16.5t-47 -16.5q-16 0 -43 -10 t-41 -10q-4 0 -12.5 2t-12.5 2q-10 0 -33 -15.5t-41 -15.5q-4 0 -13.5 1t-14.5 1q-14 0 -95 -21.5t-100 -33.5q-15 -9 -33 -14t-43 -9t-34 -6q-14 0 -43 6.5t-39 12.5q-86 87 -86 110q0 12 17 22t50 21.5t43 16.5q40 17 131 31t135 40q0 138 23 320q2 23 16.5 69.5 t14.5 55.5q0 4 -5.5 25.5t-5.5 35.5q0 15 15.5 36t15.5 28q0 6 -6 20t-6 21q0 20 37 67q-19 38 -19 68q0 13 4 39.5t4 40.5q0 7 -3 20.5t-3 20.5q0 11 12.5 29.5t12.5 31.5q0 72 -13.5 90t-62.5 21q-23 1 -53 2.5t-44.5 2t-35 2.5t-30.5 4t-24 5.5t-21.5 9t-18 13.5 t-18.5 18.5t-17 24.5q-1 1 -8.5 21.5t-15 45t-7.5 33.5q0 35 25 35q11 0 151 -11q20 5 27 5q20 0 55.5 -8.5t51.5 -8.5q7 0 20.5 4t19.5 4q7 0 23 -4t23 -4q14 0 44 4t44 4q24 0 70.5 -5t68.5 -5q11 0 33 5t34 5t36 -9t36 -9q10 0 30.5 2t29.5 2q27 0 74.5 -8t70.5 -8 q3 0 9.5 1t10.5 1q39 0 61 -11t34 -38q0 -37 -22 -67t-58 -30q-12 0 -43.5 3t-38.5 3q-3 0 -6.5 -7.5t-14 -15t-30.5 -7.5q-38 0 -74 8q-10 2 -21 16.5t-14 14.5l-43 -23q-43 -24 -78 -24q-18 0 -26 2q-13 0 -13 -25q0 -32 4.5 -100t4.5 -111q0 -84 -21 -117q-1 -1 -5.5 -17 t-8.5 -36.5t-4 -30.5q0 -9 6 -18l-6 -12l-65 -68q-3 -3 -3 -2q0 -6 9 -17t9 -12q0 -3 -10 -18t-10 -25q0 -11 25 -67q-35 -57 -39 -90q-2 -13 -16.5 -39.5t-14.5 -28.5q0 -34 -6 -55v4q20 -10 20 -33q0 -3 -1 -10t-1 -10q0 -15 29 -15q3 0 10 1t10 1q11 0 29 -9t31 -9 q14 2 40.5 4t43 4t39 5.5t41.5 8.5q32 8 72.5 13.5t67 7.5t78.5 4.5t70 3.5q18 0 52.5 5t50.5 5q13 0 37 -14.5t28 -34.5q0 -5 26 -14t26 -19q0 -17 -29 -32.5t-29 -18.5q0 -9 20.5 -21t20.5 -22q0 -16 -24 -16q-17 0 -25 14h4zM899 1204q-3 1 -13.5 7t-15.5 6q-6 0 -6 -11 q4 -4 6 -4q5 0 15 1t14 1q0 2 -2 4q0 -4 2 -4zM489 629q-5 16 -10 16q-12 0 -12 -10q0 -6 22 -6zM786 1630q-16 -16 -32 -16q-25 0 -46.5 25t-35.5 55q-2 4 -12 24.5t-17.5 34t-17 31t-17 26.5t-12.5 9q-8 1 -24 -20t-33 -47t-25 -32q-10 -8 -23.5 -36t-29.5 -49t-37 -21 q-10 0 -32.5 11.5t-22.5 27.5q0 1 1 3t1 3q30 30 74.5 98t81 114t63.5 46q16 0 43.5 -10t38.5 -27q114 -169 114 -250z" />
<glyph unicode="&#xcf;" horiz-adv-x="1157" d="M1196 92q-18 6 -22 6q-1 0 -24.5 -15t-41.5 -15q-9 0 -29.5 8t-34.5 8q-18 0 -57 -12.5t-59 -12.5q-3 0 -8.5 1t-8.5 1q-13 -10 -53 -10q-8 0 -57 -14t-68 -14q-7 0 -15 9t-13 9q-2 0 -5.5 -1t-5.5 -1q-3 0 -10.5 1t-11.5 1q-13 0 -43 -16.5t-47 -16.5q-16 0 -43 -10 t-41 -10q-4 0 -12.5 2t-12.5 2q-10 0 -33 -15.5t-41 -15.5q-4 0 -13.5 1t-14.5 1q-14 0 -95 -21.5t-100 -33.5q-15 -9 -33 -14t-43 -9t-34 -6q-14 0 -43 6.5t-39 12.5q-86 87 -86 110q0 12 17 22t50 21.5t43 16.5q40 17 131 31t135 40q0 138 23 320q2 23 16.5 69.5 t14.5 55.5q0 4 -5.5 25.5t-5.5 35.5q0 15 15.5 36t15.5 28q0 6 -6 20t-6 21q0 20 37 67q-19 38 -19 68q0 13 4 39.5t4 40.5q0 7 -3 20.5t-3 20.5q0 11 12.5 29.5t12.5 31.5q0 72 -13.5 90t-62.5 21q-23 1 -53 2.5t-44.5 2t-35 2.5t-30.5 4t-24 5.5t-21.5 9t-18 13.5 t-18.5 18.5t-17 24.5q-1 1 -8.5 21.5t-15 45t-7.5 33.5q0 35 25 35q11 0 151 -11q20 5 27 5q20 0 55.5 -8.5t51.5 -8.5q7 0 20.5 4t19.5 4q7 0 23 -4t23 -4q14 0 44 4t44 4q24 0 70.5 -5t68.5 -5q11 0 33 5t34 5t36 -9t36 -9q10 0 30.5 2t29.5 2q27 0 74.5 -8t70.5 -8 q3 0 9.5 1t10.5 1q39 0 61 -11t34 -38q0 -37 -22 -67t-58 -30q-12 0 -43.5 3t-38.5 3q-3 0 -6.5 -7.5t-14 -15t-30.5 -7.5q-38 0 -74 8q-10 2 -21 16.5t-14 14.5l-43 -23q-43 -24 -78 -24q-18 0 -26 2q-13 0 -13 -25q0 -32 4.5 -100t4.5 -111q0 -84 -21 -117q-1 -1 -5.5 -17 t-8.5 -36.5t-4 -30.5q0 -9 6 -18l-6 -12l-65 -68q-3 -3 -3 -2q0 -6 9 -17t9 -12q0 -3 -10 -18t-10 -25q0 -11 25 -67q-35 -57 -39 -90q-2 -13 -16.5 -39.5t-14.5 -28.5q0 -34 -6 -55v4q20 -10 20 -33q0 -3 -1 -10t-1 -10q0 -15 29 -15q3 0 10 1t10 1q11 0 29 -9t31 -9 q14 2 40.5 4t43 4t39 5.5t41.5 8.5q32 8 72.5 13.5t67 7.5t78.5 4.5t70 3.5q18 0 52.5 5t50.5 5q13 0 37 -14.5t28 -34.5q0 -5 26 -14t26 -19q0 -17 -29 -32.5t-29 -18.5q0 -9 20.5 -21t20.5 -22q0 -16 -24 -16q-17 0 -25 14h4zM899 1204q-3 1 -13.5 7t-15.5 6q-6 0 -6 -11 q4 -4 6 -4q5 0 15 1t14 1q0 2 -2 4q0 -4 2 -4zM489 629q-5 16 -10 16q-12 0 -12 -10q0 -6 22 -6zM555 1798q-11 -58 -12 -59l-5 -15q-6 -16 -14 -35t-17.5 -38.5t-19 -33t-16.5 -13.5q-21 0 -34.5 20.5t-18 43t-4.5 42.5q14 178 53 178q30 0 61 -14t31 -37q0 -15 -6 -39h2z M635 1731q1 9 3 31.5t4.5 40t6 36.5t10 30t15.5 11q1 0 3.5 -1t4.5 -1q20 0 60 -15t40 -36q0 -25 -28.5 -73.5t-57.5 -85t-34 -36.5t-8.5 4t-6.5 11.5t-5 16t-3 19.5t-1.5 18.5t-1.5 17t-1 12.5z" />
<glyph unicode="&#xd0;" horiz-adv-x="1290" d="M389 1565q11 4 19 4q31 -6 91.5 -15.5t97.5 -16.5t87 -23.5t90 -40.5q197 -117 295 -318q119 -251 119 -420q0 -137 -64 -352q-8 -29 -35 -57t-49 -49t-22 -39q0 -23 4 -39q-13 -10 -84 -72q-5 22 -8 47q-44 -4 -70 -8q6 -9 10 -14.5t8.5 -9.5t6.5 -5t10 -4.5t12 -5.5 q-8 -18 -71.5 -39.5t-94.5 -21.5l-4 2q-30 -30 -99 -47.5t-79 -22.5q-19 5 -57 16.5t-58 16.5q-39 11 -67 52t-37.5 78t-9.5 62q0 42 -0.5 59.5t-9 49t-25.5 55.5q-2 2 -2 8q0 18 12 54.5t12 52.5q0 12 -5 38t-5 40q0 25 6 76.5t6 78.5q0 45 -10 76q-29 0 -91 -4t-91 -4 q-38 0 -62 19t-24 59q0 21 18 73q40 4 112.5 13.5t86.5 11.5q50 4 59 13t15 61q6 51 24.5 162.5t24.5 170.5q3 32 4.5 93.5t3.5 85.5zM385 451h51v-166q51 -43 105 -43q35 0 79.5 17t101.5 46t87 41q60 24 106 81t70 127.5t35.5 137t11.5 125.5q0 168 -93 313.5t-239 239.5 q-35 21 -59 21q-25 0 -51.5 -55t-26.5 -87q0 -37 -11.5 -60.5t-23 -32t-43.5 -26.5q4 -32 4 -57q18 10 68 39q-8 -22 -21.5 -56.5t-19.5 -51.5q21 -3 66 -3.5t78.5 -3.5t71 -12t61.5 -34t32 -64q-47 -21 -79.5 -27t-104.5 -6q-113 0 -195 -35q27 -31 41 -49 q-51 -84 -51 -117q0 -22 10 -37q-10 -8 -10.5 -38.5t-25.5 -40.5q-7 -2 -11 -15.5t-8 -37t-6 -33.5zM866 338q-8 -4 -14 -6q2 -4 7.5 -14t8.5 -15q7 2 11 4q-2 5 -6.5 15.5t-6.5 15.5z" />
</font>
</defs>
</svg>
