<?xml version="1.0" encoding="UTF-8"?>
<svg width="61px" height="27px" viewBox="0 0 61 27" version="1.1" xmlns="http://www.w3.org/2000/svg" xmlns:xlink="http://www.w3.org/1999/xlink">
    <!-- Generator: Sketch 49.3 (51167) - http://www.bohemiancoding.com/sketch -->
    <title>tuna</title>
    <desc>Created with Sketch.</desc>
    <defs></defs>
    <g id="website" stroke="none" stroke-width="1" fill="none" fill-rule="evenodd">
        <g id="02_product-list" transform="translate(-188.000000, -92.000000)" fill="#605E58" fill-rule="nonzero">
            <g id="category" transform="translate(0.000000, 65.000000)">
                <g id="Group-3" transform="translate(188.000000, 12.000000)">
                    <g id="tuna" transform="translate(0.000000, 15.000000)">
                        <path d="M8.33013828,12.0866816 C7.78363359,12.6609174 7.80527734,13.5692785 8.37883672,14.1164596 C8.95374883,14.6649934 9.86143359,14.6426732 10.409291,14.0697902 C10.9571484,13.4942018 10.9334756,12.586517 10.3592398,12.0386596 C9.7870332,11.4921549 8.87934844,11.5117695 8.33013828,12.0866816 Z" id="Shape"></path>
                        <path d="M54.9582158,16.5385305 C61.0874553,15.8411959 60.8723705,9.91554297 60.8723705,9.91554297 C60.8723705,9.91554297 54.1587498,7.00310586 49.1252252,12.7353178 C45.2158229,9.50363535 38.2431535,7.1836959 38.2431535,7.1836959 L40.7612686,5.53809453 C40.7612686,5.53809453 30.034085,-0.778498633 24.9904148,0.414613086 C22.4601252,2.19007695 21.5470295,2.8549459 19.7695365,5.04840469 C14.1617762,4.74674492 4.03994121,8.77654063 0,15.1039557 C1.16943887,17.2033994 6.59728555,21.1743512 10.1340096,22.3891066 C10.3058068,22.5250564 10.6683396,22.7293193 11.5361188,23.0201572 C22.290357,28.5142879 29.221768,26.970818 34.8335865,24.839585 C36.0490184,26.5866414 37.8373332,26.6164016 37.8373332,26.6164016 C39.8420855,25.8439902 44.6517326,21.5470295 44.6517326,21.5470295 C44.6517326,21.5470295 44.186392,21.2210205 43.8130373,20.9612955 C45.7745021,19.9947668 47.3132375,19.1378096 48.4400652,18.4519732 C52.8682412,27.683709 59.4344139,23.0059535 59.4344139,23.0059535 C59.4344139,23.0059535 58.585573,18.7590439 54.9582158,16.5385305 Z M25.3847369,1.66251055 C32.058452,1.90194453 38.2194807,5.68960078 38.2194807,5.68960078 C38.2194807,5.68960078 37.474124,6.48365586 37.0047252,6.84213047 C32.7591684,5.58679297 27.1351752,3.77277617 21.9677299,4.69128281 C21.9704354,4.68857734 21.9731408,4.68519551 21.9765227,4.68181367 C21.8642457,4.70210469 21.7519688,4.72104297 21.6396918,4.74403945 C22.616366,3.70581582 23.9014637,2.53434785 25.3847369,1.66251055 Z M12.033925,8.15428281 C12.0379832,8.16375195 12.0433941,8.1772793 12.0481287,8.18810117 C12.0420414,8.17795566 12.0346014,8.16645742 12.0285141,8.15631191 C12.0305432,8.15563555 12.0318959,8.15495918 12.033925,8.15428281 Z M10.9321229,21.2960973 C8.20771582,20.4174963 5.0254082,18.5845412 2.37607793,15.782352 L6.10015566,16.2294307 L1.818075,14.7278955 C2.68855957,13.6693809 5.47045781,9.52325 11.7106215,8.06906055 C11.9432918,8.5729541 12.3105592,9.31492891 12.6548301,10.1820316 C13.1553418,12.5168512 13.3974813,16.5865525 10.9321229,21.2960973 Z M37.8014857,25.4848393 C36.8227824,25.4016461 35.409175,23.7452229 35.409175,23.7452229 C37.1109148,23.1331105 40.2959279,21.842602 42.2458945,20.8469895 C42.4129572,21.0059357 43.5742797,21.7932271 43.5742797,21.7932271 C43.5742797,21.7932271 39.3084318,24.9065453 37.8014857,25.4848393 Z M49.8381162,18.3775729 C49.4722016,17.9108795 49.1062869,17.3907531 48.7437541,16.8056955 C46.8593951,18.0231564 43.4444172,19.9765049 38.0686508,22.1814619 C31.7371775,24.7780355 26.2085521,27.8676809 12.2571262,21.7830816 C12.6940594,20.8753969 16.3011256,12.9835445 12.054216,8.14684277 C31.15956,0.915801172 47.61625,12.9524316 49.1942146,14.1610998 C50.9101582,12.8530057 54.5652465,10.5080406 58.3522264,10.8042895 C58.3907793,10.8069949 58.4286559,10.809024 58.4672088,10.8124059 C58.5747512,10.8225514 58.6816172,10.8333732 58.7898359,10.847577 C59.0028916,10.8746316 59.2166236,10.9077736 59.4276502,10.9537666 C59.3059041,12.6365682 57.2152531,15.6951006 51.6913623,15.7228316 C53.8597955,16.7103277 56.4550164,19.1817734 57.4540107,22.2876516 C56.0059086,22.995808 52.5787561,22.6258352 49.8381162,18.3775729 Z" id="Shape"></path>
                        <path d="M45.2692559,12.7278777 C44.7619805,12.4370398 44.1079334,12.4972365 43.6696475,12.9247006 C43.2374488,13.3447246 43.1569611,13.984568 43.4180389,14.4931961 C43.0832371,14.4918434 42.7464063,14.6129131 42.4860049,14.8665508 C42.2181635,15.1289813 42.0835664,15.4739285 42.0815373,15.8222576 C41.8089613,15.7999375 41.5404436,15.6842787 41.3341516,15.471223 C41.2097,15.3447424 41.123125,15.1972943 41.0676629,15.0424063 C41.0866012,15.043759 41.1055395,15.0424063 41.1217723,15.0457881 C41.1021576,15.0342898 41.0805139,15.0268498 41.0615756,15.018057 C40.9229203,14.5993857 41.0182881,14.1211941 41.3537662,13.7918033 C41.6473096,13.5090818 42.0456898,13.406274 42.4176918,13.479998 C41.9104164,13.1884838 41.2550166,13.2480041 40.8160543,13.6768209 C40.7795305,13.7126684 40.7504467,13.7532504 40.7179811,13.7931561 C40.5076309,13.7431049 40.3074262,13.6416498 40.1444217,13.4745871 C39.6871975,13.006541 39.6980193,12.253068 40.1660654,11.7965201 C40.4575797,11.5124459 40.8566363,11.4096381 41.2272855,11.4840385 C40.7220393,11.1918479 40.0673158,11.2506918 39.6276771,11.6795086 C39.2495879,12.0460996 39.1406928,12.5811061 39.2915227,13.0511813 C38.8836732,12.9767809 38.4501219,13.0910869 38.1274947,13.4042449 C37.9759885,13.551693 37.8718279,13.7275484 37.8062203,13.9142258 C37.6229248,13.8567346 37.4531566,13.7566322 37.3117959,13.6112133 C36.8538953,13.1411381 36.8653936,12.3896941 37.3347924,11.9317936 C37.6256303,11.6490721 38.0246869,11.5455879 38.3960125,11.6172828 C37.8887371,11.3277977 37.2333373,11.387318 36.794375,11.8161348 C36.5522355,12.0548924 36.4210203,12.3639922 36.3987002,12.6791793 C36.1518262,12.63995 35.9150977,12.533084 35.7290967,12.3409957 C35.2725488,11.8729496 35.2806652,11.1208293 35.7493877,10.6636051 C36.0402256,10.3808836 36.4399586,10.2773994 36.8119605,10.3497707 C36.3053615,10.0582564 35.6499617,10.1191295 35.2096467,10.5479463 C34.8592885,10.8888354 34.7429533,11.3758197 34.8477902,11.8181639 C34.6766693,11.7769055 34.4994611,11.7681127 34.3269875,11.7931383 C34.1606012,11.7356471 34.0030076,11.6423084 33.8717924,11.507035 C33.4159209,11.0383125 33.4260664,10.2868686 33.8947889,9.82964434 C34.1863031,9.54624648 34.5860361,9.4427623 34.9553326,9.5171627 C34.4500863,9.22497207 33.7933338,9.28584512 33.357077,9.71398555 C33.0905883,9.97100508 32.9580203,10.3112178 32.951933,10.6527832 C32.5231162,10.5526809 32.0550701,10.6608996 31.7155338,10.9923195 C31.4686598,11.2317535 31.3387973,11.5442352 31.3185063,11.8614514 C30.9722063,11.8952697 30.6150844,11.7850219 30.3540066,11.514475 C29.8961061,11.0464289 29.9055752,10.2936322 30.3742977,9.83776074 C30.6664883,9.55368652 31.0655449,9.45020234 31.4375469,9.52257363 C30.9302715,9.23376484 30.2762244,9.29057969 29.8359094,9.72074922 C29.5193695,10.0284963 29.3935652,10.455284 29.4463219,10.8617807 C29.0459125,10.7948203 28.6164193,10.90845 28.2998795,11.2168734 C28.1490496,11.3643215 28.0442127,11.5408533 27.9779287,11.7275307 C27.7959859,11.6713922 27.6282469,11.5699371 27.4841807,11.4251945 C27.0276328,10.9551193 27.0364256,10.2043518 27.5065008,9.74712754 C27.7966623,9.46372969 28.1984244,9.35821641 28.5663682,9.4346459 C28.0617982,9.14177891 27.4070748,9.20197559 26.9674361,9.63079238 C26.5961105,9.99264883 26.4851863,10.5181861 26.6285762,10.982174 C26.2423705,10.9355047 25.8385793,11.0518398 25.5375959,11.3453832 C25.4888975,11.3927289 25.4483154,11.4475146 25.407057,11.5009477 C25.1777686,11.4563074 24.9579492,11.3528232 24.7814174,11.1722332 C24.3241932,10.702158 24.335015,9.9500377 24.8037375,9.49484258 C25.0945754,9.21009199 25.493632,9.10728418 25.8649576,9.1810082 C25.359035,8.89017031 24.7043115,8.94901426 24.2653492,9.37850742 C23.9488094,9.68693086 23.8223287,10.1116895 23.8757617,10.5181861 C23.4726469,10.4505494 23.0458592,10.5662082 22.728643,10.8739553 C22.5764604,11.0214033 22.4722998,11.1979352 22.4066922,11.3852889 C22.2247494,11.328474 22.0549813,11.2276953 21.9129441,11.0816 C21.4550436,10.6122012 21.4651891,9.86008086 21.9332352,9.40353301 C22.2247494,9.12013516 22.6244824,9.01665098 22.995808,9.090375 C22.489209,8.79886074 21.8331328,8.85838105 21.3961996,9.28652148 C21.0789834,9.59629766 20.9525027,10.0217326 21.0066121,10.4282293 C20.6034973,10.3605926 20.1767096,10.475575 19.8594934,10.7833221 C19.7566855,10.8841008 19.6768742,11.002465 19.6139721,11.1248875 C19.5240152,11.1188002 19.4347348,11.1032438 19.3495125,11.0782182 C19.2818758,11.0437234 19.2135627,11.0146396 19.1425441,10.9923195 C19.0309436,10.9355047 18.9240775,10.8665152 18.8320916,10.7711475 C18.3735146,10.3017486 18.3836602,9.54962832 18.8523826,9.09308047 C19.1445732,8.80900625 19.5422771,8.70619844 19.9142791,8.77992246 C19.4076801,8.4884082 18.7522803,8.54860488 18.313318,8.97674531 C18.1631645,9.12284062 18.0596803,9.29734336 17.9927199,9.48131523 C17.4976191,9.23173574 16.8828014,9.30207793 16.4627773,9.71195645 C15.9338582,10.2266719 15.9230363,11.0748363 16.4384281,11.6044318 C16.7069459,11.8797133 17.0633914,12.0129576 17.4191605,12.0061939 C17.340702,12.420807 17.4556844,12.8678857 17.7722242,13.1938947 C17.7898098,13.2101275 17.8094244,13.2243312 17.82701,13.2412404 C17.4746227,13.2270367 17.1202063,13.3501355 16.8469539,13.6152715 C16.6521602,13.806007 16.5277086,14.0420592 16.474952,14.2896096 C16.2328125,14.2490275 16.0001422,14.144867 15.8168467,13.9561605 C15.3596225,13.4874381 15.3690916,12.7353178 15.8378141,12.2787699 C16.1293283,11.9953721 16.5290613,11.8891824 16.9003869,11.9642592 C16.3931115,11.6734213 15.7390645,11.7329416 15.2987494,12.1617584 C14.7705066,12.6778266 14.758332,13.525991 15.2757529,14.0555865 C15.4685176,14.2530857 15.7059225,14.3728027 15.9561783,14.4242066 C15.7404172,14.4810215 15.5334488,14.5899166 15.3602988,14.758332 C14.8313797,15.2737238 14.8205578,16.1225646 15.3379787,16.6521602 C15.5848527,16.9064742 15.9074799,17.0343076 16.2361943,17.0471586 C16.1962887,17.4313352 16.3133002,17.8276863 16.6027854,18.1252879 C17.0288967,18.5628975 17.6809146,18.6406797 18.1929246,18.366751 C17.8209227,18.4283004 17.4266006,18.3153471 17.1438791,18.0251855 C16.8530412,17.7248785 16.7536152,17.3095891 16.8408666,16.9308234 C16.8699504,16.9166197 16.8997105,16.907827 16.9267652,16.8922705 C16.9017396,16.8970051 16.8760377,16.8936232 16.8510121,16.8956523 C16.9051215,16.6947713 17.0059002,16.5033594 17.1661992,16.3471186 C17.3995459,16.1198592 17.7039111,16.0129932 18.0076,16.016375 C17.8574465,16.4763047 17.9534906,16.9991365 18.3139943,17.3691094 C18.7414584,17.8067189 19.3928,17.8858539 19.9061627,17.6098961 C19.5341607,17.6727982 19.1398387,17.5598449 18.8584699,17.2703598 C18.399893,16.8002846 18.4100385,16.0468115 18.8794373,15.5922928 C19.013358,15.4590484 19.1729807,15.3724734 19.339367,15.3170113 C19.5957102,15.4996305 19.9027809,15.57606 20.2037643,15.5537398 C20.098251,15.9866148 20.2084988,16.462101 20.5419479,16.8043428 C20.8145238,17.0830061 21.1797621,17.2142213 21.5416186,17.2020467 C21.3163883,17.6910602 21.3989051,18.2862633 21.7959326,18.6934363 C22.2227203,19.1303695 22.8747383,19.2074754 23.3867482,18.9328703 C23.0147463,18.9950961 22.6197479,18.8821428 22.3390555,18.5926576 C21.8798021,18.1246115 21.8892713,17.3711385 22.3593465,16.915267 C22.5609039,16.7184441 22.8145416,16.61496 23.0735902,16.5906107 C23.1878963,16.6183418 23.3055842,16.6338982 23.4232721,16.6325455 C23.3427844,17.0471586 23.4597959,17.4935609 23.7770121,17.8188936 C24.0171225,18.0650912 24.3262223,18.1929246 24.6434385,18.2132156 C24.3925063,18.2592086 24.1510432,18.3721619 23.9542203,18.5649266 C23.4259775,19.0809947 23.4138029,19.9284828 23.9305475,20.4587547 C24.3566588,20.8963643 25.007324,20.9754992 25.5206867,20.698865 C25.1507139,20.7617672 24.7570682,20.6501666 24.4723176,20.357976 C24.0150934,19.8892535 24.0252389,19.1371332 24.4946377,18.679909 C24.6596713,18.5189336 24.8605523,18.4228895 25.0688734,18.3782492 C25.1304229,18.5771012 25.2318779,18.7651312 25.386766,18.9247539 C25.6789566,19.2230318 26.0739551,19.3508652 26.4581316,19.3150178 C26.5061537,19.5679791 26.6238416,19.8107949 26.817959,20.0082941 C26.9410578,20.1354512 27.085124,20.2281135 27.2386594,20.2950738 C27.0364256,20.3539178 26.8477191,20.4594311 26.6880965,20.6170246 C26.1598537,21.1324164 26.1490318,21.9812572 26.6657764,22.5108527 C27.0912113,22.9491387 27.7425529,23.0255682 28.2552393,22.7523158 C27.8839137,22.8138652 27.4875625,22.7009119 27.2055174,22.410074 C26.7496459,21.9413516 26.759115,21.1885549 27.2264848,20.7326834 C27.451715,20.5142168 27.7405238,20.4046453 28.0306854,20.3978816 C28.0915584,20.5913227 28.1923371,20.7752945 28.343167,20.9295062 C28.6367104,21.2291369 29.0323852,21.3562939 29.4185908,21.3197701 C29.4801402,21.5138875 29.5815953,21.6978594 29.7317488,21.8534238 C30.1585365,22.290357 30.8098781,22.3681393 31.3225645,22.0928578 C30.9498861,22.15576 30.5555641,22.043483 30.2741953,21.7533215 C29.8162947,21.2832463 29.8257639,20.5324787 30.2944863,20.0752545 C30.5224221,19.8534061 30.8146127,19.74654 31.1074797,19.7431582 C31.1297998,20.0461707 31.2488404,20.3458014 31.4794816,20.5811771 C31.7459703,20.8544295 32.0983576,20.9863211 32.4514213,20.9815865 C32.4696832,21.2927154 32.5894002,21.5984334 32.8240996,21.8398965 C33.2508873,22.2768297 33.9008762,22.3559646 34.4142389,22.0806832 C34.0422369,22.1435854 33.6492676,22.0299557 33.3665461,21.7397941 C33.1230539,21.4902146 33.0155115,21.1608238 33.0371553,20.8375203 C33.0479771,20.8300803 33.058799,20.8266984 33.0702973,20.8226402 C33.058799,20.8233166 33.0493299,20.8219639 33.0371553,20.8233166 C33.0574463,20.5446533 33.171076,20.2720773 33.3868371,20.0617271 C33.6100383,19.8452896 33.8961416,19.7350418 34.184274,19.7276018 C34.204565,20.0339961 34.3249584,20.3370086 34.5569523,20.5771189 C34.9823873,21.0140521 35.6337289,21.091158 36.1470916,20.8165529 C35.7764424,20.8787787 35.3800912,20.7678545 35.0980461,20.477693 C34.8471139,20.2199971 34.742277,19.879108 34.7706844,19.5483645 C34.790299,19.5368662 34.8099137,19.5314553 34.828852,19.5219861 C34.8099137,19.525368 34.7916518,19.5226625 34.7740662,19.5246916 C34.8017973,19.2582029 34.9133979,18.9998307 35.1190135,18.7975969 C35.4030877,18.5229918 35.7879406,18.4215367 36.1497971,18.4830861 C36.1531789,18.8145061 36.2769541,19.1445732 36.52721,19.4009164 C36.954674,19.8371732 37.6053393,19.9156318 38.1193783,19.6403504 C37.7473764,19.7025762 37.3523779,19.5909756 37.0696564,19.3014904 C36.6110795,18.8314152 36.6225777,18.0779422 37.0899475,17.6213943 C37.1907262,17.5239975 37.3070613,17.455008 37.4281311,17.4008986 C37.547848,17.4184842 37.6702705,17.4164551 37.7933693,17.401575 C37.5924883,17.8817957 37.6844742,18.4567078 38.0700035,18.853059 C38.4961148,19.2893158 39.1481328,19.367098 39.6601428,19.0918166 C39.2894936,19.1547187 38.8938188,19.0431182 38.61245,18.7516039 C38.1545494,18.2828814 38.1640186,17.5294084 38.632741,17.0748896 C38.8092729,16.9030924 39.0230049,16.8050191 39.2468824,16.7651135 C39.3091082,16.8997105 39.3902723,17.0282203 39.498491,17.1411736 C39.8062381,17.4543316 40.2269385,17.5794596 40.6314061,17.5260266 C40.6631953,17.8080717 40.7829123,18.0847059 40.995968,18.3031725 C41.4227557,18.740782 42.0740973,18.819917 42.5881363,18.5439592 C42.215458,18.6055086 41.8197832,18.4932316 41.5377381,18.2023937 C41.0791611,17.7343477 41.089983,16.9822273 41.5593818,16.5243268 C41.7271209,16.3613223 41.9340893,16.2646018 42.1478213,16.2206379 C42.2066652,16.4188135 42.3081203,16.6068436 42.4630084,16.7651135 C42.8884434,17.2020467 43.5418141,17.2811816 44.053824,17.0059002 C43.6824984,17.0660969 43.2868236,16.9544963 43.0041021,16.6650111 C42.5462016,16.1956123 42.5576998,15.443492 43.0250695,14.9862678 C43.1758994,14.8401725 43.3564895,14.7441283 43.5431668,14.6927244 C43.5769852,14.7366883 43.608098,14.7820049 43.646651,14.8219105 C44.0747914,15.2588437 44.7247803,15.3379787 45.2374666,15.0613445 C44.8647883,15.1235703 44.4711426,15.0126461 44.1884211,14.7204555 C43.7305205,14.2530857 43.740666,13.5002891 44.2093885,13.0430648 C44.49955,12.7569615 44.899283,12.6555064 45.2692559,12.7278777 Z M36.7707021,13.7106393 C37.0392199,13.9865971 37.3949891,14.119165 37.7494055,14.111725 C37.7088234,14.325457 37.7237035,14.5466291 37.7879584,14.7556266 C37.4031055,14.7089572 36.9993143,14.8252924 36.6983309,15.1188357 C36.5468246,15.2669602 36.4433404,15.4421393 36.3763801,15.6288166 C36.1937609,15.5720018 36.0239928,15.471223 35.882632,15.3251277 C35.4260842,14.8564053 35.434877,14.1049613 35.9035994,13.6477371 C36.0801313,13.4759398 36.2958924,13.3798957 36.5204463,13.3386373 C36.5826721,13.4712053 36.661807,13.5983623 36.7707021,13.7106393 Z M33.9184617,16.528385 C33.4605611,16.0603389 33.4727357,15.3068658 33.9421346,14.8509943 C34.222827,14.5763893 34.604298,14.4735814 34.9668309,14.5337781 C34.9763,14.8570816 35.0966934,15.1770033 35.3408619,15.4265828 C35.4910154,15.5794418 35.6682236,15.6849551 35.8569301,15.7505627 C35.541743,15.76409 35.2312904,15.883807 34.9877982,16.1212119 C34.7760953,16.329533 34.6496146,16.5926398 34.6056508,16.8672449 C34.3547186,16.8334266 34.1112264,16.7238551 33.9184617,16.528385 Z M34.5914471,17.001842 C34.589418,17.0248385 34.5846834,17.0485113 34.5846834,17.0721842 C34.5183994,17.0512168 34.4514391,17.0363367 34.3797441,17.0255148 C34.4514391,17.0234857 34.5211049,17.0153693 34.5914471,17.001842 Z M30.7233031,16.5033594 C30.2660789,16.0339605 30.2762244,15.2818402 30.7462996,14.8239396 C30.9424461,14.6338805 31.1893201,14.5310727 31.4436342,14.5033416 C31.4449869,14.8388197 31.5694385,15.1736215 31.8223998,15.4340229 C31.9759352,15.5902637 32.1585543,15.7005115 32.3526717,15.7634137 C32.1071504,15.8121121 31.8738037,15.9243891 31.6817154,16.1130955 C31.4774525,16.3126238 31.3523246,16.561527 31.3022734,16.8226047 C31.0892178,16.7732299 30.8876604,16.6717748 30.7233031,16.5033594 Z M31.2840115,16.9916965 C31.2826588,17.0065766 31.279277,17.0234857 31.279277,17.0390422 C31.2386949,17.0248385 31.1974365,17.0133402 31.1555018,17.0031947 C31.1974365,17.0038711 31.2400477,16.9957547 31.2840115,16.9916965 Z M29.5180168,18.4959371 C29.3543359,18.4391223 29.1920078,18.3545764 29.0567344,18.226743 C28.8889953,18.0705021 28.7794238,17.8777375 28.7185508,17.6755037 C28.7219326,17.674151 28.7253145,17.6727982 28.730049,17.6707691 C28.7253145,17.6707691 28.722609,17.6707691 28.717198,17.6707691 C28.590041,17.2534506 28.6799979,16.7833754 28.9999195,16.4438391 C29.2352953,16.1942596 29.5471006,16.0650734 29.8643168,16.0535752 C29.9238371,16.2537799 30.0259686,16.4445154 30.1822094,16.6041381 C30.3655049,16.7914918 30.5907352,16.9091797 30.8288164,16.9653182 C30.4953674,16.9653182 30.1639475,17.0877406 29.9055752,17.3393492 C29.5843008,17.6498018 29.4578201,18.0833531 29.5180168,18.4959371 Z M28.0645037,17.5848705 C27.9244957,17.5246738 27.7926041,17.4468916 27.6803271,17.3312328 C27.2237793,16.8625104 27.2339248,16.1083609 27.7019709,15.6524895 C27.8656518,15.4935432 28.063151,15.397499 28.2701193,15.3508297 C28.3249051,15.4421393 28.3864545,15.5280379 28.4622076,15.6078492 C28.6326521,15.7830283 28.8430023,15.8980107 29.0621453,15.9575311 C28.8260932,16.0258441 28.602892,16.1523248 28.422302,16.3444131 C28.0969693,16.6893604 27.9819869,17.1526719 28.0645037,17.5848705 Z M26.7800824,16.716415 C26.7665551,16.7184441 26.7550568,16.7184441 26.7435586,16.7197969 C26.6001688,16.6738039 26.4506916,16.6535129 26.3025672,16.6582475 C26.1355045,16.5987271 25.9785873,16.5053885 25.8466957,16.370115 C25.3887951,15.9027453 25.3982643,15.1492723 25.8696922,14.6927244 C26.0617805,14.5033416 26.3066254,14.4018865 26.558234,14.37145 C26.6204598,14.53716 26.7165039,14.6927244 26.8483955,14.8273215 C27.0830949,15.0674318 27.3881365,15.1972943 27.6985891,15.2202908 C27.5037953,15.2798111 27.3204998,15.3839717 27.164259,15.5354779 C26.8362209,15.8526941 26.7090639,16.2984201 26.7800824,16.716415 Z M29.8190002,15.8581051 C29.522075,15.8493123 29.2285316,15.736359 29.0046541,15.5070705 C28.5460771,15.0363189 28.5555463,14.284875 29.0242688,13.8276508 C29.1906551,13.6666754 29.3915361,13.5713076 29.5998572,13.525991 C29.6519375,13.7593377 29.7628617,13.9811861 29.942099,14.1638053 C30.0996926,14.3261334 30.2890754,14.4384104 30.4913092,14.5026652 C30.3898541,14.5588037 30.29381,14.6250877 30.2065586,14.7089572 C29.888666,15.0187334 29.761509,15.4495793 29.8190002,15.8581051 Z M29.8365857,15.955502 C29.8250875,15.9527965 29.8129129,15.950091 29.7993855,15.9460328 C29.8108838,15.9440037 29.8217057,15.942651 29.8311748,15.9379164 C29.8332039,15.9446801 29.8365857,15.9494146 29.8365857,15.955502 Z M33.2123344,13.3237572 C33.25224,13.5875404 33.3706043,13.8411781 33.5735145,14.0481465 C33.7277262,14.2050637 33.9089926,14.3159879 34.1051391,14.3802428 C33.8481195,14.4235303 33.6025982,14.5385127 33.4010408,14.7333064 C33.1399631,14.9882969 33.005366,15.323775 32.997926,15.662635 C32.7666084,15.6193475 32.5407018,15.5151869 32.3634936,15.3332441 C31.905593,14.8638453 31.9164148,14.1103723 32.3858137,13.6545008 C32.6164549,13.4306232 32.9133801,13.3237572 33.2123344,13.3237572 Z M33.1027629,13.2067457 C33.1345521,13.1932184 33.1670178,13.1776619 33.1981307,13.1648109 C33.1994834,13.1884838 33.2021889,13.2121566 33.204218,13.2351531 C33.171076,13.2250076 33.1365813,13.2155385 33.1027629,13.2067457 Z M32.2214564,16.2287543 C32.4419521,16.0136695 32.7287318,15.9027453 33.0155115,15.8946289 C33.0574463,16.1624703 33.1758105,16.4201662 33.3800734,16.6278109 C33.5897473,16.8442484 33.8548832,16.9727582 34.1315174,17.0133402 C33.8163303,17.0261912 33.504525,17.1465846 33.2610328,17.3839895 C33.0168643,17.6227471 32.8890309,17.9291414 32.865358,18.2429758 C32.6198367,18.2050992 32.3831082,18.0968805 32.1991363,17.9061449 C31.7419121,17.4387752 31.7513813,16.6853021 32.2214564,16.2287543 Z M34.7551279,14.4296176 C34.8281756,14.4160902 34.9012232,14.397152 34.9715654,14.3728027 C34.9675072,14.4215012 34.963449,14.470876 34.9648018,14.5175453 C34.8978414,14.4823742 34.8254701,14.4532904 34.7551279,14.4296176 Z M34.8829613,11.93991 C34.9458635,12.1232055 35.0439367,12.2956791 35.1880029,12.4431271 C35.5119828,12.7772525 35.969207,12.899675 36.3959947,12.8171582 C36.3993766,12.9355225 36.4203439,13.0538867 36.4568678,13.1688691 C36.0672803,13.1208471 35.6668709,13.2371822 35.3658875,13.531402 C35.1453918,13.7444576 35.0202639,14.0170336 34.9803582,14.297726 C34.6658475,14.3031369 34.3506604,14.19086 34.1159609,13.9487205 C33.657384,13.4786453 33.6688822,12.726525 34.136252,12.267948 C34.3452494,12.0650379 34.6130908,11.9581719 34.8829613,11.93991 Z M32.2573039,11.1086547 C32.4554795,10.9131846 32.7064117,10.8097004 32.9627549,10.7839984 C32.9884568,11.0836291 33.1074975,11.3764961 33.3327277,11.6091664 C33.4896449,11.7708182 33.6803805,11.8830951 33.8819379,11.94735 C33.7831883,12.0041648 33.6844387,12.0704488 33.5978637,12.1543184 C33.3232586,12.4214834 33.1906906,12.7772525 33.1961016,13.133698 C32.852507,13.1641346 32.4953852,13.0552395 32.2343074,12.7867217 C31.7770832,12.3166465 31.7865523,11.5658789 32.2573039,11.1086547 Z M31.3164771,11.8952697 C31.3158008,11.9175898 31.3151244,11.93991 31.3151244,11.9622301 C31.2840115,11.9520846 31.2528986,11.9446445 31.2238148,11.934499 C31.2549277,11.9236771 31.2853643,11.9087971 31.3164771,11.8952697 Z M31.3232408,12.0528633 C31.3455609,12.3558758 31.4646016,12.652801 31.6932137,12.8875004 C31.8731273,13.0714723 32.0922703,13.1871311 32.3242643,13.2446223 C32.1511143,13.3075244 31.9874334,13.4015395 31.8474254,13.538842 C31.6100205,13.7715123 31.4835398,14.0691139 31.4544561,14.3748318 C31.2860406,14.3328971 31.1108615,14.3234279 30.9410934,14.3498063 C30.7733543,14.2916387 30.6177898,14.1976236 30.4845455,14.0630266 C30.028674,13.5943041 30.0388195,12.8435365 30.5068656,12.3849596 C30.7348014,12.1637875 31.0290211,12.0562451 31.3232408,12.0528633 Z M28.8430023,11.3332086 C29.0235924,11.155324 29.249499,11.0579271 29.4835221,11.020727 C29.5403369,11.2378408 29.6465266,11.4454855 29.8135893,11.6166064 C29.9935029,11.799902 30.2126459,11.9155607 30.4453162,11.9723756 C30.2721662,12.0366305 30.1091617,12.1306455 29.967801,12.267948 C29.6674939,12.5614914 29.5410133,12.960548 29.5741553,13.3501355 C29.5261332,13.3426955 29.4787875,13.3386373 29.4307654,13.3372846 C29.2055352,13.291968 28.9924795,13.1898365 28.8213586,13.0133047 C28.3627816,12.5432295 28.3722508,11.7917855 28.8430023,11.3332086 Z M28.0266271,12.7400523 C28.0915584,12.873973 28.170017,13.0018064 28.2795885,13.1127307 C28.4439457,13.2824988 28.6421213,13.3961285 28.8538242,13.459707 C28.7219326,13.5205801 28.5974811,13.6044496 28.4872332,13.711992 C28.1104967,14.0792594 28.0016016,14.6122367 28.1510787,15.0802828 C27.8717391,15.0599918 27.6011922,14.9436566 27.3894893,14.7278955 C26.932265,14.2578203 26.9410578,13.5050236 27.411133,13.0484758 C27.5869885,12.8787076 27.8041023,12.7806344 28.0266271,12.7400523 Z M26.0773369,11.461042 C26.2538688,11.2905975 26.4709826,11.1932006 26.6941838,11.1526186 C26.7570859,11.2858629 26.8362209,11.4136963 26.9457924,11.5246205 C27.2136338,11.799902 27.5700793,11.9331463 27.9238193,11.9263826 C27.8832373,12.1401146 27.8994701,12.3612867 27.963725,12.5709605 C27.576843,12.5242912 27.1730518,12.63995 26.8734211,12.9341697 C26.7212385,13.0822941 26.6164016,13.2574732 26.5507939,13.4441506 C26.3695275,13.3873357 26.1970539,13.286557 26.0563695,13.1411381 C25.5991453,12.6717393 25.6092908,11.9182662 26.0773369,11.461042 Z M25.5145994,13.2392113 C25.7824408,13.5151691 26.1395627,13.6477371 26.4939791,13.6402971 C26.4561025,13.8337381 26.466248,14.0346191 26.5162992,14.2253547 C26.1010098,14.144867 25.6559602,14.2584967 25.3279221,14.5757129 C25.2163215,14.6873135 25.1310992,14.8151469 25.066168,14.9490676 C24.8659633,14.8969873 24.6759041,14.7955322 24.5189869,14.6372623 C24.0624391,14.1671871 24.0719082,13.4137141 24.5426598,12.9585189 C24.7239262,12.7813107 24.9498328,12.6832375 25.1831795,12.6460373 C25.2406707,12.8617984 25.3468604,13.0680904 25.5145994,13.2392113 Z M23.268384,10.9909668 C23.4516795,10.8137586 23.675557,10.7156854 23.9102564,10.6784852 C23.968424,10.8942463 24.0739373,11.101891 24.2416764,11.2730119 C24.5304852,11.5692607 24.9214254,11.6977705 25.3042492,11.6639521 C25.1655939,11.9202953 25.1128373,12.2050459 25.1513902,12.4850619 C24.7469227,12.4174252 24.320135,12.5344367 24.0042715,12.8421838 C23.9542203,12.8915586 23.9129619,12.9436389 23.8730563,12.9977482 C23.6437678,12.9537844 23.4225957,12.8503002 23.2467402,12.6703865 C22.789516,12.2003113 22.7989852,11.448191 23.268384,10.9909668 Z M22.7049701,12.7691361 C22.9944553,13.0660613 23.3860719,13.192542 23.7682193,13.1614291 C23.6288877,13.4143904 23.5774838,13.7025229 23.6160367,13.9818625 C23.2115691,13.9149021 22.7841051,14.0292082 22.4668889,14.3376316 C22.4181904,14.3856537 22.376932,14.4384104 22.3370264,14.4931961 C22.1070615,14.4492322 21.8858895,14.345748 21.7113867,14.1658344 C21.2548389,13.6971119 21.264308,12.9436389 21.7343832,12.4877674 C21.9156496,12.3092064 22.142909,12.2104568 22.3749029,12.1732566 C22.4323941,12.3903705 22.5379074,12.5966625 22.7049701,12.7691361 Z M20.4005871,10.90101 C20.5832063,10.7217727 20.8077602,10.623023 21.0417832,10.5858229 C21.098598,10.8036131 21.2041113,11.0105814 21.3718504,11.1817023 C21.6396918,11.4569838 21.9961373,11.5895518 22.3512301,11.5827881 C22.3241754,11.7255016 22.3228227,11.8722732 22.3417609,12.0163395 C21.9386461,11.94735 21.511182,12.0630088 21.1932895,12.3707559 C21.0431359,12.5188803 20.9389754,12.6947357 20.872015,12.8814131 C20.691425,12.8245982 20.5209805,12.7244959 20.3789434,12.5784006 C19.9210428,12.107649 19.9311883,11.3568814 20.4005871,10.90101 Z M17.7958971,11.2987139 C17.6450672,11.4461619 17.5409066,11.6220174 17.4746227,11.8086947 C17.2940326,11.7525563 17.1229117,11.6517775 16.9808746,11.5056822 C16.522974,11.0362834 16.5337959,10.2848395 17.0025184,9.82761523 C17.2757707,9.56383203 17.6376271,9.46237695 17.9852799,9.50904629 C17.8297154,9.96965234 17.9264359,10.4992479 18.2889688,10.8719262 C18.3227871,10.9070973 18.3606637,10.9355047 18.3978639,10.9652648 C18.1773682,11.0193742 17.9697234,11.1302984 17.7958971,11.2987139 Z M16.6264582,16.2307834 C16.4560137,16.3978461 16.3444131,16.6014326 16.2821873,16.8138119 C16.1367684,16.7542916 15.996084,16.6717748 15.8783961,16.5527342 C15.4218482,16.082659 15.4313174,15.3305387 15.8993635,14.8739908 C16.056957,14.7211318 16.2463398,14.6250877 16.4445154,14.5770656 C16.4445154,14.9132201 16.5696434,15.2493746 16.8219283,15.5090996 C16.9950783,15.6876605 17.2061049,15.802643 17.4279533,15.8621633 C17.1377918,15.8898943 16.8530412,16.0102877 16.6264582,16.2307834 Z M18.0305965,15.9419746 C17.9852799,15.9237127 17.9392869,15.9122145 17.8926176,15.9000398 C17.9487561,15.8953053 18.0042182,15.8878652 18.0596803,15.8770434 C18.0495348,15.8980107 18.0387129,15.9196545 18.0305965,15.9419746 Z M18.3376672,15.4746049 C18.2497395,15.5625326 18.1814264,15.6599295 18.1205533,15.7627373 C17.8432428,15.7424463 17.5713432,15.6247584 17.3630221,15.41035 C16.9051215,14.9402748 16.9159434,14.1874781 17.3853422,13.732283 C17.5760777,13.546282 17.8155117,13.444827 18.0617094,13.4123613 C18.333609,13.5692785 18.6481197,13.625417 18.9504559,13.5746895 C18.679909,14.0596447 18.7299602,14.6737861 19.112784,15.1073375 C18.8320916,15.1411559 18.5574865,15.2615492 18.3376672,15.4746049 Z M19.179068,13.2655896 C19.1229295,13.3203754 19.0769365,13.3792193 19.0343254,13.4380633 C18.7705422,13.4110086 18.5128463,13.2980553 18.3153471,13.0937924 C17.8574465,12.6243936 17.8682684,11.8722732 18.3369908,11.4143727 C18.4553551,11.300743 18.5913049,11.2229607 18.7360475,11.168175 C18.9964488,11.275041 19.2845813,11.295332 19.5598627,11.2304008 C19.3610107,11.7106215 19.4502912,12.2828281 19.8358205,12.6798557 C19.9203664,12.7650779 20.0157342,12.8340674 20.1158365,12.8929113 C19.7776529,12.8915586 19.4408221,13.0112756 19.179068,13.2655896 Z M20.25855,15.3758553 C20.0515816,15.3244514 19.8567879,15.2236727 19.6964889,15.0606682 C19.2385883,14.590593 19.2487338,13.839149 19.7174563,13.3819248 C19.9426865,13.1634582 20.2308189,13.0545631 20.5216568,13.0484758 C20.617701,13.0674141 20.717127,13.0816178 20.8138475,13.0789123 C20.7347125,13.4935254 20.8524004,13.9392514 21.1696166,14.264584 C21.2798645,14.3795664 21.4083742,14.4681705 21.544324,14.5351309 C21.1926131,14.5209271 20.838873,14.6447023 20.5669734,14.9084855 C20.4262891,15.0444354 20.3255104,15.2054107 20.25855,15.3758553 Z M21.8202818,16.7982555 C21.750616,16.8665686 21.6910957,16.9396162 21.6396918,17.0187512 C21.4361053,16.9673473 21.2413115,16.8658922 21.083718,16.7042404 C20.6244646,16.2341652 20.6366393,15.4813686 21.1053617,15.0254971 C21.396876,14.7414229 21.7959326,14.6379387 22.1659055,14.71031 C22.1307344,14.692048 22.0942105,14.6785207 22.0583631,14.6616115 C22.1165307,14.6636406 22.1740219,14.6636406 22.2315131,14.6595824 C21.9575844,15.1607705 22.0218393,15.8012902 22.4425396,16.2321361 C22.5182928,16.3105947 22.6021623,16.3721441 22.69009,16.4262535 C22.3749029,16.4411336 22.0651268,16.5601742 21.8202818,16.7982555 Z M23.4787342,16.436399 C23.2967914,16.3795842 23.1263469,16.2788055 22.9836334,16.1340629 C22.5277619,15.6639877 22.5379074,14.9105146 23.0079826,14.4539668 C23.1878963,14.2767586 23.4144793,14.1793617 23.6471496,14.1421615 C23.7053172,14.3592754 23.8101541,14.564891 23.9785695,14.738041 C24.2545273,15.0207625 24.6265293,15.150625 24.9924439,15.1337158 C24.9484801,15.2750766 24.9254836,15.4204955 24.9295418,15.5679436 C24.5304852,15.5084232 24.1118139,15.624082 23.800685,15.9257418 C23.6498551,16.0731898 23.5450182,16.2497217 23.4787342,16.436399 Z M24.9843275,18.193601 C24.9985313,18.1915719 25.0100295,18.1868373 25.0235568,18.1821027 C25.0249096,18.1888664 25.0242332,18.193601 25.0249096,18.1976592 C25.0113822,18.1983355 24.9971785,18.1949537 24.9843275,18.193601 Z M25.0147641,18.0596803 C24.7590973,18.0265383 24.5115469,17.9176432 24.3181059,17.7174385 C23.8622344,17.2493924 23.8710271,16.4972721 24.3411023,16.0393715 C24.5128996,15.8729852 24.7232498,15.7762646 24.9437455,15.7336535 C24.9836512,16.0021713 25.1020154,16.2598672 25.305602,16.4702174 C25.4435809,16.6115781 25.6032035,16.7103277 25.7763535,16.7779645 C25.6437855,16.8388375 25.5213631,16.9233834 25.4111152,17.0302494 C25.1243355,17.3102654 24.9937967,17.6876783 25.0147641,18.0596803 Z M26.4425752,19.1303695 C26.2538688,19.0776129 26.0746314,18.9761578 25.9258307,18.8239752 C25.4692828,18.3545764 25.4814574,17.600427 25.9488271,17.1459082 C26.0962752,17.0052238 26.2673961,16.9064742 26.4506916,16.8537176 C26.4743645,16.8510121 26.4946555,16.8476303 26.5162992,16.8449248 C26.6109906,16.8239574 26.7070348,16.8131355 26.8030789,16.8151646 C26.858541,17.0390422 26.9667598,17.2520979 27.1399098,17.4299824 C27.2812705,17.5754014 27.4503623,17.6775328 27.630276,17.7438168 C27.3434963,17.7742533 27.0641566,17.895323 26.8409555,18.1124369 C26.5575576,18.3904238 26.4276951,18.7631021 26.4425752,19.1303695 Z M27.9860451,20.2362299 C27.7547275,20.192266 27.5355846,20.0887818 27.3577,19.9081918 C26.8997994,19.4394693 26.9099449,18.687349 27.3793438,18.2301248 C27.5984867,18.0190982 27.8751209,17.9074977 28.1558133,17.8959994 C28.23089,18.0650912 28.3404615,18.2233611 28.4845277,18.3586346 C28.6536195,18.5155518 28.8504424,18.6224178 29.056058,18.6826145 C28.8044494,18.7272547 28.5636627,18.8408844 28.3661635,19.033649 C28.0360963,19.3569525 27.9075865,19.8101186 27.9860451,20.2362299 Z M29.7567744,19.9575666 C29.4334709,20.2734301 29.3049611,20.7130688 29.3705688,21.1290346 C29.1920078,21.0715434 29.0249451,20.9721174 28.8849371,20.8280512 C28.4277129,20.3600051 28.437182,19.6085611 28.9052281,19.1506605 C29.1067855,18.9558668 29.356365,18.853059 29.6127082,18.8266807 C29.6762867,18.9734523 29.7635381,19.1121076 29.881226,19.232501 C30.0631688,19.4191783 30.2856936,19.5348371 30.5183639,19.591652 C30.240377,19.6254703 29.9718592,19.7458637 29.7567744,19.9575666 Z M31.100716,19.6498195 C31.0641922,19.6389977 31.0290211,19.6288521 30.9931736,19.6187066 C31.0303738,19.6146484 31.0641922,19.6092375 31.1020688,19.6038266 C31.100716,19.6187066 31.100716,19.6349395 31.100716,19.6498195 Z M31.1162725,19.4726113 C30.861282,19.4381166 30.6150844,19.3298979 30.4236725,19.1323986 C30.2654025,18.9714232 30.1673293,18.7752768 30.12066,18.5703375 C30.1429801,18.5588393 30.1653002,18.5507229 30.1862676,18.5378719 C30.161242,18.5439592 30.1382455,18.5426064 30.1132199,18.5453119 C30.0347613,18.1618117 30.1436564,17.7471986 30.4453162,17.4536553 C30.6786629,17.2257195 30.980999,17.1208826 31.2833352,17.1242645 C31.2948334,17.4441861 31.4165795,17.760726 31.6580426,18.0082764 C31.8088725,18.1638408 31.9894625,18.2707068 32.1815508,18.3356381 C31.9340004,18.3829838 31.6986246,18.4959371 31.5045072,18.6859963 C31.279277,18.9037865 31.154149,19.1824498 31.1162725,19.4726113 Z M32.8464197,19.9433629 C32.6157785,20.1685932 32.4899742,20.4594311 32.4568322,20.7563563 C32.2978859,20.6981887 32.1463797,20.6095846 32.019899,20.4797221 C31.5619984,20.0109996 31.5714676,19.2582029 32.0408664,18.8016551 C32.2715076,18.5764248 32.5691092,18.4702352 32.8667107,18.4702352 C32.8951182,18.7651312 33.0134824,19.0519109 33.2353309,19.2798467 C33.3651934,19.4124146 33.5153469,19.5064297 33.6742932,19.57339 C33.3753389,19.5970629 33.0811191,19.7154271 32.8464197,19.9433629 Z M34.5799488,18.6792326 C34.3594531,18.8943174 34.2343252,19.166217 34.1950959,19.4475857 C34.0415605,19.3887418 33.8981707,19.3035195 33.7784537,19.1797443 C33.3198768,18.7116982 33.3306986,17.9582252 33.7987447,17.501001 C34.0212695,17.2852398 34.3060201,17.1763447 34.5934762,17.167552 C34.6130908,17.475299 34.7334842,17.7783115 34.9675072,18.0163928 C35.0946643,18.1489607 35.2454941,18.2436521 35.4044404,18.3112889 C35.1041334,18.3322563 34.8119428,18.4526496 34.5799488,18.6792326 Z M36.1464152,18.4682061 C36.1051568,18.4452096 36.0625457,18.4262713 36.0206109,18.4086857 C36.0632221,18.4046275 36.1071859,18.4032748 36.1497971,18.3958348 C36.1491207,18.420184 36.1464152,18.4431805 36.1464152,18.4682061 Z M36.5495301,17.5030301 C36.335798,17.7120275 36.2106701,17.9758107 36.1673826,18.2497395 C35.9238904,18.2105102 35.6905438,18.1049969 35.5058955,17.9149377 C35.0473186,17.4468916 35.0594932,16.6927422 35.5282156,16.2375471 C35.7466822,16.0231387 36.028051,15.9128908 36.3094197,15.9027453 C36.2600449,16.2957146 36.3763801,16.7076223 36.6739816,17.0126639 C36.7605566,17.1026207 36.8593063,17.1729629 36.9634668,17.2331596 C36.814666,17.2953854 36.6733053,17.3833131 36.5495301,17.5030301 Z M39.1805984,16.5926398 C38.7950691,16.5459705 38.3926307,16.6609529 38.093,16.9551727 C38.0165705,17.0282203 37.9536684,17.1120898 37.8988826,17.1973121 C37.7744311,17.1567301 37.6465977,17.1323809 37.5187643,17.1283227 C37.4112219,17.0721842 37.3070613,17.0038711 37.2177809,16.9118852 C36.7585275,16.4431627 36.7707021,15.6917187 37.2387482,15.2344945 C37.4146037,15.06405 37.6296885,14.9659768 37.8549188,14.9253947 C37.9157918,15.0586391 37.9962795,15.1871488 38.105851,15.298073 C38.4068344,15.6085256 38.8221238,15.7350063 39.2211805,15.6856314 C39.1014635,15.9730875 39.0899652,16.2943619 39.1805984,16.5926398 Z M39.3036973,15.5334488 C39.0629105,15.4921904 38.8302402,15.3866771 38.6442393,15.1979707 C38.1897205,14.7285719 38.1991896,13.9764516 38.6679121,13.5205801 C38.8606768,13.3318736 39.1034926,13.2310949 39.3517193,13.2013348 C39.4125924,13.3345791 39.4944328,13.4637652 39.6019752,13.5760422 C39.8725221,13.8526764 40.2323494,13.9852443 40.5921768,13.9750988 C40.4366123,14.2497039 40.3777684,14.5662438 40.4318777,14.8712854 C40.104516,14.8746672 39.7758016,14.9950605 39.5208111,15.24464 C39.432207,15.3291859 39.3625412,15.4292883 39.3036973,15.5334488 Z M41.0182881,16.4066389 C40.7524758,16.6663639 40.6178787,17.0106348 40.6151732,17.355582 C40.4034703,17.3068836 40.2019129,17.2047521 40.0389084,17.0376895 C39.5796551,16.5696434 39.590477,15.8161703 40.0598758,15.3596225 C40.1870328,15.2358473 40.3371863,15.1513014 40.4954563,15.0965156 C40.5583584,15.2689893 40.6544025,15.4319938 40.7930578,15.570649 C41.1407105,15.9291236 41.6398695,16.042077 42.0910064,15.9230363 C42.0916828,15.9622656 42.0937119,16.0021713 42.1004756,16.042077 C41.7169754,15.9974367 41.3179188,16.1144482 41.0182881,16.4066389 Z" id="Shape"></path>
                    </g>
                </g>
            </g>
        </g>
    </g>
</svg>